M48
; DRILL file KiCad 10.0.5-1-g226df246f3 date 2026-09-06T13:39:50
; FORMAT={-:-/ absolute / metric / decimal}
; #@! TF.CreationDate,2026-09-06T13:39:50+05:30
; #@! TF.GenerationSoftware,Kicad,Pcbnew,10.0.5-1-g226df246f3
; #@! TF.FileFunction,Plated,1,2,PTH
FMAT,2
METRIC
; #@! TA.AperFunction,Plated,PTH,ComponentDrill
T1C0.254
; #@! TA.AperFunction,Plated,PTH,ViaDrill
T2C0.300
; #@! TA.AperFunction,Plated,PTH,ComponentDrill
T3C0.600
; #@! TA.AperFunction,Plated,PTH,ComponentDrill
T4C0.650
; #@! TA.AperFunction,Plated,PTH,ComponentDrill
T5C1.750
%
G90
G05
T1
X1403.596Y-180.713
X1403.596Y-181.5
X1403.596Y-182.287
X1404.384Y-180.713
X1404.384Y-181.5
X1404.384Y-182.287
T2
X1386.05Y-173.0
X1386.05Y-174.27
X1386.05Y-190.77
X1386.05Y-190.77
X1386.05Y-192.04
X1390.9Y-182.5
X1395.05Y-172.55
X1396.5Y-182.5
X1396.55Y-189.95
X1400.5Y-179.5
X1401.0Y-186.5
X1402.0Y-184.5
X1402.5Y-178.5
X1403.35Y-178.65
X1406.5Y-177.0
X1406.5Y-183.5
X1409.325Y-172.0
X1409.325Y-172.0
X1416.5Y-189.0
X1417.0Y-187.5
X1430.385Y-172.06
X1431.655Y-172.06
X1433.0Y-172.0
X1434.5Y-175.8
X1438.5Y-174.58
X1438.5Y-177.12
X1438.5Y-178.39
X1438.5Y-179.66
X1438.5Y-180.93
X1438.5Y-182.2
X1438.5Y-183.47
X1438.5Y-184.74
X1438.5Y-186.01
X1438.5Y-188.5
X1438.5Y-189.82
X1457.0Y-175.88
X1457.025Y-172.095
X1457.05Y-189.69
X1461.975Y-173.365
X1461.975Y-174.635
X1462.0Y-190.96
X1462.0Y-192.23
T3
X1428.625Y-194.0
X1429.875Y-194.0
X1431.125Y-194.0
X1432.375Y-194.0
X1445.0Y-173.5
X1445.0Y-174.75
X1445.0Y-176.0
X1445.0Y-177.25
X1445.0Y-178.5
X1445.0Y-179.75
X1445.0Y-181.0
X1445.0Y-182.25
X1445.0Y-183.5
X1445.0Y-184.75
T4
X1395.0Y-170.0
X1396.0Y-194.0
X1396.27Y-170.0
X1397.27Y-194.0
X1450.5Y-170.0
X1450.73Y-194.0
X1451.77Y-170.0
X1452.0Y-194.0
T5
X1470.75Y-170.593
X1470.75Y-174.472
M30
