%TF.GenerationSoftware,KiCad,Pcbnew,10.0.5-1-g226df246f3*%
%TF.CreationDate,2026-09-06T13:39:45+05:30*%
%TF.ProjectId,lux,6c75782e-6b69-4636-9164-5f7063625858,rev?*%
%TF.SameCoordinates,Original*%
%TF.FileFunction,Paste,Top*%
%TF.FilePolarity,Positive*%
%FSLAX46Y46*%
G04 Gerber Fmt 4.6, Leading zero omitted, Abs format (unit mm)*
G04 Created by KiCad (PCBNEW 10.0.5-1-g226df246f3) date 2026-09-06 13:39:45*
%MOMM*%
%LPD*%
G01*
G04 APERTURE LIST*
G04 Aperture macros list*
%AMRoundRect*
0 Rectangle with rounded corners*
0 $1 Rounding radius*
0 $2 $3 $4 $5 $6 $7 $8 $9 X,Y pos of 4 corners*
0 Add a 4 corners polygon primitive as box body*
4,1,4,$2,$3,$4,$5,$6,$7,$8,$9,$2,$3,0*
0 Add four circle primitives for the rounded corners*
1,1,$1+$1,$2,$3*
1,1,$1+$1,$4,$5*
1,1,$1+$1,$6,$7*
1,1,$1+$1,$8,$9*
0 Add four rect primitives between the rounded corners*
20,1,$1+$1,$2,$3,$4,$5,0*
20,1,$1+$1,$4,$5,$6,$7,0*
20,1,$1+$1,$6,$7,$8,$9,0*
20,1,$1+$1,$8,$9,$2,$3,0*%
G04 Aperture macros list end*
%ADD10C,0.000000*%
%ADD11RoundRect,0.150000X0.825000X0.150000X-0.825000X0.150000X-0.825000X-0.150000X0.825000X-0.150000X0*%
%ADD12RoundRect,0.150000X-0.825000X-0.150000X0.825000X-0.150000X0.825000X0.150000X-0.825000X0.150000X0*%
%ADD13R,1.498600X0.889000*%
%ADD14R,0.889000X1.498600*%
%ADD15R,0.889000X0.889000*%
%ADD16RoundRect,0.200000X-0.200000X-0.275000X0.200000X-0.275000X0.200000X0.275000X-0.200000X0.275000X0*%
%ADD17R,2.600000X8.200000*%
%ADD18RoundRect,0.112500X-0.187500X-0.112500X0.187500X-0.112500X0.187500X0.112500X-0.187500X0.112500X0*%
%ADD19RoundRect,0.140000X-0.170000X0.140000X-0.170000X-0.140000X0.170000X-0.140000X0.170000X0.140000X0*%
%ADD20RoundRect,0.250000X-0.250000X-0.475000X0.250000X-0.475000X0.250000X0.475000X-0.250000X0.475000X0*%
%ADD21RoundRect,0.250000X-0.325000X-0.650000X0.325000X-0.650000X0.325000X0.650000X-0.325000X0.650000X0*%
%ADD22RoundRect,0.250000X0.250000X0.475000X-0.250000X0.475000X-0.250000X-0.475000X0.250000X-0.475000X0*%
%ADD23RoundRect,0.250000X0.475000X-0.250000X0.475000X0.250000X-0.475000X0.250000X-0.475000X-0.250000X0*%
%ADD24RoundRect,0.250000X-0.475000X0.250000X-0.475000X-0.250000X0.475000X-0.250000X0.475000X0.250000X0*%
%ADD25RoundRect,0.140000X-0.140000X-0.170000X0.140000X-0.170000X0.140000X0.170000X-0.140000X0.170000X0*%
%ADD26RoundRect,0.140000X0.140000X0.170000X-0.140000X0.170000X-0.140000X-0.170000X0.140000X-0.170000X0*%
%ADD27RoundRect,0.140000X0.170000X-0.140000X0.170000X0.140000X-0.170000X0.140000X-0.170000X-0.140000X0*%
G04 APERTURE END LIST*
D10*
%TO.C,U5*%
G36*
X1402890000Y-180140000D02*
G01*
X1402070001Y-180140000D01*
X1402070001Y-179860001D01*
X1402890000Y-179860001D01*
X1402890000Y-180140000D01*
G37*
G36*
X1402890000Y-180639999D02*
G01*
X1402070001Y-180639999D01*
X1402070001Y-180360000D01*
X1402890000Y-180360000D01*
X1402890000Y-180639999D01*
G37*
G36*
X1402890000Y-181140001D02*
G01*
X1402070001Y-181140001D01*
X1402070001Y-180860001D01*
X1402890000Y-180860001D01*
X1402890000Y-181140001D01*
G37*
G36*
X1402890000Y-181640000D02*
G01*
X1402070001Y-181640000D01*
X1402070001Y-181360000D01*
X1402890000Y-181360000D01*
X1402890000Y-181640000D01*
G37*
G36*
X1402890000Y-182140001D02*
G01*
X1402070001Y-182140001D01*
X1402070001Y-181859999D01*
X1402890000Y-181859999D01*
X1402890000Y-182140001D01*
G37*
G36*
X1402890000Y-182640000D02*
G01*
X1402070001Y-182640000D01*
X1402070001Y-182360001D01*
X1402890000Y-182360001D01*
X1402890000Y-182640000D01*
G37*
G36*
X1402890000Y-183139999D02*
G01*
X1402070001Y-183139999D01*
X1402070001Y-182860000D01*
X1402890000Y-182860000D01*
X1402890000Y-183139999D01*
G37*
G36*
X1405909999Y-183139999D02*
G01*
X1405090000Y-183139999D01*
X1405090000Y-182860000D01*
X1405909999Y-182860000D01*
X1405909999Y-183139999D01*
G37*
G36*
X1405909999Y-182640000D02*
G01*
X1405090000Y-182640000D01*
X1405090000Y-182360001D01*
X1405909999Y-182360001D01*
X1405909999Y-182640000D01*
G37*
G36*
X1405909999Y-182139999D02*
G01*
X1405090000Y-182139999D01*
X1405090000Y-181859999D01*
X1405909999Y-181859999D01*
X1405909999Y-182139999D01*
G37*
G36*
X1405909999Y-181640000D02*
G01*
X1405090000Y-181640000D01*
X1405090000Y-181360000D01*
X1405909999Y-181360000D01*
X1405909999Y-181640000D01*
G37*
G36*
X1405909999Y-181140001D02*
G01*
X1405090000Y-181140001D01*
X1405090000Y-180859999D01*
X1405909999Y-180859999D01*
X1405909999Y-181140001D01*
G37*
G36*
X1405909999Y-180639999D02*
G01*
X1405090000Y-180639999D01*
X1405090000Y-180360000D01*
X1405909999Y-180360000D01*
X1405909999Y-180639999D01*
G37*
G36*
X1405909999Y-180140000D02*
G01*
X1405090000Y-180140000D01*
X1405090000Y-179860001D01*
X1405909999Y-179860001D01*
X1405909999Y-180140000D01*
G37*
G36*
X1403880000Y-179973400D02*
G01*
X1403650000Y-179973400D01*
X1403650000Y-179525000D01*
X1403880000Y-179525000D01*
X1403880000Y-179973400D01*
G37*
G36*
X1404330000Y-179973400D02*
G01*
X1404100000Y-179973400D01*
X1404100000Y-179525000D01*
X1404330000Y-179525000D01*
X1404330000Y-179973400D01*
G37*
G36*
X1403430000Y-179973400D02*
G01*
X1403200000Y-179973400D01*
X1403200000Y-179525000D01*
X1403430000Y-179525000D01*
X1403430000Y-179973400D01*
G37*
G36*
X1404780000Y-179973400D02*
G01*
X1404550000Y-179973400D01*
X1404550000Y-179525000D01*
X1404780000Y-179525000D01*
X1404780000Y-179973400D01*
G37*
G36*
X1403880000Y-183475000D02*
G01*
X1403650000Y-183475000D01*
X1403650000Y-183026600D01*
X1403880000Y-183026600D01*
X1403880000Y-183475000D01*
G37*
G36*
X1404330000Y-183475000D02*
G01*
X1404100000Y-183475000D01*
X1404100000Y-183026600D01*
X1404330000Y-183026600D01*
X1404330000Y-183475000D01*
G37*
G36*
X1403430000Y-183475000D02*
G01*
X1403200000Y-183475000D01*
X1403200000Y-183026600D01*
X1403430000Y-183026600D01*
X1403430000Y-183475000D01*
G37*
G36*
X1404780000Y-183475000D02*
G01*
X1404550000Y-183475000D01*
X1404550000Y-183026600D01*
X1404780000Y-183026600D01*
X1404780000Y-183475000D01*
G37*
G36*
X1403496300Y-180471179D02*
G01*
X1403354879Y-180612600D01*
X1403274930Y-180612600D01*
X1403274930Y-180149930D01*
X1403496300Y-180149930D01*
X1403496300Y-180471179D01*
G37*
G36*
X1403496300Y-180954021D02*
G01*
X1403496300Y-181258579D01*
X1403354879Y-181400000D01*
X1403274930Y-181400000D01*
X1403274930Y-180812600D01*
X1403354879Y-180812600D01*
X1403496300Y-180954021D01*
G37*
G36*
X1403496300Y-181741421D02*
G01*
X1403496300Y-182045979D01*
X1403354879Y-182187400D01*
X1403274930Y-182187400D01*
X1403274930Y-181600000D01*
X1403354879Y-181600000D01*
X1403496300Y-181741421D01*
G37*
G36*
X1403496300Y-182528821D02*
G01*
X1403496300Y-182850070D01*
X1403274930Y-182850070D01*
X1403274930Y-182387400D01*
X1403354879Y-182387400D01*
X1403496300Y-182528821D01*
G37*
G36*
X1404283700Y-180471179D02*
G01*
X1404142279Y-180612600D01*
X1403837721Y-180612600D01*
X1403696300Y-180471179D01*
X1403696300Y-180149930D01*
X1404283700Y-180149930D01*
X1404283700Y-180471179D01*
G37*
G36*
X1404283700Y-180954021D02*
G01*
X1404283700Y-181258579D01*
X1404142279Y-181400000D01*
X1403837721Y-181400000D01*
X1403696300Y-181258579D01*
X1403696300Y-180954021D01*
X1403837721Y-180812600D01*
X1404142279Y-180812600D01*
X1404283700Y-180954021D01*
G37*
G36*
X1404283700Y-181741421D02*
G01*
X1404283700Y-182045979D01*
X1404142279Y-182187400D01*
X1403837721Y-182187400D01*
X1403696300Y-182045979D01*
X1403696300Y-181741421D01*
X1403837721Y-181600000D01*
X1404142279Y-181600000D01*
X1404283700Y-181741421D01*
G37*
G36*
X1404283700Y-182528821D02*
G01*
X1404283700Y-182850070D01*
X1403696300Y-182850070D01*
X1403696300Y-182528821D01*
X1403837721Y-182387400D01*
X1404142279Y-182387400D01*
X1404283700Y-182528821D01*
G37*
G36*
X1404705070Y-180612600D02*
G01*
X1404625121Y-180612600D01*
X1404483700Y-180471179D01*
X1404483700Y-180149930D01*
X1404705070Y-180149930D01*
X1404705070Y-180612600D01*
G37*
G36*
X1404705070Y-181400000D02*
G01*
X1404625121Y-181400000D01*
X1404483700Y-181258579D01*
X1404483700Y-180954021D01*
X1404625121Y-180812600D01*
X1404705070Y-180812600D01*
X1404705070Y-181400000D01*
G37*
G36*
X1404705070Y-182187400D02*
G01*
X1404625121Y-182187400D01*
X1404483700Y-182045979D01*
X1404483700Y-181741421D01*
X1404625121Y-181600000D01*
X1404705070Y-181600000D01*
X1404705070Y-182187400D01*
G37*
G36*
X1404705070Y-182850070D02*
G01*
X1404483700Y-182850070D01*
X1404483700Y-182528821D01*
X1404625121Y-182387400D01*
X1404705070Y-182387400D01*
X1404705070Y-182850070D01*
G37*
%TD*%
D11*
%TO.C,U3*%
X1457050000Y-193500000D03*
X1457050000Y-192230000D03*
X1457050000Y-190960000D03*
X1457050000Y-189690000D03*
X1462000000Y-189690000D03*
X1462000000Y-190960000D03*
X1462000000Y-192230000D03*
X1462000000Y-193500000D03*
%TD*%
D12*
%TO.C,U2*%
X1391000000Y-171730000D03*
X1391000000Y-173000000D03*
X1391000000Y-174270000D03*
X1391000000Y-175540000D03*
X1386050000Y-175540000D03*
X1386050000Y-174270000D03*
X1386050000Y-173000000D03*
X1386050000Y-171730000D03*
%TD*%
D11*
%TO.C,U4*%
X1461975000Y-175905000D03*
X1461975000Y-174635000D03*
X1461975000Y-173365000D03*
X1461975000Y-172095000D03*
X1457025000Y-172095000D03*
X1457025000Y-173365000D03*
X1457025000Y-174635000D03*
X1457025000Y-175905000D03*
%TD*%
D13*
%TO.C,U1*%
X1438500000Y-189820000D03*
X1438500000Y-188550000D03*
X1438500000Y-187280000D03*
X1438500000Y-186010000D03*
X1438500000Y-184740000D03*
X1438500000Y-183470000D03*
X1438500000Y-182200000D03*
X1438500000Y-180930000D03*
X1438500000Y-179660000D03*
X1438500000Y-178390000D03*
X1438500000Y-177120000D03*
X1438500000Y-175850000D03*
X1438500000Y-174580000D03*
X1438500000Y-173310000D03*
D14*
X1436735000Y-172059998D03*
X1435465000Y-172059998D03*
X1434195000Y-172059998D03*
X1432925000Y-172059998D03*
X1431655000Y-172059998D03*
X1430385000Y-172059998D03*
X1429115000Y-172059998D03*
X1427845000Y-172059998D03*
X1426575000Y-172059998D03*
X1425305000Y-172059998D03*
X1424035000Y-172059998D03*
X1422765000Y-172059998D03*
D13*
X1421000000Y-173310000D03*
X1421000000Y-174580000D03*
X1421000000Y-175850000D03*
X1421000000Y-177120000D03*
X1421000000Y-178390000D03*
X1421000000Y-179660000D03*
X1421000000Y-180930000D03*
X1421000000Y-182200000D03*
X1421000000Y-183470000D03*
X1421000000Y-184740000D03*
X1421000000Y-186010000D03*
X1421000000Y-187280000D03*
X1421000000Y-188550000D03*
X1421000000Y-189820000D03*
D15*
X1432650000Y-183500000D03*
X1432650000Y-182100000D03*
X1432650000Y-180700000D03*
X1431250000Y-180700000D03*
X1429850000Y-180700000D03*
X1429850000Y-182100000D03*
X1429850000Y-183500000D03*
X1431250000Y-183500000D03*
X1431250000Y-182100000D03*
%TD*%
D16*
%TO.C,R2*%
X1407675000Y-172000000D03*
X1409325000Y-172000000D03*
%TD*%
%TO.C,R1*%
X1403350000Y-172000000D03*
X1405000000Y-172000000D03*
%TD*%
D17*
%TO.C,L1*%
X1390900000Y-182500000D03*
X1396500000Y-182500000D03*
%TD*%
D18*
%TO.C,D1*%
X1416900000Y-193500000D03*
X1419000000Y-193500000D03*
%TD*%
D19*
%TO.C,C14*%
X1446020000Y-188520000D03*
X1446020000Y-189480000D03*
%TD*%
D20*
%TO.C,C13*%
X1399600000Y-176500000D03*
X1401500000Y-176500000D03*
%TD*%
D21*
%TO.C,C12*%
X1401050000Y-186500000D03*
X1404000000Y-186500000D03*
%TD*%
D20*
%TO.C,C11*%
X1404600000Y-177000000D03*
X1406500000Y-177000000D03*
%TD*%
D19*
%TO.C,C10*%
X1443020000Y-188520000D03*
X1443020000Y-189480000D03*
%TD*%
D22*
%TO.C,C9*%
X1454000000Y-189500000D03*
X1452100000Y-189500000D03*
%TD*%
D23*
%TO.C,C8*%
X1395050000Y-174450000D03*
X1395050000Y-172550000D03*
%TD*%
D22*
%TO.C,C7*%
X1398500000Y-190000000D03*
X1396600000Y-190000000D03*
%TD*%
D24*
%TO.C,C6*%
X1451500000Y-173500000D03*
X1451500000Y-175400000D03*
%TD*%
D19*
%TO.C,C5*%
X1408020000Y-183020000D03*
X1408020000Y-183980000D03*
%TD*%
D25*
%TO.C,C4*%
X1449040000Y-191000000D03*
X1450000000Y-191000000D03*
%TD*%
D19*
%TO.C,C3*%
X1454500000Y-173500000D03*
X1454500000Y-174460000D03*
%TD*%
D26*
%TO.C,C2*%
X1391000000Y-170000000D03*
X1390040000Y-170000000D03*
%TD*%
D27*
%TO.C,C1*%
X1393480000Y-191980000D03*
X1393480000Y-191020000D03*
%TD*%
D12*
%TO.C,b1*%
X1386050000Y-189500000D03*
X1386050000Y-190770000D03*
X1386050000Y-192040000D03*
X1386050000Y-193310000D03*
X1391000000Y-193310000D03*
X1391000000Y-192040000D03*
X1391000000Y-190770000D03*
X1391000000Y-189500000D03*
%TD*%
M02*
