%TF.GenerationSoftware,KiCad,Pcbnew,10.0.5-1-g226df246f3*%
%TF.CreationDate,2026-09-06T13:39:45+05:30*%
%TF.ProjectId,lux,6c75782e-6b69-4636-9164-5f7063625858,rev?*%
%TF.SameCoordinates,Original*%
%TF.FileFunction,Copper,L2,Bot*%
%TF.FilePolarity,Positive*%
%FSLAX46Y46*%
G04 Gerber Fmt 4.6, Leading zero omitted, Abs format (unit mm)*
G04 Created by KiCad (PCBNEW 10.0.5-1-g226df246f3) date 2026-09-06 13:39:45*
%MOMM*%
%LPD*%
G01*
G04 APERTURE LIST*
G04 Aperture macros list*
%AMRoundRect*
0 Rectangle with rounded corners*
0 $1 Rounding radius*
0 $2 $3 $4 $5 $6 $7 $8 $9 X,Y pos of 4 corners*
0 Add a 4 corners polygon primitive as box body*
4,1,4,$2,$3,$4,$5,$6,$7,$8,$9,$2,$3,0*
0 Add four circle primitives for the rounded corners*
1,1,$1+$1,$2,$3*
1,1,$1+$1,$4,$5*
1,1,$1+$1,$6,$7*
1,1,$1+$1,$8,$9*
0 Add four rect primitives between the rounded corners*
20,1,$1+$1,$2,$3,$4,$5,0*
20,1,$1+$1,$4,$5,$6,$7,0*
20,1,$1+$1,$6,$7,$8,$9,0*
20,1,$1+$1,$8,$9,$2,$3,0*%
G04 Aperture macros list end*
%TA.AperFunction,ComponentPad*%
%ADD10C,1.000000*%
%TD*%
%TA.AperFunction,ComponentPad*%
%ADD11R,1.000000X1.000000*%
%TD*%
%TA.AperFunction,ComponentPad*%
%ADD12C,0.508000*%
%TD*%
%TA.AperFunction,ComponentPad*%
%ADD13R,3.000000X3.000000*%
%TD*%
%TA.AperFunction,ComponentPad*%
%ADD14C,3.000000*%
%TD*%
%TA.AperFunction,ComponentPad*%
%ADD15RoundRect,0.225000X-0.225000X-0.475000X0.225000X-0.475000X0.225000X0.475000X-0.225000X0.475000X0*%
%TD*%
%TA.AperFunction,ComponentPad*%
%ADD16O,0.900000X1.400000*%
%TD*%
%TA.AperFunction,ComponentPad*%
%ADD17RoundRect,0.225000X-0.475000X0.225000X-0.475000X-0.225000X0.475000X-0.225000X0.475000X0.225000X0*%
%TD*%
%TA.AperFunction,ComponentPad*%
%ADD18O,1.400000X0.900000*%
%TD*%
%TA.AperFunction,ViaPad*%
%ADD19C,0.600000*%
%TD*%
%TA.AperFunction,Conductor*%
%ADD20C,0.200000*%
%TD*%
G04 APERTURE END LIST*
D10*
%TO.P,M4,2,-_2*%
%TO.N,Net-(M4--)*%
X1450730000Y-194000000D03*
D11*
%TO.P,M4,1,+_1*%
%TO.N,Net-(M4-+)*%
X1452000000Y-194000000D03*
%TD*%
D12*
%TO.P,U5,V*%
%TO.N,N/C*%
X1403596300Y-182287400D03*
X1403596300Y-181500000D03*
X1403596300Y-180712600D03*
X1404383700Y-182287400D03*
X1404383700Y-181500000D03*
X1404383700Y-180712600D03*
%TD*%
D11*
%TO.P,M3,1,+_1*%
%TO.N,Net-(M3-+)*%
X1450500000Y-170000000D03*
D10*
%TO.P,M3,2,-_2*%
%TO.N,Net-(M3--)*%
X1451770000Y-170000000D03*
%TD*%
D11*
%TO.P,M2,1,+_1*%
%TO.N,Net-(M2-+)*%
X1395000000Y-170000000D03*
D10*
%TO.P,M2,2,-_2*%
%TO.N,Net-(M2--)*%
X1396270000Y-170000000D03*
%TD*%
D11*
%TO.P,M1,1,+_1*%
%TO.N,Net-(M1-+)*%
X1397270000Y-194000000D03*
D10*
%TO.P,M1,2,-_2*%
%TO.N,Net-(M1--)*%
X1396000000Y-194000000D03*
%TD*%
D13*
%TO.P,J3,1,Pin_1_1*%
%TO.N,Net-(J2-Pin_4)*%
X1470750000Y-170592500D03*
D14*
%TO.P,J3,2,Pin_2_2*%
%TO.N,Net-(D1-A)*%
X1470750000Y-174472500D03*
%TD*%
D15*
%TO.P,J2,1,Pin_1_1*%
%TO.N,Net-(D1-A)*%
X1428625000Y-194000000D03*
D16*
%TO.P,J2,2,Pin_2_2*%
%TO.N,Net-(J2-Pin_2)*%
X1429875000Y-194000000D03*
%TO.P,J2,3,Pin_3_3*%
%TO.N,Net-(J2-Pin_3)*%
X1431125000Y-194000000D03*
%TO.P,J2,4,Pin_4_4*%
%TO.N,Net-(J2-Pin_4)*%
X1432375000Y-194000000D03*
%TD*%
D17*
%TO.P,J1,1,Pin_1_1*%
%TO.N,Net-(D1-A)*%
X1445000000Y-173500000D03*
D18*
%TO.P,J1,2,Pin_2_2*%
%TO.N,Net-(J1-Pin_2)*%
X1445000000Y-174750000D03*
%TO.P,J1,3,Pin_3_3*%
%TO.N,Net-(J1-Pin_3)*%
X1445000000Y-176000000D03*
%TO.P,J1,4,Pin_4_4*%
%TO.N,Net-(J1-Pin_4)*%
X1445000000Y-177250000D03*
%TO.P,J1,5,Pin_5_5*%
%TO.N,unconnected-(J1-Pin_5-Pad5)*%
X1445000000Y-178500000D03*
%TO.P,J1,6,Pin_6_6*%
%TO.N,unconnected-(J1-Pin_6-Pad6)*%
X1445000000Y-179750000D03*
%TO.P,J1,7,Pin_7_7*%
%TO.N,Net-(J1-Pin_7)*%
X1445000000Y-181000000D03*
%TO.P,J1,8,Pin_8_8*%
%TO.N,Net-(J1-Pin_8)*%
X1445000000Y-182250000D03*
%TO.P,J1,9,Pin_9_9*%
%TO.N,Net-(D1-A)*%
X1445000000Y-183500000D03*
%TO.P,J1,10,Pin_10_10*%
%TO.N,Net-(J1-Pin_10)*%
X1445000000Y-184750000D03*
%TD*%
D19*
%TO.N,Net-(U5-FB)*%
X1400500000Y-179500000D03*
%TO.N,Net-(D1-K)*%
X1416500000Y-189000000D03*
X1417000000Y-187500000D03*
%TO.N,Net-(J2-Pin_4)*%
X1409325000Y-172000000D03*
X1402500000Y-178500000D03*
%TO.N,Net-(L1-Pad1)*%
X1402000000Y-184500000D03*
X1390900000Y-182500000D03*
%TO.N,Net-(L1-Pad2)*%
X1396500000Y-182500000D03*
%TO.N,Net-(J2-Pin_4)*%
X1395050000Y-172550000D03*
X1396550000Y-189950000D03*
%TO.N,Net-(D1-A)*%
X1457025000Y-172095000D03*
X1438500000Y-189820000D03*
%TO.N,Net-(J2-Pin_2)*%
X1434500000Y-175800003D03*
X1438500000Y-174580000D03*
%TO.N,Net-(J1-Pin_10)*%
X1438500000Y-188500000D03*
X1401000000Y-186500000D03*
%TO.N,Net-(J1-Pin_8)*%
X1430385000Y-172059998D03*
%TO.N,Net-(J1-Pin_7)*%
X1431655000Y-172059998D03*
%TO.N,Net-(J1-Pin_2)*%
X1433000000Y-172000000D03*
%TO.N,Net-(J2-Pin_4)*%
X1457000000Y-175880000D03*
%TO.N,Net-(D1-A)*%
X1457050000Y-189690000D03*
%TO.N,Net-(U1-IO18)*%
X1438500000Y-177120000D03*
%TO.N,Net-(U1-IO17)*%
X1438500000Y-178390000D03*
X1461975000Y-174635000D03*
%TO.N,Net-(U1-IO18)*%
X1461975000Y-173365000D03*
%TO.N,Net-(U1-IO16)*%
X1438500000Y-179660000D03*
%TO.N,Net-(U1-IO15)*%
X1438500000Y-180930000D03*
%TO.N,Net-(U1-IO16)*%
X1462000000Y-190960000D03*
%TO.N,Net-(U1-IO15)*%
X1462000000Y-192230000D03*
%TO.N,Net-(U1-IO6)*%
X1438500000Y-183470000D03*
%TO.N,Net-(U1-IO7)*%
X1438500000Y-182200000D03*
%TO.N,Net-(U1-IO6)*%
X1386050000Y-173000000D03*
%TO.N,Net-(U1-IO7)*%
X1386050000Y-174270000D03*
%TO.N,Net-(U1-IO4)*%
X1386050000Y-190770000D03*
X1438500000Y-186010000D03*
%TO.N,Net-(U1-IO5)*%
X1438500000Y-184740000D03*
%TO.N,Net-(U1-IO4)*%
X1386050000Y-190770000D03*
%TO.N,Net-(U1-IO5)*%
X1386050000Y-192040000D03*
%TO.N,Net-(J2-Pin_4)*%
X1406500000Y-177000000D03*
X1409325000Y-172000000D03*
%TO.N,Net-(U5-FB)*%
X1403350000Y-178650000D03*
%TO.N,Net-(L1-Pad2)*%
X1406500000Y-183500000D03*
%TD*%
%TO.N,Net-(D1-K)*%
D20*
X1416500000Y-189000000D02*
X1416500000Y-188000000D01*
X1416500000Y-188000000D02*
X1417000000Y-187500000D01*
%TO.N,Net-(J2-Pin_4)*%
X1402500000Y-178500000D02*
X1394051471Y-178500000D01*
X1394051471Y-178500000D02*
X1390300000Y-182251471D01*
X1390300000Y-182251471D02*
X1390300000Y-183700000D01*
X1390300000Y-183700000D02*
X1396550000Y-189950000D01*
%TO.N,Net-(L1-Pad1)*%
X1392900000Y-184500000D02*
X1402000000Y-184500000D01*
X1390900000Y-182500000D02*
X1392900000Y-184500000D01*
%TO.N,Net-(L1-Pad2)*%
X1396500000Y-182500000D02*
X1397500000Y-183500000D01*
X1397500000Y-183500000D02*
X1406500000Y-183500000D01*
%TO.N,Net-(J2-Pin_4)*%
X1395050000Y-172550000D02*
X1402050000Y-172550000D01*
X1402050000Y-172550000D02*
X1406500000Y-177000000D01*
%TO.N,Net-(D1-A)*%
X1456614265Y-177114265D02*
X1450228529Y-183500000D01*
X1456400000Y-172720000D02*
X1457025000Y-172095000D01*
X1456614265Y-177114265D02*
X1456400000Y-176900000D01*
X1456400000Y-176900000D02*
X1456400000Y-172720000D01*
X1428625000Y-194000000D02*
X1428625000Y-193300000D01*
X1428625000Y-193300000D02*
X1429095000Y-192830000D01*
X1429095000Y-192830000D02*
X1462248529Y-192830000D01*
X1462248529Y-192830000D02*
X1462600000Y-192478529D01*
X1462600000Y-192478529D02*
X1462600000Y-173141471D01*
X1462600000Y-173141471D02*
X1462223529Y-172765000D01*
X1462223529Y-172765000D02*
X1460963529Y-172765000D01*
X1460963529Y-172765000D02*
X1456614265Y-177114265D01*
X1450228529Y-183500000D02*
X1445000000Y-183500000D01*
X1428625000Y-193300000D02*
X1429425000Y-192500000D01*
X1429425000Y-192500000D02*
X1435820000Y-192500000D01*
X1435820000Y-192500000D02*
X1438500000Y-189820000D01*
%TO.N,Net-(J2-Pin_2)*%
X1438500000Y-174580000D02*
X1437279997Y-175800003D01*
X1437279997Y-175800003D02*
X1434500000Y-175800003D01*
%TO.N,Net-(J1-Pin_10)*%
X1401000000Y-186500000D02*
X1403360000Y-184140000D01*
X1439500000Y-184891471D02*
X1439500000Y-187500000D01*
X1403360000Y-184140000D02*
X1438748529Y-184140000D01*
X1438748529Y-184140000D02*
X1439500000Y-184891471D01*
X1439500000Y-187500000D02*
X1438500000Y-188500000D01*
%TO.N,Net-(J1-Pin_8)*%
X1445000000Y-182250000D02*
X1444939340Y-182250000D01*
X1444939340Y-182250000D02*
X1443567157Y-180877817D01*
X1443567157Y-180877817D02*
X1443567157Y-175500000D01*
X1443567157Y-175500000D02*
X1441567157Y-173500000D01*
X1441567157Y-173500000D02*
X1438065686Y-173500000D01*
X1438065686Y-173500000D02*
X1437565686Y-174000000D01*
X1437565686Y-174000000D02*
X1432325002Y-174000000D01*
X1432325002Y-174000000D02*
X1430385000Y-172059998D01*
%TO.N,Net-(J1-Pin_7)*%
X1441934314Y-173000000D02*
X1438000000Y-173000000D01*
X1443967157Y-175032843D02*
X1441934314Y-173000000D01*
X1443967157Y-180367157D02*
X1443967157Y-175032843D01*
X1444600000Y-181000000D02*
X1443967157Y-180367157D01*
X1432995002Y-173400000D02*
X1431655000Y-172059998D01*
X1445000000Y-181000000D02*
X1444600000Y-181000000D01*
X1438000000Y-173000000D02*
X1437600000Y-173400000D01*
X1437600000Y-173400000D02*
X1432995002Y-173400000D01*
%TO.N,Net-(J1-Pin_2)*%
X1437500000Y-172500000D02*
X1437000000Y-173000000D01*
X1442000000Y-172500000D02*
X1437500000Y-172500000D01*
X1445000000Y-174750000D02*
X1444250000Y-174750000D01*
X1444250000Y-174750000D02*
X1442000000Y-172500000D01*
X1437000000Y-173000000D02*
X1434000000Y-173000000D01*
X1434000000Y-173000000D02*
X1433000000Y-172000000D01*
%TO.N,Net-(J2-Pin_4)*%
X1470750000Y-170592500D02*
X1462287500Y-170592500D01*
X1462287500Y-170592500D02*
X1457000000Y-175880000D01*
%TO.N,Net-(D1-A)*%
X1470750000Y-174472500D02*
X1457050000Y-188172500D01*
X1457050000Y-188172500D02*
X1457050000Y-189690000D01*
%TO.N,Net-(U1-IO18)*%
X1461975000Y-173365000D02*
X1461975000Y-173525000D01*
X1445500000Y-190000000D02*
X1442565686Y-190000000D01*
X1461975000Y-173525000D02*
X1445500000Y-190000000D01*
X1442565686Y-190000000D02*
X1441400000Y-188834314D01*
X1441400000Y-188834314D02*
X1441400000Y-180020000D01*
X1441400000Y-180020000D02*
X1438500000Y-177120000D01*
%TO.N,Net-(U1-IO17)*%
X1442500000Y-190500000D02*
X1441000000Y-189000000D01*
X1441000000Y-180890000D02*
X1438500000Y-178390000D01*
X1446110000Y-190500000D02*
X1442500000Y-190500000D01*
X1461975000Y-174635000D02*
X1446110000Y-190500000D01*
X1441000000Y-189000000D02*
X1441000000Y-180890000D01*
%TO.N,Net-(U1-IO16)*%
X1441960000Y-190960000D02*
X1440500000Y-189500000D01*
X1462000000Y-190960000D02*
X1441960000Y-190960000D01*
X1440500000Y-189500000D02*
X1440500000Y-181660000D01*
X1440500000Y-181660000D02*
X1438500000Y-179660000D01*
%TO.N,Net-(U1-IO15)*%
X1442230000Y-192230000D02*
X1440000000Y-190000000D01*
X1462000000Y-192230000D02*
X1442230000Y-192230000D01*
X1440000000Y-190000000D02*
X1440000000Y-182430000D01*
X1440000000Y-182430000D02*
X1438500000Y-180930000D01*
%TO.N,Net-(U1-IO6)*%
X1410500000Y-183000000D02*
X1437500000Y-183000000D01*
X1386050000Y-173000000D02*
X1385450000Y-173600000D01*
X1385931471Y-175000000D02*
X1402500000Y-175000000D01*
X1385450000Y-173600000D02*
X1385450000Y-174518529D01*
X1402500000Y-175000000D02*
X1410500000Y-183000000D01*
X1385450000Y-174518529D02*
X1385931471Y-175000000D01*
X1437500000Y-183000000D02*
X1437970000Y-183470000D01*
X1437970000Y-183470000D02*
X1438500000Y-183470000D01*
%TO.N,Net-(U1-IO7)*%
X1386050000Y-174270000D02*
X1402921471Y-174270000D01*
X1402921471Y-174270000D02*
X1410851471Y-182200000D01*
X1410851471Y-182200000D02*
X1438500000Y-182200000D01*
%TO.N,Net-(U1-IO5)*%
X1438500000Y-184740000D02*
X1439100000Y-185340000D01*
X1439100000Y-185340000D02*
X1439100000Y-186258529D01*
X1439100000Y-186258529D02*
X1433318529Y-192040000D01*
X1433318529Y-192040000D02*
X1386050000Y-192040000D01*
%TO.N,Net-(U1-IO4)*%
X1438500000Y-186010000D02*
X1434490000Y-186010000D01*
X1434490000Y-186010000D02*
X1429730000Y-190770000D01*
X1429730000Y-190770000D02*
X1386050000Y-190770000D01*
%TO.N,Net-(J2-Pin_4)*%
X1409325000Y-172000000D02*
X1409325000Y-174175000D01*
X1409325000Y-174175000D02*
X1406500000Y-177000000D01*
%TO.N,Net-(U5-FB)*%
X1402500000Y-179500000D02*
X1403350000Y-178650000D01*
X1400500000Y-179500000D02*
X1402500000Y-179500000D01*
%TD*%
M02*
