M48
; DRILL file KiCad 10.0.6 date 2026-09-21T23:39:09
; FORMAT={-:-/ absolute / metric / decimal}
; #@! TF.CreationDate,2026-09-21T23:39:09+05:30
; #@! TF.GenerationSoftware,Kicad,Pcbnew,10.0.6
; #@! TF.FileFunction,Plated,1,4,PTH
FMAT,2
METRIC
; #@! TA.AperFunction,Plated,PTH,ViaDrill
T1C0.100
; #@! TA.AperFunction,Plated,PTH,ViaDrill
T2C0.200
; #@! TA.AperFunction,Plated,PTH,ComponentDrill
T3C0.254
; #@! TA.AperFunction,Plated,PTH,ViaDrill
T4C0.300
; #@! TA.AperFunction,Plated,PTH,ViaDrill
T5C0.400
; #@! TA.AperFunction,Plated,PTH,ViaDrill
T6C0.500
; #@! TA.AperFunction,Plated,PTH,ComponentDrill
T7C0.600
; #@! TA.AperFunction,Plated,PTH,ComponentDrill
T8C0.750
; #@! TA.AperFunction,Plated,PTH,ComponentDrill
T9C0.800
; #@! TA.AperFunction,Plated,PTH,ComponentDrill
T10C1.000
%
G90
G05
T1
X1153.5Y-1043.0
T2
X1203.5Y-1052.5
X1221.856Y-1048.713
X1223.366Y-1050.0
T3
X1221.463Y-1047.925
X1221.463Y-1048.713
X1221.463Y-1049.5
X1222.25Y-1047.925
X1222.25Y-1048.713
X1222.25Y-1049.5
T4
X1155.525Y-1060.5
X1156.0Y-1040.0
X1157.95Y-1040.0
X1158.9Y-1042.32
X1162.025Y-1040.5
X1164.975Y-1040.5
X1167.5Y-1046.5
X1168.5Y-1042.54
X1168.5Y-1043.5
X1177.0Y-1036.0
X1179.75Y-1040.29
X1179.75Y-1041.25
X1180.05Y-1035.75
X1180.52Y-1037.5
X1181.0Y-1044.5
X1181.48Y-1037.5
X1182.5Y-1041.5
X1184.345Y-1035.49
X1184.345Y-1036.76
X1184.345Y-1038.03
X1184.345Y-1043.11
X1184.345Y-1050.73
X1184.345Y-1052.0
X1184.5Y-1042.0
X1190.195Y-1041.81
X1195.1Y-1056.0
X1202.0Y-1035.5
X1205.75Y-1051.75
X1207.0Y-1052.5
X1208.7Y-1046.5
X1214.3Y-1046.5
X1216.0Y-1052.5
X1216.537Y-1045.379
X1218.0Y-1043.1
X1218.5Y-1046.35
X1218.975Y-1053.0
X1219.209Y-1044.63
X1220.0Y-1044.15
X1220.346Y-1047.713
X1220.346Y-1049.0
X1220.346Y-1050.0
X1220.5Y-1043.242
X1220.51Y-1041.6
X1221.232Y-1043.25
X1222.0Y-1041.742
X1223.0Y-1043.25
X1223.366Y-1047.713
X1225.0Y-1043.25
X1225.5Y-1047.5
X1226.0Y-1044.3
X1227.5Y-1047.55
X1230.55Y-1054.5
X1233.5Y-1054.5
X1238.0Y-1058.0
X1240.5Y-1036.5
T5
X1156.46Y-1055.68
X1157.72Y-1055.68
X1158.5Y-1037.5
X1210.5Y-1057.525
X1210.5Y-1060.5
X1212.892Y-1060.427
X1213.0Y-1057.525
X1215.5Y-1057.525
X1215.5Y-1060.475
X1218.0Y-1057.525
X1218.0Y-1060.475
X1223.087Y-1044.412
X1230.05Y-1042.5
X1232.5Y-1049.0
X1233.0Y-1042.5
X1237.0Y-1055.5
X1237.5Y-1060.5
X1238.28Y-1041.64
X1239.63Y-1055.43
X1240.0Y-1039.0
X1240.81Y-1041.64
X1241.725Y-1048.5
T6
X1155.19Y-1055.68
X1159.0Y-1055.68
X1160.5Y-1060.5
X1163.0Y-1054.0
X1166.0Y-1054.0
T7
X1171.0Y-1042.25
X1171.0Y-1043.5
X1171.0Y-1044.75
X1171.0Y-1046.0
X1175.75Y-1040.25
X1175.75Y-1041.5
X1175.75Y-1042.75
X1175.75Y-1044.0
X1175.75Y-1045.25
X1175.75Y-1046.5
X1175.75Y-1047.75
X1175.75Y-1049.0
X1219.35Y-1040.482
X1225.15Y-1040.482
T8
X1163.0Y-1057.95
X1164.5Y-1036.0
X1165.0Y-1057.95
X1166.5Y-1036.0
X1230.25Y-1037.25
X1231.0Y-1058.45
X1232.25Y-1037.25
X1233.0Y-1058.45
T10
X1204.0Y-1059.25
X1206.54Y-1059.25
T9
G00X1217.92Y-1037.002
M15
G01X1217.92Y-1036.602
M16
G05
G00X1217.92Y-1041.332
M15
G01X1217.92Y-1040.632
M16
G05
G00X1226.58Y-1037.002
M15
G01X1226.58Y-1036.602
M16
G05
G00X1226.58Y-1041.332
M15
G01X1226.58Y-1040.632
M16
G05
M30
