%TF.GenerationSoftware,KiCad,Pcbnew,10.0.6*%
%TF.CreationDate,2026-09-14T11:12:49+05:30*%
%TF.ProjectId,lux,6c75782e-6b69-4636-9164-5f7063625858,rev?*%
%TF.SameCoordinates,Original*%
%TF.FileFunction,Copper,L2,Inr*%
%TF.FilePolarity,Positive*%
%FSLAX46Y46*%
G04 Gerber Fmt 4.6, Leading zero omitted, Abs format (unit mm)*
G04 Created by KiCad (PCBNEW 10.0.6) date 2026-09-14 11:12:49*
%MOMM*%
%LPD*%
G01*
G04 APERTURE LIST*
G04 Aperture macros list*
%AMRoundRect*
0 Rectangle with rounded corners*
0 $1 Rounding radius*
0 $2 $3 $4 $5 $6 $7 $8 $9 X,Y pos of 4 corners*
0 Add a 4 corners polygon primitive as box body*
4,1,4,$2,$3,$4,$5,$6,$7,$8,$9,$2,$3,0*
0 Add four circle primitives for the rounded corners*
1,1,$1+$1,$2,$3*
1,1,$1+$1,$4,$5*
1,1,$1+$1,$6,$7*
1,1,$1+$1,$8,$9*
0 Add four rect primitives between the rounded corners*
20,1,$1+$1,$2,$3,$4,$5,0*
20,1,$1+$1,$4,$5,$6,$7,0*
20,1,$1+$1,$6,$7,$8,$9,0*
20,1,$1+$1,$8,$9,$2,$3,0*%
G04 Aperture macros list end*
%TA.AperFunction,ComponentPad*%
%ADD10RoundRect,0.250000X-0.350000X-0.625000X0.350000X-0.625000X0.350000X0.625000X-0.350000X0.625000X0*%
%TD*%
%TA.AperFunction,ComponentPad*%
%ADD11O,1.200000X1.750000*%
%TD*%
%TA.AperFunction,ComponentPad*%
%ADD12RoundRect,0.225000X-0.475000X0.225000X-0.475000X-0.225000X0.475000X-0.225000X0.475000X0.225000X0*%
%TD*%
%TA.AperFunction,ComponentPad*%
%ADD13O,1.400000X0.900000*%
%TD*%
%TA.AperFunction,ComponentPad*%
%ADD14C,0.508000*%
%TD*%
%TA.AperFunction,ComponentPad*%
%ADD15R,1.700000X1.700000*%
%TD*%
%TA.AperFunction,ComponentPad*%
%ADD16C,1.700000*%
%TD*%
%TA.AperFunction,ComponentPad*%
%ADD17C,0.600000*%
%TD*%
%TA.AperFunction,ComponentPad*%
%ADD18O,1.200000X2.000000*%
%TD*%
%TA.AperFunction,ComponentPad*%
%ADD19O,1.200000X1.800000*%
%TD*%
%TA.AperFunction,ViaPad*%
%ADD20C,0.600000*%
%TD*%
%TA.AperFunction,ViaPad*%
%ADD21C,0.500000*%
%TD*%
%TA.AperFunction,ViaPad*%
%ADD22C,0.400000*%
%TD*%
%TA.AperFunction,ViaPad*%
%ADD23C,0.250000*%
%TD*%
%TA.AperFunction,ViaPad*%
%ADD24C,0.200000*%
%TD*%
%TA.AperFunction,ViaPad*%
%ADD25C,0.300000*%
%TD*%
%TA.AperFunction,Conductor*%
%ADD26C,0.600000*%
%TD*%
%TA.AperFunction,Conductor*%
%ADD27C,0.700000*%
%TD*%
%TA.AperFunction,Conductor*%
%ADD28C,0.200000*%
%TD*%
%TA.AperFunction,Conductor*%
%ADD29C,1.000000*%
%TD*%
%TA.AperFunction,Conductor*%
%ADD30C,0.500000*%
%TD*%
%TA.AperFunction,Conductor*%
%ADD31C,0.300000*%
%TD*%
G04 APERTURE END LIST*
D10*
%TO.N,/M3A*%
%TO.C,M3*%
X1231000000Y-1058450000D03*
D11*
%TO.N,/M3B*%
X1233000000Y-1058450000D03*
%TD*%
D12*
%TO.N,+3.3V*%
%TO.C,BMP1*%
X1171000000Y-1042250000D03*
D13*
%TO.N,GND*%
X1171000000Y-1043500000D03*
%TO.N,/XCL*%
X1171000000Y-1044750000D03*
%TO.N,/XDA*%
X1171000000Y-1046000000D03*
%TD*%
D10*
%TO.N,/M1A*%
%TO.C,M1*%
X1164500000Y-1036000000D03*
D11*
%TO.N,/M1B*%
X1166500000Y-1036000000D03*
%TD*%
D14*
%TO.N,N/C*%
%TO.C,U2*%
X1221462600Y-1047925200D03*
X1221462600Y-1048712600D03*
X1221462600Y-1049500000D03*
X1222250000Y-1047925200D03*
X1222250000Y-1048712600D03*
X1222250000Y-1049500000D03*
%TD*%
D15*
%TO.N,+5VA*%
%TO.C,BT1*%
X1204000000Y-1059250000D03*
D16*
%TO.N,GND*%
X1206540000Y-1059250000D03*
%TD*%
D12*
%TO.N,+3.3V*%
%TO.C,MPU1*%
X1175750000Y-1040250000D03*
D13*
%TO.N,GND*%
X1175750000Y-1041500000D03*
%TO.N,/IO6*%
X1175750000Y-1042750000D03*
%TO.N,/IO7*%
X1175750000Y-1044000000D03*
%TO.N,/XCL*%
X1175750000Y-1045250000D03*
%TO.N,/XDA*%
X1175750000Y-1046500000D03*
%TO.N,+3.3V*%
X1175750000Y-1047750000D03*
%TO.N,unconnected-(MPU1-Pin_8-Pad8)*%
X1175750000Y-1049000000D03*
%TD*%
D10*
%TO.N,/M4A*%
%TO.C,M4*%
X1230250000Y-1037250000D03*
D11*
%TO.N,/M4B*%
X1232250000Y-1037250000D03*
%TD*%
D10*
%TO.N,/M2A*%
%TO.C,M2*%
X1163000000Y-1057950000D03*
D11*
%TO.N,/M2B*%
X1165000000Y-1057950000D03*
%TD*%
D17*
%TO.N,*%
%TO.C,USBC1*%
X1225150000Y-1040482456D03*
X1219350000Y-1040482456D03*
D18*
%TO.N,unconnected-(USBC1-EH-Pad1)*%
X1217920000Y-1040982456D03*
D19*
%TO.N,unconnected-(USBC1-EH-Pad2)*%
X1217920000Y-1036802456D03*
%TO.N,unconnected-(USBC1-EH-Pad3)*%
X1226580000Y-1036802456D03*
D18*
%TO.N,unconnected-(USBC1-EH-Pad4)*%
X1226580000Y-1040982456D03*
%TD*%
D20*
%TO.N,/M4B*%
X1233000000Y-1042500000D03*
%TO.N,/M4A*%
X1230050000Y-1042500000D03*
D21*
%TO.N,/M4B*%
X1240000000Y-1039000000D03*
D22*
%TO.N,Net-(T1-Pin_1)*%
X1182500000Y-1041500000D03*
X1184345000Y-1038029998D03*
%TO.N,Net-(U1-IO0)*%
X1205750000Y-1051750000D03*
D23*
X1203500000Y-1052500000D03*
%TO.N,GND*%
X1221856300Y-1048712600D03*
D22*
%TO.N,+5V*%
X1220346300Y-1047212600D03*
D20*
%TO.N,+5VA*%
X1160500000Y-1060500000D03*
D24*
X1153500000Y-1043000000D03*
D20*
X1159000000Y-1055680000D03*
D22*
%TO.N,Net-(USBC1-CC2)*%
X1220000000Y-1044150000D03*
X1220510152Y-1041600000D03*
%TO.N,+3.3V*%
X1219040128Y-1041450000D03*
%TO.N,GND*%
X1216000000Y-1052500000D03*
%TO.N,/D+*%
X1221232326Y-1043250000D03*
X1184345000Y-1051999998D03*
%TO.N,/D-*%
X1184345000Y-1050729998D03*
X1222000000Y-1041742456D03*
%TO.N,/IO6*%
X1184500000Y-1042000000D03*
%TO.N,/IO7*%
X1184345000Y-1043109998D03*
D20*
%TO.N,GND*%
X1155525000Y-1060500000D03*
D22*
X1180050000Y-1035750000D03*
X1223366300Y-1047712599D03*
X1179750000Y-1041250000D03*
D21*
X1210500000Y-1060500000D03*
D20*
X1155190000Y-1055680000D03*
D22*
X1218500000Y-1046350000D03*
D20*
X1195100000Y-1056000000D03*
X1158900000Y-1042320000D03*
D22*
X1202000000Y-1035500000D03*
D21*
X1237500000Y-1060500000D03*
X1218000000Y-1060475000D03*
D20*
X1158500000Y-1037500000D03*
D22*
X1190195000Y-1041809998D03*
D20*
X1227500000Y-1047550000D03*
X1225500000Y-1047500000D03*
D22*
X1177000000Y-1036000000D03*
D21*
X1212892214Y-1060426955D03*
D22*
X1180520000Y-1037500000D03*
X1184345000Y-1035489998D03*
X1220346300Y-1047712599D03*
D21*
X1237000000Y-1055500000D03*
D22*
X1167500000Y-1046500000D03*
D21*
X1215500000Y-1060475000D03*
D22*
X1168500000Y-1043500000D03*
D20*
X1240500000Y-1036500000D03*
X1240810000Y-1041640000D03*
%TO.N,/M3B*%
X1238000000Y-1058000000D03*
X1233500000Y-1054500000D03*
%TO.N,/M3A*%
X1239630000Y-1055430000D03*
X1230550000Y-1054500000D03*
D21*
%TO.N,+5VA*%
X1210500000Y-1057525000D03*
X1215500000Y-1057525000D03*
X1213000000Y-1057525000D03*
X1218000000Y-1057525000D03*
D22*
%TO.N,+3.3V*%
X1205750000Y-1053400000D03*
X1224825000Y-1044500000D03*
X1181480000Y-1037500000D03*
X1184345000Y-1036759998D03*
X1219175000Y-1044500000D03*
X1225000000Y-1043250000D03*
X1179750000Y-1040290000D03*
X1181000000Y-1044500000D03*
X1218975000Y-1053000000D03*
X1168500000Y-1042540000D03*
X1220346300Y-1049000000D03*
D20*
%TO.N,/M4A*%
X1238280000Y-1041640000D03*
D22*
%TO.N,Net-(L1-Pad1)*%
X1208700000Y-1046500000D03*
X1220346300Y-1050000000D03*
%TO.N,Net-(L1-Pad2)*%
X1214300000Y-1046500000D03*
D25*
X1223366300Y-1050000000D03*
D20*
%TO.N,/M1A*%
X1156000000Y-1040000000D03*
X1162025000Y-1040500000D03*
%TO.N,/M1B*%
X1164975000Y-1040500000D03*
X1157950000Y-1040000000D03*
D22*
%TO.N,+5V*%
X1220500000Y-1043242456D03*
X1224500000Y-1048212598D03*
D20*
%TO.N,/M2A*%
X1163000000Y-1054000000D03*
X1157720000Y-1055680000D03*
%TO.N,/M2B*%
X1166000000Y-1054000000D03*
X1156460000Y-1055680000D03*
D22*
%TO.N,Net-(USBC1-CC1)*%
X1223175000Y-1044500000D03*
X1223000000Y-1043250000D03*
%TD*%
%TO.N,+3.3V*%
D26*
X1179750000Y-1040290000D02*
X1181480000Y-1038560000D01*
X1181480000Y-1038560000D02*
X1181480000Y-1037500000D01*
%TO.N,+5VA*%
D27*
X1160500000Y-1060500000D02*
X1202750000Y-1060500000D01*
X1202750000Y-1060500000D02*
X1204000000Y-1059250000D01*
X1158150000Y-1056530000D02*
X1159000000Y-1055680000D01*
X1153500000Y-1043000000D02*
X1153500000Y-1055192082D01*
X1153500000Y-1055192082D02*
X1154837918Y-1056530000D01*
X1154837918Y-1056530000D02*
X1158150000Y-1056530000D01*
%TO.N,Net-(USBC1-CC2)*%
D28*
X1220000000Y-1044150000D02*
X1220000000Y-1042110152D01*
X1220000000Y-1042110152D02*
X1220510152Y-1041600000D01*
%TO.N,+3.3V*%
X1219175000Y-1045000000D02*
X1219175000Y-1041584872D01*
X1219175000Y-1041584872D02*
X1219040128Y-1041450000D01*
X1219175000Y-1045000000D02*
X1219175000Y-1044500000D01*
X1219175000Y-1045000000D02*
X1224325000Y-1045000000D01*
X1224325000Y-1045000000D02*
X1224825000Y-1044500000D01*
%TO.N,GND*%
D26*
X1173406497Y-1043500000D02*
X1175406497Y-1041500000D01*
X1175406497Y-1041500000D02*
X1175750000Y-1041500000D01*
X1167500000Y-1046500000D02*
X1167500000Y-1044500000D01*
X1168500000Y-1043500000D02*
X1171000000Y-1043500000D01*
X1171000000Y-1043500000D02*
X1173406497Y-1043500000D01*
X1167500000Y-1044500000D02*
X1168500000Y-1043500000D01*
%TO.N,/M3B*%
D29*
X1233000000Y-1058450000D02*
X1233000000Y-1055000000D01*
D26*
X1236000000Y-1058000000D02*
X1238000000Y-1058000000D01*
D29*
X1233000000Y-1055000000D02*
X1233500000Y-1054500000D01*
D26*
X1233000000Y-1055000000D02*
X1236000000Y-1058000000D01*
%TO.N,/M3A*%
D29*
X1231000000Y-1054950000D02*
X1230550000Y-1054500000D01*
D26*
X1236700000Y-1052500000D02*
X1239630000Y-1055430000D01*
X1232550000Y-1052500000D02*
X1236700000Y-1052500000D01*
X1230550000Y-1054500000D02*
X1232550000Y-1052500000D01*
D29*
X1231000000Y-1058450000D02*
X1231000000Y-1054950000D01*
%TO.N,+5VA*%
X1205725000Y-1057525000D02*
X1210500000Y-1057525000D01*
X1204000000Y-1059250000D02*
X1205725000Y-1057525000D01*
X1210500000Y-1057525000D02*
X1213000000Y-1057525000D01*
X1213000000Y-1057525000D02*
X1215500000Y-1057525000D01*
X1215500000Y-1057525000D02*
X1218000000Y-1057525000D01*
%TO.N,+3.3V*%
D26*
X1181000000Y-1044500000D02*
X1178500000Y-1042000000D01*
X1178500000Y-1042000000D02*
X1178500000Y-1040250000D01*
X1181000000Y-1044500000D02*
X1196850000Y-1044500000D01*
D28*
X1219175000Y-1047828700D02*
X1219175000Y-1045000000D01*
D26*
X1218575000Y-1053400000D02*
X1218975000Y-1053000000D01*
D28*
X1181480000Y-1037500000D02*
X1182000000Y-1037500000D01*
X1220346300Y-1049000000D02*
X1219175000Y-1047828700D01*
D26*
X1171000000Y-1042250000D02*
X1168790000Y-1042250000D01*
X1178500000Y-1040250000D02*
X1179710000Y-1040250000D01*
X1175750000Y-1040250000D02*
X1178500000Y-1040250000D01*
D28*
X1184345000Y-1036845000D02*
X1184345000Y-1036759998D01*
X1184190000Y-1037000000D02*
X1184345000Y-1036845000D01*
D26*
X1196850000Y-1044500000D02*
X1205750000Y-1053400000D01*
X1171000000Y-1042250000D02*
X1173000000Y-1040250000D01*
X1177750000Y-1047750000D02*
X1181000000Y-1044500000D01*
D30*
X1181480000Y-1037500000D02*
X1183604998Y-1037500000D01*
D26*
X1173000000Y-1040250000D02*
X1175750000Y-1040250000D01*
D30*
X1183604998Y-1037500000D02*
X1184345000Y-1036759998D01*
D26*
X1175750000Y-1047750000D02*
X1177750000Y-1047750000D01*
X1168790000Y-1042250000D02*
X1168500000Y-1042540000D01*
X1205750000Y-1053400000D02*
X1218575000Y-1053400000D01*
X1179710000Y-1040250000D02*
X1179750000Y-1040290000D01*
%TO.N,/M4B*%
D29*
X1232250000Y-1041750000D02*
X1233000000Y-1042500000D01*
X1232250000Y-1037250000D02*
X1232250000Y-1039000000D01*
X1232250000Y-1039000000D02*
X1232250000Y-1041750000D01*
D26*
X1232250000Y-1039000000D02*
X1240000000Y-1039000000D01*
%TO.N,/M4A*%
X1230050000Y-1042500000D02*
X1230050000Y-1042550000D01*
X1235920000Y-1044000000D02*
X1238280000Y-1041640000D01*
X1231500000Y-1044000000D02*
X1235920000Y-1044000000D01*
D29*
X1230250000Y-1042300000D02*
X1230050000Y-1042500000D01*
X1230250000Y-1037250000D02*
X1230250000Y-1042300000D01*
D26*
X1230050000Y-1042550000D02*
X1231500000Y-1044000000D01*
%TO.N,Net-(L1-Pad1)*%
D31*
X1216346300Y-1046000000D02*
X1209200000Y-1046000000D01*
X1220346300Y-1050000000D02*
X1216346300Y-1046000000D01*
X1209200000Y-1046000000D02*
X1208700000Y-1046500000D01*
%TO.N,Net-(L1-Pad2)*%
X1218300000Y-1050500000D02*
X1214300000Y-1046500000D01*
X1222866300Y-1050500000D02*
X1218300000Y-1050500000D01*
X1223366300Y-1050000000D02*
X1222866300Y-1050500000D01*
%TO.N,/M1A*%
D26*
X1162025000Y-1040500000D02*
X1160025000Y-1038500000D01*
D29*
X1163000000Y-1036000000D02*
X1162025000Y-1036975000D01*
D26*
X1160025000Y-1038500000D02*
X1156500000Y-1038500000D01*
D29*
X1162025000Y-1036975000D02*
X1162025000Y-1040500000D01*
D26*
X1156500000Y-1038500000D02*
X1156000000Y-1039000000D01*
X1156000000Y-1039000000D02*
X1156000000Y-1040000000D01*
D29*
X1164500000Y-1036000000D02*
X1163000000Y-1036000000D01*
%TO.N,/M1B*%
D26*
X1159450000Y-1041500000D02*
X1157950000Y-1040000000D01*
D29*
X1166500000Y-1038975000D02*
X1164975000Y-1040500000D01*
D26*
X1164975000Y-1040500000D02*
X1163975000Y-1041500000D01*
D29*
X1166500000Y-1036000000D02*
X1166500000Y-1038975000D01*
D26*
X1163975000Y-1041500000D02*
X1159450000Y-1041500000D01*
%TO.N,/M2A*%
D30*
X1163000000Y-1054000000D02*
X1162200000Y-1053200000D01*
D29*
X1163000000Y-1057950000D02*
X1163000000Y-1054000000D01*
D30*
X1162200000Y-1053200000D02*
X1158000000Y-1053200000D01*
X1158000000Y-1053200000D02*
X1157720000Y-1053480000D01*
X1157720000Y-1053480000D02*
X1157720000Y-1055680000D01*
%TO.N,/M2B*%
D29*
X1165000000Y-1057950000D02*
X1165000000Y-1055000000D01*
D30*
X1164500000Y-1052500000D02*
X1157000000Y-1052500000D01*
X1156460000Y-1053040000D02*
X1156460000Y-1055680000D01*
X1157000000Y-1052500000D02*
X1156460000Y-1053040000D01*
D29*
X1165000000Y-1055000000D02*
X1166000000Y-1054000000D01*
D30*
X1166000000Y-1054000000D02*
X1164500000Y-1052500000D01*
%TD*%
M02*
