%TF.GenerationSoftware,KiCad,Pcbnew,10.0.5-1-g226df246f3*%
%TF.CreationDate,2026-09-06T13:39:45+05:30*%
%TF.ProjectId,lux,6c75782e-6b69-4636-9164-5f7063625858,rev?*%
%TF.SameCoordinates,Original*%
%TF.FileFunction,Legend,Top*%
%TF.FilePolarity,Positive*%
%FSLAX46Y46*%
G04 Gerber Fmt 4.6, Leading zero omitted, Abs format (unit mm)*
G04 Created by KiCad (PCBNEW 10.0.5-1-g226df246f3) date 2026-09-06 13:39:45*
%MOMM*%
%LPD*%
G01*
G04 APERTURE LIST*
%ADD10C,0.150000*%
%ADD11C,0.120000*%
%ADD12C,0.000000*%
%ADD13C,0.152400*%
G04 APERTURE END LIST*
D10*
X1458763095Y-194449819D02*
X1458763095Y-195259342D01*
X1458763095Y-195259342D02*
X1458810714Y-195354580D01*
X1458810714Y-195354580D02*
X1458858333Y-195402200D01*
X1458858333Y-195402200D02*
X1458953571Y-195449819D01*
X1458953571Y-195449819D02*
X1459144047Y-195449819D01*
X1459144047Y-195449819D02*
X1459239285Y-195402200D01*
X1459239285Y-195402200D02*
X1459286904Y-195354580D01*
X1459286904Y-195354580D02*
X1459334523Y-195259342D01*
X1459334523Y-195259342D02*
X1459334523Y-194449819D01*
X1459715476Y-194449819D02*
X1460334523Y-194449819D01*
X1460334523Y-194449819D02*
X1460001190Y-194830771D01*
X1460001190Y-194830771D02*
X1460144047Y-194830771D01*
X1460144047Y-194830771D02*
X1460239285Y-194878390D01*
X1460239285Y-194878390D02*
X1460286904Y-194926009D01*
X1460286904Y-194926009D02*
X1460334523Y-195021247D01*
X1460334523Y-195021247D02*
X1460334523Y-195259342D01*
X1460334523Y-195259342D02*
X1460286904Y-195354580D01*
X1460286904Y-195354580D02*
X1460239285Y-195402200D01*
X1460239285Y-195402200D02*
X1460144047Y-195449819D01*
X1460144047Y-195449819D02*
X1459858333Y-195449819D01*
X1459858333Y-195449819D02*
X1459763095Y-195402200D01*
X1459763095Y-195402200D02*
X1459715476Y-195354580D01*
X1454199819Y-194809523D02*
X1453199819Y-194809523D01*
X1453199819Y-194809523D02*
X1453914104Y-194476190D01*
X1453914104Y-194476190D02*
X1453199819Y-194142857D01*
X1453199819Y-194142857D02*
X1454199819Y-194142857D01*
X1453533152Y-193238095D02*
X1454199819Y-193238095D01*
X1453152200Y-193476190D02*
X1453866485Y-193714285D01*
X1453866485Y-193714285D02*
X1453866485Y-193095238D01*
X1387763095Y-169689819D02*
X1387763095Y-170499342D01*
X1387763095Y-170499342D02*
X1387810714Y-170594580D01*
X1387810714Y-170594580D02*
X1387858333Y-170642200D01*
X1387858333Y-170642200D02*
X1387953571Y-170689819D01*
X1387953571Y-170689819D02*
X1388144047Y-170689819D01*
X1388144047Y-170689819D02*
X1388239285Y-170642200D01*
X1388239285Y-170642200D02*
X1388286904Y-170594580D01*
X1388286904Y-170594580D02*
X1388334523Y-170499342D01*
X1388334523Y-170499342D02*
X1388334523Y-169689819D01*
X1388763095Y-169785057D02*
X1388810714Y-169737438D01*
X1388810714Y-169737438D02*
X1388905952Y-169689819D01*
X1388905952Y-169689819D02*
X1389144047Y-169689819D01*
X1389144047Y-169689819D02*
X1389239285Y-169737438D01*
X1389239285Y-169737438D02*
X1389286904Y-169785057D01*
X1389286904Y-169785057D02*
X1389334523Y-169880295D01*
X1389334523Y-169880295D02*
X1389334523Y-169975533D01*
X1389334523Y-169975533D02*
X1389286904Y-170118390D01*
X1389286904Y-170118390D02*
X1388715476Y-170689819D01*
X1388715476Y-170689819D02*
X1389334523Y-170689819D01*
X1403228095Y-180954819D02*
X1403228095Y-181764342D01*
X1403228095Y-181764342D02*
X1403275714Y-181859580D01*
X1403275714Y-181859580D02*
X1403323333Y-181907200D01*
X1403323333Y-181907200D02*
X1403418571Y-181954819D01*
X1403418571Y-181954819D02*
X1403609047Y-181954819D01*
X1403609047Y-181954819D02*
X1403704285Y-181907200D01*
X1403704285Y-181907200D02*
X1403751904Y-181859580D01*
X1403751904Y-181859580D02*
X1403799523Y-181764342D01*
X1403799523Y-181764342D02*
X1403799523Y-180954819D01*
X1404751904Y-180954819D02*
X1404275714Y-180954819D01*
X1404275714Y-180954819D02*
X1404228095Y-181431009D01*
X1404228095Y-181431009D02*
X1404275714Y-181383390D01*
X1404275714Y-181383390D02*
X1404370952Y-181335771D01*
X1404370952Y-181335771D02*
X1404609047Y-181335771D01*
X1404609047Y-181335771D02*
X1404704285Y-181383390D01*
X1404704285Y-181383390D02*
X1404751904Y-181431009D01*
X1404751904Y-181431009D02*
X1404799523Y-181526247D01*
X1404799523Y-181526247D02*
X1404799523Y-181764342D01*
X1404799523Y-181764342D02*
X1404751904Y-181859580D01*
X1404751904Y-181859580D02*
X1404704285Y-181907200D01*
X1404704285Y-181907200D02*
X1404609047Y-181954819D01*
X1404609047Y-181954819D02*
X1404370952Y-181954819D01*
X1404370952Y-181954819D02*
X1404275714Y-181907200D01*
X1404275714Y-181907200D02*
X1404228095Y-181859580D01*
X1402063001Y-178031820D02*
X1402063001Y-178269915D01*
X1401824906Y-178174677D02*
X1402063001Y-178269915D01*
X1402063001Y-178269915D02*
X1402301096Y-178174677D01*
X1401920144Y-178460391D02*
X1402063001Y-178269915D01*
X1402063001Y-178269915D02*
X1402205858Y-178460391D01*
X1402063001Y-178031820D02*
X1402063001Y-178269915D01*
X1401824906Y-178174677D02*
X1402063001Y-178269915D01*
X1402063001Y-178269915D02*
X1402301096Y-178174677D01*
X1401920144Y-178460391D02*
X1402063001Y-178269915D01*
X1402063001Y-178269915D02*
X1402205858Y-178460391D01*
X1458738095Y-176854819D02*
X1458738095Y-177664342D01*
X1458738095Y-177664342D02*
X1458785714Y-177759580D01*
X1458785714Y-177759580D02*
X1458833333Y-177807200D01*
X1458833333Y-177807200D02*
X1458928571Y-177854819D01*
X1458928571Y-177854819D02*
X1459119047Y-177854819D01*
X1459119047Y-177854819D02*
X1459214285Y-177807200D01*
X1459214285Y-177807200D02*
X1459261904Y-177759580D01*
X1459261904Y-177759580D02*
X1459309523Y-177664342D01*
X1459309523Y-177664342D02*
X1459309523Y-176854819D01*
X1460214285Y-177188152D02*
X1460214285Y-177854819D01*
X1459976190Y-176807200D02*
X1459738095Y-177521485D01*
X1459738095Y-177521485D02*
X1460357142Y-177521485D01*
X1430511904Y-181955180D02*
X1430511904Y-181145657D01*
X1430511904Y-181145657D02*
X1430464285Y-181050419D01*
X1430464285Y-181050419D02*
X1430416666Y-181002800D01*
X1430416666Y-181002800D02*
X1430321428Y-180955180D01*
X1430321428Y-180955180D02*
X1430130952Y-180955180D01*
X1430130952Y-180955180D02*
X1430035714Y-181002800D01*
X1430035714Y-181002800D02*
X1429988095Y-181050419D01*
X1429988095Y-181050419D02*
X1429940476Y-181145657D01*
X1429940476Y-181145657D02*
X1429940476Y-181955180D01*
X1428940476Y-180955180D02*
X1429511904Y-180955180D01*
X1429226190Y-180955180D02*
X1429226190Y-181955180D01*
X1429226190Y-181955180D02*
X1429321428Y-181812323D01*
X1429321428Y-181812323D02*
X1429416666Y-181717085D01*
X1429416666Y-181717085D02*
X1429511904Y-181669466D01*
X1439884300Y-189274819D02*
X1439884300Y-189512914D01*
X1439646205Y-189417676D02*
X1439884300Y-189512914D01*
X1439884300Y-189512914D02*
X1440122395Y-189417676D01*
X1439741443Y-189703390D02*
X1439884300Y-189512914D01*
X1439884300Y-189512914D02*
X1440027157Y-189703390D01*
X1439884299Y-190365180D02*
X1439884299Y-190127085D01*
X1440122394Y-190222323D02*
X1439884299Y-190127085D01*
X1439884299Y-190127085D02*
X1439646204Y-190222323D01*
X1440027156Y-189936609D02*
X1439884299Y-190127085D01*
X1439884299Y-190127085D02*
X1439741442Y-189936609D01*
X1408333333Y-171024819D02*
X1408000000Y-170548628D01*
X1407761905Y-171024819D02*
X1407761905Y-170024819D01*
X1407761905Y-170024819D02*
X1408142857Y-170024819D01*
X1408142857Y-170024819D02*
X1408238095Y-170072438D01*
X1408238095Y-170072438D02*
X1408285714Y-170120057D01*
X1408285714Y-170120057D02*
X1408333333Y-170215295D01*
X1408333333Y-170215295D02*
X1408333333Y-170358152D01*
X1408333333Y-170358152D02*
X1408285714Y-170453390D01*
X1408285714Y-170453390D02*
X1408238095Y-170501009D01*
X1408238095Y-170501009D02*
X1408142857Y-170548628D01*
X1408142857Y-170548628D02*
X1407761905Y-170548628D01*
X1408714286Y-170120057D02*
X1408761905Y-170072438D01*
X1408761905Y-170072438D02*
X1408857143Y-170024819D01*
X1408857143Y-170024819D02*
X1409095238Y-170024819D01*
X1409095238Y-170024819D02*
X1409190476Y-170072438D01*
X1409190476Y-170072438D02*
X1409238095Y-170120057D01*
X1409238095Y-170120057D02*
X1409285714Y-170215295D01*
X1409285714Y-170215295D02*
X1409285714Y-170310533D01*
X1409285714Y-170310533D02*
X1409238095Y-170453390D01*
X1409238095Y-170453390D02*
X1408666667Y-171024819D01*
X1408666667Y-171024819D02*
X1409285714Y-171024819D01*
X1404008333Y-171024819D02*
X1403675000Y-170548628D01*
X1403436905Y-171024819D02*
X1403436905Y-170024819D01*
X1403436905Y-170024819D02*
X1403817857Y-170024819D01*
X1403817857Y-170024819D02*
X1403913095Y-170072438D01*
X1403913095Y-170072438D02*
X1403960714Y-170120057D01*
X1403960714Y-170120057D02*
X1404008333Y-170215295D01*
X1404008333Y-170215295D02*
X1404008333Y-170358152D01*
X1404008333Y-170358152D02*
X1403960714Y-170453390D01*
X1403960714Y-170453390D02*
X1403913095Y-170501009D01*
X1403913095Y-170501009D02*
X1403817857Y-170548628D01*
X1403817857Y-170548628D02*
X1403436905Y-170548628D01*
X1404960714Y-171024819D02*
X1404389286Y-171024819D01*
X1404675000Y-171024819D02*
X1404675000Y-170024819D01*
X1404675000Y-170024819D02*
X1404579762Y-170167676D01*
X1404579762Y-170167676D02*
X1404484524Y-170262914D01*
X1404484524Y-170262914D02*
X1404389286Y-170310533D01*
X1449209819Y-170809523D02*
X1448209819Y-170809523D01*
X1448209819Y-170809523D02*
X1448924104Y-170476190D01*
X1448924104Y-170476190D02*
X1448209819Y-170142857D01*
X1448209819Y-170142857D02*
X1449209819Y-170142857D01*
X1448209819Y-169761904D02*
X1448209819Y-169142857D01*
X1448209819Y-169142857D02*
X1448590771Y-169476190D01*
X1448590771Y-169476190D02*
X1448590771Y-169333333D01*
X1448590771Y-169333333D02*
X1448638390Y-169238095D01*
X1448638390Y-169238095D02*
X1448686009Y-169190476D01*
X1448686009Y-169190476D02*
X1448781247Y-169142857D01*
X1448781247Y-169142857D02*
X1449019342Y-169142857D01*
X1449019342Y-169142857D02*
X1449114580Y-169190476D01*
X1449114580Y-169190476D02*
X1449162200Y-169238095D01*
X1449162200Y-169238095D02*
X1449209819Y-169333333D01*
X1449209819Y-169333333D02*
X1449209819Y-169619047D01*
X1449209819Y-169619047D02*
X1449162200Y-169714285D01*
X1449162200Y-169714285D02*
X1449114580Y-169761904D01*
X1393709819Y-170809523D02*
X1392709819Y-170809523D01*
X1392709819Y-170809523D02*
X1393424104Y-170476190D01*
X1393424104Y-170476190D02*
X1392709819Y-170142857D01*
X1392709819Y-170142857D02*
X1393709819Y-170142857D01*
X1392805057Y-169714285D02*
X1392757438Y-169666666D01*
X1392757438Y-169666666D02*
X1392709819Y-169571428D01*
X1392709819Y-169571428D02*
X1392709819Y-169333333D01*
X1392709819Y-169333333D02*
X1392757438Y-169238095D01*
X1392757438Y-169238095D02*
X1392805057Y-169190476D01*
X1392805057Y-169190476D02*
X1392900295Y-169142857D01*
X1392900295Y-169142857D02*
X1392995533Y-169142857D01*
X1392995533Y-169142857D02*
X1393138390Y-169190476D01*
X1393138390Y-169190476D02*
X1393709819Y-169761904D01*
X1393709819Y-169761904D02*
X1393709819Y-169142857D01*
X1399469819Y-194809523D02*
X1398469819Y-194809523D01*
X1398469819Y-194809523D02*
X1399184104Y-194476190D01*
X1399184104Y-194476190D02*
X1398469819Y-194142857D01*
X1398469819Y-194142857D02*
X1399469819Y-194142857D01*
X1399469819Y-193142857D02*
X1399469819Y-193714285D01*
X1399469819Y-193428571D02*
X1398469819Y-193428571D01*
X1398469819Y-193428571D02*
X1398612676Y-193523809D01*
X1398612676Y-193523809D02*
X1398707914Y-193619047D01*
X1398707914Y-193619047D02*
X1398755533Y-193714285D01*
X1393623333Y-177724819D02*
X1393147143Y-177724819D01*
X1393147143Y-177724819D02*
X1393147143Y-176724819D01*
X1394480476Y-177724819D02*
X1393909048Y-177724819D01*
X1394194762Y-177724819D02*
X1394194762Y-176724819D01*
X1394194762Y-176724819D02*
X1394099524Y-176867676D01*
X1394099524Y-176867676D02*
X1394004286Y-176962914D01*
X1394004286Y-176962914D02*
X1393909048Y-177010533D01*
X1475284819Y-172835833D02*
X1475999104Y-172835833D01*
X1475999104Y-172835833D02*
X1476141961Y-172883452D01*
X1476141961Y-172883452D02*
X1476237200Y-172978690D01*
X1476237200Y-172978690D02*
X1476284819Y-173121547D01*
X1476284819Y-173121547D02*
X1476284819Y-173216785D01*
X1475284819Y-172454880D02*
X1475284819Y-171835833D01*
X1475284819Y-171835833D02*
X1475665771Y-172169166D01*
X1475665771Y-172169166D02*
X1475665771Y-172026309D01*
X1475665771Y-172026309D02*
X1475713390Y-171931071D01*
X1475713390Y-171931071D02*
X1475761009Y-171883452D01*
X1475761009Y-171883452D02*
X1475856247Y-171835833D01*
X1475856247Y-171835833D02*
X1476094342Y-171835833D01*
X1476094342Y-171835833D02*
X1476189580Y-171883452D01*
X1476189580Y-171883452D02*
X1476237200Y-171931071D01*
X1476237200Y-171931071D02*
X1476284819Y-172026309D01*
X1476284819Y-172026309D02*
X1476284819Y-172312023D01*
X1476284819Y-172312023D02*
X1476237200Y-172407261D01*
X1476237200Y-172407261D02*
X1476189580Y-172454880D01*
X1430171666Y-190054819D02*
X1430171666Y-190769104D01*
X1430171666Y-190769104D02*
X1430124047Y-190911961D01*
X1430124047Y-190911961D02*
X1430028809Y-191007200D01*
X1430028809Y-191007200D02*
X1429885952Y-191054819D01*
X1429885952Y-191054819D02*
X1429790714Y-191054819D01*
X1430600238Y-190150057D02*
X1430647857Y-190102438D01*
X1430647857Y-190102438D02*
X1430743095Y-190054819D01*
X1430743095Y-190054819D02*
X1430981190Y-190054819D01*
X1430981190Y-190054819D02*
X1431076428Y-190102438D01*
X1431076428Y-190102438D02*
X1431124047Y-190150057D01*
X1431124047Y-190150057D02*
X1431171666Y-190245295D01*
X1431171666Y-190245295D02*
X1431171666Y-190340533D01*
X1431171666Y-190340533D02*
X1431124047Y-190483390D01*
X1431124047Y-190483390D02*
X1430552619Y-191054819D01*
X1430552619Y-191054819D02*
X1431171666Y-191054819D01*
X1447854819Y-179453333D02*
X1448569104Y-179453333D01*
X1448569104Y-179453333D02*
X1448711961Y-179500952D01*
X1448711961Y-179500952D02*
X1448807200Y-179596190D01*
X1448807200Y-179596190D02*
X1448854819Y-179739047D01*
X1448854819Y-179739047D02*
X1448854819Y-179834285D01*
X1448854819Y-178453333D02*
X1448854819Y-179024761D01*
X1448854819Y-178739047D02*
X1447854819Y-178739047D01*
X1447854819Y-178739047D02*
X1447997676Y-178834285D01*
X1447997676Y-178834285D02*
X1448092914Y-178929523D01*
X1448092914Y-178929523D02*
X1448140533Y-179024761D01*
X1470238095Y-180504819D02*
X1470238095Y-179504819D01*
X1470238095Y-179981009D02*
X1470809523Y-179981009D01*
X1470809523Y-180504819D02*
X1470809523Y-179504819D01*
X1471714285Y-179838152D02*
X1471714285Y-180504819D01*
X1471476190Y-179457200D02*
X1471238095Y-180171485D01*
X1471238095Y-180171485D02*
X1471857142Y-180171485D01*
X1379238095Y-179004819D02*
X1379238095Y-178004819D01*
X1379238095Y-178481009D02*
X1379809523Y-178481009D01*
X1379809523Y-179004819D02*
X1379809523Y-178004819D01*
X1380190476Y-178004819D02*
X1380809523Y-178004819D01*
X1380809523Y-178004819D02*
X1380476190Y-178385771D01*
X1380476190Y-178385771D02*
X1380619047Y-178385771D01*
X1380619047Y-178385771D02*
X1380714285Y-178433390D01*
X1380714285Y-178433390D02*
X1380761904Y-178481009D01*
X1380761904Y-178481009D02*
X1380809523Y-178576247D01*
X1380809523Y-178576247D02*
X1380809523Y-178814342D01*
X1380809523Y-178814342D02*
X1380761904Y-178909580D01*
X1380761904Y-178909580D02*
X1380714285Y-178957200D01*
X1380714285Y-178957200D02*
X1380619047Y-179004819D01*
X1380619047Y-179004819D02*
X1380333333Y-179004819D01*
X1380333333Y-179004819D02*
X1380238095Y-178957200D01*
X1380238095Y-178957200D02*
X1380190476Y-178909580D01*
X1417211905Y-192104819D02*
X1417211905Y-191104819D01*
X1417211905Y-191104819D02*
X1417450000Y-191104819D01*
X1417450000Y-191104819D02*
X1417592857Y-191152438D01*
X1417592857Y-191152438D02*
X1417688095Y-191247676D01*
X1417688095Y-191247676D02*
X1417735714Y-191342914D01*
X1417735714Y-191342914D02*
X1417783333Y-191533390D01*
X1417783333Y-191533390D02*
X1417783333Y-191676247D01*
X1417783333Y-191676247D02*
X1417735714Y-191866723D01*
X1417735714Y-191866723D02*
X1417688095Y-191961961D01*
X1417688095Y-191961961D02*
X1417592857Y-192057200D01*
X1417592857Y-192057200D02*
X1417450000Y-192104819D01*
X1417450000Y-192104819D02*
X1417211905Y-192104819D01*
X1418735714Y-192104819D02*
X1418164286Y-192104819D01*
X1418450000Y-192104819D02*
X1418450000Y-191104819D01*
X1418450000Y-191104819D02*
X1418354762Y-191247676D01*
X1418354762Y-191247676D02*
X1418259524Y-191342914D01*
X1418259524Y-191342914D02*
X1418164286Y-191390533D01*
X1447539580Y-189642857D02*
X1447587200Y-189690476D01*
X1447587200Y-189690476D02*
X1447634819Y-189833333D01*
X1447634819Y-189833333D02*
X1447634819Y-189928571D01*
X1447634819Y-189928571D02*
X1447587200Y-190071428D01*
X1447587200Y-190071428D02*
X1447491961Y-190166666D01*
X1447491961Y-190166666D02*
X1447396723Y-190214285D01*
X1447396723Y-190214285D02*
X1447206247Y-190261904D01*
X1447206247Y-190261904D02*
X1447063390Y-190261904D01*
X1447063390Y-190261904D02*
X1446872914Y-190214285D01*
X1446872914Y-190214285D02*
X1446777676Y-190166666D01*
X1446777676Y-190166666D02*
X1446682438Y-190071428D01*
X1446682438Y-190071428D02*
X1446634819Y-189928571D01*
X1446634819Y-189928571D02*
X1446634819Y-189833333D01*
X1446634819Y-189833333D02*
X1446682438Y-189690476D01*
X1446682438Y-189690476D02*
X1446730057Y-189642857D01*
X1447634819Y-188690476D02*
X1447634819Y-189261904D01*
X1447634819Y-188976190D02*
X1446634819Y-188976190D01*
X1446634819Y-188976190D02*
X1446777676Y-189071428D01*
X1446777676Y-189071428D02*
X1446872914Y-189166666D01*
X1446872914Y-189166666D02*
X1446920533Y-189261904D01*
X1446968152Y-187833333D02*
X1447634819Y-187833333D01*
X1446587200Y-188071428D02*
X1447301485Y-188309523D01*
X1447301485Y-188309523D02*
X1447301485Y-187690476D01*
X1399907142Y-175179580D02*
X1399859523Y-175227200D01*
X1399859523Y-175227200D02*
X1399716666Y-175274819D01*
X1399716666Y-175274819D02*
X1399621428Y-175274819D01*
X1399621428Y-175274819D02*
X1399478571Y-175227200D01*
X1399478571Y-175227200D02*
X1399383333Y-175131961D01*
X1399383333Y-175131961D02*
X1399335714Y-175036723D01*
X1399335714Y-175036723D02*
X1399288095Y-174846247D01*
X1399288095Y-174846247D02*
X1399288095Y-174703390D01*
X1399288095Y-174703390D02*
X1399335714Y-174512914D01*
X1399335714Y-174512914D02*
X1399383333Y-174417676D01*
X1399383333Y-174417676D02*
X1399478571Y-174322438D01*
X1399478571Y-174322438D02*
X1399621428Y-174274819D01*
X1399621428Y-174274819D02*
X1399716666Y-174274819D01*
X1399716666Y-174274819D02*
X1399859523Y-174322438D01*
X1399859523Y-174322438D02*
X1399907142Y-174370057D01*
X1400859523Y-175274819D02*
X1400288095Y-175274819D01*
X1400573809Y-175274819D02*
X1400573809Y-174274819D01*
X1400573809Y-174274819D02*
X1400478571Y-174417676D01*
X1400478571Y-174417676D02*
X1400383333Y-174512914D01*
X1400383333Y-174512914D02*
X1400288095Y-174560533D01*
X1401192857Y-174274819D02*
X1401811904Y-174274819D01*
X1401811904Y-174274819D02*
X1401478571Y-174655771D01*
X1401478571Y-174655771D02*
X1401621428Y-174655771D01*
X1401621428Y-174655771D02*
X1401716666Y-174703390D01*
X1401716666Y-174703390D02*
X1401764285Y-174751009D01*
X1401764285Y-174751009D02*
X1401811904Y-174846247D01*
X1401811904Y-174846247D02*
X1401811904Y-175084342D01*
X1401811904Y-175084342D02*
X1401764285Y-175179580D01*
X1401764285Y-175179580D02*
X1401716666Y-175227200D01*
X1401716666Y-175227200D02*
X1401621428Y-175274819D01*
X1401621428Y-175274819D02*
X1401335714Y-175274819D01*
X1401335714Y-175274819D02*
X1401240476Y-175227200D01*
X1401240476Y-175227200D02*
X1401192857Y-175179580D01*
X1401882142Y-185009580D02*
X1401834523Y-185057200D01*
X1401834523Y-185057200D02*
X1401691666Y-185104819D01*
X1401691666Y-185104819D02*
X1401596428Y-185104819D01*
X1401596428Y-185104819D02*
X1401453571Y-185057200D01*
X1401453571Y-185057200D02*
X1401358333Y-184961961D01*
X1401358333Y-184961961D02*
X1401310714Y-184866723D01*
X1401310714Y-184866723D02*
X1401263095Y-184676247D01*
X1401263095Y-184676247D02*
X1401263095Y-184533390D01*
X1401263095Y-184533390D02*
X1401310714Y-184342914D01*
X1401310714Y-184342914D02*
X1401358333Y-184247676D01*
X1401358333Y-184247676D02*
X1401453571Y-184152438D01*
X1401453571Y-184152438D02*
X1401596428Y-184104819D01*
X1401596428Y-184104819D02*
X1401691666Y-184104819D01*
X1401691666Y-184104819D02*
X1401834523Y-184152438D01*
X1401834523Y-184152438D02*
X1401882142Y-184200057D01*
X1402834523Y-185104819D02*
X1402263095Y-185104819D01*
X1402548809Y-185104819D02*
X1402548809Y-184104819D01*
X1402548809Y-184104819D02*
X1402453571Y-184247676D01*
X1402453571Y-184247676D02*
X1402358333Y-184342914D01*
X1402358333Y-184342914D02*
X1402263095Y-184390533D01*
X1403215476Y-184200057D02*
X1403263095Y-184152438D01*
X1403263095Y-184152438D02*
X1403358333Y-184104819D01*
X1403358333Y-184104819D02*
X1403596428Y-184104819D01*
X1403596428Y-184104819D02*
X1403691666Y-184152438D01*
X1403691666Y-184152438D02*
X1403739285Y-184200057D01*
X1403739285Y-184200057D02*
X1403786904Y-184295295D01*
X1403786904Y-184295295D02*
X1403786904Y-184390533D01*
X1403786904Y-184390533D02*
X1403739285Y-184533390D01*
X1403739285Y-184533390D02*
X1403167857Y-185104819D01*
X1403167857Y-185104819D02*
X1403786904Y-185104819D01*
X1404907142Y-175679580D02*
X1404859523Y-175727200D01*
X1404859523Y-175727200D02*
X1404716666Y-175774819D01*
X1404716666Y-175774819D02*
X1404621428Y-175774819D01*
X1404621428Y-175774819D02*
X1404478571Y-175727200D01*
X1404478571Y-175727200D02*
X1404383333Y-175631961D01*
X1404383333Y-175631961D02*
X1404335714Y-175536723D01*
X1404335714Y-175536723D02*
X1404288095Y-175346247D01*
X1404288095Y-175346247D02*
X1404288095Y-175203390D01*
X1404288095Y-175203390D02*
X1404335714Y-175012914D01*
X1404335714Y-175012914D02*
X1404383333Y-174917676D01*
X1404383333Y-174917676D02*
X1404478571Y-174822438D01*
X1404478571Y-174822438D02*
X1404621428Y-174774819D01*
X1404621428Y-174774819D02*
X1404716666Y-174774819D01*
X1404716666Y-174774819D02*
X1404859523Y-174822438D01*
X1404859523Y-174822438D02*
X1404907142Y-174870057D01*
X1405859523Y-175774819D02*
X1405288095Y-175774819D01*
X1405573809Y-175774819D02*
X1405573809Y-174774819D01*
X1405573809Y-174774819D02*
X1405478571Y-174917676D01*
X1405478571Y-174917676D02*
X1405383333Y-175012914D01*
X1405383333Y-175012914D02*
X1405288095Y-175060533D01*
X1406811904Y-175774819D02*
X1406240476Y-175774819D01*
X1406526190Y-175774819D02*
X1406526190Y-174774819D01*
X1406526190Y-174774819D02*
X1406430952Y-174917676D01*
X1406430952Y-174917676D02*
X1406335714Y-175012914D01*
X1406335714Y-175012914D02*
X1406240476Y-175060533D01*
X1444539580Y-189642857D02*
X1444587200Y-189690476D01*
X1444587200Y-189690476D02*
X1444634819Y-189833333D01*
X1444634819Y-189833333D02*
X1444634819Y-189928571D01*
X1444634819Y-189928571D02*
X1444587200Y-190071428D01*
X1444587200Y-190071428D02*
X1444491961Y-190166666D01*
X1444491961Y-190166666D02*
X1444396723Y-190214285D01*
X1444396723Y-190214285D02*
X1444206247Y-190261904D01*
X1444206247Y-190261904D02*
X1444063390Y-190261904D01*
X1444063390Y-190261904D02*
X1443872914Y-190214285D01*
X1443872914Y-190214285D02*
X1443777676Y-190166666D01*
X1443777676Y-190166666D02*
X1443682438Y-190071428D01*
X1443682438Y-190071428D02*
X1443634819Y-189928571D01*
X1443634819Y-189928571D02*
X1443634819Y-189833333D01*
X1443634819Y-189833333D02*
X1443682438Y-189690476D01*
X1443682438Y-189690476D02*
X1443730057Y-189642857D01*
X1444634819Y-188690476D02*
X1444634819Y-189261904D01*
X1444634819Y-188976190D02*
X1443634819Y-188976190D01*
X1443634819Y-188976190D02*
X1443777676Y-189071428D01*
X1443777676Y-189071428D02*
X1443872914Y-189166666D01*
X1443872914Y-189166666D02*
X1443920533Y-189261904D01*
X1443634819Y-188071428D02*
X1443634819Y-187976190D01*
X1443634819Y-187976190D02*
X1443682438Y-187880952D01*
X1443682438Y-187880952D02*
X1443730057Y-187833333D01*
X1443730057Y-187833333D02*
X1443825295Y-187785714D01*
X1443825295Y-187785714D02*
X1444015771Y-187738095D01*
X1444015771Y-187738095D02*
X1444253866Y-187738095D01*
X1444253866Y-187738095D02*
X1444444342Y-187785714D01*
X1444444342Y-187785714D02*
X1444539580Y-187833333D01*
X1444539580Y-187833333D02*
X1444587200Y-187880952D01*
X1444587200Y-187880952D02*
X1444634819Y-187976190D01*
X1444634819Y-187976190D02*
X1444634819Y-188071428D01*
X1444634819Y-188071428D02*
X1444587200Y-188166666D01*
X1444587200Y-188166666D02*
X1444539580Y-188214285D01*
X1444539580Y-188214285D02*
X1444444342Y-188261904D01*
X1444444342Y-188261904D02*
X1444253866Y-188309523D01*
X1444253866Y-188309523D02*
X1444015771Y-188309523D01*
X1444015771Y-188309523D02*
X1443825295Y-188261904D01*
X1443825295Y-188261904D02*
X1443730057Y-188214285D01*
X1443730057Y-188214285D02*
X1443682438Y-188166666D01*
X1443682438Y-188166666D02*
X1443634819Y-188071428D01*
X1452883333Y-191539580D02*
X1452835714Y-191587200D01*
X1452835714Y-191587200D02*
X1452692857Y-191634819D01*
X1452692857Y-191634819D02*
X1452597619Y-191634819D01*
X1452597619Y-191634819D02*
X1452454762Y-191587200D01*
X1452454762Y-191587200D02*
X1452359524Y-191491961D01*
X1452359524Y-191491961D02*
X1452311905Y-191396723D01*
X1452311905Y-191396723D02*
X1452264286Y-191206247D01*
X1452264286Y-191206247D02*
X1452264286Y-191063390D01*
X1452264286Y-191063390D02*
X1452311905Y-190872914D01*
X1452311905Y-190872914D02*
X1452359524Y-190777676D01*
X1452359524Y-190777676D02*
X1452454762Y-190682438D01*
X1452454762Y-190682438D02*
X1452597619Y-190634819D01*
X1452597619Y-190634819D02*
X1452692857Y-190634819D01*
X1452692857Y-190634819D02*
X1452835714Y-190682438D01*
X1452835714Y-190682438D02*
X1452883333Y-190730057D01*
X1453359524Y-191634819D02*
X1453550000Y-191634819D01*
X1453550000Y-191634819D02*
X1453645238Y-191587200D01*
X1453645238Y-191587200D02*
X1453692857Y-191539580D01*
X1453692857Y-191539580D02*
X1453788095Y-191396723D01*
X1453788095Y-191396723D02*
X1453835714Y-191206247D01*
X1453835714Y-191206247D02*
X1453835714Y-190825295D01*
X1453835714Y-190825295D02*
X1453788095Y-190730057D01*
X1453788095Y-190730057D02*
X1453740476Y-190682438D01*
X1453740476Y-190682438D02*
X1453645238Y-190634819D01*
X1453645238Y-190634819D02*
X1453454762Y-190634819D01*
X1453454762Y-190634819D02*
X1453359524Y-190682438D01*
X1453359524Y-190682438D02*
X1453311905Y-190730057D01*
X1453311905Y-190730057D02*
X1453264286Y-190825295D01*
X1453264286Y-190825295D02*
X1453264286Y-191063390D01*
X1453264286Y-191063390D02*
X1453311905Y-191158628D01*
X1453311905Y-191158628D02*
X1453359524Y-191206247D01*
X1453359524Y-191206247D02*
X1453454762Y-191253866D01*
X1453454762Y-191253866D02*
X1453645238Y-191253866D01*
X1453645238Y-191253866D02*
X1453740476Y-191206247D01*
X1453740476Y-191206247D02*
X1453788095Y-191158628D01*
X1453788095Y-191158628D02*
X1453835714Y-191063390D01*
X1393729580Y-173666666D02*
X1393777200Y-173714285D01*
X1393777200Y-173714285D02*
X1393824819Y-173857142D01*
X1393824819Y-173857142D02*
X1393824819Y-173952380D01*
X1393824819Y-173952380D02*
X1393777200Y-174095237D01*
X1393777200Y-174095237D02*
X1393681961Y-174190475D01*
X1393681961Y-174190475D02*
X1393586723Y-174238094D01*
X1393586723Y-174238094D02*
X1393396247Y-174285713D01*
X1393396247Y-174285713D02*
X1393253390Y-174285713D01*
X1393253390Y-174285713D02*
X1393062914Y-174238094D01*
X1393062914Y-174238094D02*
X1392967676Y-174190475D01*
X1392967676Y-174190475D02*
X1392872438Y-174095237D01*
X1392872438Y-174095237D02*
X1392824819Y-173952380D01*
X1392824819Y-173952380D02*
X1392824819Y-173857142D01*
X1392824819Y-173857142D02*
X1392872438Y-173714285D01*
X1392872438Y-173714285D02*
X1392920057Y-173666666D01*
X1393253390Y-173095237D02*
X1393205771Y-173190475D01*
X1393205771Y-173190475D02*
X1393158152Y-173238094D01*
X1393158152Y-173238094D02*
X1393062914Y-173285713D01*
X1393062914Y-173285713D02*
X1393015295Y-173285713D01*
X1393015295Y-173285713D02*
X1392920057Y-173238094D01*
X1392920057Y-173238094D02*
X1392872438Y-173190475D01*
X1392872438Y-173190475D02*
X1392824819Y-173095237D01*
X1392824819Y-173095237D02*
X1392824819Y-172904761D01*
X1392824819Y-172904761D02*
X1392872438Y-172809523D01*
X1392872438Y-172809523D02*
X1392920057Y-172761904D01*
X1392920057Y-172761904D02*
X1393015295Y-172714285D01*
X1393015295Y-172714285D02*
X1393062914Y-172714285D01*
X1393062914Y-172714285D02*
X1393158152Y-172761904D01*
X1393158152Y-172761904D02*
X1393205771Y-172809523D01*
X1393205771Y-172809523D02*
X1393253390Y-172904761D01*
X1393253390Y-172904761D02*
X1393253390Y-173095237D01*
X1393253390Y-173095237D02*
X1393301009Y-173190475D01*
X1393301009Y-173190475D02*
X1393348628Y-173238094D01*
X1393348628Y-173238094D02*
X1393443866Y-173285713D01*
X1393443866Y-173285713D02*
X1393634342Y-173285713D01*
X1393634342Y-173285713D02*
X1393729580Y-173238094D01*
X1393729580Y-173238094D02*
X1393777200Y-173190475D01*
X1393777200Y-173190475D02*
X1393824819Y-173095237D01*
X1393824819Y-173095237D02*
X1393824819Y-172904761D01*
X1393824819Y-172904761D02*
X1393777200Y-172809523D01*
X1393777200Y-172809523D02*
X1393729580Y-172761904D01*
X1393729580Y-172761904D02*
X1393634342Y-172714285D01*
X1393634342Y-172714285D02*
X1393443866Y-172714285D01*
X1393443866Y-172714285D02*
X1393348628Y-172761904D01*
X1393348628Y-172761904D02*
X1393301009Y-172809523D01*
X1393301009Y-172809523D02*
X1393253390Y-172904761D01*
X1397383333Y-192039580D02*
X1397335714Y-192087200D01*
X1397335714Y-192087200D02*
X1397192857Y-192134819D01*
X1397192857Y-192134819D02*
X1397097619Y-192134819D01*
X1397097619Y-192134819D02*
X1396954762Y-192087200D01*
X1396954762Y-192087200D02*
X1396859524Y-191991961D01*
X1396859524Y-191991961D02*
X1396811905Y-191896723D01*
X1396811905Y-191896723D02*
X1396764286Y-191706247D01*
X1396764286Y-191706247D02*
X1396764286Y-191563390D01*
X1396764286Y-191563390D02*
X1396811905Y-191372914D01*
X1396811905Y-191372914D02*
X1396859524Y-191277676D01*
X1396859524Y-191277676D02*
X1396954762Y-191182438D01*
X1396954762Y-191182438D02*
X1397097619Y-191134819D01*
X1397097619Y-191134819D02*
X1397192857Y-191134819D01*
X1397192857Y-191134819D02*
X1397335714Y-191182438D01*
X1397335714Y-191182438D02*
X1397383333Y-191230057D01*
X1397716667Y-191134819D02*
X1398383333Y-191134819D01*
X1398383333Y-191134819D02*
X1397954762Y-192134819D01*
X1453539580Y-174616666D02*
X1453587200Y-174664285D01*
X1453587200Y-174664285D02*
X1453634819Y-174807142D01*
X1453634819Y-174807142D02*
X1453634819Y-174902380D01*
X1453634819Y-174902380D02*
X1453587200Y-175045237D01*
X1453587200Y-175045237D02*
X1453491961Y-175140475D01*
X1453491961Y-175140475D02*
X1453396723Y-175188094D01*
X1453396723Y-175188094D02*
X1453206247Y-175235713D01*
X1453206247Y-175235713D02*
X1453063390Y-175235713D01*
X1453063390Y-175235713D02*
X1452872914Y-175188094D01*
X1452872914Y-175188094D02*
X1452777676Y-175140475D01*
X1452777676Y-175140475D02*
X1452682438Y-175045237D01*
X1452682438Y-175045237D02*
X1452634819Y-174902380D01*
X1452634819Y-174902380D02*
X1452634819Y-174807142D01*
X1452634819Y-174807142D02*
X1452682438Y-174664285D01*
X1452682438Y-174664285D02*
X1452730057Y-174616666D01*
X1452634819Y-173759523D02*
X1452634819Y-173949999D01*
X1452634819Y-173949999D02*
X1452682438Y-174045237D01*
X1452682438Y-174045237D02*
X1452730057Y-174092856D01*
X1452730057Y-174092856D02*
X1452872914Y-174188094D01*
X1452872914Y-174188094D02*
X1453063390Y-174235713D01*
X1453063390Y-174235713D02*
X1453444342Y-174235713D01*
X1453444342Y-174235713D02*
X1453539580Y-174188094D01*
X1453539580Y-174188094D02*
X1453587200Y-174140475D01*
X1453587200Y-174140475D02*
X1453634819Y-174045237D01*
X1453634819Y-174045237D02*
X1453634819Y-173854761D01*
X1453634819Y-173854761D02*
X1453587200Y-173759523D01*
X1453587200Y-173759523D02*
X1453539580Y-173711904D01*
X1453539580Y-173711904D02*
X1453444342Y-173664285D01*
X1453444342Y-173664285D02*
X1453206247Y-173664285D01*
X1453206247Y-173664285D02*
X1453111009Y-173711904D01*
X1453111009Y-173711904D02*
X1453063390Y-173759523D01*
X1453063390Y-173759523D02*
X1453015771Y-173854761D01*
X1453015771Y-173854761D02*
X1453015771Y-174045237D01*
X1453015771Y-174045237D02*
X1453063390Y-174140475D01*
X1453063390Y-174140475D02*
X1453111009Y-174188094D01*
X1453111009Y-174188094D02*
X1453206247Y-174235713D01*
X1409539580Y-183666666D02*
X1409587200Y-183714285D01*
X1409587200Y-183714285D02*
X1409634819Y-183857142D01*
X1409634819Y-183857142D02*
X1409634819Y-183952380D01*
X1409634819Y-183952380D02*
X1409587200Y-184095237D01*
X1409587200Y-184095237D02*
X1409491961Y-184190475D01*
X1409491961Y-184190475D02*
X1409396723Y-184238094D01*
X1409396723Y-184238094D02*
X1409206247Y-184285713D01*
X1409206247Y-184285713D02*
X1409063390Y-184285713D01*
X1409063390Y-184285713D02*
X1408872914Y-184238094D01*
X1408872914Y-184238094D02*
X1408777676Y-184190475D01*
X1408777676Y-184190475D02*
X1408682438Y-184095237D01*
X1408682438Y-184095237D02*
X1408634819Y-183952380D01*
X1408634819Y-183952380D02*
X1408634819Y-183857142D01*
X1408634819Y-183857142D02*
X1408682438Y-183714285D01*
X1408682438Y-183714285D02*
X1408730057Y-183666666D01*
X1408634819Y-182761904D02*
X1408634819Y-183238094D01*
X1408634819Y-183238094D02*
X1409111009Y-183285713D01*
X1409111009Y-183285713D02*
X1409063390Y-183238094D01*
X1409063390Y-183238094D02*
X1409015771Y-183142856D01*
X1409015771Y-183142856D02*
X1409015771Y-182904761D01*
X1409015771Y-182904761D02*
X1409063390Y-182809523D01*
X1409063390Y-182809523D02*
X1409111009Y-182761904D01*
X1409111009Y-182761904D02*
X1409206247Y-182714285D01*
X1409206247Y-182714285D02*
X1409444342Y-182714285D01*
X1409444342Y-182714285D02*
X1409539580Y-182761904D01*
X1409539580Y-182761904D02*
X1409587200Y-182809523D01*
X1409587200Y-182809523D02*
X1409634819Y-182904761D01*
X1409634819Y-182904761D02*
X1409634819Y-183142856D01*
X1409634819Y-183142856D02*
X1409587200Y-183238094D01*
X1409587200Y-183238094D02*
X1409539580Y-183285713D01*
X1449353333Y-190199580D02*
X1449305714Y-190247200D01*
X1449305714Y-190247200D02*
X1449162857Y-190294819D01*
X1449162857Y-190294819D02*
X1449067619Y-190294819D01*
X1449067619Y-190294819D02*
X1448924762Y-190247200D01*
X1448924762Y-190247200D02*
X1448829524Y-190151961D01*
X1448829524Y-190151961D02*
X1448781905Y-190056723D01*
X1448781905Y-190056723D02*
X1448734286Y-189866247D01*
X1448734286Y-189866247D02*
X1448734286Y-189723390D01*
X1448734286Y-189723390D02*
X1448781905Y-189532914D01*
X1448781905Y-189532914D02*
X1448829524Y-189437676D01*
X1448829524Y-189437676D02*
X1448924762Y-189342438D01*
X1448924762Y-189342438D02*
X1449067619Y-189294819D01*
X1449067619Y-189294819D02*
X1449162857Y-189294819D01*
X1449162857Y-189294819D02*
X1449305714Y-189342438D01*
X1449305714Y-189342438D02*
X1449353333Y-189390057D01*
X1450210476Y-189628152D02*
X1450210476Y-190294819D01*
X1449972381Y-189247200D02*
X1449734286Y-189961485D01*
X1449734286Y-189961485D02*
X1450353333Y-189961485D01*
X1456019580Y-174146666D02*
X1456067200Y-174194285D01*
X1456067200Y-174194285D02*
X1456114819Y-174337142D01*
X1456114819Y-174337142D02*
X1456114819Y-174432380D01*
X1456114819Y-174432380D02*
X1456067200Y-174575237D01*
X1456067200Y-174575237D02*
X1455971961Y-174670475D01*
X1455971961Y-174670475D02*
X1455876723Y-174718094D01*
X1455876723Y-174718094D02*
X1455686247Y-174765713D01*
X1455686247Y-174765713D02*
X1455543390Y-174765713D01*
X1455543390Y-174765713D02*
X1455352914Y-174718094D01*
X1455352914Y-174718094D02*
X1455257676Y-174670475D01*
X1455257676Y-174670475D02*
X1455162438Y-174575237D01*
X1455162438Y-174575237D02*
X1455114819Y-174432380D01*
X1455114819Y-174432380D02*
X1455114819Y-174337142D01*
X1455114819Y-174337142D02*
X1455162438Y-174194285D01*
X1455162438Y-174194285D02*
X1455210057Y-174146666D01*
X1455114819Y-173813332D02*
X1455114819Y-173194285D01*
X1455114819Y-173194285D02*
X1455495771Y-173527618D01*
X1455495771Y-173527618D02*
X1455495771Y-173384761D01*
X1455495771Y-173384761D02*
X1455543390Y-173289523D01*
X1455543390Y-173289523D02*
X1455591009Y-173241904D01*
X1455591009Y-173241904D02*
X1455686247Y-173194285D01*
X1455686247Y-173194285D02*
X1455924342Y-173194285D01*
X1455924342Y-173194285D02*
X1456019580Y-173241904D01*
X1456019580Y-173241904D02*
X1456067200Y-173289523D01*
X1456067200Y-173289523D02*
X1456114819Y-173384761D01*
X1456114819Y-173384761D02*
X1456114819Y-173670475D01*
X1456114819Y-173670475D02*
X1456067200Y-173765713D01*
X1456067200Y-173765713D02*
X1456019580Y-173813332D01*
X1390353333Y-171519580D02*
X1390305714Y-171567200D01*
X1390305714Y-171567200D02*
X1390162857Y-171614819D01*
X1390162857Y-171614819D02*
X1390067619Y-171614819D01*
X1390067619Y-171614819D02*
X1389924762Y-171567200D01*
X1389924762Y-171567200D02*
X1389829524Y-171471961D01*
X1389829524Y-171471961D02*
X1389781905Y-171376723D01*
X1389781905Y-171376723D02*
X1389734286Y-171186247D01*
X1389734286Y-171186247D02*
X1389734286Y-171043390D01*
X1389734286Y-171043390D02*
X1389781905Y-170852914D01*
X1389781905Y-170852914D02*
X1389829524Y-170757676D01*
X1389829524Y-170757676D02*
X1389924762Y-170662438D01*
X1389924762Y-170662438D02*
X1390067619Y-170614819D01*
X1390067619Y-170614819D02*
X1390162857Y-170614819D01*
X1390162857Y-170614819D02*
X1390305714Y-170662438D01*
X1390305714Y-170662438D02*
X1390353333Y-170710057D01*
X1390734286Y-170710057D02*
X1390781905Y-170662438D01*
X1390781905Y-170662438D02*
X1390877143Y-170614819D01*
X1390877143Y-170614819D02*
X1391115238Y-170614819D01*
X1391115238Y-170614819D02*
X1391210476Y-170662438D01*
X1391210476Y-170662438D02*
X1391258095Y-170710057D01*
X1391258095Y-170710057D02*
X1391305714Y-170805295D01*
X1391305714Y-170805295D02*
X1391305714Y-170900533D01*
X1391305714Y-170900533D02*
X1391258095Y-171043390D01*
X1391258095Y-171043390D02*
X1390686667Y-171614819D01*
X1390686667Y-171614819D02*
X1391305714Y-171614819D01*
X1392679580Y-191666666D02*
X1392727200Y-191714285D01*
X1392727200Y-191714285D02*
X1392774819Y-191857142D01*
X1392774819Y-191857142D02*
X1392774819Y-191952380D01*
X1392774819Y-191952380D02*
X1392727200Y-192095237D01*
X1392727200Y-192095237D02*
X1392631961Y-192190475D01*
X1392631961Y-192190475D02*
X1392536723Y-192238094D01*
X1392536723Y-192238094D02*
X1392346247Y-192285713D01*
X1392346247Y-192285713D02*
X1392203390Y-192285713D01*
X1392203390Y-192285713D02*
X1392012914Y-192238094D01*
X1392012914Y-192238094D02*
X1391917676Y-192190475D01*
X1391917676Y-192190475D02*
X1391822438Y-192095237D01*
X1391822438Y-192095237D02*
X1391774819Y-191952380D01*
X1391774819Y-191952380D02*
X1391774819Y-191857142D01*
X1391774819Y-191857142D02*
X1391822438Y-191714285D01*
X1391822438Y-191714285D02*
X1391870057Y-191666666D01*
X1392774819Y-190714285D02*
X1392774819Y-191285713D01*
X1392774819Y-190999999D02*
X1391774819Y-190999999D01*
X1391774819Y-190999999D02*
X1391917676Y-191095237D01*
X1391917676Y-191095237D02*
X1392012914Y-191190475D01*
X1392012914Y-191190475D02*
X1392060533Y-191285713D01*
X1387834524Y-188459819D02*
X1387834524Y-187459819D01*
X1387834524Y-187840771D02*
X1387929762Y-187793152D01*
X1387929762Y-187793152D02*
X1388120238Y-187793152D01*
X1388120238Y-187793152D02*
X1388215476Y-187840771D01*
X1388215476Y-187840771D02*
X1388263095Y-187888390D01*
X1388263095Y-187888390D02*
X1388310714Y-187983628D01*
X1388310714Y-187983628D02*
X1388310714Y-188269342D01*
X1388310714Y-188269342D02*
X1388263095Y-188364580D01*
X1388263095Y-188364580D02*
X1388215476Y-188412200D01*
X1388215476Y-188412200D02*
X1388120238Y-188459819D01*
X1388120238Y-188459819D02*
X1387929762Y-188459819D01*
X1387929762Y-188459819D02*
X1387834524Y-188412200D01*
X1389263095Y-188459819D02*
X1388691667Y-188459819D01*
X1388977381Y-188459819D02*
X1388977381Y-187459819D01*
X1388977381Y-187459819D02*
X1388882143Y-187602676D01*
X1388882143Y-187602676D02*
X1388786905Y-187697914D01*
X1388786905Y-187697914D02*
X1388691667Y-187745533D01*
D11*
%TO.C,U3*%
X1462125000Y-194065000D02*
X1462365000Y-194395000D01*
X1461885000Y-194395000D01*
X1462125000Y-194065000D01*
G36*
X1462365000Y-194395000D02*
G01*
X1461885000Y-194395000D01*
X1462125000Y-194065000D01*
X1462365000Y-194395000D01*
G37*
X1457465000Y-189035000D02*
X1461585000Y-189035000D01*
X1457465000Y-189130000D02*
X1457465000Y-189035000D01*
X1457465000Y-194155000D02*
X1457465000Y-194060000D01*
X1461585000Y-189035000D02*
X1461585000Y-189130000D01*
X1461585000Y-194060000D02*
X1461585000Y-194155000D01*
X1461585000Y-194155000D02*
X1457465000Y-194155000D01*
%TO.C,M4*%
X1451190000Y-195160000D02*
X1449985000Y-195160000D01*
X1451190000Y-194666708D02*
X1451190000Y-195160000D01*
X1449985000Y-194317923D02*
X1449985000Y-195160000D01*
X1449985000Y-192840000D02*
X1449985000Y-193682077D01*
X1451190000Y-192840000D02*
X1451190000Y-193333292D01*
X1451190000Y-192840000D02*
X1449985000Y-192840000D01*
X1452000000Y-192840000D02*
X1452810000Y-192840000D01*
X1452810000Y-192840000D02*
X1452810000Y-194000000D01*
%TO.C,U2*%
X1385925000Y-171165000D02*
X1385685000Y-170835000D01*
X1386165000Y-170835000D01*
X1385925000Y-171165000D01*
G36*
X1385925000Y-171165000D02*
G01*
X1385685000Y-170835000D01*
X1386165000Y-170835000D01*
X1385925000Y-171165000D01*
G37*
X1390585000Y-176195000D02*
X1386465000Y-176195000D01*
X1390585000Y-176100000D02*
X1390585000Y-176195000D01*
X1390585000Y-171075000D02*
X1390585000Y-171170000D01*
X1386465000Y-176195000D02*
X1386465000Y-176100000D01*
X1386465000Y-171170000D02*
X1386465000Y-171075000D01*
X1386465000Y-171075000D02*
X1390585000Y-171075000D01*
D12*
%TO.C,U5*%
G36*
X1406580998Y-182190499D02*
G01*
X1406326998Y-182190499D01*
X1406326998Y-181809499D01*
X1406580998Y-181809499D01*
X1406580998Y-182190499D01*
G37*
D13*
X1402415001Y-183575000D02*
X1402879980Y-183575000D01*
X1405564999Y-179425000D02*
X1405100020Y-179425000D01*
X1402879980Y-179425000D02*
X1402415001Y-179425000D01*
X1405100020Y-183575000D02*
X1405564999Y-183575000D01*
%TO.C,U4*%
D11*
X1461560000Y-176560000D02*
X1457440000Y-176560000D01*
X1461560000Y-176465000D02*
X1461560000Y-176560000D01*
X1461560000Y-171440000D02*
X1461560000Y-171535000D01*
X1457440000Y-176560000D02*
X1457440000Y-176465000D01*
X1457440000Y-171535000D02*
X1457440000Y-171440000D01*
X1457440000Y-171440000D02*
X1461560000Y-171440000D01*
X1462100000Y-176470000D02*
X1462340000Y-176800000D01*
X1461860000Y-176800000D01*
X1462100000Y-176470000D01*
G36*
X1462340000Y-176800000D02*
G01*
X1461860000Y-176800000D01*
X1462100000Y-176470000D01*
X1462340000Y-176800000D01*
G37*
%TO.C,U1*%
D13*
X1420618700Y-171681800D02*
X1420618700Y-172532760D01*
X1420618700Y-191138200D02*
X1438881300Y-191138200D01*
X1438881300Y-191138200D02*
X1438881300Y-190597240D01*
X1438881300Y-171681800D02*
X1437512240Y-171681800D01*
X1438881300Y-172532760D02*
X1438881300Y-171681800D01*
X1421987760Y-171681800D02*
X1420618700Y-171681800D01*
X1420618700Y-190597240D02*
X1420618700Y-191138200D01*
%TO.C,R2*%
D11*
X1408262742Y-171477500D02*
X1408737258Y-171477500D01*
X1408262742Y-172522500D02*
X1408737258Y-172522500D01*
%TO.C,R1*%
X1403937742Y-171477500D02*
X1404412258Y-171477500D01*
X1403937742Y-172522500D02*
X1404412258Y-172522500D01*
%TO.C,M3*%
X1449690000Y-171160000D02*
X1449690000Y-170000000D01*
X1450500000Y-171160000D02*
X1449690000Y-171160000D01*
X1451310000Y-171160000D02*
X1452515000Y-171160000D01*
X1451310000Y-171160000D02*
X1451310000Y-170666708D01*
X1452515000Y-171160000D02*
X1452515000Y-170317923D01*
X1452515000Y-169682077D02*
X1452515000Y-168840000D01*
X1451310000Y-169333292D02*
X1451310000Y-168840000D01*
X1451310000Y-168840000D02*
X1452515000Y-168840000D01*
%TO.C,M2*%
X1394190000Y-171160000D02*
X1394190000Y-170000000D01*
X1395000000Y-171160000D02*
X1394190000Y-171160000D01*
X1395810000Y-171160000D02*
X1397015000Y-171160000D01*
X1395810000Y-171160000D02*
X1395810000Y-170666708D01*
X1397015000Y-171160000D02*
X1397015000Y-170317923D01*
X1397015000Y-169682077D02*
X1397015000Y-168840000D01*
X1395810000Y-169333292D02*
X1395810000Y-168840000D01*
X1395810000Y-168840000D02*
X1397015000Y-168840000D01*
%TO.C,M1*%
X1398080000Y-192840000D02*
X1398080000Y-194000000D01*
X1397270000Y-192840000D02*
X1398080000Y-192840000D01*
X1396460000Y-192840000D02*
X1395255000Y-192840000D01*
X1396460000Y-192840000D02*
X1396460000Y-193333292D01*
X1395255000Y-192840000D02*
X1395255000Y-193682077D01*
X1395255000Y-194317923D02*
X1395255000Y-195160000D01*
X1396460000Y-194666708D02*
X1396460000Y-195160000D01*
X1396460000Y-195160000D02*
X1395255000Y-195160000D01*
%TO.C,L1*%
X1392450000Y-186700000D02*
X1394950000Y-186700000D01*
X1394950000Y-178300000D02*
X1392450000Y-178300000D01*
%TO.C,J3*%
X1472950000Y-168092500D02*
X1470750000Y-168092500D01*
X1472660000Y-168432500D02*
X1470750000Y-168432500D01*
X1472660000Y-168432500D02*
X1472660000Y-176562500D01*
X1470750000Y-168432500D02*
X1465920000Y-168432500D01*
X1472950000Y-169392500D02*
X1472950000Y-168092500D01*
X1474050000Y-169702500D02*
X1474050000Y-175292500D01*
X1473800000Y-169702500D02*
X1473800000Y-175292500D01*
X1472910000Y-169702500D02*
X1472910000Y-175292500D01*
X1472660000Y-169702500D02*
X1474050000Y-169702500D01*
X1466180000Y-172112500D02*
X1466180000Y-172882500D01*
X1465920000Y-172112500D02*
X1465920000Y-168432500D01*
X1465920000Y-172112500D02*
X1466180000Y-172112500D01*
X1466180000Y-172882500D02*
X1465920000Y-172882500D01*
X1465920000Y-172882500D02*
X1465920000Y-176562500D01*
X1472660000Y-175292500D02*
X1474050000Y-175292500D01*
X1472660000Y-176562500D02*
X1470750000Y-176562500D01*
X1465920000Y-176562500D02*
X1470750000Y-176562500D01*
%TO.C,J2*%
X1426765000Y-193700000D02*
X1426765000Y-195610000D01*
X1426765000Y-195610000D02*
X1428675000Y-195610000D01*
X1427075000Y-193250000D02*
X1427375000Y-193250000D01*
X1427075000Y-194000000D02*
X1427375000Y-194000000D01*
X1427375000Y-192150000D02*
X1427675000Y-192150000D01*
X1427375000Y-193250000D02*
X1427375000Y-192150000D01*
X1427375000Y-194000000D02*
X1427375000Y-195000000D01*
X1427375000Y-195000000D02*
X1433625000Y-195000000D01*
X1427675000Y-192150000D02*
X1427675000Y-191700000D01*
X1427675000Y-192150000D02*
X1428875000Y-192150000D01*
X1428875000Y-191850000D02*
X1429625000Y-191850000D01*
X1428875000Y-192150000D02*
X1428875000Y-191850000D01*
X1429625000Y-191850000D02*
X1429625000Y-192150000D01*
X1429625000Y-192150000D02*
X1431375000Y-192150000D01*
X1431375000Y-191850000D02*
X1432125000Y-191850000D01*
X1431375000Y-192150000D02*
X1431375000Y-191850000D01*
X1432125000Y-191850000D02*
X1432125000Y-192150000D01*
X1432125000Y-192150000D02*
X1433325000Y-192150000D01*
X1433325000Y-192150000D02*
X1433325000Y-191700000D01*
X1433625000Y-192150000D02*
X1433325000Y-192150000D01*
X1433625000Y-193250000D02*
X1433625000Y-192150000D01*
X1433625000Y-194000000D02*
X1433925000Y-194000000D01*
X1433625000Y-195000000D02*
X1433625000Y-194000000D01*
X1433925000Y-193250000D02*
X1433625000Y-193250000D01*
X1427075000Y-191700000D02*
X1433925000Y-191700000D01*
X1433925000Y-195300000D01*
X1427075000Y-195300000D01*
X1427075000Y-191700000D01*
%TO.C,J1*%
X1445300000Y-171640000D02*
X1443390000Y-171640000D01*
X1443390000Y-171640000D02*
X1443390000Y-173550000D01*
X1445750000Y-171950000D02*
X1445750000Y-172250000D01*
X1445000000Y-171950000D02*
X1445000000Y-172250000D01*
X1446850000Y-172250000D02*
X1446850000Y-172550000D01*
X1445750000Y-172250000D02*
X1446850000Y-172250000D01*
X1445000000Y-172250000D02*
X1444000000Y-172250000D01*
X1444000000Y-172250000D02*
X1444000000Y-186000000D01*
X1446850000Y-172550000D02*
X1447300000Y-172550000D01*
X1446850000Y-172550000D02*
X1446850000Y-173750000D01*
X1447150000Y-173750000D02*
X1447150000Y-174500000D01*
X1446850000Y-173750000D02*
X1447150000Y-173750000D01*
X1447150000Y-174500000D02*
X1446850000Y-174500000D01*
X1446850000Y-174500000D02*
X1446850000Y-183750000D01*
X1447150000Y-183750000D02*
X1447150000Y-184500000D01*
X1446850000Y-183750000D02*
X1447150000Y-183750000D01*
X1447150000Y-184500000D02*
X1446850000Y-184500000D01*
X1446850000Y-184500000D02*
X1446850000Y-185700000D01*
X1446850000Y-185700000D02*
X1447300000Y-185700000D01*
X1446850000Y-186000000D02*
X1446850000Y-185700000D01*
X1445750000Y-186000000D02*
X1446850000Y-186000000D01*
X1445000000Y-186000000D02*
X1445000000Y-186300000D01*
X1444000000Y-186000000D02*
X1445000000Y-186000000D01*
X1445750000Y-186300000D02*
X1445750000Y-186000000D01*
X1443700000Y-171950000D02*
X1447300000Y-171950000D01*
X1447300000Y-186300000D01*
X1443700000Y-186300000D01*
X1443700000Y-171950000D01*
%TO.C,D1*%
X1416340000Y-192650000D02*
X1416340000Y-194350000D01*
X1416340000Y-192650000D02*
X1419000000Y-192650000D01*
X1416340000Y-194350000D02*
X1419000000Y-194350000D01*
%TO.C,C14*%
X1446380000Y-188892164D02*
X1446380000Y-189107836D01*
X1445660000Y-188892164D02*
X1445660000Y-189107836D01*
%TO.C,C13*%
X1400288748Y-175765000D02*
X1400811252Y-175765000D01*
X1400288748Y-177235000D02*
X1400811252Y-177235000D01*
%TO.C,C12*%
X1401813748Y-185590000D02*
X1403236252Y-185590000D01*
X1401813748Y-187410000D02*
X1403236252Y-187410000D01*
%TO.C,C11*%
X1405288748Y-176265000D02*
X1405811252Y-176265000D01*
X1405288748Y-177735000D02*
X1405811252Y-177735000D01*
%TO.C,C10*%
X1443380000Y-188892164D02*
X1443380000Y-189107836D01*
X1442660000Y-188892164D02*
X1442660000Y-189107836D01*
%TO.C,C9*%
X1453311252Y-190235000D02*
X1452788748Y-190235000D01*
X1453311252Y-188765000D02*
X1452788748Y-188765000D01*
%TO.C,C8*%
X1394315000Y-173761252D02*
X1394315000Y-173238748D01*
X1395785000Y-173761252D02*
X1395785000Y-173238748D01*
%TO.C,C7*%
X1397811252Y-190735000D02*
X1397288748Y-190735000D01*
X1397811252Y-189265000D02*
X1397288748Y-189265000D01*
%TO.C,C6*%
X1452235000Y-174188748D02*
X1452235000Y-174711252D01*
X1450765000Y-174188748D02*
X1450765000Y-174711252D01*
%TO.C,C5*%
X1408380000Y-183392164D02*
X1408380000Y-183607836D01*
X1407660000Y-183392164D02*
X1407660000Y-183607836D01*
%TO.C,C4*%
X1449412164Y-190640000D02*
X1449627836Y-190640000D01*
X1449412164Y-191360000D02*
X1449627836Y-191360000D01*
%TO.C,C3*%
X1454860000Y-173872164D02*
X1454860000Y-174087836D01*
X1454140000Y-173872164D02*
X1454140000Y-174087836D01*
%TO.C,C2*%
X1390627836Y-170360000D02*
X1390412164Y-170360000D01*
X1390627836Y-169640000D02*
X1390412164Y-169640000D01*
%TO.C,C1*%
X1393120000Y-191607836D02*
X1393120000Y-191392164D01*
X1393840000Y-191607836D02*
X1393840000Y-191392164D01*
%TO.C,b1*%
X1386465000Y-188845000D02*
X1390585000Y-188845000D01*
X1386465000Y-188940000D02*
X1386465000Y-188845000D01*
X1386465000Y-193965000D02*
X1386465000Y-193870000D01*
X1390585000Y-188845000D02*
X1390585000Y-188940000D01*
X1390585000Y-193870000D02*
X1390585000Y-193965000D01*
X1390585000Y-193965000D02*
X1386465000Y-193965000D01*
X1385925000Y-188935000D02*
X1385685000Y-188605000D01*
X1386165000Y-188605000D01*
X1385925000Y-188935000D01*
G36*
X1385925000Y-188935000D02*
G01*
X1385685000Y-188605000D01*
X1386165000Y-188605000D01*
X1385925000Y-188935000D01*
G37*
%TD*%
M02*
