%TF.GenerationSoftware,KiCad,Pcbnew,10.0.6*%
%TF.CreationDate,2026-09-21T23:39:06+05:30*%
%TF.ProjectId,lux,6c75782e-6b69-4636-9164-5f7063625858,rev?*%
%TF.SameCoordinates,Original*%
%TF.FileFunction,Legend,Top*%
%TF.FilePolarity,Positive*%
%FSLAX46Y46*%
G04 Gerber Fmt 4.6, Leading zero omitted, Abs format (unit mm)*
G04 Created by KiCad (PCBNEW 10.0.6) date 2026-09-21 23:39:06*
%MOMM*%
%LPD*%
G01*
G04 APERTURE LIST*
%ADD10C,0.150000*%
%ADD11C,0.300000*%
%ADD12C,0.060000*%
%ADD13C,0.120000*%
%ADD14C,0.250000*%
%ADD15C,0.152400*%
%ADD16C,0.000000*%
G04 APERTURE END LIST*
D10*
X2013095Y-6329819D02*
X2013095Y-5329819D01*
X2013095Y-5806009D02*
X2584523Y-5806009D01*
X2584523Y-6329819D02*
X2584523Y-5329819D01*
X3013095Y-5425057D02*
X3060714Y-5377438D01*
X3060714Y-5377438D02*
X3155952Y-5329819D01*
X3155952Y-5329819D02*
X3394047Y-5329819D01*
X3394047Y-5329819D02*
X3489285Y-5377438D01*
X3489285Y-5377438D02*
X3536904Y-5425057D01*
X3536904Y-5425057D02*
X3584523Y-5520295D01*
X3584523Y-5520295D02*
X3584523Y-5615533D01*
X3584523Y-5615533D02*
X3536904Y-5758390D01*
X3536904Y-5758390D02*
X2965476Y-6329819D01*
X2965476Y-6329819D02*
X3584523Y-6329819D01*
X2013095Y220180D02*
X2013095Y1220180D01*
X2013095Y743990D02*
X2584523Y743990D01*
X2584523Y220180D02*
X2584523Y1220180D01*
X3584523Y220180D02*
X3013095Y220180D01*
X3298809Y220180D02*
X3298809Y1220180D01*
X3298809Y1220180D02*
X3203571Y1077323D01*
X3203571Y1077323D02*
X3108333Y982085D01*
X3108333Y982085D02*
X3013095Y934466D01*
X1238595238Y-1052681009D02*
X1238738095Y-1052728628D01*
X1238738095Y-1052728628D02*
X1238785714Y-1052776247D01*
X1238785714Y-1052776247D02*
X1238833333Y-1052871485D01*
X1238833333Y-1052871485D02*
X1238833333Y-1053014342D01*
X1238833333Y-1053014342D02*
X1238785714Y-1053109580D01*
X1238785714Y-1053109580D02*
X1238738095Y-1053157200D01*
X1238738095Y-1053157200D02*
X1238642857Y-1053204819D01*
X1238642857Y-1053204819D02*
X1238261905Y-1053204819D01*
X1238261905Y-1053204819D02*
X1238261905Y-1052204819D01*
X1238261905Y-1052204819D02*
X1238595238Y-1052204819D01*
X1238595238Y-1052204819D02*
X1238690476Y-1052252438D01*
X1238690476Y-1052252438D02*
X1238738095Y-1052300057D01*
X1238738095Y-1052300057D02*
X1238785714Y-1052395295D01*
X1238785714Y-1052395295D02*
X1238785714Y-1052490533D01*
X1238785714Y-1052490533D02*
X1238738095Y-1052585771D01*
X1238738095Y-1052585771D02*
X1238690476Y-1052633390D01*
X1238690476Y-1052633390D02*
X1238595238Y-1052681009D01*
X1238595238Y-1052681009D02*
X1238261905Y-1052681009D01*
X1239166667Y-1052204819D02*
X1239785714Y-1052204819D01*
X1239785714Y-1052204819D02*
X1239452381Y-1052585771D01*
X1239452381Y-1052585771D02*
X1239595238Y-1052585771D01*
X1239595238Y-1052585771D02*
X1239690476Y-1052633390D01*
X1239690476Y-1052633390D02*
X1239738095Y-1052681009D01*
X1239738095Y-1052681009D02*
X1239785714Y-1052776247D01*
X1239785714Y-1052776247D02*
X1239785714Y-1053014342D01*
X1239785714Y-1053014342D02*
X1239738095Y-1053109580D01*
X1239738095Y-1053109580D02*
X1239690476Y-1053157200D01*
X1239690476Y-1053157200D02*
X1239595238Y-1053204819D01*
X1239595238Y-1053204819D02*
X1239309524Y-1053204819D01*
X1239309524Y-1053204819D02*
X1239214286Y-1053157200D01*
X1239214286Y-1053157200D02*
X1239166667Y-1053109580D01*
X1167357142Y-1045359580D02*
X1167309523Y-1045407200D01*
X1167309523Y-1045407200D02*
X1167166666Y-1045454819D01*
X1167166666Y-1045454819D02*
X1167071428Y-1045454819D01*
X1167071428Y-1045454819D02*
X1166928571Y-1045407200D01*
X1166928571Y-1045407200D02*
X1166833333Y-1045311961D01*
X1166833333Y-1045311961D02*
X1166785714Y-1045216723D01*
X1166785714Y-1045216723D02*
X1166738095Y-1045026247D01*
X1166738095Y-1045026247D02*
X1166738095Y-1044883390D01*
X1166738095Y-1044883390D02*
X1166785714Y-1044692914D01*
X1166785714Y-1044692914D02*
X1166833333Y-1044597676D01*
X1166833333Y-1044597676D02*
X1166928571Y-1044502438D01*
X1166928571Y-1044502438D02*
X1167071428Y-1044454819D01*
X1167071428Y-1044454819D02*
X1167166666Y-1044454819D01*
X1167166666Y-1044454819D02*
X1167309523Y-1044502438D01*
X1167309523Y-1044502438D02*
X1167357142Y-1044550057D01*
X1168309523Y-1045454819D02*
X1167738095Y-1045454819D01*
X1168023809Y-1045454819D02*
X1168023809Y-1044454819D01*
X1168023809Y-1044454819D02*
X1167928571Y-1044597676D01*
X1167928571Y-1044597676D02*
X1167833333Y-1044692914D01*
X1167833333Y-1044692914D02*
X1167738095Y-1044740533D01*
X1168642857Y-1044454819D02*
X1169309523Y-1044454819D01*
X1169309523Y-1044454819D02*
X1168880952Y-1045454819D01*
X1238505238Y-1044251009D02*
X1238648095Y-1044298628D01*
X1238648095Y-1044298628D02*
X1238695714Y-1044346247D01*
X1238695714Y-1044346247D02*
X1238743333Y-1044441485D01*
X1238743333Y-1044441485D02*
X1238743333Y-1044584342D01*
X1238743333Y-1044584342D02*
X1238695714Y-1044679580D01*
X1238695714Y-1044679580D02*
X1238648095Y-1044727200D01*
X1238648095Y-1044727200D02*
X1238552857Y-1044774819D01*
X1238552857Y-1044774819D02*
X1238171905Y-1044774819D01*
X1238171905Y-1044774819D02*
X1238171905Y-1043774819D01*
X1238171905Y-1043774819D02*
X1238505238Y-1043774819D01*
X1238505238Y-1043774819D02*
X1238600476Y-1043822438D01*
X1238600476Y-1043822438D02*
X1238648095Y-1043870057D01*
X1238648095Y-1043870057D02*
X1238695714Y-1043965295D01*
X1238695714Y-1043965295D02*
X1238695714Y-1044060533D01*
X1238695714Y-1044060533D02*
X1238648095Y-1044155771D01*
X1238648095Y-1044155771D02*
X1238600476Y-1044203390D01*
X1238600476Y-1044203390D02*
X1238505238Y-1044251009D01*
X1238505238Y-1044251009D02*
X1238171905Y-1044251009D01*
X1239600476Y-1044108152D02*
X1239600476Y-1044774819D01*
X1239362381Y-1043727200D02*
X1239124286Y-1044441485D01*
X1239124286Y-1044441485D02*
X1239743333Y-1044441485D01*
X1231190476Y-1060204819D02*
X1231190476Y-1059204819D01*
X1231190476Y-1059204819D02*
X1231523809Y-1059919104D01*
X1231523809Y-1059919104D02*
X1231857142Y-1059204819D01*
X1231857142Y-1059204819D02*
X1231857142Y-1060204819D01*
X1232238095Y-1059204819D02*
X1232857142Y-1059204819D01*
X1232857142Y-1059204819D02*
X1232523809Y-1059585771D01*
X1232523809Y-1059585771D02*
X1232666666Y-1059585771D01*
X1232666666Y-1059585771D02*
X1232761904Y-1059633390D01*
X1232761904Y-1059633390D02*
X1232809523Y-1059681009D01*
X1232809523Y-1059681009D02*
X1232857142Y-1059776247D01*
X1232857142Y-1059776247D02*
X1232857142Y-1060014342D01*
X1232857142Y-1060014342D02*
X1232809523Y-1060109580D01*
X1232809523Y-1060109580D02*
X1232761904Y-1060157200D01*
X1232761904Y-1060157200D02*
X1232666666Y-1060204819D01*
X1232666666Y-1060204819D02*
X1232380952Y-1060204819D01*
X1232380952Y-1060204819D02*
X1232285714Y-1060157200D01*
X1232285714Y-1060157200D02*
X1232238095Y-1060109580D01*
X1172431009Y-1045606190D02*
X1172478628Y-1045463333D01*
X1172478628Y-1045463333D02*
X1172526247Y-1045415714D01*
X1172526247Y-1045415714D02*
X1172621485Y-1045368095D01*
X1172621485Y-1045368095D02*
X1172764342Y-1045368095D01*
X1172764342Y-1045368095D02*
X1172859580Y-1045415714D01*
X1172859580Y-1045415714D02*
X1172907200Y-1045463333D01*
X1172907200Y-1045463333D02*
X1172954819Y-1045558571D01*
X1172954819Y-1045558571D02*
X1172954819Y-1045939523D01*
X1172954819Y-1045939523D02*
X1171954819Y-1045939523D01*
X1171954819Y-1045939523D02*
X1171954819Y-1045606190D01*
X1171954819Y-1045606190D02*
X1172002438Y-1045510952D01*
X1172002438Y-1045510952D02*
X1172050057Y-1045463333D01*
X1172050057Y-1045463333D02*
X1172145295Y-1045415714D01*
X1172145295Y-1045415714D02*
X1172240533Y-1045415714D01*
X1172240533Y-1045415714D02*
X1172335771Y-1045463333D01*
X1172335771Y-1045463333D02*
X1172383390Y-1045510952D01*
X1172383390Y-1045510952D02*
X1172431009Y-1045606190D01*
X1172431009Y-1045606190D02*
X1172431009Y-1045939523D01*
X1172954819Y-1044939523D02*
X1171954819Y-1044939523D01*
X1171954819Y-1044939523D02*
X1172669104Y-1044606190D01*
X1172669104Y-1044606190D02*
X1171954819Y-1044272857D01*
X1171954819Y-1044272857D02*
X1172954819Y-1044272857D01*
X1172954819Y-1043796666D02*
X1171954819Y-1043796666D01*
X1171954819Y-1043796666D02*
X1171954819Y-1043415714D01*
X1171954819Y-1043415714D02*
X1172002438Y-1043320476D01*
X1172002438Y-1043320476D02*
X1172050057Y-1043272857D01*
X1172050057Y-1043272857D02*
X1172145295Y-1043225238D01*
X1172145295Y-1043225238D02*
X1172288152Y-1043225238D01*
X1172288152Y-1043225238D02*
X1172383390Y-1043272857D01*
X1172383390Y-1043272857D02*
X1172431009Y-1043320476D01*
X1172431009Y-1043320476D02*
X1172478628Y-1043415714D01*
X1172478628Y-1043415714D02*
X1172478628Y-1043796666D01*
X1172954819Y-1042272857D02*
X1172954819Y-1042844285D01*
X1172954819Y-1042558571D02*
X1171954819Y-1042558571D01*
X1171954819Y-1042558571D02*
X1172097676Y-1042653809D01*
X1172097676Y-1042653809D02*
X1172192914Y-1042749047D01*
X1172192914Y-1042749047D02*
X1172240533Y-1042844285D01*
X1163333333Y-1040859580D02*
X1163285714Y-1040907200D01*
X1163285714Y-1040907200D02*
X1163142857Y-1040954819D01*
X1163142857Y-1040954819D02*
X1163047619Y-1040954819D01*
X1163047619Y-1040954819D02*
X1162904762Y-1040907200D01*
X1162904762Y-1040907200D02*
X1162809524Y-1040811961D01*
X1162809524Y-1040811961D02*
X1162761905Y-1040716723D01*
X1162761905Y-1040716723D02*
X1162714286Y-1040526247D01*
X1162714286Y-1040526247D02*
X1162714286Y-1040383390D01*
X1162714286Y-1040383390D02*
X1162761905Y-1040192914D01*
X1162761905Y-1040192914D02*
X1162809524Y-1040097676D01*
X1162809524Y-1040097676D02*
X1162904762Y-1040002438D01*
X1162904762Y-1040002438D02*
X1163047619Y-1039954819D01*
X1163047619Y-1039954819D02*
X1163142857Y-1039954819D01*
X1163142857Y-1039954819D02*
X1163285714Y-1040002438D01*
X1163285714Y-1040002438D02*
X1163333333Y-1040050057D01*
X1163809524Y-1040954819D02*
X1164000000Y-1040954819D01*
X1164000000Y-1040954819D02*
X1164095238Y-1040907200D01*
X1164095238Y-1040907200D02*
X1164142857Y-1040859580D01*
X1164142857Y-1040859580D02*
X1164238095Y-1040716723D01*
X1164238095Y-1040716723D02*
X1164285714Y-1040526247D01*
X1164285714Y-1040526247D02*
X1164285714Y-1040145295D01*
X1164285714Y-1040145295D02*
X1164238095Y-1040050057D01*
X1164238095Y-1040050057D02*
X1164190476Y-1040002438D01*
X1164190476Y-1040002438D02*
X1164095238Y-1039954819D01*
X1164095238Y-1039954819D02*
X1163904762Y-1039954819D01*
X1163904762Y-1039954819D02*
X1163809524Y-1040002438D01*
X1163809524Y-1040002438D02*
X1163761905Y-1040050057D01*
X1163761905Y-1040050057D02*
X1163714286Y-1040145295D01*
X1163714286Y-1040145295D02*
X1163714286Y-1040383390D01*
X1163714286Y-1040383390D02*
X1163761905Y-1040478628D01*
X1163761905Y-1040478628D02*
X1163809524Y-1040526247D01*
X1163809524Y-1040526247D02*
X1163904762Y-1040573866D01*
X1163904762Y-1040573866D02*
X1164095238Y-1040573866D01*
X1164095238Y-1040573866D02*
X1164190476Y-1040526247D01*
X1164190476Y-1040526247D02*
X1164238095Y-1040478628D01*
X1164238095Y-1040478628D02*
X1164285714Y-1040383390D01*
X1164690476Y-1037954819D02*
X1164690476Y-1036954819D01*
X1164690476Y-1036954819D02*
X1165023809Y-1037669104D01*
X1165023809Y-1037669104D02*
X1165357142Y-1036954819D01*
X1165357142Y-1036954819D02*
X1165357142Y-1037954819D01*
X1166357142Y-1037954819D02*
X1165785714Y-1037954819D01*
X1166071428Y-1037954819D02*
X1166071428Y-1036954819D01*
X1166071428Y-1036954819D02*
X1165976190Y-1037097676D01*
X1165976190Y-1037097676D02*
X1165880952Y-1037192914D01*
X1165880952Y-1037192914D02*
X1165785714Y-1037240533D01*
X1180024819Y-1043841666D02*
X1179548628Y-1044174999D01*
X1180024819Y-1044413094D02*
X1179024819Y-1044413094D01*
X1179024819Y-1044413094D02*
X1179024819Y-1044032142D01*
X1179024819Y-1044032142D02*
X1179072438Y-1043936904D01*
X1179072438Y-1043936904D02*
X1179120057Y-1043889285D01*
X1179120057Y-1043889285D02*
X1179215295Y-1043841666D01*
X1179215295Y-1043841666D02*
X1179358152Y-1043841666D01*
X1179358152Y-1043841666D02*
X1179453390Y-1043889285D01*
X1179453390Y-1043889285D02*
X1179501009Y-1043936904D01*
X1179501009Y-1043936904D02*
X1179548628Y-1044032142D01*
X1179548628Y-1044032142D02*
X1179548628Y-1044413094D01*
X1179024819Y-1043508332D02*
X1179024819Y-1042841666D01*
X1179024819Y-1042841666D02*
X1180024819Y-1043270237D01*
X1198333333Y-1056704819D02*
X1198000000Y-1056228628D01*
X1197761905Y-1056704819D02*
X1197761905Y-1055704819D01*
X1197761905Y-1055704819D02*
X1198142857Y-1055704819D01*
X1198142857Y-1055704819D02*
X1198238095Y-1055752438D01*
X1198238095Y-1055752438D02*
X1198285714Y-1055800057D01*
X1198285714Y-1055800057D02*
X1198333333Y-1055895295D01*
X1198333333Y-1055895295D02*
X1198333333Y-1056038152D01*
X1198333333Y-1056038152D02*
X1198285714Y-1056133390D01*
X1198285714Y-1056133390D02*
X1198238095Y-1056181009D01*
X1198238095Y-1056181009D02*
X1198142857Y-1056228628D01*
X1198142857Y-1056228628D02*
X1197761905Y-1056228628D01*
X1199190476Y-1055704819D02*
X1199000000Y-1055704819D01*
X1199000000Y-1055704819D02*
X1198904762Y-1055752438D01*
X1198904762Y-1055752438D02*
X1198857143Y-1055800057D01*
X1198857143Y-1055800057D02*
X1198761905Y-1055942914D01*
X1198761905Y-1055942914D02*
X1198714286Y-1056133390D01*
X1198714286Y-1056133390D02*
X1198714286Y-1056514342D01*
X1198714286Y-1056514342D02*
X1198761905Y-1056609580D01*
X1198761905Y-1056609580D02*
X1198809524Y-1056657200D01*
X1198809524Y-1056657200D02*
X1198904762Y-1056704819D01*
X1198904762Y-1056704819D02*
X1199095238Y-1056704819D01*
X1199095238Y-1056704819D02*
X1199190476Y-1056657200D01*
X1199190476Y-1056657200D02*
X1199238095Y-1056609580D01*
X1199238095Y-1056609580D02*
X1199285714Y-1056514342D01*
X1199285714Y-1056514342D02*
X1199285714Y-1056276247D01*
X1199285714Y-1056276247D02*
X1199238095Y-1056181009D01*
X1199238095Y-1056181009D02*
X1199190476Y-1056133390D01*
X1199190476Y-1056133390D02*
X1199095238Y-1056085771D01*
X1199095238Y-1056085771D02*
X1198904762Y-1056085771D01*
X1198904762Y-1056085771D02*
X1198809524Y-1056133390D01*
X1198809524Y-1056133390D02*
X1198761905Y-1056181009D01*
X1198761905Y-1056181009D02*
X1198714286Y-1056276247D01*
X1208857142Y-1056334580D02*
X1208809523Y-1056382200D01*
X1208809523Y-1056382200D02*
X1208666666Y-1056429819D01*
X1208666666Y-1056429819D02*
X1208571428Y-1056429819D01*
X1208571428Y-1056429819D02*
X1208428571Y-1056382200D01*
X1208428571Y-1056382200D02*
X1208333333Y-1056286961D01*
X1208333333Y-1056286961D02*
X1208285714Y-1056191723D01*
X1208285714Y-1056191723D02*
X1208238095Y-1056001247D01*
X1208238095Y-1056001247D02*
X1208238095Y-1055858390D01*
X1208238095Y-1055858390D02*
X1208285714Y-1055667914D01*
X1208285714Y-1055667914D02*
X1208333333Y-1055572676D01*
X1208333333Y-1055572676D02*
X1208428571Y-1055477438D01*
X1208428571Y-1055477438D02*
X1208571428Y-1055429819D01*
X1208571428Y-1055429819D02*
X1208666666Y-1055429819D01*
X1208666666Y-1055429819D02*
X1208809523Y-1055477438D01*
X1208809523Y-1055477438D02*
X1208857142Y-1055525057D01*
X1209238095Y-1055525057D02*
X1209285714Y-1055477438D01*
X1209285714Y-1055477438D02*
X1209380952Y-1055429819D01*
X1209380952Y-1055429819D02*
X1209619047Y-1055429819D01*
X1209619047Y-1055429819D02*
X1209714285Y-1055477438D01*
X1209714285Y-1055477438D02*
X1209761904Y-1055525057D01*
X1209761904Y-1055525057D02*
X1209809523Y-1055620295D01*
X1209809523Y-1055620295D02*
X1209809523Y-1055715533D01*
X1209809523Y-1055715533D02*
X1209761904Y-1055858390D01*
X1209761904Y-1055858390D02*
X1209190476Y-1056429819D01*
X1209190476Y-1056429819D02*
X1209809523Y-1056429819D01*
X1210428571Y-1055429819D02*
X1210523809Y-1055429819D01*
X1210523809Y-1055429819D02*
X1210619047Y-1055477438D01*
X1210619047Y-1055477438D02*
X1210666666Y-1055525057D01*
X1210666666Y-1055525057D02*
X1210714285Y-1055620295D01*
X1210714285Y-1055620295D02*
X1210761904Y-1055810771D01*
X1210761904Y-1055810771D02*
X1210761904Y-1056048866D01*
X1210761904Y-1056048866D02*
X1210714285Y-1056239342D01*
X1210714285Y-1056239342D02*
X1210666666Y-1056334580D01*
X1210666666Y-1056334580D02*
X1210619047Y-1056382200D01*
X1210619047Y-1056382200D02*
X1210523809Y-1056429819D01*
X1210523809Y-1056429819D02*
X1210428571Y-1056429819D01*
X1210428571Y-1056429819D02*
X1210333333Y-1056382200D01*
X1210333333Y-1056382200D02*
X1210285714Y-1056334580D01*
X1210285714Y-1056334580D02*
X1210238095Y-1056239342D01*
X1210238095Y-1056239342D02*
X1210190476Y-1056048866D01*
X1210190476Y-1056048866D02*
X1210190476Y-1055810771D01*
X1210190476Y-1055810771D02*
X1210238095Y-1055620295D01*
X1210238095Y-1055620295D02*
X1210285714Y-1055525057D01*
X1210285714Y-1055525057D02*
X1210333333Y-1055477438D01*
X1210333333Y-1055477438D02*
X1210428571Y-1055429819D01*
X1242333333Y-1058609580D02*
X1242285714Y-1058657200D01*
X1242285714Y-1058657200D02*
X1242142857Y-1058704819D01*
X1242142857Y-1058704819D02*
X1242047619Y-1058704819D01*
X1242047619Y-1058704819D02*
X1241904762Y-1058657200D01*
X1241904762Y-1058657200D02*
X1241809524Y-1058561961D01*
X1241809524Y-1058561961D02*
X1241761905Y-1058466723D01*
X1241761905Y-1058466723D02*
X1241714286Y-1058276247D01*
X1241714286Y-1058276247D02*
X1241714286Y-1058133390D01*
X1241714286Y-1058133390D02*
X1241761905Y-1057942914D01*
X1241761905Y-1057942914D02*
X1241809524Y-1057847676D01*
X1241809524Y-1057847676D02*
X1241904762Y-1057752438D01*
X1241904762Y-1057752438D02*
X1242047619Y-1057704819D01*
X1242047619Y-1057704819D02*
X1242142857Y-1057704819D01*
X1242142857Y-1057704819D02*
X1242285714Y-1057752438D01*
X1242285714Y-1057752438D02*
X1242333333Y-1057800057D01*
X1242666667Y-1057704819D02*
X1243285714Y-1057704819D01*
X1243285714Y-1057704819D02*
X1242952381Y-1058085771D01*
X1242952381Y-1058085771D02*
X1243095238Y-1058085771D01*
X1243095238Y-1058085771D02*
X1243190476Y-1058133390D01*
X1243190476Y-1058133390D02*
X1243238095Y-1058181009D01*
X1243238095Y-1058181009D02*
X1243285714Y-1058276247D01*
X1243285714Y-1058276247D02*
X1243285714Y-1058514342D01*
X1243285714Y-1058514342D02*
X1243238095Y-1058609580D01*
X1243238095Y-1058609580D02*
X1243190476Y-1058657200D01*
X1243190476Y-1058657200D02*
X1243095238Y-1058704819D01*
X1243095238Y-1058704819D02*
X1242809524Y-1058704819D01*
X1242809524Y-1058704819D02*
X1242714286Y-1058657200D01*
X1242714286Y-1058657200D02*
X1242666667Y-1058609580D01*
X1231357142Y-1053359580D02*
X1231309523Y-1053407200D01*
X1231309523Y-1053407200D02*
X1231166666Y-1053454819D01*
X1231166666Y-1053454819D02*
X1231071428Y-1053454819D01*
X1231071428Y-1053454819D02*
X1230928571Y-1053407200D01*
X1230928571Y-1053407200D02*
X1230833333Y-1053311961D01*
X1230833333Y-1053311961D02*
X1230785714Y-1053216723D01*
X1230785714Y-1053216723D02*
X1230738095Y-1053026247D01*
X1230738095Y-1053026247D02*
X1230738095Y-1052883390D01*
X1230738095Y-1052883390D02*
X1230785714Y-1052692914D01*
X1230785714Y-1052692914D02*
X1230833333Y-1052597676D01*
X1230833333Y-1052597676D02*
X1230928571Y-1052502438D01*
X1230928571Y-1052502438D02*
X1231071428Y-1052454819D01*
X1231071428Y-1052454819D02*
X1231166666Y-1052454819D01*
X1231166666Y-1052454819D02*
X1231309523Y-1052502438D01*
X1231309523Y-1052502438D02*
X1231357142Y-1052550057D01*
X1232309523Y-1053454819D02*
X1231738095Y-1053454819D01*
X1232023809Y-1053454819D02*
X1232023809Y-1052454819D01*
X1232023809Y-1052454819D02*
X1231928571Y-1052597676D01*
X1231928571Y-1052597676D02*
X1231833333Y-1052692914D01*
X1231833333Y-1052692914D02*
X1231738095Y-1052740533D01*
X1233261904Y-1053454819D02*
X1232690476Y-1053454819D01*
X1232976190Y-1053454819D02*
X1232976190Y-1052454819D01*
X1232976190Y-1052454819D02*
X1232880952Y-1052597676D01*
X1232880952Y-1052597676D02*
X1232785714Y-1052692914D01*
X1232785714Y-1052692914D02*
X1232690476Y-1052740533D01*
X1217524819Y-1047341666D02*
X1217048628Y-1047674999D01*
X1217524819Y-1047913094D02*
X1216524819Y-1047913094D01*
X1216524819Y-1047913094D02*
X1216524819Y-1047532142D01*
X1216524819Y-1047532142D02*
X1216572438Y-1047436904D01*
X1216572438Y-1047436904D02*
X1216620057Y-1047389285D01*
X1216620057Y-1047389285D02*
X1216715295Y-1047341666D01*
X1216715295Y-1047341666D02*
X1216858152Y-1047341666D01*
X1216858152Y-1047341666D02*
X1216953390Y-1047389285D01*
X1216953390Y-1047389285D02*
X1217001009Y-1047436904D01*
X1217001009Y-1047436904D02*
X1217048628Y-1047532142D01*
X1217048628Y-1047532142D02*
X1217048628Y-1047913094D01*
X1216858152Y-1046484523D02*
X1217524819Y-1046484523D01*
X1216477200Y-1046722618D02*
X1217191485Y-1046960713D01*
X1217191485Y-1046960713D02*
X1217191485Y-1046341666D01*
X1242333333Y-1036859580D02*
X1242285714Y-1036907200D01*
X1242285714Y-1036907200D02*
X1242142857Y-1036954819D01*
X1242142857Y-1036954819D02*
X1242047619Y-1036954819D01*
X1242047619Y-1036954819D02*
X1241904762Y-1036907200D01*
X1241904762Y-1036907200D02*
X1241809524Y-1036811961D01*
X1241809524Y-1036811961D02*
X1241761905Y-1036716723D01*
X1241761905Y-1036716723D02*
X1241714286Y-1036526247D01*
X1241714286Y-1036526247D02*
X1241714286Y-1036383390D01*
X1241714286Y-1036383390D02*
X1241761905Y-1036192914D01*
X1241761905Y-1036192914D02*
X1241809524Y-1036097676D01*
X1241809524Y-1036097676D02*
X1241904762Y-1036002438D01*
X1241904762Y-1036002438D02*
X1242047619Y-1035954819D01*
X1242047619Y-1035954819D02*
X1242142857Y-1035954819D01*
X1242142857Y-1035954819D02*
X1242285714Y-1036002438D01*
X1242285714Y-1036002438D02*
X1242333333Y-1036050057D01*
X1242904762Y-1036383390D02*
X1242809524Y-1036335771D01*
X1242809524Y-1036335771D02*
X1242761905Y-1036288152D01*
X1242761905Y-1036288152D02*
X1242714286Y-1036192914D01*
X1242714286Y-1036192914D02*
X1242714286Y-1036145295D01*
X1242714286Y-1036145295D02*
X1242761905Y-1036050057D01*
X1242761905Y-1036050057D02*
X1242809524Y-1036002438D01*
X1242809524Y-1036002438D02*
X1242904762Y-1035954819D01*
X1242904762Y-1035954819D02*
X1243095238Y-1035954819D01*
X1243095238Y-1035954819D02*
X1243190476Y-1036002438D01*
X1243190476Y-1036002438D02*
X1243238095Y-1036050057D01*
X1243238095Y-1036050057D02*
X1243285714Y-1036145295D01*
X1243285714Y-1036145295D02*
X1243285714Y-1036192914D01*
X1243285714Y-1036192914D02*
X1243238095Y-1036288152D01*
X1243238095Y-1036288152D02*
X1243190476Y-1036335771D01*
X1243190476Y-1036335771D02*
X1243095238Y-1036383390D01*
X1243095238Y-1036383390D02*
X1242904762Y-1036383390D01*
X1242904762Y-1036383390D02*
X1242809524Y-1036431009D01*
X1242809524Y-1036431009D02*
X1242761905Y-1036478628D01*
X1242761905Y-1036478628D02*
X1242714286Y-1036573866D01*
X1242714286Y-1036573866D02*
X1242714286Y-1036764342D01*
X1242714286Y-1036764342D02*
X1242761905Y-1036859580D01*
X1242761905Y-1036859580D02*
X1242809524Y-1036907200D01*
X1242809524Y-1036907200D02*
X1242904762Y-1036954819D01*
X1242904762Y-1036954819D02*
X1243095238Y-1036954819D01*
X1243095238Y-1036954819D02*
X1243190476Y-1036907200D01*
X1243190476Y-1036907200D02*
X1243238095Y-1036859580D01*
X1243238095Y-1036859580D02*
X1243285714Y-1036764342D01*
X1243285714Y-1036764342D02*
X1243285714Y-1036573866D01*
X1243285714Y-1036573866D02*
X1243238095Y-1036478628D01*
X1243238095Y-1036478628D02*
X1243190476Y-1036431009D01*
X1243190476Y-1036431009D02*
X1243095238Y-1036383390D01*
X1224699580Y-1048622857D02*
X1224747200Y-1048670476D01*
X1224747200Y-1048670476D02*
X1224794819Y-1048813333D01*
X1224794819Y-1048813333D02*
X1224794819Y-1048908571D01*
X1224794819Y-1048908571D02*
X1224747200Y-1049051428D01*
X1224747200Y-1049051428D02*
X1224651961Y-1049146666D01*
X1224651961Y-1049146666D02*
X1224556723Y-1049194285D01*
X1224556723Y-1049194285D02*
X1224366247Y-1049241904D01*
X1224366247Y-1049241904D02*
X1224223390Y-1049241904D01*
X1224223390Y-1049241904D02*
X1224032914Y-1049194285D01*
X1224032914Y-1049194285D02*
X1223937676Y-1049146666D01*
X1223937676Y-1049146666D02*
X1223842438Y-1049051428D01*
X1223842438Y-1049051428D02*
X1223794819Y-1048908571D01*
X1223794819Y-1048908571D02*
X1223794819Y-1048813333D01*
X1223794819Y-1048813333D02*
X1223842438Y-1048670476D01*
X1223842438Y-1048670476D02*
X1223890057Y-1048622857D01*
X1224794819Y-1047670476D02*
X1224794819Y-1048241904D01*
X1224794819Y-1047956190D02*
X1223794819Y-1047956190D01*
X1223794819Y-1047956190D02*
X1223937676Y-1048051428D01*
X1223937676Y-1048051428D02*
X1224032914Y-1048146666D01*
X1224032914Y-1048146666D02*
X1224080533Y-1048241904D01*
X1223794819Y-1046765714D02*
X1223794819Y-1047241904D01*
X1223794819Y-1047241904D02*
X1224271009Y-1047289523D01*
X1224271009Y-1047289523D02*
X1224223390Y-1047241904D01*
X1224223390Y-1047241904D02*
X1224175771Y-1047146666D01*
X1224175771Y-1047146666D02*
X1224175771Y-1046908571D01*
X1224175771Y-1046908571D02*
X1224223390Y-1046813333D01*
X1224223390Y-1046813333D02*
X1224271009Y-1046765714D01*
X1224271009Y-1046765714D02*
X1224366247Y-1046718095D01*
X1224366247Y-1046718095D02*
X1224604342Y-1046718095D01*
X1224604342Y-1046718095D02*
X1224699580Y-1046765714D01*
X1224699580Y-1046765714D02*
X1224747200Y-1046813333D01*
X1224747200Y-1046813333D02*
X1224794819Y-1046908571D01*
X1224794819Y-1046908571D02*
X1224794819Y-1047146666D01*
X1224794819Y-1047146666D02*
X1224747200Y-1047241904D01*
X1224747200Y-1047241904D02*
X1224699580Y-1047289523D01*
X1174713095Y-1035454819D02*
X1175284523Y-1035454819D01*
X1174998809Y-1036454819D02*
X1174998809Y-1035454819D01*
X1176141666Y-1036454819D02*
X1175570238Y-1036454819D01*
X1175855952Y-1036454819D02*
X1175855952Y-1035454819D01*
X1175855952Y-1035454819D02*
X1175760714Y-1035597676D01*
X1175760714Y-1035597676D02*
X1175665476Y-1035692914D01*
X1175665476Y-1035692914D02*
X1175570238Y-1035740533D01*
X1220832142Y-1052859580D02*
X1220784523Y-1052907200D01*
X1220784523Y-1052907200D02*
X1220641666Y-1052954819D01*
X1220641666Y-1052954819D02*
X1220546428Y-1052954819D01*
X1220546428Y-1052954819D02*
X1220403571Y-1052907200D01*
X1220403571Y-1052907200D02*
X1220308333Y-1052811961D01*
X1220308333Y-1052811961D02*
X1220260714Y-1052716723D01*
X1220260714Y-1052716723D02*
X1220213095Y-1052526247D01*
X1220213095Y-1052526247D02*
X1220213095Y-1052383390D01*
X1220213095Y-1052383390D02*
X1220260714Y-1052192914D01*
X1220260714Y-1052192914D02*
X1220308333Y-1052097676D01*
X1220308333Y-1052097676D02*
X1220403571Y-1052002438D01*
X1220403571Y-1052002438D02*
X1220546428Y-1051954819D01*
X1220546428Y-1051954819D02*
X1220641666Y-1051954819D01*
X1220641666Y-1051954819D02*
X1220784523Y-1052002438D01*
X1220784523Y-1052002438D02*
X1220832142Y-1052050057D01*
X1221784523Y-1052954819D02*
X1221213095Y-1052954819D01*
X1221498809Y-1052954819D02*
X1221498809Y-1051954819D01*
X1221498809Y-1051954819D02*
X1221403571Y-1052097676D01*
X1221403571Y-1052097676D02*
X1221308333Y-1052192914D01*
X1221308333Y-1052192914D02*
X1221213095Y-1052240533D01*
X1222117857Y-1051954819D02*
X1222736904Y-1051954819D01*
X1222736904Y-1051954819D02*
X1222403571Y-1052335771D01*
X1222403571Y-1052335771D02*
X1222546428Y-1052335771D01*
X1222546428Y-1052335771D02*
X1222641666Y-1052383390D01*
X1222641666Y-1052383390D02*
X1222689285Y-1052431009D01*
X1222689285Y-1052431009D02*
X1222736904Y-1052526247D01*
X1222736904Y-1052526247D02*
X1222736904Y-1052764342D01*
X1222736904Y-1052764342D02*
X1222689285Y-1052859580D01*
X1222689285Y-1052859580D02*
X1222641666Y-1052907200D01*
X1222641666Y-1052907200D02*
X1222546428Y-1052954819D01*
X1222546428Y-1052954819D02*
X1222260714Y-1052954819D01*
X1222260714Y-1052954819D02*
X1222165476Y-1052907200D01*
X1222165476Y-1052907200D02*
X1222117857Y-1052859580D01*
X1230882142Y-1044859580D02*
X1230834523Y-1044907200D01*
X1230834523Y-1044907200D02*
X1230691666Y-1044954819D01*
X1230691666Y-1044954819D02*
X1230596428Y-1044954819D01*
X1230596428Y-1044954819D02*
X1230453571Y-1044907200D01*
X1230453571Y-1044907200D02*
X1230358333Y-1044811961D01*
X1230358333Y-1044811961D02*
X1230310714Y-1044716723D01*
X1230310714Y-1044716723D02*
X1230263095Y-1044526247D01*
X1230263095Y-1044526247D02*
X1230263095Y-1044383390D01*
X1230263095Y-1044383390D02*
X1230310714Y-1044192914D01*
X1230310714Y-1044192914D02*
X1230358333Y-1044097676D01*
X1230358333Y-1044097676D02*
X1230453571Y-1044002438D01*
X1230453571Y-1044002438D02*
X1230596428Y-1043954819D01*
X1230596428Y-1043954819D02*
X1230691666Y-1043954819D01*
X1230691666Y-1043954819D02*
X1230834523Y-1044002438D01*
X1230834523Y-1044002438D02*
X1230882142Y-1044050057D01*
X1231834523Y-1044954819D02*
X1231263095Y-1044954819D01*
X1231548809Y-1044954819D02*
X1231548809Y-1043954819D01*
X1231548809Y-1043954819D02*
X1231453571Y-1044097676D01*
X1231453571Y-1044097676D02*
X1231358333Y-1044192914D01*
X1231358333Y-1044192914D02*
X1231263095Y-1044240533D01*
X1232215476Y-1044050057D02*
X1232263095Y-1044002438D01*
X1232263095Y-1044002438D02*
X1232358333Y-1043954819D01*
X1232358333Y-1043954819D02*
X1232596428Y-1043954819D01*
X1232596428Y-1043954819D02*
X1232691666Y-1044002438D01*
X1232691666Y-1044002438D02*
X1232739285Y-1044050057D01*
X1232739285Y-1044050057D02*
X1232786904Y-1044145295D01*
X1232786904Y-1044145295D02*
X1232786904Y-1044240533D01*
X1232786904Y-1044240533D02*
X1232739285Y-1044383390D01*
X1232739285Y-1044383390D02*
X1232167857Y-1044954819D01*
X1232167857Y-1044954819D02*
X1232786904Y-1044954819D01*
X1212107142Y-1056334580D02*
X1212059523Y-1056382200D01*
X1212059523Y-1056382200D02*
X1211916666Y-1056429819D01*
X1211916666Y-1056429819D02*
X1211821428Y-1056429819D01*
X1211821428Y-1056429819D02*
X1211678571Y-1056382200D01*
X1211678571Y-1056382200D02*
X1211583333Y-1056286961D01*
X1211583333Y-1056286961D02*
X1211535714Y-1056191723D01*
X1211535714Y-1056191723D02*
X1211488095Y-1056001247D01*
X1211488095Y-1056001247D02*
X1211488095Y-1055858390D01*
X1211488095Y-1055858390D02*
X1211535714Y-1055667914D01*
X1211535714Y-1055667914D02*
X1211583333Y-1055572676D01*
X1211583333Y-1055572676D02*
X1211678571Y-1055477438D01*
X1211678571Y-1055477438D02*
X1211821428Y-1055429819D01*
X1211821428Y-1055429819D02*
X1211916666Y-1055429819D01*
X1211916666Y-1055429819D02*
X1212059523Y-1055477438D01*
X1212059523Y-1055477438D02*
X1212107142Y-1055525057D01*
X1212488095Y-1055525057D02*
X1212535714Y-1055477438D01*
X1212535714Y-1055477438D02*
X1212630952Y-1055429819D01*
X1212630952Y-1055429819D02*
X1212869047Y-1055429819D01*
X1212869047Y-1055429819D02*
X1212964285Y-1055477438D01*
X1212964285Y-1055477438D02*
X1213011904Y-1055525057D01*
X1213011904Y-1055525057D02*
X1213059523Y-1055620295D01*
X1213059523Y-1055620295D02*
X1213059523Y-1055715533D01*
X1213059523Y-1055715533D02*
X1213011904Y-1055858390D01*
X1213011904Y-1055858390D02*
X1212440476Y-1056429819D01*
X1212440476Y-1056429819D02*
X1213059523Y-1056429819D01*
X1213392857Y-1055429819D02*
X1214011904Y-1055429819D01*
X1214011904Y-1055429819D02*
X1213678571Y-1055810771D01*
X1213678571Y-1055810771D02*
X1213821428Y-1055810771D01*
X1213821428Y-1055810771D02*
X1213916666Y-1055858390D01*
X1213916666Y-1055858390D02*
X1213964285Y-1055906009D01*
X1213964285Y-1055906009D02*
X1214011904Y-1056001247D01*
X1214011904Y-1056001247D02*
X1214011904Y-1056239342D01*
X1214011904Y-1056239342D02*
X1213964285Y-1056334580D01*
X1213964285Y-1056334580D02*
X1213916666Y-1056382200D01*
X1213916666Y-1056382200D02*
X1213821428Y-1056429819D01*
X1213821428Y-1056429819D02*
X1213535714Y-1056429819D01*
X1213535714Y-1056429819D02*
X1213440476Y-1056382200D01*
X1213440476Y-1056382200D02*
X1213392857Y-1056334580D01*
X1163832142Y-1052509580D02*
X1163784523Y-1052557200D01*
X1163784523Y-1052557200D02*
X1163641666Y-1052604819D01*
X1163641666Y-1052604819D02*
X1163546428Y-1052604819D01*
X1163546428Y-1052604819D02*
X1163403571Y-1052557200D01*
X1163403571Y-1052557200D02*
X1163308333Y-1052461961D01*
X1163308333Y-1052461961D02*
X1163260714Y-1052366723D01*
X1163260714Y-1052366723D02*
X1163213095Y-1052176247D01*
X1163213095Y-1052176247D02*
X1163213095Y-1052033390D01*
X1163213095Y-1052033390D02*
X1163260714Y-1051842914D01*
X1163260714Y-1051842914D02*
X1163308333Y-1051747676D01*
X1163308333Y-1051747676D02*
X1163403571Y-1051652438D01*
X1163403571Y-1051652438D02*
X1163546428Y-1051604819D01*
X1163546428Y-1051604819D02*
X1163641666Y-1051604819D01*
X1163641666Y-1051604819D02*
X1163784523Y-1051652438D01*
X1163784523Y-1051652438D02*
X1163832142Y-1051700057D01*
X1164784523Y-1052604819D02*
X1164213095Y-1052604819D01*
X1164498809Y-1052604819D02*
X1164498809Y-1051604819D01*
X1164498809Y-1051604819D02*
X1164403571Y-1051747676D01*
X1164403571Y-1051747676D02*
X1164308333Y-1051842914D01*
X1164308333Y-1051842914D02*
X1164213095Y-1051890533D01*
X1165403571Y-1051604819D02*
X1165498809Y-1051604819D01*
X1165498809Y-1051604819D02*
X1165594047Y-1051652438D01*
X1165594047Y-1051652438D02*
X1165641666Y-1051700057D01*
X1165641666Y-1051700057D02*
X1165689285Y-1051795295D01*
X1165689285Y-1051795295D02*
X1165736904Y-1051985771D01*
X1165736904Y-1051985771D02*
X1165736904Y-1052223866D01*
X1165736904Y-1052223866D02*
X1165689285Y-1052414342D01*
X1165689285Y-1052414342D02*
X1165641666Y-1052509580D01*
X1165641666Y-1052509580D02*
X1165594047Y-1052557200D01*
X1165594047Y-1052557200D02*
X1165498809Y-1052604819D01*
X1165498809Y-1052604819D02*
X1165403571Y-1052604819D01*
X1165403571Y-1052604819D02*
X1165308333Y-1052557200D01*
X1165308333Y-1052557200D02*
X1165260714Y-1052509580D01*
X1165260714Y-1052509580D02*
X1165213095Y-1052414342D01*
X1165213095Y-1052414342D02*
X1165165476Y-1052223866D01*
X1165165476Y-1052223866D02*
X1165165476Y-1051985771D01*
X1165165476Y-1051985771D02*
X1165213095Y-1051795295D01*
X1165213095Y-1051795295D02*
X1165260714Y-1051700057D01*
X1165260714Y-1051700057D02*
X1165308333Y-1051652438D01*
X1165308333Y-1051652438D02*
X1165403571Y-1051604819D01*
X1220011905Y-1038727275D02*
X1220011905Y-1039536798D01*
X1220011905Y-1039536798D02*
X1220059524Y-1039632036D01*
X1220059524Y-1039632036D02*
X1220107143Y-1039679656D01*
X1220107143Y-1039679656D02*
X1220202381Y-1039727275D01*
X1220202381Y-1039727275D02*
X1220392857Y-1039727275D01*
X1220392857Y-1039727275D02*
X1220488095Y-1039679656D01*
X1220488095Y-1039679656D02*
X1220535714Y-1039632036D01*
X1220535714Y-1039632036D02*
X1220583333Y-1039536798D01*
X1220583333Y-1039536798D02*
X1220583333Y-1038727275D01*
X1221011905Y-1039679656D02*
X1221154762Y-1039727275D01*
X1221154762Y-1039727275D02*
X1221392857Y-1039727275D01*
X1221392857Y-1039727275D02*
X1221488095Y-1039679656D01*
X1221488095Y-1039679656D02*
X1221535714Y-1039632036D01*
X1221535714Y-1039632036D02*
X1221583333Y-1039536798D01*
X1221583333Y-1039536798D02*
X1221583333Y-1039441560D01*
X1221583333Y-1039441560D02*
X1221535714Y-1039346322D01*
X1221535714Y-1039346322D02*
X1221488095Y-1039298703D01*
X1221488095Y-1039298703D02*
X1221392857Y-1039251084D01*
X1221392857Y-1039251084D02*
X1221202381Y-1039203465D01*
X1221202381Y-1039203465D02*
X1221107143Y-1039155846D01*
X1221107143Y-1039155846D02*
X1221059524Y-1039108227D01*
X1221059524Y-1039108227D02*
X1221011905Y-1039012989D01*
X1221011905Y-1039012989D02*
X1221011905Y-1038917751D01*
X1221011905Y-1038917751D02*
X1221059524Y-1038822513D01*
X1221059524Y-1038822513D02*
X1221107143Y-1038774894D01*
X1221107143Y-1038774894D02*
X1221202381Y-1038727275D01*
X1221202381Y-1038727275D02*
X1221440476Y-1038727275D01*
X1221440476Y-1038727275D02*
X1221583333Y-1038774894D01*
X1222345238Y-1039203465D02*
X1222488095Y-1039251084D01*
X1222488095Y-1039251084D02*
X1222535714Y-1039298703D01*
X1222535714Y-1039298703D02*
X1222583333Y-1039393941D01*
X1222583333Y-1039393941D02*
X1222583333Y-1039536798D01*
X1222583333Y-1039536798D02*
X1222535714Y-1039632036D01*
X1222535714Y-1039632036D02*
X1222488095Y-1039679656D01*
X1222488095Y-1039679656D02*
X1222392857Y-1039727275D01*
X1222392857Y-1039727275D02*
X1222011905Y-1039727275D01*
X1222011905Y-1039727275D02*
X1222011905Y-1038727275D01*
X1222011905Y-1038727275D02*
X1222345238Y-1038727275D01*
X1222345238Y-1038727275D02*
X1222440476Y-1038774894D01*
X1222440476Y-1038774894D02*
X1222488095Y-1038822513D01*
X1222488095Y-1038822513D02*
X1222535714Y-1038917751D01*
X1222535714Y-1038917751D02*
X1222535714Y-1039012989D01*
X1222535714Y-1039012989D02*
X1222488095Y-1039108227D01*
X1222488095Y-1039108227D02*
X1222440476Y-1039155846D01*
X1222440476Y-1039155846D02*
X1222345238Y-1039203465D01*
X1222345238Y-1039203465D02*
X1222011905Y-1039203465D01*
X1223583333Y-1039632036D02*
X1223535714Y-1039679656D01*
X1223535714Y-1039679656D02*
X1223392857Y-1039727275D01*
X1223392857Y-1039727275D02*
X1223297619Y-1039727275D01*
X1223297619Y-1039727275D02*
X1223154762Y-1039679656D01*
X1223154762Y-1039679656D02*
X1223059524Y-1039584417D01*
X1223059524Y-1039584417D02*
X1223011905Y-1039489179D01*
X1223011905Y-1039489179D02*
X1222964286Y-1039298703D01*
X1222964286Y-1039298703D02*
X1222964286Y-1039155846D01*
X1222964286Y-1039155846D02*
X1223011905Y-1038965370D01*
X1223011905Y-1038965370D02*
X1223059524Y-1038870132D01*
X1223059524Y-1038870132D02*
X1223154762Y-1038774894D01*
X1223154762Y-1038774894D02*
X1223297619Y-1038727275D01*
X1223297619Y-1038727275D02*
X1223392857Y-1038727275D01*
X1223392857Y-1038727275D02*
X1223535714Y-1038774894D01*
X1223535714Y-1038774894D02*
X1223583333Y-1038822513D01*
X1224535714Y-1039727275D02*
X1223964286Y-1039727275D01*
X1224250000Y-1039727275D02*
X1224250000Y-1038727275D01*
X1224250000Y-1038727275D02*
X1224154762Y-1038870132D01*
X1224154762Y-1038870132D02*
X1224059524Y-1038965370D01*
X1224059524Y-1038965370D02*
X1223964286Y-1039012989D01*
X1159833333Y-1040359580D02*
X1159785714Y-1040407200D01*
X1159785714Y-1040407200D02*
X1159642857Y-1040454819D01*
X1159642857Y-1040454819D02*
X1159547619Y-1040454819D01*
X1159547619Y-1040454819D02*
X1159404762Y-1040407200D01*
X1159404762Y-1040407200D02*
X1159309524Y-1040311961D01*
X1159309524Y-1040311961D02*
X1159261905Y-1040216723D01*
X1159261905Y-1040216723D02*
X1159214286Y-1040026247D01*
X1159214286Y-1040026247D02*
X1159214286Y-1039883390D01*
X1159214286Y-1039883390D02*
X1159261905Y-1039692914D01*
X1159261905Y-1039692914D02*
X1159309524Y-1039597676D01*
X1159309524Y-1039597676D02*
X1159404762Y-1039502438D01*
X1159404762Y-1039502438D02*
X1159547619Y-1039454819D01*
X1159547619Y-1039454819D02*
X1159642857Y-1039454819D01*
X1159642857Y-1039454819D02*
X1159785714Y-1039502438D01*
X1159785714Y-1039502438D02*
X1159833333Y-1039550057D01*
X1160785714Y-1040454819D02*
X1160214286Y-1040454819D01*
X1160500000Y-1040454819D02*
X1160500000Y-1039454819D01*
X1160500000Y-1039454819D02*
X1160404762Y-1039597676D01*
X1160404762Y-1039597676D02*
X1160309524Y-1039692914D01*
X1160309524Y-1039692914D02*
X1160214286Y-1039740533D01*
X1192333095Y-1043354817D02*
X1192333095Y-1044164340D01*
X1192333095Y-1044164340D02*
X1192380714Y-1044259578D01*
X1192380714Y-1044259578D02*
X1192428333Y-1044307198D01*
X1192428333Y-1044307198D02*
X1192523571Y-1044354817D01*
X1192523571Y-1044354817D02*
X1192714047Y-1044354817D01*
X1192714047Y-1044354817D02*
X1192809285Y-1044307198D01*
X1192809285Y-1044307198D02*
X1192856904Y-1044259578D01*
X1192856904Y-1044259578D02*
X1192904523Y-1044164340D01*
X1192904523Y-1044164340D02*
X1192904523Y-1043354817D01*
X1193904523Y-1044354817D02*
X1193333095Y-1044354817D01*
X1193618809Y-1044354817D02*
X1193618809Y-1043354817D01*
X1193618809Y-1043354817D02*
X1193523571Y-1043497674D01*
X1193523571Y-1043497674D02*
X1193428333Y-1043592912D01*
X1193428333Y-1043592912D02*
X1193333095Y-1043640531D01*
X1182960700Y-1034944817D02*
X1182960700Y-1035182912D01*
X1182722605Y-1035087674D02*
X1182960700Y-1035182912D01*
X1182960700Y-1035182912D02*
X1183198795Y-1035087674D01*
X1182817843Y-1035373388D02*
X1182960700Y-1035182912D01*
X1182960700Y-1035182912D02*
X1183103557Y-1035373388D01*
X1182960700Y-1034944817D02*
X1182960700Y-1035182912D01*
X1182722605Y-1035087674D02*
X1182960700Y-1035182912D01*
X1182960700Y-1035182912D02*
X1183198795Y-1035087674D01*
X1182817843Y-1035373388D02*
X1182960700Y-1035182912D01*
X1182960700Y-1035182912D02*
X1183103557Y-1035373388D01*
X1215107142Y-1056359580D02*
X1215059523Y-1056407200D01*
X1215059523Y-1056407200D02*
X1214916666Y-1056454819D01*
X1214916666Y-1056454819D02*
X1214821428Y-1056454819D01*
X1214821428Y-1056454819D02*
X1214678571Y-1056407200D01*
X1214678571Y-1056407200D02*
X1214583333Y-1056311961D01*
X1214583333Y-1056311961D02*
X1214535714Y-1056216723D01*
X1214535714Y-1056216723D02*
X1214488095Y-1056026247D01*
X1214488095Y-1056026247D02*
X1214488095Y-1055883390D01*
X1214488095Y-1055883390D02*
X1214535714Y-1055692914D01*
X1214535714Y-1055692914D02*
X1214583333Y-1055597676D01*
X1214583333Y-1055597676D02*
X1214678571Y-1055502438D01*
X1214678571Y-1055502438D02*
X1214821428Y-1055454819D01*
X1214821428Y-1055454819D02*
X1214916666Y-1055454819D01*
X1214916666Y-1055454819D02*
X1215059523Y-1055502438D01*
X1215059523Y-1055502438D02*
X1215107142Y-1055550057D01*
X1215488095Y-1055550057D02*
X1215535714Y-1055502438D01*
X1215535714Y-1055502438D02*
X1215630952Y-1055454819D01*
X1215630952Y-1055454819D02*
X1215869047Y-1055454819D01*
X1215869047Y-1055454819D02*
X1215964285Y-1055502438D01*
X1215964285Y-1055502438D02*
X1216011904Y-1055550057D01*
X1216011904Y-1055550057D02*
X1216059523Y-1055645295D01*
X1216059523Y-1055645295D02*
X1216059523Y-1055740533D01*
X1216059523Y-1055740533D02*
X1216011904Y-1055883390D01*
X1216011904Y-1055883390D02*
X1215440476Y-1056454819D01*
X1215440476Y-1056454819D02*
X1216059523Y-1056454819D01*
X1217011904Y-1056454819D02*
X1216440476Y-1056454819D01*
X1216726190Y-1056454819D02*
X1216726190Y-1055454819D01*
X1216726190Y-1055454819D02*
X1216630952Y-1055597676D01*
X1216630952Y-1055597676D02*
X1216535714Y-1055692914D01*
X1216535714Y-1055692914D02*
X1216440476Y-1055740533D01*
X1221094395Y-1048167419D02*
X1221094395Y-1048976942D01*
X1221094395Y-1048976942D02*
X1221142014Y-1049072180D01*
X1221142014Y-1049072180D02*
X1221189633Y-1049119800D01*
X1221189633Y-1049119800D02*
X1221284871Y-1049167419D01*
X1221284871Y-1049167419D02*
X1221475347Y-1049167419D01*
X1221475347Y-1049167419D02*
X1221570585Y-1049119800D01*
X1221570585Y-1049119800D02*
X1221618204Y-1049072180D01*
X1221618204Y-1049072180D02*
X1221665823Y-1048976942D01*
X1221665823Y-1048976942D02*
X1221665823Y-1048167419D01*
X1222094395Y-1048262657D02*
X1222142014Y-1048215038D01*
X1222142014Y-1048215038D02*
X1222237252Y-1048167419D01*
X1222237252Y-1048167419D02*
X1222475347Y-1048167419D01*
X1222475347Y-1048167419D02*
X1222570585Y-1048215038D01*
X1222570585Y-1048215038D02*
X1222618204Y-1048262657D01*
X1222618204Y-1048262657D02*
X1222665823Y-1048357895D01*
X1222665823Y-1048357895D02*
X1222665823Y-1048453133D01*
X1222665823Y-1048453133D02*
X1222618204Y-1048595990D01*
X1222618204Y-1048595990D02*
X1222046776Y-1049167419D01*
X1222046776Y-1049167419D02*
X1222665823Y-1049167419D01*
X1219929301Y-1045244420D02*
X1219929301Y-1045482515D01*
X1219691206Y-1045387277D02*
X1219929301Y-1045482515D01*
X1219929301Y-1045482515D02*
X1220167396Y-1045387277D01*
X1219786444Y-1045672991D02*
X1219929301Y-1045482515D01*
X1219929301Y-1045482515D02*
X1220072158Y-1045672991D01*
X1219929301Y-1045244420D02*
X1219929301Y-1045482515D01*
X1219691206Y-1045387277D02*
X1219929301Y-1045482515D01*
X1219929301Y-1045482515D02*
X1220167396Y-1045387277D01*
X1219786444Y-1045672991D02*
X1219929301Y-1045482515D01*
X1219929301Y-1045482515D02*
X1220072158Y-1045672991D01*
X1217833333Y-1044954819D02*
X1217500000Y-1044478628D01*
X1217261905Y-1044954819D02*
X1217261905Y-1043954819D01*
X1217261905Y-1043954819D02*
X1217642857Y-1043954819D01*
X1217642857Y-1043954819D02*
X1217738095Y-1044002438D01*
X1217738095Y-1044002438D02*
X1217785714Y-1044050057D01*
X1217785714Y-1044050057D02*
X1217833333Y-1044145295D01*
X1217833333Y-1044145295D02*
X1217833333Y-1044288152D01*
X1217833333Y-1044288152D02*
X1217785714Y-1044383390D01*
X1217785714Y-1044383390D02*
X1217738095Y-1044431009D01*
X1217738095Y-1044431009D02*
X1217642857Y-1044478628D01*
X1217642857Y-1044478628D02*
X1217261905Y-1044478628D01*
X1218785714Y-1044954819D02*
X1218214286Y-1044954819D01*
X1218500000Y-1044954819D02*
X1218500000Y-1043954819D01*
X1218500000Y-1043954819D02*
X1218404762Y-1044097676D01*
X1218404762Y-1044097676D02*
X1218309524Y-1044192914D01*
X1218309524Y-1044192914D02*
X1218214286Y-1044240533D01*
X1153833333Y-1060859580D02*
X1153785714Y-1060907200D01*
X1153785714Y-1060907200D02*
X1153642857Y-1060954819D01*
X1153642857Y-1060954819D02*
X1153547619Y-1060954819D01*
X1153547619Y-1060954819D02*
X1153404762Y-1060907200D01*
X1153404762Y-1060907200D02*
X1153309524Y-1060811961D01*
X1153309524Y-1060811961D02*
X1153261905Y-1060716723D01*
X1153261905Y-1060716723D02*
X1153214286Y-1060526247D01*
X1153214286Y-1060526247D02*
X1153214286Y-1060383390D01*
X1153214286Y-1060383390D02*
X1153261905Y-1060192914D01*
X1153261905Y-1060192914D02*
X1153309524Y-1060097676D01*
X1153309524Y-1060097676D02*
X1153404762Y-1060002438D01*
X1153404762Y-1060002438D02*
X1153547619Y-1059954819D01*
X1153547619Y-1059954819D02*
X1153642857Y-1059954819D01*
X1153642857Y-1059954819D02*
X1153785714Y-1060002438D01*
X1153785714Y-1060002438D02*
X1153833333Y-1060050057D01*
X1154690476Y-1059954819D02*
X1154500000Y-1059954819D01*
X1154500000Y-1059954819D02*
X1154404762Y-1060002438D01*
X1154404762Y-1060002438D02*
X1154357143Y-1060050057D01*
X1154357143Y-1060050057D02*
X1154261905Y-1060192914D01*
X1154261905Y-1060192914D02*
X1154214286Y-1060383390D01*
X1154214286Y-1060383390D02*
X1154214286Y-1060764342D01*
X1154214286Y-1060764342D02*
X1154261905Y-1060859580D01*
X1154261905Y-1060859580D02*
X1154309524Y-1060907200D01*
X1154309524Y-1060907200D02*
X1154404762Y-1060954819D01*
X1154404762Y-1060954819D02*
X1154595238Y-1060954819D01*
X1154595238Y-1060954819D02*
X1154690476Y-1060907200D01*
X1154690476Y-1060907200D02*
X1154738095Y-1060859580D01*
X1154738095Y-1060859580D02*
X1154785714Y-1060764342D01*
X1154785714Y-1060764342D02*
X1154785714Y-1060526247D01*
X1154785714Y-1060526247D02*
X1154738095Y-1060431009D01*
X1154738095Y-1060431009D02*
X1154690476Y-1060383390D01*
X1154690476Y-1060383390D02*
X1154595238Y-1060335771D01*
X1154595238Y-1060335771D02*
X1154404762Y-1060335771D01*
X1154404762Y-1060335771D02*
X1154309524Y-1060383390D01*
X1154309524Y-1060383390D02*
X1154261905Y-1060431009D01*
X1154261905Y-1060431009D02*
X1154214286Y-1060526247D01*
X1160358333Y-1037859580D02*
X1160310714Y-1037907200D01*
X1160310714Y-1037907200D02*
X1160167857Y-1037954819D01*
X1160167857Y-1037954819D02*
X1160072619Y-1037954819D01*
X1160072619Y-1037954819D02*
X1159929762Y-1037907200D01*
X1159929762Y-1037907200D02*
X1159834524Y-1037811961D01*
X1159834524Y-1037811961D02*
X1159786905Y-1037716723D01*
X1159786905Y-1037716723D02*
X1159739286Y-1037526247D01*
X1159739286Y-1037526247D02*
X1159739286Y-1037383390D01*
X1159739286Y-1037383390D02*
X1159786905Y-1037192914D01*
X1159786905Y-1037192914D02*
X1159834524Y-1037097676D01*
X1159834524Y-1037097676D02*
X1159929762Y-1037002438D01*
X1159929762Y-1037002438D02*
X1160072619Y-1036954819D01*
X1160072619Y-1036954819D02*
X1160167857Y-1036954819D01*
X1160167857Y-1036954819D02*
X1160310714Y-1037002438D01*
X1160310714Y-1037002438D02*
X1160358333Y-1037050057D01*
X1161263095Y-1036954819D02*
X1160786905Y-1036954819D01*
X1160786905Y-1036954819D02*
X1160739286Y-1037431009D01*
X1160739286Y-1037431009D02*
X1160786905Y-1037383390D01*
X1160786905Y-1037383390D02*
X1160882143Y-1037335771D01*
X1160882143Y-1037335771D02*
X1161120238Y-1037335771D01*
X1161120238Y-1037335771D02*
X1161215476Y-1037383390D01*
X1161215476Y-1037383390D02*
X1161263095Y-1037431009D01*
X1161263095Y-1037431009D02*
X1161310714Y-1037526247D01*
X1161310714Y-1037526247D02*
X1161310714Y-1037764342D01*
X1161310714Y-1037764342D02*
X1161263095Y-1037859580D01*
X1161263095Y-1037859580D02*
X1161215476Y-1037907200D01*
X1161215476Y-1037907200D02*
X1161120238Y-1037954819D01*
X1161120238Y-1037954819D02*
X1160882143Y-1037954819D01*
X1160882143Y-1037954819D02*
X1160786905Y-1037907200D01*
X1160786905Y-1037907200D02*
X1160739286Y-1037859580D01*
X1153833333Y-1058359580D02*
X1153785714Y-1058407200D01*
X1153785714Y-1058407200D02*
X1153642857Y-1058454819D01*
X1153642857Y-1058454819D02*
X1153547619Y-1058454819D01*
X1153547619Y-1058454819D02*
X1153404762Y-1058407200D01*
X1153404762Y-1058407200D02*
X1153309524Y-1058311961D01*
X1153309524Y-1058311961D02*
X1153261905Y-1058216723D01*
X1153261905Y-1058216723D02*
X1153214286Y-1058026247D01*
X1153214286Y-1058026247D02*
X1153214286Y-1057883390D01*
X1153214286Y-1057883390D02*
X1153261905Y-1057692914D01*
X1153261905Y-1057692914D02*
X1153309524Y-1057597676D01*
X1153309524Y-1057597676D02*
X1153404762Y-1057502438D01*
X1153404762Y-1057502438D02*
X1153547619Y-1057454819D01*
X1153547619Y-1057454819D02*
X1153642857Y-1057454819D01*
X1153642857Y-1057454819D02*
X1153785714Y-1057502438D01*
X1153785714Y-1057502438D02*
X1153833333Y-1057550057D01*
X1154214286Y-1057550057D02*
X1154261905Y-1057502438D01*
X1154261905Y-1057502438D02*
X1154357143Y-1057454819D01*
X1154357143Y-1057454819D02*
X1154595238Y-1057454819D01*
X1154595238Y-1057454819D02*
X1154690476Y-1057502438D01*
X1154690476Y-1057502438D02*
X1154738095Y-1057550057D01*
X1154738095Y-1057550057D02*
X1154785714Y-1057645295D01*
X1154785714Y-1057645295D02*
X1154785714Y-1057740533D01*
X1154785714Y-1057740533D02*
X1154738095Y-1057883390D01*
X1154738095Y-1057883390D02*
X1154166667Y-1058454819D01*
X1154166667Y-1058454819D02*
X1154785714Y-1058454819D01*
X1156685238Y-1052751009D02*
X1156828095Y-1052798628D01*
X1156828095Y-1052798628D02*
X1156875714Y-1052846247D01*
X1156875714Y-1052846247D02*
X1156923333Y-1052941485D01*
X1156923333Y-1052941485D02*
X1156923333Y-1053084342D01*
X1156923333Y-1053084342D02*
X1156875714Y-1053179580D01*
X1156875714Y-1053179580D02*
X1156828095Y-1053227200D01*
X1156828095Y-1053227200D02*
X1156732857Y-1053274819D01*
X1156732857Y-1053274819D02*
X1156351905Y-1053274819D01*
X1156351905Y-1053274819D02*
X1156351905Y-1052274819D01*
X1156351905Y-1052274819D02*
X1156685238Y-1052274819D01*
X1156685238Y-1052274819D02*
X1156780476Y-1052322438D01*
X1156780476Y-1052322438D02*
X1156828095Y-1052370057D01*
X1156828095Y-1052370057D02*
X1156875714Y-1052465295D01*
X1156875714Y-1052465295D02*
X1156875714Y-1052560533D01*
X1156875714Y-1052560533D02*
X1156828095Y-1052655771D01*
X1156828095Y-1052655771D02*
X1156780476Y-1052703390D01*
X1156780476Y-1052703390D02*
X1156685238Y-1052751009D01*
X1156685238Y-1052751009D02*
X1156351905Y-1052751009D01*
X1157304286Y-1052370057D02*
X1157351905Y-1052322438D01*
X1157351905Y-1052322438D02*
X1157447143Y-1052274819D01*
X1157447143Y-1052274819D02*
X1157685238Y-1052274819D01*
X1157685238Y-1052274819D02*
X1157780476Y-1052322438D01*
X1157780476Y-1052322438D02*
X1157828095Y-1052370057D01*
X1157828095Y-1052370057D02*
X1157875714Y-1052465295D01*
X1157875714Y-1052465295D02*
X1157875714Y-1052560533D01*
X1157875714Y-1052560533D02*
X1157828095Y-1052703390D01*
X1157828095Y-1052703390D02*
X1157256667Y-1053274819D01*
X1157256667Y-1053274819D02*
X1157875714Y-1053274819D01*
X1203214285Y-1056681009D02*
X1203357142Y-1056728628D01*
X1203357142Y-1056728628D02*
X1203404761Y-1056776247D01*
X1203404761Y-1056776247D02*
X1203452380Y-1056871485D01*
X1203452380Y-1056871485D02*
X1203452380Y-1057014342D01*
X1203452380Y-1057014342D02*
X1203404761Y-1057109580D01*
X1203404761Y-1057109580D02*
X1203357142Y-1057157200D01*
X1203357142Y-1057157200D02*
X1203261904Y-1057204819D01*
X1203261904Y-1057204819D02*
X1202880952Y-1057204819D01*
X1202880952Y-1057204819D02*
X1202880952Y-1056204819D01*
X1202880952Y-1056204819D02*
X1203214285Y-1056204819D01*
X1203214285Y-1056204819D02*
X1203309523Y-1056252438D01*
X1203309523Y-1056252438D02*
X1203357142Y-1056300057D01*
X1203357142Y-1056300057D02*
X1203404761Y-1056395295D01*
X1203404761Y-1056395295D02*
X1203404761Y-1056490533D01*
X1203404761Y-1056490533D02*
X1203357142Y-1056585771D01*
X1203357142Y-1056585771D02*
X1203309523Y-1056633390D01*
X1203309523Y-1056633390D02*
X1203214285Y-1056681009D01*
X1203214285Y-1056681009D02*
X1202880952Y-1056681009D01*
X1203738095Y-1056204819D02*
X1204309523Y-1056204819D01*
X1204023809Y-1057204819D02*
X1204023809Y-1056204819D01*
X1205166666Y-1057204819D02*
X1204595238Y-1057204819D01*
X1204880952Y-1057204819D02*
X1204880952Y-1056204819D01*
X1204880952Y-1056204819D02*
X1204785714Y-1056347676D01*
X1204785714Y-1056347676D02*
X1204690476Y-1056442914D01*
X1204690476Y-1056442914D02*
X1204595238Y-1056490533D01*
X1229539580Y-1049142857D02*
X1229587200Y-1049190476D01*
X1229587200Y-1049190476D02*
X1229634819Y-1049333333D01*
X1229634819Y-1049333333D02*
X1229634819Y-1049428571D01*
X1229634819Y-1049428571D02*
X1229587200Y-1049571428D01*
X1229587200Y-1049571428D02*
X1229491961Y-1049666666D01*
X1229491961Y-1049666666D02*
X1229396723Y-1049714285D01*
X1229396723Y-1049714285D02*
X1229206247Y-1049761904D01*
X1229206247Y-1049761904D02*
X1229063390Y-1049761904D01*
X1229063390Y-1049761904D02*
X1228872914Y-1049714285D01*
X1228872914Y-1049714285D02*
X1228777676Y-1049666666D01*
X1228777676Y-1049666666D02*
X1228682438Y-1049571428D01*
X1228682438Y-1049571428D02*
X1228634819Y-1049428571D01*
X1228634819Y-1049428571D02*
X1228634819Y-1049333333D01*
X1228634819Y-1049333333D02*
X1228682438Y-1049190476D01*
X1228682438Y-1049190476D02*
X1228730057Y-1049142857D01*
X1229634819Y-1048190476D02*
X1229634819Y-1048761904D01*
X1229634819Y-1048476190D02*
X1228634819Y-1048476190D01*
X1228634819Y-1048476190D02*
X1228777676Y-1048571428D01*
X1228777676Y-1048571428D02*
X1228872914Y-1048666666D01*
X1228872914Y-1048666666D02*
X1228920533Y-1048761904D01*
X1228968152Y-1047333333D02*
X1229634819Y-1047333333D01*
X1228587200Y-1047571428D02*
X1229301485Y-1047809523D01*
X1229301485Y-1047809523D02*
X1229301485Y-1047190476D01*
X1217857142Y-1056359580D02*
X1217809523Y-1056407200D01*
X1217809523Y-1056407200D02*
X1217666666Y-1056454819D01*
X1217666666Y-1056454819D02*
X1217571428Y-1056454819D01*
X1217571428Y-1056454819D02*
X1217428571Y-1056407200D01*
X1217428571Y-1056407200D02*
X1217333333Y-1056311961D01*
X1217333333Y-1056311961D02*
X1217285714Y-1056216723D01*
X1217285714Y-1056216723D02*
X1217238095Y-1056026247D01*
X1217238095Y-1056026247D02*
X1217238095Y-1055883390D01*
X1217238095Y-1055883390D02*
X1217285714Y-1055692914D01*
X1217285714Y-1055692914D02*
X1217333333Y-1055597676D01*
X1217333333Y-1055597676D02*
X1217428571Y-1055502438D01*
X1217428571Y-1055502438D02*
X1217571428Y-1055454819D01*
X1217571428Y-1055454819D02*
X1217666666Y-1055454819D01*
X1217666666Y-1055454819D02*
X1217809523Y-1055502438D01*
X1217809523Y-1055502438D02*
X1217857142Y-1055550057D01*
X1218238095Y-1055550057D02*
X1218285714Y-1055502438D01*
X1218285714Y-1055502438D02*
X1218380952Y-1055454819D01*
X1218380952Y-1055454819D02*
X1218619047Y-1055454819D01*
X1218619047Y-1055454819D02*
X1218714285Y-1055502438D01*
X1218714285Y-1055502438D02*
X1218761904Y-1055550057D01*
X1218761904Y-1055550057D02*
X1218809523Y-1055645295D01*
X1218809523Y-1055645295D02*
X1218809523Y-1055740533D01*
X1218809523Y-1055740533D02*
X1218761904Y-1055883390D01*
X1218761904Y-1055883390D02*
X1218190476Y-1056454819D01*
X1218190476Y-1056454819D02*
X1218809523Y-1056454819D01*
X1219190476Y-1055550057D02*
X1219238095Y-1055502438D01*
X1219238095Y-1055502438D02*
X1219333333Y-1055454819D01*
X1219333333Y-1055454819D02*
X1219571428Y-1055454819D01*
X1219571428Y-1055454819D02*
X1219666666Y-1055502438D01*
X1219666666Y-1055502438D02*
X1219714285Y-1055550057D01*
X1219714285Y-1055550057D02*
X1219761904Y-1055645295D01*
X1219761904Y-1055645295D02*
X1219761904Y-1055740533D01*
X1219761904Y-1055740533D02*
X1219714285Y-1055883390D01*
X1219714285Y-1055883390D02*
X1219142857Y-1056454819D01*
X1219142857Y-1056454819D02*
X1219761904Y-1056454819D01*
X1207333333Y-1052954819D02*
X1207000000Y-1052478628D01*
X1206761905Y-1052954819D02*
X1206761905Y-1051954819D01*
X1206761905Y-1051954819D02*
X1207142857Y-1051954819D01*
X1207142857Y-1051954819D02*
X1207238095Y-1052002438D01*
X1207238095Y-1052002438D02*
X1207285714Y-1052050057D01*
X1207285714Y-1052050057D02*
X1207333333Y-1052145295D01*
X1207333333Y-1052145295D02*
X1207333333Y-1052288152D01*
X1207333333Y-1052288152D02*
X1207285714Y-1052383390D01*
X1207285714Y-1052383390D02*
X1207238095Y-1052431009D01*
X1207238095Y-1052431009D02*
X1207142857Y-1052478628D01*
X1207142857Y-1052478628D02*
X1206761905Y-1052478628D01*
X1208238095Y-1051954819D02*
X1207761905Y-1051954819D01*
X1207761905Y-1051954819D02*
X1207714286Y-1052431009D01*
X1207714286Y-1052431009D02*
X1207761905Y-1052383390D01*
X1207761905Y-1052383390D02*
X1207857143Y-1052335771D01*
X1207857143Y-1052335771D02*
X1208095238Y-1052335771D01*
X1208095238Y-1052335771D02*
X1208190476Y-1052383390D01*
X1208190476Y-1052383390D02*
X1208238095Y-1052431009D01*
X1208238095Y-1052431009D02*
X1208285714Y-1052526247D01*
X1208285714Y-1052526247D02*
X1208285714Y-1052764342D01*
X1208285714Y-1052764342D02*
X1208238095Y-1052859580D01*
X1208238095Y-1052859580D02*
X1208190476Y-1052907200D01*
X1208190476Y-1052907200D02*
X1208095238Y-1052954819D01*
X1208095238Y-1052954819D02*
X1207857143Y-1052954819D01*
X1207857143Y-1052954819D02*
X1207761905Y-1052907200D01*
X1207761905Y-1052907200D02*
X1207714286Y-1052859580D01*
X1177704819Y-1046463332D02*
X1176704819Y-1046463332D01*
X1176704819Y-1046463332D02*
X1177419104Y-1046129999D01*
X1177419104Y-1046129999D02*
X1176704819Y-1045796666D01*
X1176704819Y-1045796666D02*
X1177704819Y-1045796666D01*
X1177704819Y-1045320475D02*
X1176704819Y-1045320475D01*
X1176704819Y-1045320475D02*
X1176704819Y-1044939523D01*
X1176704819Y-1044939523D02*
X1176752438Y-1044844285D01*
X1176752438Y-1044844285D02*
X1176800057Y-1044796666D01*
X1176800057Y-1044796666D02*
X1176895295Y-1044749047D01*
X1176895295Y-1044749047D02*
X1177038152Y-1044749047D01*
X1177038152Y-1044749047D02*
X1177133390Y-1044796666D01*
X1177133390Y-1044796666D02*
X1177181009Y-1044844285D01*
X1177181009Y-1044844285D02*
X1177228628Y-1044939523D01*
X1177228628Y-1044939523D02*
X1177228628Y-1045320475D01*
X1176704819Y-1044320475D02*
X1177514342Y-1044320475D01*
X1177514342Y-1044320475D02*
X1177609580Y-1044272856D01*
X1177609580Y-1044272856D02*
X1177657200Y-1044225237D01*
X1177657200Y-1044225237D02*
X1177704819Y-1044129999D01*
X1177704819Y-1044129999D02*
X1177704819Y-1043939523D01*
X1177704819Y-1043939523D02*
X1177657200Y-1043844285D01*
X1177657200Y-1043844285D02*
X1177609580Y-1043796666D01*
X1177609580Y-1043796666D02*
X1177514342Y-1043749047D01*
X1177514342Y-1043749047D02*
X1176704819Y-1043749047D01*
X1177704819Y-1042749047D02*
X1177704819Y-1043320475D01*
X1177704819Y-1043034761D02*
X1176704819Y-1043034761D01*
X1176704819Y-1043034761D02*
X1176847676Y-1043129999D01*
X1176847676Y-1043129999D02*
X1176942914Y-1043225237D01*
X1176942914Y-1043225237D02*
X1176990533Y-1043320475D01*
X1242083333Y-1060859580D02*
X1242035714Y-1060907200D01*
X1242035714Y-1060907200D02*
X1241892857Y-1060954819D01*
X1241892857Y-1060954819D02*
X1241797619Y-1060954819D01*
X1241797619Y-1060954819D02*
X1241654762Y-1060907200D01*
X1241654762Y-1060907200D02*
X1241559524Y-1060811961D01*
X1241559524Y-1060811961D02*
X1241511905Y-1060716723D01*
X1241511905Y-1060716723D02*
X1241464286Y-1060526247D01*
X1241464286Y-1060526247D02*
X1241464286Y-1060383390D01*
X1241464286Y-1060383390D02*
X1241511905Y-1060192914D01*
X1241511905Y-1060192914D02*
X1241559524Y-1060097676D01*
X1241559524Y-1060097676D02*
X1241654762Y-1060002438D01*
X1241654762Y-1060002438D02*
X1241797619Y-1059954819D01*
X1241797619Y-1059954819D02*
X1241892857Y-1059954819D01*
X1241892857Y-1059954819D02*
X1242035714Y-1060002438D01*
X1242035714Y-1060002438D02*
X1242083333Y-1060050057D01*
X1242416667Y-1059954819D02*
X1243083333Y-1059954819D01*
X1243083333Y-1059954819D02*
X1242654762Y-1060954819D01*
X1177857142Y-1035359580D02*
X1177809523Y-1035407200D01*
X1177809523Y-1035407200D02*
X1177666666Y-1035454819D01*
X1177666666Y-1035454819D02*
X1177571428Y-1035454819D01*
X1177571428Y-1035454819D02*
X1177428571Y-1035407200D01*
X1177428571Y-1035407200D02*
X1177333333Y-1035311961D01*
X1177333333Y-1035311961D02*
X1177285714Y-1035216723D01*
X1177285714Y-1035216723D02*
X1177238095Y-1035026247D01*
X1177238095Y-1035026247D02*
X1177238095Y-1034883390D01*
X1177238095Y-1034883390D02*
X1177285714Y-1034692914D01*
X1177285714Y-1034692914D02*
X1177333333Y-1034597676D01*
X1177333333Y-1034597676D02*
X1177428571Y-1034502438D01*
X1177428571Y-1034502438D02*
X1177571428Y-1034454819D01*
X1177571428Y-1034454819D02*
X1177666666Y-1034454819D01*
X1177666666Y-1034454819D02*
X1177809523Y-1034502438D01*
X1177809523Y-1034502438D02*
X1177857142Y-1034550057D01*
X1178809523Y-1035454819D02*
X1178238095Y-1035454819D01*
X1178523809Y-1035454819D02*
X1178523809Y-1034454819D01*
X1178523809Y-1034454819D02*
X1178428571Y-1034597676D01*
X1178428571Y-1034597676D02*
X1178333333Y-1034692914D01*
X1178333333Y-1034692914D02*
X1178238095Y-1034740533D01*
X1179285714Y-1035454819D02*
X1179476190Y-1035454819D01*
X1179476190Y-1035454819D02*
X1179571428Y-1035407200D01*
X1179571428Y-1035407200D02*
X1179619047Y-1035359580D01*
X1179619047Y-1035359580D02*
X1179714285Y-1035216723D01*
X1179714285Y-1035216723D02*
X1179761904Y-1035026247D01*
X1179761904Y-1035026247D02*
X1179761904Y-1034645295D01*
X1179761904Y-1034645295D02*
X1179714285Y-1034550057D01*
X1179714285Y-1034550057D02*
X1179666666Y-1034502438D01*
X1179666666Y-1034502438D02*
X1179571428Y-1034454819D01*
X1179571428Y-1034454819D02*
X1179380952Y-1034454819D01*
X1179380952Y-1034454819D02*
X1179285714Y-1034502438D01*
X1179285714Y-1034502438D02*
X1179238095Y-1034550057D01*
X1179238095Y-1034550057D02*
X1179190476Y-1034645295D01*
X1179190476Y-1034645295D02*
X1179190476Y-1034883390D01*
X1179190476Y-1034883390D02*
X1179238095Y-1034978628D01*
X1179238095Y-1034978628D02*
X1179285714Y-1035026247D01*
X1179285714Y-1035026247D02*
X1179380952Y-1035073866D01*
X1179380952Y-1035073866D02*
X1179571428Y-1035073866D01*
X1179571428Y-1035073866D02*
X1179666666Y-1035026247D01*
X1179666666Y-1035026247D02*
X1179714285Y-1034978628D01*
X1179714285Y-1034978628D02*
X1179761904Y-1034883390D01*
X1156595238Y-1044931009D02*
X1156738095Y-1044978628D01*
X1156738095Y-1044978628D02*
X1156785714Y-1045026247D01*
X1156785714Y-1045026247D02*
X1156833333Y-1045121485D01*
X1156833333Y-1045121485D02*
X1156833333Y-1045264342D01*
X1156833333Y-1045264342D02*
X1156785714Y-1045359580D01*
X1156785714Y-1045359580D02*
X1156738095Y-1045407200D01*
X1156738095Y-1045407200D02*
X1156642857Y-1045454819D01*
X1156642857Y-1045454819D02*
X1156261905Y-1045454819D01*
X1156261905Y-1045454819D02*
X1156261905Y-1044454819D01*
X1156261905Y-1044454819D02*
X1156595238Y-1044454819D01*
X1156595238Y-1044454819D02*
X1156690476Y-1044502438D01*
X1156690476Y-1044502438D02*
X1156738095Y-1044550057D01*
X1156738095Y-1044550057D02*
X1156785714Y-1044645295D01*
X1156785714Y-1044645295D02*
X1156785714Y-1044740533D01*
X1156785714Y-1044740533D02*
X1156738095Y-1044835771D01*
X1156738095Y-1044835771D02*
X1156690476Y-1044883390D01*
X1156690476Y-1044883390D02*
X1156595238Y-1044931009D01*
X1156595238Y-1044931009D02*
X1156261905Y-1044931009D01*
X1157785714Y-1045454819D02*
X1157214286Y-1045454819D01*
X1157500000Y-1045454819D02*
X1157500000Y-1044454819D01*
X1157500000Y-1044454819D02*
X1157404762Y-1044597676D01*
X1157404762Y-1044597676D02*
X1157309524Y-1044692914D01*
X1157309524Y-1044692914D02*
X1157214286Y-1044740533D01*
X1217454819Y-1050666666D02*
X1216978628Y-1050999999D01*
X1217454819Y-1051238094D02*
X1216454819Y-1051238094D01*
X1216454819Y-1051238094D02*
X1216454819Y-1050857142D01*
X1216454819Y-1050857142D02*
X1216502438Y-1050761904D01*
X1216502438Y-1050761904D02*
X1216550057Y-1050714285D01*
X1216550057Y-1050714285D02*
X1216645295Y-1050666666D01*
X1216645295Y-1050666666D02*
X1216788152Y-1050666666D01*
X1216788152Y-1050666666D02*
X1216883390Y-1050714285D01*
X1216883390Y-1050714285D02*
X1216931009Y-1050761904D01*
X1216931009Y-1050761904D02*
X1216978628Y-1050857142D01*
X1216978628Y-1050857142D02*
X1216978628Y-1051238094D01*
X1216454819Y-1050333332D02*
X1216454819Y-1049714285D01*
X1216454819Y-1049714285D02*
X1216835771Y-1050047618D01*
X1216835771Y-1050047618D02*
X1216835771Y-1049904761D01*
X1216835771Y-1049904761D02*
X1216883390Y-1049809523D01*
X1216883390Y-1049809523D02*
X1216931009Y-1049761904D01*
X1216931009Y-1049761904D02*
X1217026247Y-1049714285D01*
X1217026247Y-1049714285D02*
X1217264342Y-1049714285D01*
X1217264342Y-1049714285D02*
X1217359580Y-1049761904D01*
X1217359580Y-1049761904D02*
X1217407200Y-1049809523D01*
X1217407200Y-1049809523D02*
X1217454819Y-1049904761D01*
X1217454819Y-1049904761D02*
X1217454819Y-1050190475D01*
X1217454819Y-1050190475D02*
X1217407200Y-1050285713D01*
X1217407200Y-1050285713D02*
X1217359580Y-1050333332D01*
X1230440476Y-1039454819D02*
X1230440476Y-1038454819D01*
X1230440476Y-1038454819D02*
X1230773809Y-1039169104D01*
X1230773809Y-1039169104D02*
X1231107142Y-1038454819D01*
X1231107142Y-1038454819D02*
X1231107142Y-1039454819D01*
X1232011904Y-1038788152D02*
X1232011904Y-1039454819D01*
X1231773809Y-1038407200D02*
X1231535714Y-1039121485D01*
X1231535714Y-1039121485D02*
X1232154761Y-1039121485D01*
X1226333333Y-1044954819D02*
X1226000000Y-1044478628D01*
X1225761905Y-1044954819D02*
X1225761905Y-1043954819D01*
X1225761905Y-1043954819D02*
X1226142857Y-1043954819D01*
X1226142857Y-1043954819D02*
X1226238095Y-1044002438D01*
X1226238095Y-1044002438D02*
X1226285714Y-1044050057D01*
X1226285714Y-1044050057D02*
X1226333333Y-1044145295D01*
X1226333333Y-1044145295D02*
X1226333333Y-1044288152D01*
X1226333333Y-1044288152D02*
X1226285714Y-1044383390D01*
X1226285714Y-1044383390D02*
X1226238095Y-1044431009D01*
X1226238095Y-1044431009D02*
X1226142857Y-1044478628D01*
X1226142857Y-1044478628D02*
X1225761905Y-1044478628D01*
X1226714286Y-1044050057D02*
X1226761905Y-1044002438D01*
X1226761905Y-1044002438D02*
X1226857143Y-1043954819D01*
X1226857143Y-1043954819D02*
X1227095238Y-1043954819D01*
X1227095238Y-1043954819D02*
X1227190476Y-1044002438D01*
X1227190476Y-1044002438D02*
X1227238095Y-1044050057D01*
X1227238095Y-1044050057D02*
X1227285714Y-1044145295D01*
X1227285714Y-1044145295D02*
X1227285714Y-1044240533D01*
X1227285714Y-1044240533D02*
X1227238095Y-1044383390D01*
X1227238095Y-1044383390D02*
X1226666667Y-1044954819D01*
X1226666667Y-1044954819D02*
X1227285714Y-1044954819D01*
X1163190476Y-1059954819D02*
X1163190476Y-1058954819D01*
X1163190476Y-1058954819D02*
X1163523809Y-1059669104D01*
X1163523809Y-1059669104D02*
X1163857142Y-1058954819D01*
X1163857142Y-1058954819D02*
X1163857142Y-1059954819D01*
X1164285714Y-1059050057D02*
X1164333333Y-1059002438D01*
X1164333333Y-1059002438D02*
X1164428571Y-1058954819D01*
X1164428571Y-1058954819D02*
X1164666666Y-1058954819D01*
X1164666666Y-1058954819D02*
X1164761904Y-1059002438D01*
X1164761904Y-1059002438D02*
X1164809523Y-1059050057D01*
X1164809523Y-1059050057D02*
X1164857142Y-1059145295D01*
X1164857142Y-1059145295D02*
X1164857142Y-1059240533D01*
X1164857142Y-1059240533D02*
X1164809523Y-1059383390D01*
X1164809523Y-1059383390D02*
X1164238095Y-1059954819D01*
X1164238095Y-1059954819D02*
X1164857142Y-1059954819D01*
X1180107142Y-1039629580D02*
X1180059523Y-1039677200D01*
X1180059523Y-1039677200D02*
X1179916666Y-1039724819D01*
X1179916666Y-1039724819D02*
X1179821428Y-1039724819D01*
X1179821428Y-1039724819D02*
X1179678571Y-1039677200D01*
X1179678571Y-1039677200D02*
X1179583333Y-1039581961D01*
X1179583333Y-1039581961D02*
X1179535714Y-1039486723D01*
X1179535714Y-1039486723D02*
X1179488095Y-1039296247D01*
X1179488095Y-1039296247D02*
X1179488095Y-1039153390D01*
X1179488095Y-1039153390D02*
X1179535714Y-1038962914D01*
X1179535714Y-1038962914D02*
X1179583333Y-1038867676D01*
X1179583333Y-1038867676D02*
X1179678571Y-1038772438D01*
X1179678571Y-1038772438D02*
X1179821428Y-1038724819D01*
X1179821428Y-1038724819D02*
X1179916666Y-1038724819D01*
X1179916666Y-1038724819D02*
X1180059523Y-1038772438D01*
X1180059523Y-1038772438D02*
X1180107142Y-1038820057D01*
X1181059523Y-1039724819D02*
X1180488095Y-1039724819D01*
X1180773809Y-1039724819D02*
X1180773809Y-1038724819D01*
X1180773809Y-1038724819D02*
X1180678571Y-1038867676D01*
X1180678571Y-1038867676D02*
X1180583333Y-1038962914D01*
X1180583333Y-1038962914D02*
X1180488095Y-1039010533D01*
X1181916666Y-1038724819D02*
X1181726190Y-1038724819D01*
X1181726190Y-1038724819D02*
X1181630952Y-1038772438D01*
X1181630952Y-1038772438D02*
X1181583333Y-1038820057D01*
X1181583333Y-1038820057D02*
X1181488095Y-1038962914D01*
X1181488095Y-1038962914D02*
X1181440476Y-1039153390D01*
X1181440476Y-1039153390D02*
X1181440476Y-1039534342D01*
X1181440476Y-1039534342D02*
X1181488095Y-1039629580D01*
X1181488095Y-1039629580D02*
X1181535714Y-1039677200D01*
X1181535714Y-1039677200D02*
X1181630952Y-1039724819D01*
X1181630952Y-1039724819D02*
X1181821428Y-1039724819D01*
X1181821428Y-1039724819D02*
X1181916666Y-1039677200D01*
X1181916666Y-1039677200D02*
X1181964285Y-1039629580D01*
X1181964285Y-1039629580D02*
X1182011904Y-1039534342D01*
X1182011904Y-1039534342D02*
X1182011904Y-1039296247D01*
X1182011904Y-1039296247D02*
X1181964285Y-1039201009D01*
X1181964285Y-1039201009D02*
X1181916666Y-1039153390D01*
X1181916666Y-1039153390D02*
X1181821428Y-1039105771D01*
X1181821428Y-1039105771D02*
X1181630952Y-1039105771D01*
X1181630952Y-1039105771D02*
X1181535714Y-1039153390D01*
X1181535714Y-1039153390D02*
X1181488095Y-1039201009D01*
X1181488095Y-1039201009D02*
X1181440476Y-1039296247D01*
X1241883333Y-1039359580D02*
X1241835714Y-1039407200D01*
X1241835714Y-1039407200D02*
X1241692857Y-1039454819D01*
X1241692857Y-1039454819D02*
X1241597619Y-1039454819D01*
X1241597619Y-1039454819D02*
X1241454762Y-1039407200D01*
X1241454762Y-1039407200D02*
X1241359524Y-1039311961D01*
X1241359524Y-1039311961D02*
X1241311905Y-1039216723D01*
X1241311905Y-1039216723D02*
X1241264286Y-1039026247D01*
X1241264286Y-1039026247D02*
X1241264286Y-1038883390D01*
X1241264286Y-1038883390D02*
X1241311905Y-1038692914D01*
X1241311905Y-1038692914D02*
X1241359524Y-1038597676D01*
X1241359524Y-1038597676D02*
X1241454762Y-1038502438D01*
X1241454762Y-1038502438D02*
X1241597619Y-1038454819D01*
X1241597619Y-1038454819D02*
X1241692857Y-1038454819D01*
X1241692857Y-1038454819D02*
X1241835714Y-1038502438D01*
X1241835714Y-1038502438D02*
X1241883333Y-1038550057D01*
X1242740476Y-1038788152D02*
X1242740476Y-1039454819D01*
X1242502381Y-1038407200D02*
X1242264286Y-1039121485D01*
X1242264286Y-1039121485D02*
X1242883333Y-1039121485D01*
X1177857142Y-1037859580D02*
X1177809523Y-1037907200D01*
X1177809523Y-1037907200D02*
X1177666666Y-1037954819D01*
X1177666666Y-1037954819D02*
X1177571428Y-1037954819D01*
X1177571428Y-1037954819D02*
X1177428571Y-1037907200D01*
X1177428571Y-1037907200D02*
X1177333333Y-1037811961D01*
X1177333333Y-1037811961D02*
X1177285714Y-1037716723D01*
X1177285714Y-1037716723D02*
X1177238095Y-1037526247D01*
X1177238095Y-1037526247D02*
X1177238095Y-1037383390D01*
X1177238095Y-1037383390D02*
X1177285714Y-1037192914D01*
X1177285714Y-1037192914D02*
X1177333333Y-1037097676D01*
X1177333333Y-1037097676D02*
X1177428571Y-1037002438D01*
X1177428571Y-1037002438D02*
X1177571428Y-1036954819D01*
X1177571428Y-1036954819D02*
X1177666666Y-1036954819D01*
X1177666666Y-1036954819D02*
X1177809523Y-1037002438D01*
X1177809523Y-1037002438D02*
X1177857142Y-1037050057D01*
X1178809523Y-1037954819D02*
X1178238095Y-1037954819D01*
X1178523809Y-1037954819D02*
X1178523809Y-1036954819D01*
X1178523809Y-1036954819D02*
X1178428571Y-1037097676D01*
X1178428571Y-1037097676D02*
X1178333333Y-1037192914D01*
X1178333333Y-1037192914D02*
X1178238095Y-1037240533D01*
X1179380952Y-1037383390D02*
X1179285714Y-1037335771D01*
X1179285714Y-1037335771D02*
X1179238095Y-1037288152D01*
X1179238095Y-1037288152D02*
X1179190476Y-1037192914D01*
X1179190476Y-1037192914D02*
X1179190476Y-1037145295D01*
X1179190476Y-1037145295D02*
X1179238095Y-1037050057D01*
X1179238095Y-1037050057D02*
X1179285714Y-1037002438D01*
X1179285714Y-1037002438D02*
X1179380952Y-1036954819D01*
X1179380952Y-1036954819D02*
X1179571428Y-1036954819D01*
X1179571428Y-1036954819D02*
X1179666666Y-1037002438D01*
X1179666666Y-1037002438D02*
X1179714285Y-1037050057D01*
X1179714285Y-1037050057D02*
X1179761904Y-1037145295D01*
X1179761904Y-1037145295D02*
X1179761904Y-1037192914D01*
X1179761904Y-1037192914D02*
X1179714285Y-1037288152D01*
X1179714285Y-1037288152D02*
X1179666666Y-1037335771D01*
X1179666666Y-1037335771D02*
X1179571428Y-1037383390D01*
X1179571428Y-1037383390D02*
X1179380952Y-1037383390D01*
X1179380952Y-1037383390D02*
X1179285714Y-1037431009D01*
X1179285714Y-1037431009D02*
X1179238095Y-1037478628D01*
X1179238095Y-1037478628D02*
X1179190476Y-1037573866D01*
X1179190476Y-1037573866D02*
X1179190476Y-1037764342D01*
X1179190476Y-1037764342D02*
X1179238095Y-1037859580D01*
X1179238095Y-1037859580D02*
X1179285714Y-1037907200D01*
X1179285714Y-1037907200D02*
X1179380952Y-1037954819D01*
X1179380952Y-1037954819D02*
X1179571428Y-1037954819D01*
X1179571428Y-1037954819D02*
X1179666666Y-1037907200D01*
X1179666666Y-1037907200D02*
X1179714285Y-1037859580D01*
X1179714285Y-1037859580D02*
X1179761904Y-1037764342D01*
X1179761904Y-1037764342D02*
X1179761904Y-1037573866D01*
X1179761904Y-1037573866D02*
X1179714285Y-1037478628D01*
X1179714285Y-1037478628D02*
X1179666666Y-1037431009D01*
X1179666666Y-1037431009D02*
X1179571428Y-1037383390D01*
%TO.C,B3*%
X1236420000Y-1051230000D02*
X1241580000Y-1051230000D01*
X1236420000Y-1054270000D02*
X1236420000Y-1051230000D01*
X1241580000Y-1051230000D02*
X1241580000Y-1054270000D01*
X1241580000Y-1054270000D02*
X1236420000Y-1054270000D01*
D11*
X1241070000Y-1051980000D02*
G75*
G02*
X1240750000Y-1051980000I-160000J0D01*
G01*
X1240750000Y-1051980000D02*
G75*
G02*
X1241070000Y-1051980000I160000J0D01*
G01*
D12*
X1241480000Y-1049750000D02*
G75*
G02*
X1241420000Y-1049750000I-30000J0D01*
G01*
X1241420000Y-1049750000D02*
G75*
G02*
X1241480000Y-1049750000I30000J0D01*
G01*
D11*
X1241820000Y-1050070000D02*
G75*
G02*
X1241520000Y-1050070000I-150000J0D01*
G01*
X1241520000Y-1050070000D02*
G75*
G02*
X1241820000Y-1050070000I150000J0D01*
G01*
%TO.C,C17*%
D13*
X1168140000Y-1042912164D02*
X1168140000Y-1043127836D01*
X1168860000Y-1042912164D02*
X1168860000Y-1043127836D01*
%TO.C,B4*%
D10*
X1236330000Y-1042800000D02*
X1241490000Y-1042800000D01*
X1236330000Y-1045840000D02*
X1236330000Y-1042800000D01*
X1241490000Y-1042800000D02*
X1241490000Y-1045840000D01*
X1241490000Y-1045840000D02*
X1236330000Y-1045840000D01*
D11*
X1236390000Y-1047000000D02*
G75*
G02*
X1236090000Y-1047000000I-150000J0D01*
G01*
X1236090000Y-1047000000D02*
G75*
G02*
X1236390000Y-1047000000I150000J0D01*
G01*
D12*
X1236490000Y-1047320000D02*
G75*
G02*
X1236430000Y-1047320000I-30000J0D01*
G01*
X1236430000Y-1047320000D02*
G75*
G02*
X1236490000Y-1047320000I30000J0D01*
G01*
D11*
X1237160000Y-1045090000D02*
G75*
G02*
X1236840000Y-1045090000I-160000J0D01*
G01*
X1236840000Y-1045090000D02*
G75*
G02*
X1237160000Y-1045090000I160000J0D01*
G01*
%TO.C,M3*%
D13*
X1228640000Y-1056340000D02*
X1228640000Y-1057590000D01*
X1228940000Y-1057950000D02*
X1229550000Y-1057950000D01*
X1228940000Y-1059250000D02*
X1229550000Y-1059250000D01*
X1229550000Y-1057250000D02*
X1229550000Y-1060750000D01*
X1229550000Y-1060750000D02*
X1234450000Y-1060750000D01*
X1229890000Y-1056340000D02*
X1228640000Y-1056340000D01*
X1230400000Y-1056440000D02*
X1230400000Y-1056640000D01*
X1230700000Y-1056440000D02*
X1230400000Y-1056440000D01*
X1230700000Y-1056540000D02*
X1230400000Y-1056540000D01*
X1230700000Y-1056640000D02*
X1230700000Y-1056440000D01*
X1231500000Y-1056640000D02*
X1231500000Y-1057250000D01*
X1231500000Y-1057250000D02*
X1229550000Y-1057250000D01*
X1231900000Y-1060250000D02*
X1232100000Y-1060250000D01*
X1231900000Y-1060750000D02*
X1231900000Y-1060250000D01*
X1232000000Y-1060750000D02*
X1232000000Y-1060250000D01*
X1232100000Y-1060250000D02*
X1232100000Y-1060750000D01*
X1232500000Y-1057250000D02*
X1232500000Y-1056640000D01*
X1234450000Y-1057250000D02*
X1232500000Y-1057250000D01*
X1234450000Y-1060750000D02*
X1234450000Y-1057250000D01*
X1235060000Y-1057950000D02*
X1234450000Y-1057950000D01*
X1235060000Y-1059250000D02*
X1234450000Y-1059250000D01*
X1228940000Y-1056640000D02*
X1235060000Y-1056640000D01*
X1235060000Y-1061360000D01*
X1228940000Y-1061360000D01*
X1228940000Y-1056640000D01*
%TO.C,BMP1*%
X1169390000Y-1040390000D02*
X1169390000Y-1042300000D01*
X1170000000Y-1041000000D02*
X1170000000Y-1047250000D01*
X1170000000Y-1047250000D02*
X1171000000Y-1047250000D01*
X1171000000Y-1040700000D02*
X1171000000Y-1041000000D01*
X1171000000Y-1041000000D02*
X1170000000Y-1041000000D01*
X1171000000Y-1047250000D02*
X1171000000Y-1047550000D01*
X1171300000Y-1040390000D02*
X1169390000Y-1040390000D01*
X1171750000Y-1040700000D02*
X1171750000Y-1041000000D01*
X1171750000Y-1041000000D02*
X1172850000Y-1041000000D01*
X1171750000Y-1047250000D02*
X1172850000Y-1047250000D01*
X1171750000Y-1047550000D02*
X1171750000Y-1047250000D01*
X1172850000Y-1041000000D02*
X1172850000Y-1041300000D01*
X1172850000Y-1041300000D02*
X1172850000Y-1042500000D01*
X1172850000Y-1041300000D02*
X1173300000Y-1041300000D01*
X1172850000Y-1042500000D02*
X1173150000Y-1042500000D01*
X1172850000Y-1043250000D02*
X1172850000Y-1045000000D01*
X1172850000Y-1045000000D02*
X1173150000Y-1045000000D01*
X1172850000Y-1045750000D02*
X1172850000Y-1046950000D01*
X1172850000Y-1046950000D02*
X1173300000Y-1046950000D01*
X1172850000Y-1047250000D02*
X1172850000Y-1046950000D01*
X1173150000Y-1042500000D02*
X1173150000Y-1043250000D01*
X1173150000Y-1043250000D02*
X1172850000Y-1043250000D01*
X1173150000Y-1045000000D02*
X1173150000Y-1045750000D01*
X1173150000Y-1045750000D02*
X1172850000Y-1045750000D01*
X1169700000Y-1040700000D02*
X1173300000Y-1040700000D01*
X1173300000Y-1047550000D01*
X1169700000Y-1047550000D01*
X1169700000Y-1040700000D01*
%TO.C,L1*%
X1210250000Y-1050700000D02*
X1212750000Y-1050700000D01*
X1212750000Y-1042300000D02*
X1210250000Y-1042300000D01*
%TO.C,C9*%
X1162788748Y-1039590000D02*
X1164211252Y-1039590000D01*
X1162788748Y-1041410000D02*
X1164211252Y-1041410000D01*
%TO.C,M1*%
X1162140000Y-1033890000D02*
X1162140000Y-1035140000D01*
X1162440000Y-1035500000D02*
X1163050000Y-1035500000D01*
X1162440000Y-1036800000D02*
X1163050000Y-1036800000D01*
X1163050000Y-1034800000D02*
X1163050000Y-1038300000D01*
X1163050000Y-1038300000D02*
X1167950000Y-1038300000D01*
X1163390000Y-1033890000D02*
X1162140000Y-1033890000D01*
X1163900000Y-1033990000D02*
X1163900000Y-1034190000D01*
X1164200000Y-1033990000D02*
X1163900000Y-1033990000D01*
X1164200000Y-1034090000D02*
X1163900000Y-1034090000D01*
X1164200000Y-1034190000D02*
X1164200000Y-1033990000D01*
X1165000000Y-1034190000D02*
X1165000000Y-1034800000D01*
X1165000000Y-1034800000D02*
X1163050000Y-1034800000D01*
X1165400000Y-1037800000D02*
X1165600000Y-1037800000D01*
X1165400000Y-1038300000D02*
X1165400000Y-1037800000D01*
X1165500000Y-1038300000D02*
X1165500000Y-1037800000D01*
X1165600000Y-1037800000D02*
X1165600000Y-1038300000D01*
X1166000000Y-1034800000D02*
X1166000000Y-1034190000D01*
X1167950000Y-1034800000D02*
X1166000000Y-1034800000D01*
X1167950000Y-1038300000D02*
X1167950000Y-1034800000D01*
X1168560000Y-1035500000D02*
X1167950000Y-1035500000D01*
X1168560000Y-1036800000D02*
X1167950000Y-1036800000D01*
X1162440000Y-1034190000D02*
X1168560000Y-1034190000D01*
X1168560000Y-1038910000D01*
X1162440000Y-1038910000D01*
X1162440000Y-1034190000D01*
%TO.C,R7*%
X1180477500Y-1043912258D02*
X1180477500Y-1043437742D01*
X1181522500Y-1043912258D02*
X1181522500Y-1043437742D01*
%TO.C,R6*%
X1195687742Y-1055477500D02*
X1196162258Y-1055477500D01*
X1195687742Y-1056522500D02*
X1196162258Y-1056522500D01*
%TO.C,C20*%
X1209590000Y-1058288748D02*
X1209590000Y-1059711252D01*
X1211410000Y-1058288748D02*
X1211410000Y-1059711252D01*
%TO.C,C3*%
X1239211252Y-1057265000D02*
X1238688748Y-1057265000D01*
X1239211252Y-1058735000D02*
X1238688748Y-1058735000D01*
%TO.C,C11*%
X1231313748Y-1053590000D02*
X1232736252Y-1053590000D01*
X1231313748Y-1055410000D02*
X1232736252Y-1055410000D01*
%TO.C,R4*%
X1217977500Y-1047412258D02*
X1217977500Y-1046937742D01*
X1219022500Y-1047412258D02*
X1219022500Y-1046937742D01*
%TO.C,C8*%
X1238288748Y-1035590000D02*
X1239711252Y-1035590000D01*
X1238288748Y-1037410000D02*
X1239711252Y-1037410000D01*
%TO.C,C15*%
X1225140000Y-1048087836D02*
X1225140000Y-1047872164D01*
X1225860000Y-1048087836D02*
X1225860000Y-1047872164D01*
%TO.C,T1*%
X1174763748Y-1035090000D02*
X1176186252Y-1035090000D01*
X1174763748Y-1036910000D02*
X1176186252Y-1036910000D01*
%TO.C,C13*%
X1216788748Y-1052090000D02*
X1218211252Y-1052090000D01*
X1216788748Y-1053910000D02*
X1218211252Y-1053910000D01*
%TO.C,C12*%
X1230813748Y-1041590000D02*
X1232236252Y-1041590000D01*
X1230813748Y-1043410000D02*
X1232236252Y-1043410000D01*
%TO.C,C23*%
X1212090000Y-1058288748D02*
X1212090000Y-1059711252D01*
X1213910000Y-1058288748D02*
X1213910000Y-1059711252D01*
%TO.C,C10*%
X1163763748Y-1053090000D02*
X1165186252Y-1053090000D01*
X1163763748Y-1054910000D02*
X1165186252Y-1054910000D01*
%TO.C,USBC1*%
D14*
X1217780000Y-1034182456D02*
X1217780000Y-1035662456D01*
X1217780000Y-1034182456D02*
X1226720000Y-1034182456D01*
X1217780000Y-1037892456D02*
X1217780000Y-1039762456D01*
X1226720000Y-1034182456D02*
X1226720000Y-1035662456D01*
X1226720000Y-1037892456D02*
X1226720000Y-1039762456D01*
D12*
X1217810000Y-1042032456D02*
G75*
G02*
X1217750000Y-1042032456I-30000J0D01*
G01*
X1217750000Y-1042032456D02*
G75*
G02*
X1217810000Y-1042032456I30000J0D01*
G01*
%TO.C,C1*%
D13*
X1156738748Y-1039265000D02*
X1157261252Y-1039265000D01*
X1156738748Y-1040735000D02*
X1157261252Y-1040735000D01*
%TO.C,U1*%
D15*
X1183963700Y-1034171798D02*
X1183963700Y-1034712758D01*
X1183963700Y-1052777238D02*
X1183963700Y-1053628198D01*
X1183963700Y-1053628198D02*
X1185332760Y-1053628198D01*
X1200857240Y-1053628198D02*
X1202226300Y-1053628198D01*
X1202226300Y-1034171798D02*
X1183963700Y-1034171798D01*
X1202226300Y-1034712758D02*
X1202226300Y-1034171798D01*
X1202226300Y-1053628198D02*
X1202226300Y-1052777238D01*
%TO.C,C21*%
D13*
X1214590000Y-1058288748D02*
X1214590000Y-1059711252D01*
X1216410000Y-1058288748D02*
X1216410000Y-1059711252D01*
%TO.C,U2*%
D15*
X1220281301Y-1050787600D02*
X1220746280Y-1050787600D01*
X1220746280Y-1046637600D02*
X1220281301Y-1046637600D01*
X1222966320Y-1050787600D02*
X1223431299Y-1050787600D01*
X1223431299Y-1046637600D02*
X1222966320Y-1046637600D01*
D16*
G36*
X1224447298Y-1049403099D02*
G01*
X1224193298Y-1049403099D01*
X1224193298Y-1049022099D01*
X1224447298Y-1049022099D01*
X1224447298Y-1049403099D01*
G37*
%TO.C,R1*%
D13*
X1219762742Y-1043977500D02*
X1220237258Y-1043977500D01*
X1219762742Y-1045022500D02*
X1220237258Y-1045022500D01*
%TO.C,C6*%
X1157711252Y-1059590000D02*
X1156288748Y-1059590000D01*
X1157711252Y-1061410000D02*
X1156288748Y-1061410000D01*
%TO.C,C5*%
X1156313748Y-1036590000D02*
X1157736252Y-1036590000D01*
X1156313748Y-1038410000D02*
X1157736252Y-1038410000D01*
%TO.C,C2*%
X1157261252Y-1057265000D02*
X1156738748Y-1057265000D01*
X1157261252Y-1058735000D02*
X1156738748Y-1058735000D01*
%TO.C,B2*%
D10*
X1154510000Y-1051480000D02*
X1159670000Y-1051480000D01*
X1154510000Y-1054520000D02*
X1154510000Y-1051480000D01*
X1159670000Y-1051480000D02*
X1159670000Y-1054520000D01*
X1159670000Y-1054520000D02*
X1154510000Y-1054520000D01*
D11*
X1159160000Y-1052230000D02*
G75*
G02*
X1158840000Y-1052230000I-160000J0D01*
G01*
X1158840000Y-1052230000D02*
G75*
G02*
X1159160000Y-1052230000I160000J0D01*
G01*
D12*
X1159570000Y-1050000000D02*
G75*
G02*
X1159510000Y-1050000000I-30000J0D01*
G01*
X1159510000Y-1050000000D02*
G75*
G02*
X1159570000Y-1050000000I30000J0D01*
G01*
D11*
X1159910000Y-1050320000D02*
G75*
G02*
X1159610000Y-1050320000I-150000J0D01*
G01*
X1159610000Y-1050320000D02*
G75*
G02*
X1159910000Y-1050320000I150000J0D01*
G01*
%TO.C,BT1*%
D13*
X1202620000Y-1060630000D02*
X1202620000Y-1059250000D01*
X1204000000Y-1060630000D02*
X1202620000Y-1060630000D01*
X1205270000Y-1057870000D02*
X1207920000Y-1057870000D01*
X1205270000Y-1060630000D02*
X1205270000Y-1057870000D01*
X1205270000Y-1060630000D02*
X1207920000Y-1060630000D01*
X1207920000Y-1060630000D02*
X1207920000Y-1057870000D01*
%TO.C,C14*%
X1226765000Y-1048238748D02*
X1226765000Y-1048761252D01*
X1228235000Y-1048238748D02*
X1228235000Y-1048761252D01*
%TO.C,C22*%
X1217090000Y-1058288748D02*
X1217090000Y-1059711252D01*
X1218910000Y-1058288748D02*
X1218910000Y-1059711252D01*
%TO.C,R5*%
X1205227500Y-1052337742D02*
X1205227500Y-1052812258D01*
X1206272500Y-1052337742D02*
X1206272500Y-1052812258D01*
%TO.C,MPU1*%
X1174140000Y-1038390000D02*
X1174140000Y-1040300000D01*
X1174750000Y-1039000000D02*
X1174750000Y-1050250000D01*
X1174750000Y-1050250000D02*
X1175750000Y-1050250000D01*
X1175750000Y-1038700000D02*
X1175750000Y-1039000000D01*
X1175750000Y-1039000000D02*
X1174750000Y-1039000000D01*
X1175750000Y-1050250000D02*
X1175750000Y-1050550000D01*
X1176050000Y-1038390000D02*
X1174140000Y-1038390000D01*
X1176500000Y-1038700000D02*
X1176500000Y-1039000000D01*
X1176500000Y-1039000000D02*
X1177600000Y-1039000000D01*
X1176500000Y-1050250000D02*
X1177600000Y-1050250000D01*
X1176500000Y-1050550000D02*
X1176500000Y-1050250000D01*
X1177600000Y-1039000000D02*
X1177600000Y-1039300000D01*
X1177600000Y-1039300000D02*
X1177600000Y-1040500000D01*
X1177600000Y-1039300000D02*
X1178050000Y-1039300000D01*
X1177600000Y-1040500000D02*
X1177900000Y-1040500000D01*
X1177600000Y-1041250000D02*
X1177600000Y-1048000000D01*
X1177600000Y-1048000000D02*
X1177900000Y-1048000000D01*
X1177600000Y-1048750000D02*
X1177600000Y-1049950000D01*
X1177600000Y-1049950000D02*
X1178050000Y-1049950000D01*
X1177600000Y-1050250000D02*
X1177600000Y-1049950000D01*
X1177900000Y-1040500000D02*
X1177900000Y-1041250000D01*
X1177900000Y-1041250000D02*
X1177600000Y-1041250000D01*
X1177900000Y-1048000000D02*
X1177900000Y-1048750000D01*
X1177900000Y-1048750000D02*
X1177600000Y-1048750000D01*
X1174450000Y-1038700000D02*
X1178050000Y-1038700000D01*
X1178050000Y-1050550000D01*
X1174450000Y-1050550000D01*
X1174450000Y-1038700000D01*
%TO.C,C7*%
X1239686252Y-1059590000D02*
X1238263748Y-1059590000D01*
X1239686252Y-1061410000D02*
X1238263748Y-1061410000D01*
%TO.C,C19*%
X1180738748Y-1035015000D02*
X1181261252Y-1035015000D01*
X1180738748Y-1036485000D02*
X1181261252Y-1036485000D01*
%TO.C,B1*%
D10*
X1154420000Y-1043480000D02*
X1159580000Y-1043480000D01*
X1154420000Y-1046520000D02*
X1154420000Y-1043480000D01*
X1159580000Y-1043480000D02*
X1159580000Y-1046520000D01*
X1159580000Y-1046520000D02*
X1154420000Y-1046520000D01*
D11*
X1154480000Y-1047680000D02*
G75*
G02*
X1154180000Y-1047680000I-150000J0D01*
G01*
X1154180000Y-1047680000D02*
G75*
G02*
X1154480000Y-1047680000I150000J0D01*
G01*
D12*
X1154580000Y-1048000000D02*
G75*
G02*
X1154520000Y-1048000000I-30000J0D01*
G01*
X1154520000Y-1048000000D02*
G75*
G02*
X1154580000Y-1048000000I30000J0D01*
G01*
D11*
X1155250000Y-1045770000D02*
G75*
G02*
X1154930000Y-1045770000I-160000J0D01*
G01*
X1154930000Y-1045770000D02*
G75*
G02*
X1155250000Y-1045770000I160000J0D01*
G01*
%TO.C,R3*%
D13*
X1217977500Y-1050412258D02*
X1217977500Y-1049937742D01*
X1219022500Y-1050412258D02*
X1219022500Y-1049937742D01*
%TO.C,M4*%
X1227890000Y-1035140000D02*
X1227890000Y-1036390000D01*
X1228190000Y-1036750000D02*
X1228800000Y-1036750000D01*
X1228190000Y-1038050000D02*
X1228800000Y-1038050000D01*
X1228800000Y-1036050000D02*
X1228800000Y-1039550000D01*
X1228800000Y-1039550000D02*
X1233700000Y-1039550000D01*
X1229140000Y-1035140000D02*
X1227890000Y-1035140000D01*
X1229650000Y-1035240000D02*
X1229650000Y-1035440000D01*
X1229950000Y-1035240000D02*
X1229650000Y-1035240000D01*
X1229950000Y-1035340000D02*
X1229650000Y-1035340000D01*
X1229950000Y-1035440000D02*
X1229950000Y-1035240000D01*
X1230750000Y-1035440000D02*
X1230750000Y-1036050000D01*
X1230750000Y-1036050000D02*
X1228800000Y-1036050000D01*
X1231150000Y-1039050000D02*
X1231350000Y-1039050000D01*
X1231150000Y-1039550000D02*
X1231150000Y-1039050000D01*
X1231250000Y-1039550000D02*
X1231250000Y-1039050000D01*
X1231350000Y-1039050000D02*
X1231350000Y-1039550000D01*
X1231750000Y-1036050000D02*
X1231750000Y-1035440000D01*
X1233700000Y-1036050000D02*
X1231750000Y-1036050000D01*
X1233700000Y-1039550000D02*
X1233700000Y-1036050000D01*
X1234310000Y-1036750000D02*
X1233700000Y-1036750000D01*
X1234310000Y-1038050000D02*
X1233700000Y-1038050000D01*
X1228190000Y-1035440000D02*
X1234310000Y-1035440000D01*
X1234310000Y-1040160000D01*
X1228190000Y-1040160000D01*
X1228190000Y-1035440000D01*
%TO.C,R2*%
X1224237258Y-1043977500D02*
X1223762742Y-1043977500D01*
X1224237258Y-1045022500D02*
X1223762742Y-1045022500D01*
%TO.C,M2*%
X1160640000Y-1055840000D02*
X1160640000Y-1057090000D01*
X1160940000Y-1057450000D02*
X1161550000Y-1057450000D01*
X1160940000Y-1058750000D02*
X1161550000Y-1058750000D01*
X1161550000Y-1056750000D02*
X1161550000Y-1060250000D01*
X1161550000Y-1060250000D02*
X1166450000Y-1060250000D01*
X1161890000Y-1055840000D02*
X1160640000Y-1055840000D01*
X1162400000Y-1055940000D02*
X1162400000Y-1056140000D01*
X1162700000Y-1055940000D02*
X1162400000Y-1055940000D01*
X1162700000Y-1056040000D02*
X1162400000Y-1056040000D01*
X1162700000Y-1056140000D02*
X1162700000Y-1055940000D01*
X1163500000Y-1056140000D02*
X1163500000Y-1056750000D01*
X1163500000Y-1056750000D02*
X1161550000Y-1056750000D01*
X1163900000Y-1059750000D02*
X1164100000Y-1059750000D01*
X1163900000Y-1060250000D02*
X1163900000Y-1059750000D01*
X1164000000Y-1060250000D02*
X1164000000Y-1059750000D01*
X1164100000Y-1059750000D02*
X1164100000Y-1060250000D01*
X1164500000Y-1056750000D02*
X1164500000Y-1056140000D01*
X1166450000Y-1056750000D02*
X1164500000Y-1056750000D01*
X1166450000Y-1060250000D02*
X1166450000Y-1056750000D01*
X1167060000Y-1057450000D02*
X1166450000Y-1057450000D01*
X1167060000Y-1058750000D02*
X1166450000Y-1058750000D01*
X1160940000Y-1056140000D02*
X1167060000Y-1056140000D01*
X1167060000Y-1060860000D01*
X1160940000Y-1060860000D01*
X1160940000Y-1056140000D01*
%TO.C,C16*%
X1179390000Y-1040662164D02*
X1179390000Y-1040877836D01*
X1180110000Y-1040662164D02*
X1180110000Y-1040877836D01*
%TO.C,C4*%
X1238738748Y-1038265000D02*
X1239261252Y-1038265000D01*
X1238738748Y-1039735000D02*
X1239261252Y-1039735000D01*
%TO.C,C18*%
X1180892164Y-1037140000D02*
X1181107836Y-1037140000D01*
X1180892164Y-1037860000D02*
X1181107836Y-1037860000D01*
%TD*%
M02*
