%TF.GenerationSoftware,KiCad,Pcbnew,10.0.6*%
%TF.CreationDate,2026-09-23T20:19:14+05:30*%
%TF.ProjectId,lux,6c75782e-6b69-4636-9164-5f7063625858,rev?*%
%TF.SameCoordinates,Original*%
%TF.FileFunction,Copper,L1,Top*%
%TF.FilePolarity,Positive*%
%FSLAX46Y46*%
G04 Gerber Fmt 4.6, Leading zero omitted, Abs format (unit mm)*
G04 Created by KiCad (PCBNEW 10.0.6) date 2026-09-23 20:19:14*
%MOMM*%
%LPD*%
G01*
G04 APERTURE LIST*
G04 Aperture macros list*
%AMRoundRect*
0 Rectangle with rounded corners*
0 $1 Rounding radius*
0 $2 $3 $4 $5 $6 $7 $8 $9 X,Y pos of 4 corners*
0 Add a 4 corners polygon primitive as box body*
4,1,4,$2,$3,$4,$5,$6,$7,$8,$9,$2,$3,0*
0 Add four circle primitives for the rounded corners*
1,1,$1+$1,$2,$3*
1,1,$1+$1,$4,$5*
1,1,$1+$1,$6,$7*
1,1,$1+$1,$8,$9*
0 Add four rect primitives between the rounded corners*
20,1,$1+$1,$2,$3,$4,$5,0*
20,1,$1+$1,$4,$5,$6,$7,0*
20,1,$1+$1,$6,$7,$8,$9,0*
20,1,$1+$1,$8,$9,$2,$3,0*%
%AMFreePoly0*
4,1,17,0.335278,0.685443,0.349923,0.650088,0.349923,-0.649935,0.335278,-0.685290,0.299923,-0.699935,0.000318,-0.699935,-0.000051,-0.700088,-0.300050,-0.700088,-0.335405,-0.685443,-0.350050,-0.650088,-0.350050,0.649935,-0.335405,0.685290,-0.300050,0.699935,-0.000445,0.699935,-0.000076,0.700088,0.299923,0.700088,0.335278,0.685443,0.335278,0.685443,$1*%
%AMFreePoly1*
4,1,17,0.335431,0.685290,0.350076,0.649935,0.350076,-0.650037,0.335431,-0.685392,0.300076,-0.700037,0.000187,-0.700037,0.000127,-0.700062,-0.299898,-0.700062,-0.335253,-0.685417,-0.349898,-0.650062,-0.349898,0.649910,-0.335253,0.685265,-0.299898,0.699910,-0.000009,0.699910,0.000051,0.699935,0.300076,0.699935,0.335431,0.685290,0.335431,0.685290,$1*%
%AMFreePoly2*
4,1,13,0.335227,0.685443,0.349872,0.650088,0.349872,-0.649884,0.335227,-0.685239,0.299872,-0.699884,-0.300152,-0.699884,-0.335507,-0.685239,-0.350152,-0.649884,-0.350152,0.650088,-0.335507,0.685443,-0.300152,0.700088,0.299872,0.700088,0.335227,0.685443,0.335227,0.685443,$1*%
G04 Aperture macros list end*
%TA.AperFunction,SMDPad,CuDef*%
%ADD10O,0.630000X1.865000*%
%TD*%
%TA.AperFunction,SMDPad,CuDef*%
%ADD11RoundRect,0.140000X-0.170000X0.140000X-0.170000X-0.140000X0.170000X-0.140000X0.170000X0.140000X0*%
%TD*%
%TA.AperFunction,ComponentPad*%
%ADD12RoundRect,0.250000X-0.350000X-0.625000X0.350000X-0.625000X0.350000X0.625000X-0.350000X0.625000X0*%
%TD*%
%TA.AperFunction,ComponentPad*%
%ADD13O,1.200000X1.750000*%
%TD*%
%TA.AperFunction,ComponentPad*%
%ADD14RoundRect,0.225000X-0.475000X0.225000X-0.475000X-0.225000X0.475000X-0.225000X0.475000X0.225000X0*%
%TD*%
%TA.AperFunction,ComponentPad*%
%ADD15O,1.400000X0.900000*%
%TD*%
%TA.AperFunction,SMDPad,CuDef*%
%ADD16R,2.600000X8.200000*%
%TD*%
%TA.AperFunction,SMDPad,CuDef*%
%ADD17RoundRect,0.250000X-0.325000X-0.650000X0.325000X-0.650000X0.325000X0.650000X-0.325000X0.650000X0*%
%TD*%
%TA.AperFunction,SMDPad,CuDef*%
%ADD18RoundRect,0.200000X0.275000X-0.200000X0.275000X0.200000X-0.275000X0.200000X-0.275000X-0.200000X0*%
%TD*%
%TA.AperFunction,SMDPad,CuDef*%
%ADD19RoundRect,0.200000X-0.200000X-0.275000X0.200000X-0.275000X0.200000X0.275000X-0.200000X0.275000X0*%
%TD*%
%TA.AperFunction,SMDPad,CuDef*%
%ADD20RoundRect,0.250000X-0.650000X0.325000X-0.650000X-0.325000X0.650000X-0.325000X0.650000X0.325000X0*%
%TD*%
%TA.AperFunction,SMDPad,CuDef*%
%ADD21RoundRect,0.250000X0.250000X0.475000X-0.250000X0.475000X-0.250000X-0.475000X0.250000X-0.475000X0*%
%TD*%
%TA.AperFunction,SMDPad,CuDef*%
%ADD22RoundRect,0.140000X0.170000X-0.140000X0.170000X0.140000X-0.170000X0.140000X-0.170000X-0.140000X0*%
%TD*%
%TA.AperFunction,ComponentPad*%
%ADD23C,0.600000*%
%TD*%
%TA.AperFunction,ComponentPad*%
%ADD24O,1.200000X2.000000*%
%TD*%
%TA.AperFunction,ComponentPad*%
%ADD25O,1.200000X1.800000*%
%TD*%
%TA.AperFunction,SMDPad,CuDef*%
%ADD26FreePoly0,180.000000*%
%TD*%
%TA.AperFunction,SMDPad,CuDef*%
%ADD27FreePoly1,180.000000*%
%TD*%
%TA.AperFunction,SMDPad,CuDef*%
%ADD28R,0.300000X1.300000*%
%TD*%
%TA.AperFunction,SMDPad,CuDef*%
%ADD29FreePoly2,180.000000*%
%TD*%
%TA.AperFunction,SMDPad,CuDef*%
%ADD30RoundRect,0.250000X-0.250000X-0.475000X0.250000X-0.475000X0.250000X0.475000X-0.250000X0.475000X0*%
%TD*%
%TA.AperFunction,SMDPad,CuDef*%
%ADD31R,1.498600X0.889000*%
%TD*%
%TA.AperFunction,SMDPad,CuDef*%
%ADD32R,0.889000X1.498600*%
%TD*%
%TA.AperFunction,SMDPad,CuDef*%
%ADD33R,0.889000X0.889000*%
%TD*%
%TA.AperFunction,SMDPad,CuDef*%
%ADD34R,0.820000X0.280000*%
%TD*%
%TA.AperFunction,SMDPad,CuDef*%
%ADD35R,1.580000X2.849999*%
%TD*%
%TA.AperFunction,ComponentPad*%
%ADD36C,0.508000*%
%TD*%
%TA.AperFunction,SMDPad,CuDef*%
%ADD37RoundRect,0.250000X0.325000X0.650000X-0.325000X0.650000X-0.325000X-0.650000X0.325000X-0.650000X0*%
%TD*%
%TA.AperFunction,ComponentPad*%
%ADD38R,1.700000X1.700000*%
%TD*%
%TA.AperFunction,ComponentPad*%
%ADD39C,1.700000*%
%TD*%
%TA.AperFunction,SMDPad,CuDef*%
%ADD40RoundRect,0.250000X-0.475000X0.250000X-0.475000X-0.250000X0.475000X-0.250000X0.475000X0.250000X0*%
%TD*%
%TA.AperFunction,SMDPad,CuDef*%
%ADD41RoundRect,0.200000X-0.275000X0.200000X-0.275000X-0.200000X0.275000X-0.200000X0.275000X0.200000X0*%
%TD*%
%TA.AperFunction,SMDPad,CuDef*%
%ADD42RoundRect,0.200000X0.200000X0.275000X-0.200000X0.275000X-0.200000X-0.275000X0.200000X-0.275000X0*%
%TD*%
%TA.AperFunction,SMDPad,CuDef*%
%ADD43RoundRect,0.140000X-0.140000X-0.170000X0.140000X-0.170000X0.140000X0.170000X-0.140000X0.170000X0*%
%TD*%
%TA.AperFunction,ViaPad*%
%ADD44C,0.600000*%
%TD*%
%TA.AperFunction,ViaPad*%
%ADD45C,0.400000*%
%TD*%
%TA.AperFunction,ViaPad*%
%ADD46C,0.500000*%
%TD*%
%TA.AperFunction,ViaPad*%
%ADD47C,0.250000*%
%TD*%
%TA.AperFunction,ViaPad*%
%ADD48C,0.200000*%
%TD*%
%TA.AperFunction,ViaPad*%
%ADD49C,0.300000*%
%TD*%
%TA.AperFunction,Conductor*%
%ADD50C,0.200000*%
%TD*%
%TA.AperFunction,Conductor*%
%ADD51C,0.500000*%
%TD*%
%TA.AperFunction,Conductor*%
%ADD52C,0.600000*%
%TD*%
%TA.AperFunction,Conductor*%
%ADD53C,0.700000*%
%TD*%
%TA.AperFunction,Conductor*%
%ADD54C,1.000000*%
%TD*%
%TA.AperFunction,Conductor*%
%ADD55C,0.300000*%
%TD*%
%TA.AperFunction,Conductor*%
%ADD56C,0.350000*%
%TD*%
G04 APERTURE END LIST*
D10*
%TO.P,B3,1,NC_1*%
%TO.N,unconnected-(B3-NC-Pad1)*%
X1240910000Y-1050070000D03*
%TO.P,B3,2,INA_2*%
%TO.N,/IO35*%
X1239630000Y-1050070000D03*
%TO.P,B3,3,INB_3*%
%TO.N,/IO36*%
X1238370000Y-1050070000D03*
%TO.P,B3,4,NC_4*%
%TO.N,unconnected-(B3-NC-Pad4)*%
X1237100000Y-1050070000D03*
%TO.P,B3,5,GND_5*%
%TO.N,GND*%
X1237100000Y-1055430000D03*
%TO.P,B3,6,OUTB_6*%
%TO.N,/M3B*%
X1238370000Y-1055430000D03*
%TO.P,B3,7,OUTA_7*%
%TO.N,/M3A*%
X1239630000Y-1055430000D03*
%TO.P,B3,8,VM_8*%
%TO.N,+5VA*%
X1240910000Y-1055430000D03*
%TD*%
D11*
%TO.P,C17,1*%
%TO.N,+3.3V*%
X1168500000Y-1042540000D03*
%TO.P,C17,2*%
%TO.N,GND*%
X1168500000Y-1043500000D03*
%TD*%
D10*
%TO.P,B4,1,NC_1*%
%TO.N,unconnected-(B4-NC-Pad1)*%
X1237000000Y-1047000000D03*
%TO.P,B4,2,INA_2*%
%TO.N,/IO41*%
X1238280000Y-1047000000D03*
%TO.P,B4,3,INB_3*%
%TO.N,/IO42*%
X1239540000Y-1047000000D03*
%TO.P,B4,4,NC_4*%
%TO.N,unconnected-(B4-NC-Pad4)*%
X1240810000Y-1047000000D03*
%TO.P,B4,5,GND_5*%
%TO.N,GND*%
X1240810000Y-1041640000D03*
%TO.P,B4,6,OUTB_6*%
%TO.N,/M4B*%
X1239540000Y-1041640000D03*
%TO.P,B4,7,OUTA_7*%
%TO.N,/M4A*%
X1238280000Y-1041640000D03*
%TO.P,B4,8,VM_8*%
%TO.N,+5VA*%
X1237000000Y-1041640000D03*
%TD*%
D12*
%TO.P,M3,1,+_1*%
%TO.N,/M3A*%
X1231000000Y-1058450000D03*
D13*
%TO.P,M3,2,-_2*%
%TO.N,/M3B*%
X1233000000Y-1058450000D03*
%TD*%
D14*
%TO.P,BMP1,1,Pin_1_1*%
%TO.N,+3.3V*%
X1171000000Y-1042250000D03*
D15*
%TO.P,BMP1,2,Pin_2_2*%
%TO.N,GND*%
X1171000000Y-1043500000D03*
%TO.P,BMP1,3,Pin_3_3*%
%TO.N,/XCL*%
X1171000000Y-1044750000D03*
%TO.P,BMP1,4,Pin_4_4*%
%TO.N,/XDA*%
X1171000000Y-1046000000D03*
%TD*%
D16*
%TO.P,L1,1,1_1*%
%TO.N,Net-(L1-Pad1)*%
X1208700000Y-1046500000D03*
%TO.P,L1,2,2_2*%
%TO.N,Net-(L1-Pad2)*%
X1214300000Y-1046500000D03*
%TD*%
D17*
%TO.P,C9,1*%
%TO.N,/M1A*%
X1162025000Y-1040500000D03*
%TO.P,C9,2*%
%TO.N,/M1B*%
X1164975000Y-1040500000D03*
%TD*%
D12*
%TO.P,M1,1,+_1*%
%TO.N,/M1A*%
X1164500000Y-1036000000D03*
D13*
%TO.P,M1,2,-_2*%
%TO.N,/M1B*%
X1166500000Y-1036000000D03*
%TD*%
D18*
%TO.P,R7,1*%
%TO.N,+3.3V*%
X1181000000Y-1044500000D03*
%TO.P,R7,2*%
%TO.N,Net-(T1-Pin_1)*%
X1181000000Y-1042850000D03*
%TD*%
D19*
%TO.P,R6,1*%
%TO.N,GND*%
X1195100000Y-1056000000D03*
%TO.P,R6,2*%
%TO.N,Net-(U1-IO45)*%
X1196750000Y-1056000000D03*
%TD*%
D20*
%TO.P,C20,1*%
%TO.N,+5VA*%
X1210500000Y-1057525000D03*
%TO.P,C20,2*%
%TO.N,GND*%
X1210500000Y-1060475000D03*
%TD*%
D21*
%TO.P,C3,1*%
%TO.N,/M3A*%
X1239900000Y-1058000000D03*
%TO.P,C3,2*%
%TO.N,/M3B*%
X1238000000Y-1058000000D03*
%TD*%
D17*
%TO.P,C11,1*%
%TO.N,/M3A*%
X1230550000Y-1054500000D03*
%TO.P,C11,2*%
%TO.N,/M3B*%
X1233500000Y-1054500000D03*
%TD*%
D18*
%TO.P,R4,1*%
%TO.N,Net-(U2-FB)*%
X1218500000Y-1048000000D03*
%TO.P,R4,2*%
%TO.N,GND*%
X1218500000Y-1046350000D03*
%TD*%
D17*
%TO.P,C8,1*%
%TO.N,+5VA*%
X1237525000Y-1036500000D03*
%TO.P,C8,2*%
%TO.N,GND*%
X1240475000Y-1036500000D03*
%TD*%
D22*
%TO.P,C15,1*%
%TO.N,+5VA*%
X1225500000Y-1048460000D03*
%TO.P,C15,2*%
%TO.N,GND*%
X1225500000Y-1047500000D03*
%TD*%
D17*
%TO.P,T1,1,Pin_1_1*%
%TO.N,Net-(T1-Pin_1)*%
X1174000000Y-1036000000D03*
%TO.P,T1,2,Pin_2_2*%
%TO.N,GND*%
X1176950000Y-1036000000D03*
%TD*%
%TO.P,C13,1*%
%TO.N,GND*%
X1216025000Y-1053000000D03*
%TO.P,C13,2*%
%TO.N,+3.3V*%
X1218975000Y-1053000000D03*
%TD*%
%TO.P,C12,1*%
%TO.N,/M4A*%
X1230050000Y-1042500000D03*
%TO.P,C12,2*%
%TO.N,/M4B*%
X1233000000Y-1042500000D03*
%TD*%
D20*
%TO.P,C23,1*%
%TO.N,+5VA*%
X1213000000Y-1057525000D03*
%TO.P,C23,2*%
%TO.N,GND*%
X1213000000Y-1060475000D03*
%TD*%
D17*
%TO.P,C10,1*%
%TO.N,/M2A*%
X1163000000Y-1054000000D03*
%TO.P,C10,2*%
%TO.N,/M2B*%
X1165950000Y-1054000000D03*
%TD*%
D23*
%TO.P,USBC1,*%
%TO.N,*%
X1225150000Y-1040482456D03*
X1219350000Y-1040482456D03*
D24*
%TO.P,USBC1,1,EH_1*%
%TO.N,unconnected-(USBC1-EH-Pad1)*%
X1217920000Y-1040982456D03*
D25*
%TO.P,USBC1,2,EH_2*%
%TO.N,unconnected-(USBC1-EH-Pad2)*%
X1217920000Y-1036802456D03*
%TO.P,USBC1,3,EH_3*%
%TO.N,unconnected-(USBC1-EH-Pad3)*%
X1226580000Y-1036802456D03*
D24*
%TO.P,USBC1,4,EH_4*%
%TO.N,unconnected-(USBC1-EH-Pad4)*%
X1226580000Y-1040982456D03*
D26*
%TO.P,USBC1,A1B12,GND_A1B12*%
%TO.N,GND1*%
X1225450000Y-1041742456D03*
D27*
%TO.P,USBC1,A4B9,VBUS_A4B9*%
%TO.N,+5V*%
X1224650000Y-1041742456D03*
D28*
%TO.P,USBC1,A5,CC1_A5*%
%TO.N,Net-(USBC1-CC1)*%
X1223500000Y-1041742456D03*
%TO.P,USBC1,A6,DP1_A6*%
%TO.N,/D+*%
X1222500000Y-1041742456D03*
%TO.P,USBC1,A7,DN1_A7*%
%TO.N,/D-*%
X1222000000Y-1041742456D03*
%TO.P,USBC1,A8,SBU1_A8*%
%TO.N,unconnected-(USBC1-SBU1-PadA8)*%
X1221000000Y-1041742456D03*
D29*
%TO.P,USBC1,B1A12,GND_B1A12*%
%TO.N,GND1*%
X1219050000Y-1041742456D03*
%TO.P,USBC1,B4A9,VBUS_B4A9*%
%TO.N,+5V*%
X1219850000Y-1041742456D03*
D28*
%TO.P,USBC1,B5,CC2_B5*%
%TO.N,Net-(USBC1-CC2)*%
X1220500000Y-1041742456D03*
%TO.P,USBC1,B6,DP2_B6*%
%TO.N,/D+*%
X1221500000Y-1041742456D03*
%TO.P,USBC1,B7,DN2_B7*%
%TO.N,/D-*%
X1223000000Y-1041742456D03*
%TO.P,USBC1,B8,SBU2_B8*%
%TO.N,unconnected-(USBC1-SBU2-PadB8)*%
X1224000000Y-1041742456D03*
%TD*%
D30*
%TO.P,C1,1*%
%TO.N,/M1A*%
X1156050000Y-1040000000D03*
%TO.P,C1,2*%
%TO.N,/M1B*%
X1157950000Y-1040000000D03*
%TD*%
D31*
%TO.P,U1,1,GND_1*%
%TO.N,GND*%
X1184345000Y-1035489998D03*
%TO.P,U1,2,3V3_2*%
%TO.N,+3.3V*%
X1184345000Y-1036759998D03*
%TO.P,U1,3,EN_3*%
%TO.N,Net-(T1-Pin_1)*%
X1184345000Y-1038029998D03*
%TO.P,U1,4,IO4_4*%
%TO.N,/IO4*%
X1184345000Y-1039299998D03*
%TO.P,U1,5,IO5_5*%
%TO.N,/IO5*%
X1184345000Y-1040569998D03*
%TO.P,U1,6,IO6_6*%
%TO.N,/IO6*%
X1184345000Y-1041839998D03*
%TO.P,U1,7,IO7_7*%
%TO.N,/IO7*%
X1184345000Y-1043109998D03*
%TO.P,U1,8,IO15_8*%
%TO.N,unconnected-(U1-IO15-Pad8)*%
X1184345000Y-1044379998D03*
%TO.P,U1,9,IO16_9*%
%TO.N,unconnected-(U1-IO16-Pad9)*%
X1184345000Y-1045649998D03*
%TO.P,U1,10,IO17_10*%
%TO.N,unconnected-(U1-IO17-Pad10)*%
X1184345000Y-1046919998D03*
%TO.P,U1,11,IO18_11*%
%TO.N,unconnected-(U1-IO18-Pad11)*%
X1184345000Y-1048189998D03*
%TO.P,U1,12,IO8_12*%
%TO.N,unconnected-(U1-IO8-Pad12)*%
X1184345000Y-1049459998D03*
%TO.P,U1,13,IO19_13*%
%TO.N,/D-*%
X1184345000Y-1050729998D03*
%TO.P,U1,14,IO20_14*%
%TO.N,/D+*%
X1184345000Y-1051999998D03*
D32*
%TO.P,U1,15,IO3_15*%
%TO.N,unconnected-(U1-IO3-Pad15)*%
X1186110000Y-1053250000D03*
%TO.P,U1,16,IO46_16*%
%TO.N,unconnected-(U1-IO46-Pad16)*%
X1187380000Y-1053250000D03*
%TO.P,U1,17,IO9_17*%
%TO.N,unconnected-(U1-IO9-Pad17)*%
X1188650000Y-1053250000D03*
%TO.P,U1,18,IO10_18*%
%TO.N,/IO10*%
X1189920000Y-1053250000D03*
%TO.P,U1,19,IO11_19*%
%TO.N,/IO11*%
X1191190000Y-1053250000D03*
%TO.P,U1,20,IO12_20*%
%TO.N,unconnected-(U1-IO12-Pad20)*%
X1192460000Y-1053250000D03*
%TO.P,U1,21,IO13_21*%
%TO.N,unconnected-(U1-IO13-Pad21)*%
X1193730000Y-1053250000D03*
%TO.P,U1,22,IO14_22*%
%TO.N,unconnected-(U1-IO14-Pad22)*%
X1195000000Y-1053250000D03*
%TO.P,U1,23,IO21_23*%
%TO.N,unconnected-(U1-IO21-Pad23)*%
X1196270000Y-1053250000D03*
%TO.P,U1,24,IO47_24*%
%TO.N,unconnected-(U1-IO47-Pad24)*%
X1197540000Y-1053250000D03*
%TO.P,U1,25,IO48_25*%
%TO.N,unconnected-(U1-IO48-Pad25)*%
X1198810000Y-1053250000D03*
%TO.P,U1,26,IO45_26*%
%TO.N,Net-(U1-IO45)*%
X1200080000Y-1053250000D03*
D31*
%TO.P,U1,27,IO0_27*%
%TO.N,Net-(U1-IO0)*%
X1201845000Y-1051999998D03*
%TO.P,U1,28,IO35_28*%
%TO.N,/IO36*%
X1201845000Y-1050729998D03*
%TO.P,U1,29,IO36_29*%
%TO.N,/IO35*%
X1201845000Y-1049459998D03*
%TO.P,U1,30,IO37_30*%
%TO.N,unconnected-(U1-IO37-Pad30)*%
X1201845000Y-1048189998D03*
%TO.P,U1,31,IO38_31*%
%TO.N,unconnected-(U1-IO38-Pad31)*%
X1201845000Y-1046919998D03*
%TO.P,U1,32,IO39_32*%
%TO.N,unconnected-(U1-IO39-Pad32)*%
X1201845000Y-1045649998D03*
%TO.P,U1,33,IO40_33*%
%TO.N,unconnected-(U1-IO40-Pad33)*%
X1201845000Y-1044379998D03*
%TO.P,U1,34,IO41_34*%
%TO.N,/IO41*%
X1201845000Y-1043109998D03*
%TO.P,U1,35,IO42_35*%
%TO.N,/IO42*%
X1201845000Y-1041839998D03*
%TO.P,U1,36,RXD0_36*%
%TO.N,unconnected-(U1-RXD0-Pad36)*%
X1201845000Y-1040569998D03*
%TO.P,U1,37,TXD0_37*%
%TO.N,unconnected-(U1-TXD0-Pad37)*%
X1201845000Y-1039299998D03*
%TO.P,U1,38,IO2_38*%
%TO.N,unconnected-(U1-IO2-Pad38)*%
X1201845000Y-1038029998D03*
%TO.P,U1,39,IO1_39*%
%TO.N,unconnected-(U1-IO1-Pad39)*%
X1201845000Y-1036759998D03*
%TO.P,U1,40,GND_40*%
%TO.N,GND*%
X1201845000Y-1035489998D03*
D33*
%TO.P,U1,41,GND_41*%
X1191595000Y-1043209998D03*
%TO.P,U1,42,GND_42*%
X1190195000Y-1041809998D03*
%TO.P,U1,43,GND_43*%
X1190195000Y-1043209998D03*
%TO.P,U1,44,GND_44*%
X1190195000Y-1044609998D03*
%TO.P,U1,45,GND_45*%
X1191595000Y-1044609998D03*
%TO.P,U1,46,GND_46*%
X1192995000Y-1044609998D03*
%TO.P,U1,47,GND_47*%
X1192995000Y-1043209998D03*
%TO.P,U1,48,GND_48*%
X1192995000Y-1041809998D03*
%TO.P,U1,49,GND_49*%
X1191595000Y-1041809998D03*
%TD*%
D20*
%TO.P,C21,1*%
%TO.N,+5VA*%
X1215500000Y-1057525000D03*
%TO.P,C21,2*%
%TO.N,GND*%
X1215500000Y-1060475000D03*
%TD*%
D34*
%TO.P,U2,1,VINA_1*%
%TO.N,+5VA*%
X1220346300Y-1047212600D03*
%TO.P,U2,2,GND_2*%
%TO.N,GND*%
X1220346300Y-1047712599D03*
%TO.P,U2,3,FB_3*%
%TO.N,Net-(U2-FB)*%
X1220346300Y-1048212601D03*
%TO.P,U2,4,VOUT_4*%
%TO.N,+3.3V*%
X1220346300Y-1048712600D03*
%TO.P,U2,5,VOUT_5*%
X1220346300Y-1049212602D03*
%TO.P,U2,6,L2_6*%
%TO.N,Net-(L1-Pad1)*%
X1220346300Y-1049712601D03*
%TO.P,U2,7,L2_7*%
X1220346300Y-1050212600D03*
%TO.P,U2,8,L1_8*%
%TO.N,Net-(L1-Pad2)*%
X1223366300Y-1050212600D03*
%TO.P,U2,9,L1_9*%
X1223366300Y-1049712601D03*
%TO.P,U2,10,VIN_10*%
%TO.N,+5VA*%
X1223366300Y-1049212599D03*
%TO.P,U2,11,VIN_11*%
X1223366300Y-1048712600D03*
%TO.P,U2,12,EN_12*%
X1223366300Y-1048212598D03*
%TO.P,U2,13,PS/SYNC_13*%
%TO.N,GND*%
X1223366300Y-1047712599D03*
%TO.P,U2,14,PG_14*%
%TO.N,unconnected-(U2-PG-Pad14)*%
X1223366300Y-1047212600D03*
D35*
%TO.P,U2,15,EPAD_15*%
%TO.N,GND*%
X1221856300Y-1048712600D03*
D36*
%TO.P,U2,V*%
%TO.N,N/C*%
X1221462600Y-1047925200D03*
X1221462600Y-1048712600D03*
X1221462600Y-1049500000D03*
X1222250000Y-1047925200D03*
X1222250000Y-1048712600D03*
X1222250000Y-1049500000D03*
%TD*%
D19*
%TO.P,R1,1*%
%TO.N,GND1*%
X1219175000Y-1044500000D03*
%TO.P,R1,2*%
%TO.N,Net-(USBC1-CC2)*%
X1220825000Y-1044500000D03*
%TD*%
D37*
%TO.P,C6,1*%
%TO.N,+5VA*%
X1158475000Y-1060500000D03*
%TO.P,C6,2*%
%TO.N,GND*%
X1155525000Y-1060500000D03*
%TD*%
D17*
%TO.P,C5,1*%
%TO.N,+5VA*%
X1155550000Y-1037500000D03*
%TO.P,C5,2*%
%TO.N,GND*%
X1158500000Y-1037500000D03*
%TD*%
D21*
%TO.P,C2,1*%
%TO.N,/M2A*%
X1157950000Y-1058000000D03*
%TO.P,C2,2*%
%TO.N,/M2B*%
X1156050000Y-1058000000D03*
%TD*%
D10*
%TO.P,B2,1,NC_1*%
%TO.N,unconnected-(B2-NC-Pad1)*%
X1159000000Y-1050320000D03*
%TO.P,B2,2,INA_2*%
%TO.N,/IO10*%
X1157720000Y-1050320000D03*
%TO.P,B2,3,INB_3*%
%TO.N,/IO11*%
X1156460000Y-1050320000D03*
%TO.P,B2,4,NC_4*%
%TO.N,unconnected-(B2-NC-Pad4)*%
X1155190000Y-1050320000D03*
%TO.P,B2,5,GND_5*%
%TO.N,GND*%
X1155190000Y-1055680000D03*
%TO.P,B2,6,OUTB_6*%
%TO.N,/M2B*%
X1156460000Y-1055680000D03*
%TO.P,B2,7,OUTA_7*%
%TO.N,/M2A*%
X1157720000Y-1055680000D03*
%TO.P,B2,8,VM_8*%
%TO.N,+5VA*%
X1159000000Y-1055680000D03*
%TD*%
D38*
%TO.P,BT1,1,+_1*%
%TO.N,+5VA*%
X1204000000Y-1059250000D03*
D39*
%TO.P,BT1,2,-_2*%
%TO.N,GND*%
X1206540000Y-1059250000D03*
%TD*%
D40*
%TO.P,C14,1*%
%TO.N,GND*%
X1227500000Y-1047550000D03*
%TO.P,C14,2*%
%TO.N,+5VA*%
X1227500000Y-1049450000D03*
%TD*%
D20*
%TO.P,C22,1*%
%TO.N,+5VA*%
X1218000000Y-1057525000D03*
%TO.P,C22,2*%
%TO.N,GND*%
X1218000000Y-1060475000D03*
%TD*%
D41*
%TO.P,R5,1*%
%TO.N,Net-(U1-IO0)*%
X1205750000Y-1051750000D03*
%TO.P,R5,2*%
%TO.N,GND1*%
X1205750000Y-1053400000D03*
%TD*%
D14*
%TO.P,MPU1,1,Pin_1_1*%
%TO.N,+3.3V*%
X1175750000Y-1040250000D03*
D15*
%TO.P,MPU1,2,Pin_2_2*%
%TO.N,GND*%
X1175750000Y-1041500000D03*
%TO.P,MPU1,3,Pin_3_3*%
%TO.N,/IO6*%
X1175750000Y-1042750000D03*
%TO.P,MPU1,4,Pin_4_4*%
%TO.N,/IO7*%
X1175750000Y-1044000000D03*
%TO.P,MPU1,5,Pin_5_5*%
%TO.N,/XCL*%
X1175750000Y-1045250000D03*
%TO.P,MPU1,6,Pin_6_6*%
%TO.N,/XDA*%
X1175750000Y-1046500000D03*
%TO.P,MPU1,7,Pin_7_7*%
%TO.N,+3.3V*%
X1175750000Y-1047750000D03*
%TO.P,MPU1,8,Pin_8_8*%
%TO.N,unconnected-(MPU1-Pin_8-Pad8)*%
X1175750000Y-1049000000D03*
%TD*%
D37*
%TO.P,C7,1*%
%TO.N,+5VA*%
X1240450000Y-1060500000D03*
%TO.P,C7,2*%
%TO.N,GND*%
X1237500000Y-1060500000D03*
%TD*%
D30*
%TO.P,C19,1*%
%TO.N,GND*%
X1180050000Y-1035750000D03*
%TO.P,C19,2*%
%TO.N,Net-(T1-Pin_1)*%
X1181950000Y-1035750000D03*
%TD*%
D10*
%TO.P,B1,1,NC_1*%
%TO.N,unconnected-(B1-NC-Pad1)*%
X1155090000Y-1047680000D03*
%TO.P,B1,2,INA_2*%
%TO.N,/IO4*%
X1156370000Y-1047680000D03*
%TO.P,B1,3,INB_3*%
%TO.N,/IO5*%
X1157630000Y-1047680000D03*
%TO.P,B1,4,NC_4*%
%TO.N,unconnected-(B1-NC-Pad4)*%
X1158900000Y-1047680000D03*
%TO.P,B1,5,GND_5*%
%TO.N,GND*%
X1158900000Y-1042320000D03*
%TO.P,B1,6,OUTB_6*%
%TO.N,/M1B*%
X1157630000Y-1042320000D03*
%TO.P,B1,7,OUTA_7*%
%TO.N,/M1A*%
X1156370000Y-1042320000D03*
%TO.P,B1,8,VM_8*%
%TO.N,+5VA*%
X1155090000Y-1042320000D03*
%TD*%
D18*
%TO.P,R3,1*%
%TO.N,Net-(U2-FB)*%
X1218500000Y-1051000000D03*
%TO.P,R3,2*%
%TO.N,+5VA*%
X1218500000Y-1049350000D03*
%TD*%
D12*
%TO.P,M4,1,+_1*%
%TO.N,/M4A*%
X1230250000Y-1037250000D03*
D13*
%TO.P,M4,2,-_2*%
%TO.N,/M4B*%
X1232250000Y-1037250000D03*
%TD*%
D42*
%TO.P,R2,1*%
%TO.N,GND1*%
X1224825000Y-1044500000D03*
%TO.P,R2,2*%
%TO.N,Net-(USBC1-CC1)*%
X1223175000Y-1044500000D03*
%TD*%
D12*
%TO.P,M2,1,+_1*%
%TO.N,/M2A*%
X1163000000Y-1057950000D03*
D13*
%TO.P,M2,2,-_2*%
%TO.N,/M2B*%
X1165000000Y-1057950000D03*
%TD*%
D11*
%TO.P,C16,1*%
%TO.N,+3.3V*%
X1179750000Y-1040290000D03*
%TO.P,C16,2*%
%TO.N,GND*%
X1179750000Y-1041250000D03*
%TD*%
D30*
%TO.P,C4,1*%
%TO.N,/M4A*%
X1238050000Y-1039000000D03*
%TO.P,C4,2*%
%TO.N,/M4B*%
X1239950000Y-1039000000D03*
%TD*%
D43*
%TO.P,C18,1*%
%TO.N,GND*%
X1180520000Y-1037500000D03*
%TO.P,C18,2*%
%TO.N,+3.3V*%
X1181480000Y-1037500000D03*
%TD*%
D44*
%TO.N,/IO41*%
X1235000000Y-1043000000D03*
X1216500000Y-1040500000D03*
%TO.N,GND*%
X1155525000Y-1060500000D03*
D45*
X1180050000Y-1035750000D03*
X1223366300Y-1047712599D03*
X1179750000Y-1041250000D03*
D46*
X1210500000Y-1060500000D03*
D44*
X1155190000Y-1055680000D03*
D45*
X1218500000Y-1046350000D03*
D44*
X1195100000Y-1056000000D03*
D45*
X1216000000Y-1052500000D03*
D44*
X1158900000Y-1042320000D03*
D45*
X1202000000Y-1035500000D03*
D46*
X1237500000Y-1060500000D03*
X1218000000Y-1060475000D03*
D44*
X1158500000Y-1037500000D03*
D45*
X1190195000Y-1041809998D03*
D44*
X1227500000Y-1047550000D03*
X1225500000Y-1047500000D03*
D45*
X1177000000Y-1036000000D03*
D46*
X1212892214Y-1060426955D03*
D45*
X1180520000Y-1037500000D03*
X1184345000Y-1035489998D03*
X1220346300Y-1047712599D03*
D46*
X1237000000Y-1055500000D03*
D45*
X1167500000Y-1046500000D03*
D46*
X1215500000Y-1060475000D03*
D45*
X1168500000Y-1043500000D03*
D47*
X1221856300Y-1048712600D03*
D44*
X1240500000Y-1036500000D03*
X1240810000Y-1041640000D03*
%TO.N,/M3B*%
X1238000000Y-1058000000D03*
X1233500000Y-1054500000D03*
%TO.N,/M3A*%
X1239630000Y-1055430000D03*
X1230550000Y-1054500000D03*
D46*
%TO.N,+5VA*%
X1210500000Y-1057525000D03*
D44*
X1159000000Y-1055680000D03*
D46*
X1215500000Y-1057525000D03*
X1213000000Y-1057525000D03*
D48*
X1153500000Y-1043000000D03*
D44*
X1232500000Y-1049000000D03*
X1241725000Y-1048500000D03*
D46*
X1218000000Y-1057525000D03*
D44*
X1160500000Y-1060500000D03*
D45*
%TO.N,+3.3V*%
X1181480000Y-1037500000D03*
X1184345000Y-1036759998D03*
X1179750000Y-1040290000D03*
X1181000000Y-1044500000D03*
X1218975000Y-1053000000D03*
X1168500000Y-1042540000D03*
X1220346300Y-1049000000D03*
D46*
%TO.N,/M4B*%
X1240000000Y-1039000000D03*
D44*
X1233000000Y-1042500000D03*
%TO.N,/M4A*%
X1238280000Y-1041640000D03*
X1230050000Y-1042500000D03*
D45*
%TO.N,Net-(L1-Pad1)*%
X1208700000Y-1046500000D03*
X1220346300Y-1050000000D03*
%TO.N,Net-(L1-Pad2)*%
X1214300000Y-1046500000D03*
D49*
X1223366300Y-1050000000D03*
D44*
%TO.N,/M1A*%
X1156000000Y-1040000000D03*
X1162025000Y-1040500000D03*
%TO.N,/M1B*%
X1164975000Y-1040500000D03*
X1157950000Y-1040000000D03*
D45*
%TO.N,Net-(T1-Pin_1)*%
X1182500000Y-1041500000D03*
X1184345000Y-1038029998D03*
D44*
%TO.N,/M2A*%
X1163000000Y-1054000000D03*
X1157720000Y-1055680000D03*
%TO.N,/M2B*%
X1166000000Y-1054000000D03*
X1156460000Y-1055680000D03*
%TO.N,GND1*%
X1226000000Y-1044300000D03*
X1218000000Y-1043100000D03*
X1216537290Y-1045378692D03*
D45*
X1225000000Y-1043250000D03*
D44*
X1219209382Y-1044630080D03*
X1207000000Y-1052500000D03*
D45*
%TO.N,+5V*%
X1220500000Y-1043242456D03*
D44*
%TO.N,Net-(USBC1-CC1)*%
X1223087500Y-1044412500D03*
D45*
X1223000000Y-1043250000D03*
%TO.N,/D+*%
X1221232326Y-1043250000D03*
X1184345000Y-1051999998D03*
%TO.N,/D-*%
X1222000000Y-1041742456D03*
X1184345000Y-1050729998D03*
%TO.N,Net-(USBC1-CC2)*%
X1220510152Y-1041600000D03*
X1220000000Y-1044150000D03*
%TO.N,/IO6*%
X1184500000Y-1042000000D03*
%TO.N,/IO7*%
X1184345000Y-1043109998D03*
%TO.N,Net-(U1-IO0)*%
X1205750000Y-1051750000D03*
D47*
X1203500000Y-1052500000D03*
%TD*%
%TO.N,/IO41*%
D50*
X1238280000Y-1046792759D02*
X1235493620Y-1044006380D01*
X1235000000Y-1043000000D02*
X1235000000Y-1043512759D01*
X1235000000Y-1043512759D02*
X1235493620Y-1044006380D01*
X1205404298Y-1040500000D02*
X1216500000Y-1040500000D01*
X1202794300Y-1043109998D02*
X1205404298Y-1040500000D01*
X1201845000Y-1043109998D02*
X1202794300Y-1043109998D01*
%TO.N,/IO35*%
X1236845259Y-1048837500D02*
X1233882759Y-1051800000D01*
X1238624741Y-1048837500D02*
X1236845259Y-1048837500D01*
X1239630000Y-1049842759D02*
X1238624741Y-1048837500D01*
X1206987648Y-1051800000D02*
X1204647646Y-1049459998D01*
X1233882759Y-1051800000D02*
X1206987648Y-1051800000D01*
X1239630000Y-1050070000D02*
X1239630000Y-1049842759D01*
X1204647646Y-1049459998D02*
X1201845000Y-1049459998D01*
%TO.N,/IO36*%
X1219534744Y-1054200000D02*
X1204700000Y-1054200000D01*
X1238370000Y-1050572500D02*
X1235642500Y-1053300000D01*
X1204700000Y-1054200000D02*
X1204700000Y-1053061198D01*
X1238370000Y-1050070000D02*
X1238370000Y-1050572500D01*
X1204700000Y-1053061198D02*
X1202368800Y-1050729998D01*
X1202368800Y-1050729998D02*
X1201845000Y-1050729998D01*
X1235642500Y-1053300000D02*
X1220434744Y-1053300000D01*
X1220434744Y-1053300000D02*
X1219534744Y-1054200000D01*
%TO.N,GND*%
D51*
X1192995000Y-1044609998D02*
X1190195000Y-1044609998D01*
D50*
X1221233125Y-1047371200D02*
X1222479475Y-1047371200D01*
D51*
X1192995000Y-1041809998D02*
X1192995000Y-1044609998D01*
X1158900000Y-1037900000D02*
X1158500000Y-1037500000D01*
X1190195000Y-1043209998D02*
X1191595000Y-1043209998D01*
D50*
X1220891726Y-1047712599D02*
X1221233125Y-1047371200D01*
X1222479475Y-1047371200D02*
X1222820874Y-1047712599D01*
X1222820874Y-1047712599D02*
X1223366300Y-1047712599D01*
D51*
X1190195000Y-1041809998D02*
X1192995000Y-1041809998D01*
X1190195000Y-1044609998D02*
X1190195000Y-1043209998D01*
D50*
X1220346300Y-1047712599D02*
X1220891726Y-1047712599D01*
%TO.N,/M3B*%
D52*
X1238370000Y-1057630000D02*
X1238000000Y-1058000000D01*
X1238370000Y-1055430000D02*
X1238370000Y-1057630000D01*
%TO.N,/M3A*%
X1239630000Y-1057730000D02*
X1239900000Y-1058000000D01*
X1239630000Y-1055430000D02*
X1239630000Y-1057730000D01*
%TO.N,+5VA*%
D51*
X1158475000Y-1060500000D02*
X1159000000Y-1059975000D01*
D53*
X1239946873Y-1054047500D02*
X1236077500Y-1054047500D01*
D50*
X1223866299Y-1049212599D02*
X1223366300Y-1049212599D01*
X1224076300Y-1049422600D02*
X1223866299Y-1049212599D01*
D52*
X1240437416Y-1045567500D02*
X1241147584Y-1045567500D01*
D50*
X1219802600Y-1050652600D02*
X1224076300Y-1050652600D01*
X1224076300Y-1050652600D02*
X1224076300Y-1049422600D01*
D51*
X1154180000Y-1042320000D02*
X1153500000Y-1043000000D01*
D50*
X1223366300Y-1048712600D02*
X1224076300Y-1048002600D01*
D51*
X1159000000Y-1059975000D02*
X1159000000Y-1055680000D01*
D50*
X1224747401Y-1049212599D02*
X1225500000Y-1048460000D01*
D52*
X1237000000Y-1037025000D02*
X1237000000Y-1041640000D01*
D51*
X1227500000Y-1049450000D02*
X1226490000Y-1049450000D01*
D50*
X1224076300Y-1046772600D02*
X1220786300Y-1046772600D01*
D51*
X1218400000Y-1057125000D02*
X1218000000Y-1057525000D01*
D53*
X1233000000Y-1057125000D02*
X1218400000Y-1057125000D01*
D51*
X1241025000Y-1059925000D02*
X1241025000Y-1055125627D01*
D54*
X1158475000Y-1060500000D02*
X1160500000Y-1060500000D01*
D52*
X1237000000Y-1041640000D02*
X1237000000Y-1042130084D01*
D51*
X1240450000Y-1060500000D02*
X1240910000Y-1060040000D01*
D53*
X1241025000Y-1055125627D02*
X1239946873Y-1054047500D01*
D50*
X1220786300Y-1046772600D02*
X1220346300Y-1047212600D01*
D51*
X1155090000Y-1038910000D02*
X1155550000Y-1038450000D01*
D52*
X1241725000Y-1054615000D02*
X1240910000Y-1055430000D01*
X1237525000Y-1036500000D02*
X1237000000Y-1037025000D01*
X1241725000Y-1048500000D02*
X1241725000Y-1054615000D01*
D53*
X1236077500Y-1054047500D02*
X1233000000Y-1057125000D01*
D51*
X1155090000Y-1042320000D02*
X1154180000Y-1042320000D01*
D52*
X1241725000Y-1046144916D02*
X1241725000Y-1048500000D01*
D50*
X1218500000Y-1049350000D02*
X1219802600Y-1050652600D01*
D51*
X1155550000Y-1038450000D02*
X1155550000Y-1037500000D01*
D50*
X1223366300Y-1049212599D02*
X1223366300Y-1048212598D01*
D51*
X1227500000Y-1049450000D02*
X1232050000Y-1049450000D01*
X1155090000Y-1042320000D02*
X1155090000Y-1038910000D01*
D52*
X1237000000Y-1042130084D02*
X1240437416Y-1045567500D01*
D51*
X1226490000Y-1049450000D02*
X1225500000Y-1048460000D01*
X1232050000Y-1049450000D02*
X1232500000Y-1049000000D01*
D52*
X1241147584Y-1045567500D02*
X1241725000Y-1046144916D01*
D51*
X1240910000Y-1060040000D02*
X1240910000Y-1055430000D01*
D50*
X1224076300Y-1048002600D02*
X1224076300Y-1046772600D01*
X1223366300Y-1049212599D02*
X1224747401Y-1049212599D01*
D51*
X1240450000Y-1060500000D02*
X1241025000Y-1059925000D01*
%TO.N,+3.3V*%
D50*
X1220346300Y-1049212602D02*
X1220346300Y-1049000000D01*
X1220346300Y-1049000000D02*
X1220346300Y-1048712600D01*
%TO.N,/IO41*%
X1238280000Y-1047000000D02*
X1238280000Y-1046792759D01*
X1235493620Y-1044006380D02*
X1235187241Y-1043700000D01*
%TO.N,/IO42*%
X1239540000Y-1046382500D02*
X1232839956Y-1039682456D01*
X1204951842Y-1039682456D02*
X1202794300Y-1041839998D01*
X1232839956Y-1039682456D02*
X1204951842Y-1039682456D01*
X1202794300Y-1041839998D02*
X1201845000Y-1041839998D01*
X1239540000Y-1047000000D02*
X1239540000Y-1046382500D01*
%TO.N,/M4B*%
D52*
X1239540000Y-1041640000D02*
X1239540000Y-1039410000D01*
X1239540000Y-1039410000D02*
X1239950000Y-1039000000D01*
%TO.N,/M4A*%
X1238280000Y-1039230000D02*
X1238050000Y-1039000000D01*
X1238280000Y-1041640000D02*
X1238280000Y-1039230000D01*
%TO.N,Net-(L1-Pad1)*%
D50*
X1220346300Y-1050000000D02*
X1220346300Y-1050212600D01*
X1220346300Y-1049712601D02*
X1220346300Y-1050000000D01*
%TO.N,Net-(L1-Pad2)*%
X1223366300Y-1049712601D02*
X1223366300Y-1050000000D01*
X1223366300Y-1050000000D02*
X1223366300Y-1050212600D01*
%TO.N,/M1A*%
D51*
X1156370000Y-1042320000D02*
X1156370000Y-1040320000D01*
X1156370000Y-1040320000D02*
X1156050000Y-1040000000D01*
%TO.N,/M1B*%
X1157630000Y-1042320000D02*
X1157630000Y-1040320000D01*
X1157630000Y-1040320000D02*
X1157950000Y-1040000000D01*
%TO.N,Net-(T1-Pin_1)*%
D50*
X1180225000Y-1036775000D02*
X1182250000Y-1036775000D01*
X1175200000Y-1037200000D02*
X1179800000Y-1037200000D01*
X1183504998Y-1038029998D02*
X1184345000Y-1038029998D01*
X1181475000Y-1042850000D02*
X1182500000Y-1041825000D01*
X1182500000Y-1041825000D02*
X1182500000Y-1041500000D01*
X1181950000Y-1035750000D02*
X1181950000Y-1036475000D01*
X1181000000Y-1042850000D02*
X1181475000Y-1042850000D01*
X1182250000Y-1036775000D02*
X1183504998Y-1038029998D01*
X1174000000Y-1036000000D02*
X1175200000Y-1037200000D01*
X1181950000Y-1036475000D02*
X1182250000Y-1036775000D01*
X1179800000Y-1037200000D02*
X1180225000Y-1036775000D01*
%TO.N,Net-(U1-IO45)*%
D55*
X1198379300Y-1056000000D02*
X1200080000Y-1054299300D01*
X1200080000Y-1054299300D02*
X1200080000Y-1053250000D01*
X1196750000Y-1056000000D02*
X1198379300Y-1056000000D01*
%TO.N,Net-(U2-FB)*%
D56*
X1218500000Y-1051000000D02*
X1217650000Y-1050150000D01*
X1217650000Y-1048850000D02*
X1218500000Y-1048000000D01*
D50*
X1218712601Y-1048212601D02*
X1220346300Y-1048212601D01*
X1218500000Y-1048000000D02*
X1218712601Y-1048212601D01*
D56*
X1217650000Y-1050150000D02*
X1217650000Y-1048850000D01*
%TO.N,/M2A*%
D51*
X1157720000Y-1055680000D02*
X1157720000Y-1057770000D01*
X1157720000Y-1057770000D02*
X1157950000Y-1058000000D01*
%TO.N,/M2B*%
X1156460000Y-1055680000D02*
X1156460000Y-1057590000D01*
X1156460000Y-1057590000D02*
X1156050000Y-1058000000D01*
%TO.N,GND1*%
D50*
X1219050000Y-1041742456D02*
X1219050000Y-1042050000D01*
X1224825000Y-1044500000D02*
X1225800000Y-1044500000D01*
D55*
X1225450000Y-1042800000D02*
X1225000000Y-1043250000D01*
D50*
X1219854302Y-1045275000D02*
X1224050000Y-1045275000D01*
X1219209382Y-1044630080D02*
X1219854302Y-1045275000D01*
D55*
X1225450000Y-1041742456D02*
X1225450000Y-1042800000D01*
D50*
X1225800000Y-1044500000D02*
X1226000000Y-1044300000D01*
X1206650000Y-1052500000D02*
X1205750000Y-1053400000D01*
X1207000000Y-1052500000D02*
X1206650000Y-1052500000D01*
X1219050000Y-1042050000D02*
X1218000000Y-1043100000D01*
X1224050000Y-1045275000D02*
X1224825000Y-1044500000D01*
%TO.N,+5V*%
D55*
X1220500000Y-1043242456D02*
X1219850000Y-1042592456D01*
X1224100000Y-1040342456D02*
X1224500000Y-1040742456D01*
X1224650000Y-1041742456D02*
X1224500000Y-1041592456D01*
X1219850000Y-1042592456D02*
X1219850000Y-1041742456D01*
X1224500000Y-1041592456D02*
X1224500000Y-1040742456D01*
X1220400000Y-1040342456D02*
X1224100000Y-1040342456D01*
X1220000000Y-1041592456D02*
X1220000000Y-1040742456D01*
X1219850000Y-1041742456D02*
X1220000000Y-1041592456D01*
X1220000000Y-1040742456D02*
X1220400000Y-1040342456D01*
%TO.N,Net-(USBC1-CC1)*%
X1223500000Y-1042750000D02*
X1223000000Y-1043250000D01*
X1223500000Y-1041742456D02*
X1223500000Y-1042750000D01*
%TO.N,/D+*%
D50*
X1221500000Y-1042642456D02*
X1221550000Y-1042692456D01*
X1221500000Y-1041742456D02*
X1221500000Y-1042642456D01*
X1222500000Y-1042642456D02*
X1222500000Y-1041742456D01*
X1222450000Y-1042692456D02*
X1221789870Y-1042692456D01*
X1221550000Y-1042692456D02*
X1222450000Y-1042692456D01*
X1222450000Y-1042692456D02*
X1222500000Y-1042642456D01*
X1221789870Y-1042692456D02*
X1221232326Y-1043250000D01*
%TO.N,/D-*%
X1222950000Y-1040792456D02*
X1223000000Y-1040842456D01*
X1222000000Y-1041742456D02*
X1222000000Y-1040842456D01*
X1222050000Y-1040792456D02*
X1222950000Y-1040792456D01*
X1223000000Y-1040842456D02*
X1223000000Y-1041742456D01*
X1222000000Y-1040842456D02*
X1222050000Y-1040792456D01*
%TO.N,Net-(USBC1-CC2)*%
X1220350000Y-1044500000D02*
X1220000000Y-1044150000D01*
X1220825000Y-1044500000D02*
X1220350000Y-1044500000D01*
%TO.N,/IO4*%
X1181299998Y-1039299998D02*
X1184345000Y-1039299998D01*
X1161732500Y-1041700000D02*
X1167300000Y-1041700000D01*
X1167300000Y-1041700000D02*
X1171000000Y-1038000000D01*
X1156370000Y-1047680000D02*
X1156370000Y-1047062500D01*
X1180000000Y-1038000000D02*
X1181299998Y-1039299998D01*
X1156370000Y-1047062500D02*
X1161732500Y-1041700000D01*
X1171000000Y-1038000000D02*
X1180000000Y-1038000000D01*
%TO.N,/IO5*%
X1163552500Y-1046447500D02*
X1170500000Y-1039500000D01*
X1170500000Y-1039500000D02*
X1180934315Y-1039500000D01*
X1182004313Y-1040569998D02*
X1184345000Y-1040569998D01*
X1180934315Y-1039500000D02*
X1182004313Y-1040569998D01*
X1157630000Y-1047462759D02*
X1158645259Y-1046447500D01*
X1157630000Y-1047680000D02*
X1157630000Y-1047462759D01*
X1158645259Y-1046447500D02*
X1163552500Y-1046447500D01*
%TO.N,/IO10*%
X1157720000Y-1050112759D02*
X1158745259Y-1049087500D01*
X1189394500Y-1054299300D02*
X1189920000Y-1053773800D01*
X1157720000Y-1050320000D02*
X1157720000Y-1050112759D01*
X1158745259Y-1049087500D02*
X1174526840Y-1049087500D01*
X1179738640Y-1054299300D02*
X1189394500Y-1054299300D01*
X1189920000Y-1053773800D02*
X1189920000Y-1053250000D01*
X1174526840Y-1049087500D02*
X1179738640Y-1054299300D01*
%TO.N,/IO11*%
X1156460000Y-1050547241D02*
X1157465259Y-1051552500D01*
X1157465259Y-1051552500D02*
X1176426155Y-1051552500D01*
X1176426155Y-1051552500D02*
X1179572955Y-1054699300D01*
X1179572955Y-1054699300D02*
X1190690000Y-1054699300D01*
X1190690000Y-1054699300D02*
X1191190000Y-1054199300D01*
X1191190000Y-1054199300D02*
X1191190000Y-1053250000D01*
X1156460000Y-1050320000D02*
X1156460000Y-1050547241D01*
%TO.N,Net-(U1-IO0)*%
X1201845000Y-1051999998D02*
X1202999998Y-1051999998D01*
X1202999998Y-1051999998D02*
X1203500000Y-1052500000D01*
%TD*%
M02*
