%TF.GenerationSoftware,KiCad,Pcbnew,10.0.6*%
%TF.CreationDate,2026-09-18T14:01:52+05:30*%
%TF.ProjectId,remote,72656d6f-7465-42e6-9b69-6361645f7063,rev?*%
%TF.SameCoordinates,Original*%
%TF.FileFunction,Copper,L2,Inr*%
%TF.FilePolarity,Positive*%
%FSLAX46Y46*%
G04 Gerber Fmt 4.6, Leading zero omitted, Abs format (unit mm)*
G04 Created by KiCad (PCBNEW 10.0.6) date 2026-09-18 14:01:52*
%MOMM*%
%LPD*%
G01*
G04 APERTURE LIST*
%TA.AperFunction,ComponentPad*%
%ADD10R,1.700000X1.700000*%
%TD*%
%TA.AperFunction,ComponentPad*%
%ADD11C,1.700000*%
%TD*%
%TA.AperFunction,ComponentPad*%
%ADD12C,2.000000*%
%TD*%
%TA.AperFunction,ComponentPad*%
%ADD13C,0.500000*%
%TD*%
%TA.AperFunction,ComponentPad*%
%ADD14C,0.508000*%
%TD*%
%TA.AperFunction,ComponentPad*%
%ADD15C,0.600000*%
%TD*%
%TA.AperFunction,ComponentPad*%
%ADD16O,1.200000X2.000000*%
%TD*%
%TA.AperFunction,ComponentPad*%
%ADD17O,1.200000X1.800000*%
%TD*%
%TA.AperFunction,ViaPad*%
%ADD18C,0.600000*%
%TD*%
%TA.AperFunction,ViaPad*%
%ADD19C,0.500000*%
%TD*%
%TA.AperFunction,ViaPad*%
%ADD20C,0.400000*%
%TD*%
%TA.AperFunction,Conductor*%
%ADD21C,0.600000*%
%TD*%
%TA.AperFunction,Conductor*%
%ADD22C,0.400000*%
%TD*%
%TA.AperFunction,Conductor*%
%ADD23C,0.200000*%
%TD*%
%TA.AperFunction,Conductor*%
%ADD24C,0.300000*%
%TD*%
G04 APERTURE END LIST*
D10*
%TO.N,GND*%
%TO.C,J1*%
X850000000Y-606580000D03*
D11*
%TO.N,+3.3V*%
X850000000Y-604040000D03*
%TO.N,/J1x*%
X850000000Y-601500000D03*
%TO.N,/J1y*%
X850000000Y-598960000D03*
%TO.N,/IO12*%
X850000000Y-596420000D03*
%TD*%
D12*
%TO.N,/IO15*%
%TO.C,SW1*%
X859000000Y-617500000D03*
X865500000Y-617500000D03*
%TO.N,GND*%
X859000000Y-622000000D03*
X865500000Y-622000000D03*
%TD*%
%TO.N,/IO16*%
%TO.C,SW2*%
X859500000Y-628500000D03*
X866000000Y-628500000D03*
%TO.N,GND*%
X859500000Y-633000000D03*
X866000000Y-633000000D03*
%TD*%
D10*
%TO.N,+5VA*%
%TO.C,BT1*%
X883040000Y-596000000D03*
D11*
%TO.N,GND*%
X880500000Y-596000000D03*
%TD*%
D13*
%TO.N,N/C*%
%TO.C,U2*%
X909616300Y-627212599D03*
D14*
X909616300Y-627999999D03*
X909616300Y-628787399D03*
X910403700Y-627212599D03*
X910403700Y-627999999D03*
X910403700Y-628787399D03*
%TD*%
D10*
%TO.N,GND*%
%TO.C,J2*%
X919500000Y-596380000D03*
D11*
%TO.N,+3.3V*%
X919500000Y-598920000D03*
%TO.N,/J2x*%
X919500000Y-601460000D03*
%TO.N,/J2y*%
X919500000Y-604000000D03*
%TO.N,/IO13*%
X919500000Y-606540000D03*
%TD*%
D15*
%TO.N,*%
%TO.C,USBC1*%
X892100000Y-632767544D03*
X897900000Y-632767544D03*
D16*
%TO.N,unconnected-(USBC1-EH-Pad1)*%
X899330000Y-632267544D03*
D17*
%TO.N,unconnected-(USBC1-EH-Pad2)*%
X899330000Y-636447544D03*
%TO.N,unconnected-(USBC1-EH-Pad3)*%
X890670000Y-636447544D03*
D16*
%TO.N,unconnected-(USBC1-EH-Pad4)*%
X890670000Y-632267544D03*
%TD*%
D18*
%TO.N,/IO13*%
X893000000Y-617500000D03*
%TO.N,/IO12*%
X886000000Y-621000000D03*
D19*
%TO.N,GND*%
X895000000Y-605500000D03*
X915000000Y-627500000D03*
X898847941Y-626229874D03*
X885000000Y-611000000D03*
X912500000Y-627000000D03*
X903500000Y-625000000D03*
D18*
X906000000Y-595500000D03*
D19*
X880500000Y-605500000D03*
D18*
X870500000Y-622500000D03*
X871500000Y-610500000D03*
X892000000Y-595500000D03*
D19*
X874000000Y-606000000D03*
D20*
X911000000Y-625000000D03*
D19*
%TO.N,+3.3V*%
X896810460Y-629189540D03*
D18*
X900500000Y-629189540D03*
D19*
X907000000Y-629000000D03*
X904500000Y-625000000D03*
X876500000Y-606000000D03*
X904000000Y-622000000D03*
X880500000Y-607000000D03*
D20*
X900500000Y-617500000D03*
D19*
X900500000Y-622000000D03*
D18*
X872500000Y-604000000D03*
D19*
%TO.N,Net-(T1-Pin_1)*%
X880000000Y-602500000D03*
X878500000Y-603500000D03*
X881500000Y-608000000D03*
%TO.N,/J1x*%
X877000000Y-609500000D03*
%TO.N,/J1y*%
X876500000Y-611000000D03*
D18*
%TO.N,/J2x*%
X881500000Y-611000000D03*
%TO.N,/J2y*%
X882000000Y-613000000D03*
%TO.N,/IO18*%
X876000000Y-618500000D03*
X874500000Y-614000000D03*
D19*
%TO.N,/D-*%
X894500000Y-633500000D03*
D20*
X877000000Y-621000000D03*
%TO.N,/D+*%
X877500000Y-622000000D03*
D19*
X895000000Y-629500000D03*
%TO.N,+5V*%
X896886196Y-630113804D03*
D20*
X908000001Y-626000000D03*
X917000000Y-629500000D03*
D19*
X912500000Y-628500000D03*
D18*
X888500000Y-634000000D03*
D19*
%TO.N,Net-(L1-Pad1)*%
X907500000Y-629500000D03*
X907700000Y-620000000D03*
%TO.N,Net-(L1-Pad2)*%
X914500000Y-628950000D03*
X913300000Y-620000000D03*
%TD*%
%TO.N,+3.3V*%
D21*
X917080000Y-606500000D02*
X917080000Y-601340000D01*
D22*
X906810460Y-629189540D02*
X907000000Y-629000000D01*
D21*
X900500000Y-617500000D02*
X899000000Y-616000000D01*
X906500000Y-608500000D02*
X906500000Y-606500000D01*
D22*
X904500000Y-625000000D02*
X904500000Y-627689540D01*
D21*
X917080000Y-601340000D02*
X919500000Y-598920000D01*
D22*
X906000000Y-629189540D02*
X906810460Y-629189540D01*
D21*
X899000000Y-616000000D02*
X906500000Y-608500000D01*
X899000000Y-616000000D02*
X890000000Y-607000000D01*
D22*
X904500000Y-627689540D02*
X906000000Y-629189540D01*
D21*
X872500000Y-604000000D02*
X872460000Y-604040000D01*
X890000000Y-607000000D02*
X880500000Y-607000000D01*
D22*
X896810460Y-629189540D02*
X900500000Y-629189540D01*
D21*
X872460000Y-604040000D02*
X850000000Y-604040000D01*
X906500000Y-606500000D02*
X917080000Y-606500000D01*
D22*
X900500000Y-629189540D02*
X906000000Y-629189540D01*
%TO.N,+5V*%
X896886196Y-630113804D02*
X903500000Y-630113804D01*
D23*
X888550000Y-634050000D02*
X899563804Y-634050000D01*
D22*
X903500000Y-630113804D02*
X912886196Y-630113804D01*
D24*
X917000000Y-629500000D02*
X913500000Y-629500000D01*
X910045286Y-626000000D02*
X908000001Y-626000000D01*
D22*
X912886196Y-630113804D02*
X913500000Y-629500000D01*
D24*
X913000000Y-628954714D02*
X910045286Y-626000000D01*
X913000000Y-629000000D02*
X912500000Y-628500000D01*
X913000000Y-629000000D02*
X913000000Y-628954714D01*
X913500000Y-629500000D02*
X913000000Y-629000000D01*
D23*
X899563804Y-634050000D02*
X903500000Y-630113804D01*
X888500000Y-634000000D02*
X888550000Y-634050000D01*
%TD*%
M02*
