M48
; DRILL file KiCad 10.0.6 date 2026-09-11T14:33:40
; FORMAT={-:-/ absolute / metric / decimal}
; #@! TF.CreationDate,2026-09-11T14:33:40+05:30
; #@! TF.GenerationSoftware,Kicad,Pcbnew,10.0.6
; #@! TF.FileFunction,Plated,1,2,PTH
FMAT,2
METRIC
; #@! TA.AperFunction,Plated,PTH,ComponentDrill
T1C0.254
; #@! TA.AperFunction,Plated,PTH,ViaDrill
T2C0.300
; #@! TA.AperFunction,Plated,PTH,ComponentDrill
T3C0.762
; #@! TA.AperFunction,Plated,PTH,ComponentDrill
T4C0.950
; #@! TA.AperFunction,Plated,PTH,ComponentDrill
T5C1.100
; #@! TA.AperFunction,Plated,PTH,ComponentDrill
T6C1.800
%
G90
G05
T1
X130.616Y-566.213
X130.616Y-567.0
X130.616Y-567.787
X131.404Y-566.213
X131.404Y-567.0
X131.404Y-567.787
T2
X115.5Y-577.0
X121.5Y-577.0
X126.0Y-555.5
X126.46Y-556.5
X127.0Y-567.0
X129.0Y-562.5
X129.5Y-570.0
X132.5Y-570.0
X133.5Y-552.0
X134.45Y-562.0
X134.5Y-569.0
X137.5Y-568.0
X141.05Y-570.45
X143.5Y-549.5
X143.5Y-550.5
X143.5Y-557.5
X153.765Y-541.56
X159.5Y-555.5
X160.5Y-548.0
X160.5Y-549.5
X160.5Y-552.0
X163.0Y-543.0
X163.0Y-553.0
X163.15Y-551.7
X163.15Y-559.32
X163.5Y-550.5
X165.5Y-557.52
X165.51Y-558.49
X166.0Y-548.0
T3
X134.5Y-577.0
X136.5Y-577.0
X138.5Y-577.0
X140.5Y-577.0
T4
X114.0Y-542.0
X114.0Y-544.5
X114.0Y-547.0
X114.0Y-549.5
X114.0Y-552.0
X192.0Y-542.5
X192.0Y-545.0
X192.0Y-547.5
X192.0Y-550.0
X192.0Y-552.5
T5
X179.46Y-569.45
X184.54Y-569.45
T6
X155.0Y-577.0
X160.0Y-577.0
M30
