%TF.GenerationSoftware,KiCad,Pcbnew,10.0.6*%
%TF.CreationDate,2026-09-11T14:33:35+05:30*%
%TF.ProjectId,remote,72656d6f-7465-42e6-9b69-6361645f7063,rev?*%
%TF.SameCoordinates,Original*%
%TF.FileFunction,Copper,L1,Top*%
%TF.FilePolarity,Positive*%
%FSLAX46Y46*%
G04 Gerber Fmt 4.6, Leading zero omitted, Abs format (unit mm)*
G04 Created by KiCad (PCBNEW 10.0.6) date 2026-09-11 14:33:35*
%MOMM*%
%LPD*%
G01*
G04 APERTURE LIST*
G04 Aperture macros list*
%AMRoundRect*
0 Rectangle with rounded corners*
0 $1 Rounding radius*
0 $2 $3 $4 $5 $6 $7 $8 $9 X,Y pos of 4 corners*
0 Add a 4 corners polygon primitive as box body*
4,1,4,$2,$3,$4,$5,$6,$7,$8,$9,$2,$3,0*
0 Add four circle primitives for the rounded corners*
1,1,$1+$1,$2,$3*
1,1,$1+$1,$4,$5*
1,1,$1+$1,$6,$7*
1,1,$1+$1,$8,$9*
0 Add four rect primitives between the rounded corners*
20,1,$1+$1,$2,$3,$4,$5,0*
20,1,$1+$1,$4,$5,$6,$7,0*
20,1,$1+$1,$6,$7,$8,$9,0*
20,1,$1+$1,$8,$9,$2,$3,0*%
G04 Aperture macros list end*
%TA.AperFunction,ComponentPad*%
%ADD10RoundRect,0.250000X-0.725000X0.600000X-0.725000X-0.600000X0.725000X-0.600000X0.725000X0.600000X0*%
%TD*%
%TA.AperFunction,ComponentPad*%
%ADD11O,1.950000X1.700000*%
%TD*%
%TA.AperFunction,ComponentPad*%
%ADD12RoundRect,0.250000X0.725000X-0.600000X0.725000X0.600000X-0.725000X0.600000X-0.725000X-0.600000X0*%
%TD*%
%TA.AperFunction,SMDPad,CuDef*%
%ADD13RoundRect,0.100000X-0.130000X-0.100000X0.130000X-0.100000X0.130000X0.100000X-0.130000X0.100000X0*%
%TD*%
%TA.AperFunction,ComponentPad*%
%ADD14R,2.000000X2.000000*%
%TD*%
%TA.AperFunction,ComponentPad*%
%ADD15C,2.000000*%
%TD*%
%TA.AperFunction,SMDPad,CuDef*%
%ADD16RoundRect,0.140000X-0.140000X-0.170000X0.140000X-0.170000X0.140000X0.170000X-0.140000X0.170000X0*%
%TD*%
%TA.AperFunction,ComponentPad*%
%ADD17RoundRect,0.750000X-0.750000X-0.750000X0.750000X-0.750000X0.750000X0.750000X-0.750000X0.750000X0*%
%TD*%
%TA.AperFunction,ComponentPad*%
%ADD18C,3.000000*%
%TD*%
%TA.AperFunction,ComponentPad*%
%ADD19R,1.524000X1.524000*%
%TD*%
%TA.AperFunction,ComponentPad*%
%ADD20C,1.524000*%
%TD*%
%TA.AperFunction,SMDPad,CuDef*%
%ADD21R,0.820000X0.280000*%
%TD*%
%TA.AperFunction,SMDPad,CuDef*%
%ADD22R,1.580000X2.849999*%
%TD*%
%TA.AperFunction,ComponentPad*%
%ADD23C,0.508000*%
%TD*%
%TA.AperFunction,SMDPad,CuDef*%
%ADD24R,1.498600X0.889000*%
%TD*%
%TA.AperFunction,SMDPad,CuDef*%
%ADD25R,0.889000X1.498600*%
%TD*%
%TA.AperFunction,SMDPad,CuDef*%
%ADD26R,0.889000X0.889000*%
%TD*%
%TA.AperFunction,SMDPad,CuDef*%
%ADD27RoundRect,0.250000X-0.650000X0.325000X-0.650000X-0.325000X0.650000X-0.325000X0.650000X0.325000X0*%
%TD*%
%TA.AperFunction,SMDPad,CuDef*%
%ADD28RoundRect,0.250000X-0.325000X-0.650000X0.325000X-0.650000X0.325000X0.650000X-0.325000X0.650000X0*%
%TD*%
%TA.AperFunction,SMDPad,CuDef*%
%ADD29RoundRect,0.200000X-0.200000X-0.275000X0.200000X-0.275000X0.200000X0.275000X-0.200000X0.275000X0*%
%TD*%
%TA.AperFunction,SMDPad,CuDef*%
%ADD30R,2.600000X8.200000*%
%TD*%
%TA.AperFunction,SMDPad,CuDef*%
%ADD31RoundRect,0.140000X0.170000X-0.140000X0.170000X0.140000X-0.170000X0.140000X-0.170000X-0.140000X0*%
%TD*%
%TA.AperFunction,SMDPad,CuDef*%
%ADD32RoundRect,0.112500X-0.112500X0.187500X-0.112500X-0.187500X0.112500X-0.187500X0.112500X0.187500X0*%
%TD*%
%TA.AperFunction,ViaPad*%
%ADD33C,0.600000*%
%TD*%
%TA.AperFunction,Conductor*%
%ADD34C,0.200000*%
%TD*%
G04 APERTURE END LIST*
D10*
%TO.P,J2,1,Pin_1_1*%
%TO.N,Net-(BT1--)*%
X192000000Y-542500000D03*
D11*
%TO.P,J2,2,Pin_2_2*%
%TO.N,Net-(J1-Pin_2)*%
X192000000Y-545000000D03*
%TO.P,J2,3,Pin_3_3*%
%TO.N,Net-(J2-Pin_3)*%
X192000000Y-547500000D03*
%TO.P,J2,4,Pin_4_4*%
%TO.N,Net-(J2-Pin_4)*%
X192000000Y-550000000D03*
%TO.P,J2,5,Pin_5_5*%
%TO.N,Net-(J2-Pin_5)*%
X192000000Y-552500000D03*
%TD*%
D12*
%TO.P,J1,1,Pin_1_1*%
%TO.N,Net-(BT1--)*%
X114000000Y-552000000D03*
D11*
%TO.P,J1,2,Pin_2_2*%
%TO.N,Net-(J1-Pin_2)*%
X114000000Y-549500000D03*
%TO.P,J1,3,Pin_3_3*%
%TO.N,Net-(J1-Pin_3)*%
X114000000Y-547000000D03*
%TO.P,J1,4,Pin_4_4*%
%TO.N,Net-(J1-Pin_4)*%
X114000000Y-544500000D03*
%TO.P,J1,5,Pin_5_5*%
%TO.N,Net-(J1-Pin_5)*%
X114000000Y-542000000D03*
%TD*%
D13*
%TO.P,led2,2,A_2*%
%TO.N,Net-(U1-IO17)*%
X134165000Y-549500000D03*
%TO.P,led2,1,K_1*%
%TO.N,Net-(BT1--)*%
X133525000Y-549500000D03*
%TD*%
%TO.P,Led1,2,A_2*%
%TO.N,Net-(Led1-A)*%
X135165000Y-553000000D03*
%TO.P,Led1,1,K_1*%
%TO.N,Net-(BT1--)*%
X134525000Y-553000000D03*
%TD*%
D14*
%TO.P,BZ1,1,+_1*%
%TO.N,Net-(BZ1-+)*%
X179460000Y-569450000D03*
D15*
%TO.P,BZ1,2,-_2*%
%TO.N,Net-(BT1--)*%
X184540000Y-569450000D03*
%TD*%
D16*
%TO.P,ST2,1*%
%TO.N,Net-(BT1-+)*%
X134500000Y-570000000D03*
%TO.P,ST2,2*%
%TO.N,Net-(BT1--)*%
X135460000Y-570000000D03*
%TD*%
%TO.P,BZR1,2*%
%TO.N,Net-(BZ1-+)*%
X126460000Y-556500000D03*
%TO.P,BZR1,1*%
%TO.N,Net-(BT1--)*%
X125500000Y-556500000D03*
%TD*%
D17*
%TO.P,BT1,1,+_1*%
%TO.N,Net-(BT1-+)*%
X155000000Y-577000000D03*
D18*
%TO.P,BT1,2,-_2*%
%TO.N,Net-(BT1--)*%
X160000000Y-577000000D03*
%TD*%
D19*
%TO.P,usb1,1,Pin_1_1*%
%TO.N,Net-(BT1-+)*%
X134500000Y-577000000D03*
D20*
%TO.P,usb1,2,Pin_2_2*%
%TO.N,Net-(U1-IO20)*%
X136500000Y-577000000D03*
%TO.P,usb1,3,Pin_3_3*%
%TO.N,Net-(U1-IO19)*%
X138500000Y-577000000D03*
%TO.P,usb1,4,Pin_4_4*%
%TO.N,Net-(BT1--)*%
X140500000Y-577000000D03*
%TD*%
D21*
%TO.P,U2,1,VINA_1*%
%TO.N,Net-(BT1-+)*%
X129500000Y-565500000D03*
%TO.P,U2,2,GND_2*%
%TO.N,Net-(BT1--)*%
X129500000Y-565999999D03*
%TO.P,U2,3,FB_3*%
%TO.N,Net-(U2-FB)*%
X129500000Y-566500001D03*
%TO.P,U2,4,VOUT_4*%
%TO.N,Net-(J1-Pin_2)*%
X129500000Y-567000000D03*
%TO.P,U2,5,VOUT_5*%
X129500000Y-567500002D03*
%TO.P,U2,6,L2_6*%
%TO.N,Net-(L1-Pad1)*%
X129500000Y-568000001D03*
%TO.P,U2,7,L2_7*%
X129500000Y-568500000D03*
%TO.P,U2,8,L1_8*%
%TO.N,Net-(L1-Pad2)*%
X132520000Y-568500000D03*
%TO.P,U2,9,L1_9*%
X132520000Y-568000001D03*
%TO.P,U2,10,VIN_10*%
%TO.N,Net-(BT1-+)*%
X132520000Y-567499999D03*
%TO.P,U2,11,VIN_11*%
X132520000Y-567000000D03*
%TO.P,U2,12,EN_12*%
X132520000Y-566499998D03*
%TO.P,U2,13,PS/SYNC_13*%
%TO.N,Net-(BT1--)*%
X132520000Y-565999999D03*
%TO.P,U2,14,PG_14*%
%TO.N,unconnected-(U2-PG-Pad14)*%
X132520000Y-565500000D03*
D22*
%TO.P,U2,15,EPAD_15*%
%TO.N,Net-(BT1--)*%
X131010000Y-567000000D03*
D23*
%TO.P,U2,V*%
%TO.N,N/C*%
X130616300Y-567787400D03*
X130616300Y-567000000D03*
X130616300Y-566212600D03*
X131403700Y-567787400D03*
X131403700Y-567000000D03*
X131403700Y-566212600D03*
%TD*%
D24*
%TO.P,U1,1,GND_1*%
%TO.N,Net-(BT1--)*%
X163150000Y-559320000D03*
%TO.P,U1,2,3V3_2*%
%TO.N,Net-(J1-Pin_2)*%
X163150000Y-558050000D03*
%TO.P,U1,3,EN_3*%
X163150000Y-556780000D03*
%TO.P,U1,4,IO4_4*%
%TO.N,Net-(J1-Pin_3)*%
X163150000Y-555510000D03*
%TO.P,U1,5,IO5_5*%
%TO.N,Net-(J1-Pin_4)*%
X163150000Y-554240000D03*
%TO.P,U1,6,IO6_6*%
%TO.N,Net-(J2-Pin_3)*%
X163150000Y-552970000D03*
%TO.P,U1,7,IO7_7*%
%TO.N,Net-(J2-Pin_4)*%
X163150000Y-551700000D03*
%TO.P,U1,8,IO15_8*%
%TO.N,Net-(BZ1-+)*%
X163150000Y-550430000D03*
%TO.P,U1,9,IO16_9*%
%TO.N,Net-(Led1-A)*%
X163150000Y-549160000D03*
%TO.P,U1,10,IO17_10*%
%TO.N,Net-(U1-IO17)*%
X163150000Y-547890000D03*
%TO.P,U1,11,IO18_11*%
%TO.N,unconnected-(U1-IO18-Pad11)*%
X163150000Y-546620000D03*
%TO.P,U1,12,IO8_12*%
%TO.N,unconnected-(U1-IO8-Pad12)*%
X163150000Y-545350000D03*
%TO.P,U1,13,IO19_13*%
%TO.N,Net-(U1-IO19)*%
X163150000Y-544080000D03*
%TO.P,U1,14,IO20_14*%
%TO.N,Net-(U1-IO20)*%
X163150000Y-542810000D03*
D25*
%TO.P,U1,15,IO3_15*%
%TO.N,unconnected-(U1-IO3-Pad15)*%
X161385000Y-541559998D03*
%TO.P,U1,16,IO46_16*%
%TO.N,unconnected-(U1-IO46-Pad16)*%
X160115000Y-541559998D03*
%TO.P,U1,17,IO9_17*%
%TO.N,unconnected-(U1-IO9-Pad17)*%
X158845000Y-541559998D03*
%TO.P,U1,18,IO10_18*%
%TO.N,unconnected-(U1-IO10-Pad18)*%
X157575000Y-541559998D03*
%TO.P,U1,19,IO11_19*%
%TO.N,unconnected-(U1-IO11-Pad19)*%
X156305000Y-541559998D03*
%TO.P,U1,20,IO12_20*%
%TO.N,Net-(J1-Pin_5)*%
X155035000Y-541559998D03*
%TO.P,U1,21,IO13_21*%
%TO.N,Net-(J2-Pin_5)*%
X153765000Y-541559998D03*
%TO.P,U1,22,IO14_22*%
%TO.N,unconnected-(U1-IO14-Pad22)*%
X152495000Y-541559998D03*
%TO.P,U1,23,IO21_23*%
%TO.N,unconnected-(U1-IO21-Pad23)*%
X151225000Y-541559998D03*
%TO.P,U1,24,IO47_24*%
%TO.N,unconnected-(U1-IO47-Pad24)*%
X149955000Y-541559998D03*
%TO.P,U1,25,IO48_25*%
%TO.N,unconnected-(U1-IO48-Pad25)*%
X148685000Y-541559998D03*
%TO.P,U1,26,IO45_26*%
%TO.N,unconnected-(U1-IO45-Pad26)*%
X147415000Y-541559998D03*
D24*
%TO.P,U1,27,IO0_27*%
%TO.N,Net-(D1-K)*%
X145650000Y-542810000D03*
%TO.P,U1,28,IO35_28*%
%TO.N,unconnected-(U1-IO35-Pad28)*%
X145650000Y-544080000D03*
%TO.P,U1,29,IO36_29*%
%TO.N,unconnected-(U1-IO36-Pad29)*%
X145650000Y-545350000D03*
%TO.P,U1,30,IO37_30*%
%TO.N,unconnected-(U1-IO37-Pad30)*%
X145650000Y-546620000D03*
%TO.P,U1,31,IO38_31*%
%TO.N,unconnected-(U1-IO38-Pad31)*%
X145650000Y-547890000D03*
%TO.P,U1,32,IO39_32*%
%TO.N,unconnected-(U1-IO39-Pad32)*%
X145650000Y-549160000D03*
%TO.P,U1,33,IO40_33*%
%TO.N,unconnected-(U1-IO40-Pad33)*%
X145650000Y-550430000D03*
%TO.P,U1,34,IO41_34*%
%TO.N,unconnected-(U1-IO41-Pad34)*%
X145650000Y-551700000D03*
%TO.P,U1,35,IO42_35*%
%TO.N,unconnected-(U1-IO42-Pad35)*%
X145650000Y-552970000D03*
%TO.P,U1,36,RXD0_36*%
%TO.N,unconnected-(U1-RXD0-Pad36)*%
X145650000Y-554240000D03*
%TO.P,U1,37,TXD0_37*%
%TO.N,unconnected-(U1-TXD0-Pad37)*%
X145650000Y-555510000D03*
%TO.P,U1,38,IO2_38*%
%TO.N,unconnected-(U1-IO2-Pad38)*%
X145650000Y-556780000D03*
%TO.P,U1,39,IO1_39*%
%TO.N,unconnected-(U1-IO1-Pad39)*%
X145650000Y-558050000D03*
%TO.P,U1,40,GND_40*%
%TO.N,unconnected-(U1-GND-Pad40)*%
X145650000Y-559320000D03*
D26*
%TO.P,U1,42,GND_42*%
%TO.N,unconnected-(U1-GND-Pad42)*%
X157300000Y-553000000D03*
%TO.P,U1,43,GND_43*%
%TO.N,unconnected-(U1-GND-Pad43)*%
X157300000Y-551600000D03*
%TO.P,U1,44,GND_44*%
%TO.N,unconnected-(U1-GND-Pad44)*%
X157300000Y-550200000D03*
%TO.P,U1,45,GND_45*%
%TO.N,unconnected-(U1-GND-Pad45)*%
X155900000Y-550200000D03*
%TO.P,U1,46,GND_46*%
%TO.N,unconnected-(U1-GND-Pad46)*%
X154500000Y-550200000D03*
%TO.P,U1,47,GND_47*%
%TO.N,unconnected-(U1-GND-Pad47)*%
X154500000Y-551600000D03*
%TO.P,U1,48,GND_48*%
%TO.N,unconnected-(U1-GND-Pad48)*%
X154500000Y-553000000D03*
%TO.P,U1,49,GND_49*%
%TO.N,unconnected-(U1-GND-Pad49)*%
X155900000Y-553000000D03*
%TO.P,U1,41,GND_41*%
%TO.N,unconnected-(U1-GND-Pad41)*%
X155900000Y-551600000D03*
%TD*%
D27*
%TO.P,ST3,1*%
%TO.N,Net-(BT1--)*%
X137975000Y-565025000D03*
%TO.P,ST3,2*%
%TO.N,Net-(BT1-+)*%
X137975000Y-567975000D03*
%TD*%
D28*
%TO.P,ST1,1*%
%TO.N,Net-(BT1--)*%
X131500000Y-562000000D03*
%TO.P,ST1,2*%
%TO.N,Net-(J1-Pin_2)*%
X134450000Y-562000000D03*
%TD*%
D29*
%TO.P,R2,1*%
%TO.N,Net-(U2-FB)*%
X130000000Y-571500000D03*
%TO.P,R2,2*%
%TO.N,Net-(BT1--)*%
X131650000Y-571500000D03*
%TD*%
%TO.P,R1,1*%
%TO.N,Net-(U2-FB)*%
X127500000Y-562500000D03*
%TO.P,R1,2*%
%TO.N,Net-(BT1-+)*%
X129150000Y-562500000D03*
%TD*%
D30*
%TO.P,L1,1,1_1*%
%TO.N,Net-(L1-Pad1)*%
X116000000Y-577000000D03*
%TO.P,L1,2,2_2*%
%TO.N,Net-(L1-Pad2)*%
X121600000Y-577000000D03*
%TD*%
D31*
%TO.P,EspR1,1*%
%TO.N,Net-(BT1--)*%
X165500000Y-558480000D03*
%TO.P,EspR1,2*%
%TO.N,Net-(J1-Pin_2)*%
X165500000Y-557520000D03*
%TD*%
D32*
%TO.P,D1,1,K_1*%
%TO.N,Net-(D1-K)*%
X141050000Y-570450000D03*
%TO.P,D1,2,A_2*%
%TO.N,Net-(BT1--)*%
X141050000Y-572550000D03*
%TD*%
D33*
%TO.N,Net-(L1-Pad2)*%
X121500000Y-577000000D03*
%TO.N,Net-(L1-Pad1)*%
X115500000Y-577000000D03*
%TO.N,Net-(BZ1-+)*%
X166000000Y-548000000D03*
X163500000Y-550500000D03*
%TO.N,Net-(BT1-+)*%
X129000000Y-562500000D03*
%TO.N,Net-(J1-Pin_2)*%
X134450000Y-562000000D03*
X127000000Y-567000000D03*
%TO.N,Net-(L1-Pad1)*%
X129500000Y-570000000D03*
%TO.N,Net-(L1-Pad2)*%
X132500000Y-570000000D03*
%TO.N,Net-(BT1-+)*%
X134500000Y-569000000D03*
X137500000Y-568000000D03*
%TO.N,Net-(BT1--)*%
X165510000Y-558490000D03*
X163150000Y-559320000D03*
%TO.N,Net-(D1-K)*%
X143500000Y-557500000D03*
X141050000Y-570450000D03*
%TO.N,Net-(BT1--)*%
X133500000Y-552000000D03*
X126000000Y-555500000D03*
%TO.N,Net-(Led1-A)*%
X143500000Y-550500000D03*
%TO.N,Net-(U1-IO17)*%
X143500000Y-549500000D03*
X160500000Y-548000000D03*
%TO.N,Net-(Led1-A)*%
X160500000Y-549500000D03*
%TO.N,Net-(U1-IO19)*%
X159500000Y-555500000D03*
%TO.N,Net-(U1-IO20)*%
X163000000Y-543000000D03*
%TO.N,Net-(J2-Pin_5)*%
X153765000Y-541559998D03*
%TO.N,Net-(J2-Pin_4)*%
X163150000Y-551700000D03*
%TO.N,Net-(J2-Pin_3)*%
X163000000Y-553000000D03*
%TO.N,Net-(J1-Pin_2)*%
X165500000Y-557520000D03*
%TO.N,Net-(BZ1-+)*%
X160500000Y-552000000D03*
X126460000Y-556500000D03*
%TD*%
%TO.N,Net-(BT1--)*%
D34*
X192000000Y-541500000D02*
X192000000Y-542500000D01*
X181000000Y-546000000D02*
X185500000Y-541500000D01*
X185500000Y-541500000D02*
X192000000Y-541500000D01*
%TO.N,Net-(J1-Pin_3)*%
X163150000Y-555510000D02*
X163673800Y-555510000D01*
X163673800Y-555510000D02*
X164199300Y-554984500D01*
X164199300Y-542065500D02*
X161733800Y-539600000D01*
X112725000Y-545725000D02*
X114000000Y-547000000D01*
X164199300Y-554984500D02*
X164199300Y-542065500D01*
X161733800Y-539600000D02*
X113900000Y-539600000D01*
X113900000Y-539600000D02*
X112725000Y-540775000D01*
X112725000Y-540775000D02*
X112725000Y-545725000D01*
%TO.N,Net-(J1-Pin_5)*%
X123500000Y-546500000D02*
X139000000Y-546500000D01*
X123500000Y-546500000D02*
X119000000Y-542000000D01*
X119000000Y-542000000D02*
X114000000Y-542000000D01*
%TO.N,Net-(J1-Pin_4)*%
X125000000Y-554000000D02*
X123500000Y-555500000D01*
X163150000Y-554240000D02*
X162200700Y-554240000D01*
X162200700Y-554240000D02*
X156376200Y-560064500D01*
X123500000Y-554000000D02*
X114000000Y-544500000D01*
X156376200Y-560064500D02*
X133080186Y-560064500D01*
X133080186Y-560064500D02*
X127015686Y-554000000D01*
X127015686Y-554000000D02*
X125000000Y-554000000D01*
X123500000Y-555500000D02*
X123500000Y-554000000D01*
%TO.N,Net-(J1-Pin_2)*%
X134450000Y-562000000D02*
X126950000Y-554500000D01*
X125500000Y-554500000D02*
X123900000Y-556100000D01*
X126950000Y-554500000D02*
X125500000Y-554500000D01*
X123900000Y-556100000D02*
X120600000Y-556100000D01*
X120600000Y-556100000D02*
X114000000Y-549500000D01*
%TO.N,Net-(BT1--)*%
X125500000Y-556500000D02*
X118500000Y-556500000D01*
X118500000Y-556500000D02*
X114000000Y-552000000D01*
%TO.N,Net-(BZ1-+)*%
X179460000Y-561460000D02*
X166000000Y-548000000D01*
X179460000Y-569450000D02*
X179460000Y-561460000D01*
X163150000Y-550430000D02*
X163150000Y-550350000D01*
%TO.N,Net-(J1-Pin_2)*%
X127500002Y-567500002D02*
X127000000Y-567000000D01*
X129500000Y-567500002D02*
X127500002Y-567500002D01*
%TO.N,Net-(U2-FB)*%
X124500000Y-570000000D02*
X124500000Y-564000000D01*
X126000000Y-571500000D02*
X124500000Y-570000000D01*
X127500000Y-562500000D02*
X127500000Y-564500000D01*
X130000000Y-571500000D02*
X126000000Y-571500000D01*
X124500000Y-564000000D02*
X127000000Y-564000000D01*
X127000000Y-564000000D02*
X127500000Y-564500000D01*
%TO.N,Net-(J1-Pin_2)*%
X129500000Y-567000000D02*
X129500000Y-567500002D01*
%TO.N,Net-(L1-Pad2)*%
X132520000Y-569980000D02*
X132500000Y-570000000D01*
X132520000Y-568000001D02*
X132520000Y-569980000D01*
%TO.N,Net-(BT1-+)*%
X134500000Y-569000000D02*
X134500000Y-570000000D01*
X132520000Y-567499999D02*
X133169998Y-567499999D01*
X133169998Y-567499999D02*
X134500000Y-568830001D01*
X134500000Y-568830001D02*
X134500000Y-569000000D01*
X132520000Y-567000000D02*
X132520000Y-567499999D01*
X132520000Y-567000000D02*
X132520000Y-566499998D01*
%TO.N,Net-(L1-Pad1)*%
X129500000Y-568000001D02*
X129500000Y-570000000D01*
%TO.N,Net-(BT1--)*%
X165510000Y-558490000D02*
X165500000Y-558480000D01*
X160000000Y-577000000D02*
X171520000Y-577000000D01*
X171520000Y-577000000D02*
X177770000Y-570750000D01*
%TO.N,Net-(D1-K)*%
X143500000Y-557500000D02*
X144600700Y-556399300D01*
X144600700Y-556399300D02*
X144600700Y-542910000D01*
X144600700Y-542910000D02*
X144700700Y-542810000D01*
X144700700Y-542810000D02*
X145650000Y-542810000D01*
%TO.N,Net-(BT1--)*%
X125500000Y-556000000D02*
X126000000Y-555500000D01*
X125500000Y-556500000D02*
X125500000Y-556000000D01*
%TO.N,Net-(Led1-A)*%
X141000000Y-553000000D02*
X143500000Y-550500000D01*
X135165000Y-553000000D02*
X141000000Y-553000000D01*
%TO.N,Net-(U1-IO17)*%
X134165000Y-549500000D02*
X143500000Y-549500000D01*
%TO.N,Net-(Led1-A)*%
X160840000Y-549160000D02*
X160500000Y-549500000D01*
X163150000Y-549160000D02*
X160840000Y-549160000D01*
%TO.N,Net-(U1-IO17)*%
X160610000Y-547890000D02*
X160500000Y-548000000D01*
X163150000Y-547890000D02*
X160610000Y-547890000D01*
%TO.N,Net-(U1-IO19)*%
X159500000Y-547206200D02*
X159500000Y-555500000D01*
X162626200Y-544080000D02*
X159500000Y-547206200D01*
X163150000Y-544080000D02*
X162626200Y-544080000D01*
%TO.N,Net-(BZ1-+)*%
X162070000Y-550430000D02*
X160500000Y-552000000D01*
X163150000Y-550430000D02*
X162070000Y-550430000D01*
%TO.N,Net-(BT1--)*%
X181000000Y-546000000D02*
X181000000Y-565910000D01*
X181000000Y-565910000D02*
X184540000Y-569450000D01*
%TO.N,Net-(BT1-+)*%
X129150000Y-562500000D02*
X129150000Y-565150000D01*
X129150000Y-565150000D02*
X129500000Y-565500000D01*
%TO.N,Net-(U2-FB)*%
X129500000Y-566500001D02*
X129000000Y-566500001D01*
X127500000Y-564500000D02*
X127500000Y-565149999D01*
X127500000Y-565149999D02*
X128850002Y-566500001D01*
X128850002Y-566500001D02*
X129500000Y-566500001D01*
%TO.N,Net-(BT1-+)*%
X155000000Y-577000000D02*
X153938000Y-578062000D01*
X153938000Y-578062000D02*
X135562000Y-578062000D01*
X135562000Y-578062000D02*
X134500000Y-577000000D01*
X155000000Y-577000000D02*
X145975000Y-567975000D01*
X145975000Y-567975000D02*
X137975000Y-567975000D01*
%TO.N,Net-(BT1--)*%
X184540000Y-569450000D02*
X183240000Y-570750000D01*
X183240000Y-570750000D02*
X177770000Y-570750000D01*
X177770000Y-570750000D02*
X165510000Y-558490000D01*
X141050000Y-572550000D02*
X141050000Y-576450000D01*
X141050000Y-576450000D02*
X140500000Y-577000000D01*
X135460000Y-570000000D02*
X133960000Y-571500000D01*
X133960000Y-571500000D02*
X131650000Y-571500000D01*
X135460000Y-570000000D02*
X136000000Y-570000000D01*
X136000000Y-570000000D02*
X138550000Y-572550000D01*
X138550000Y-572550000D02*
X141050000Y-572550000D01*
X135000000Y-565999999D02*
X137000001Y-565999999D01*
X135460000Y-566960000D02*
X135460000Y-570000000D01*
X135000000Y-565999999D02*
X135000000Y-566500000D01*
X135000000Y-566500000D02*
X135460000Y-566960000D01*
X132520000Y-565999999D02*
X135000000Y-565999999D01*
X137000001Y-565999999D02*
X137975000Y-565025000D01*
X132520000Y-565999999D02*
X131974575Y-566000000D01*
X130045426Y-565999999D02*
X129500000Y-565999999D01*
X131974575Y-566000000D02*
X131633175Y-565658600D01*
X131633175Y-565658600D02*
X130386825Y-565658600D01*
X130386825Y-565658600D02*
X130045426Y-565999999D01*
X131500000Y-562000000D02*
X131500000Y-565525425D01*
X131500000Y-565525425D02*
X131974574Y-565999999D01*
X131974574Y-565999999D02*
X132520000Y-565999999D01*
X131500000Y-562000000D02*
X131000000Y-562000000D01*
X131000000Y-562000000D02*
X125500000Y-556500000D01*
%TO.N,Net-(J1-Pin_2)*%
X163150000Y-556780000D02*
X163150000Y-558050000D01*
X165500000Y-557520000D02*
X163890000Y-557520000D01*
X163890000Y-557520000D02*
X163150000Y-556780000D01*
X134450000Y-562000000D02*
X162916134Y-562000000D01*
X162916134Y-562000000D02*
X164890000Y-560026134D01*
X164890000Y-560026134D02*
X164890000Y-558130000D01*
X164890000Y-558130000D02*
X165500000Y-557520000D01*
%TO.N,Net-(J1-Pin_5)*%
X139000000Y-546500000D02*
X145500000Y-540000000D01*
X123000000Y-546500000D02*
X123500000Y-546500000D01*
X145500000Y-540000000D02*
X153998802Y-540000000D01*
X153998802Y-540000000D02*
X155035000Y-541036198D01*
X155035000Y-541036198D02*
X155035000Y-541559998D01*
%TO.N,Net-(BT1--)*%
X134525000Y-553000000D02*
X133525000Y-552000000D01*
X133525000Y-552000000D02*
X133525000Y-549500000D01*
%TD*%
M02*
