%TF.GenerationSoftware,KiCad,Pcbnew,10.0.6*%
%TF.CreationDate,2026-09-11T14:33:35+05:30*%
%TF.ProjectId,remote,72656d6f-7465-42e6-9b69-6361645f7063,rev?*%
%TF.SameCoordinates,Original*%
%TF.FileFunction,Soldermask,Top*%
%TF.FilePolarity,Negative*%
%FSLAX46Y46*%
G04 Gerber Fmt 4.6, Leading zero omitted, Abs format (unit mm)*
G04 Created by KiCad (PCBNEW 10.0.6) date 2026-09-11 14:33:35*
%MOMM*%
%LPD*%
G01*
G04 APERTURE LIST*
G04 Aperture macros list*
%AMRoundRect*
0 Rectangle with rounded corners*
0 $1 Rounding radius*
0 $2 $3 $4 $5 $6 $7 $8 $9 X,Y pos of 4 corners*
0 Add a 4 corners polygon primitive as box body*
4,1,4,$2,$3,$4,$5,$6,$7,$8,$9,$2,$3,0*
0 Add four circle primitives for the rounded corners*
1,1,$1+$1,$2,$3*
1,1,$1+$1,$4,$5*
1,1,$1+$1,$6,$7*
1,1,$1+$1,$8,$9*
0 Add four rect primitives between the rounded corners*
20,1,$1+$1,$2,$3,$4,$5,0*
20,1,$1+$1,$4,$5,$6,$7,0*
20,1,$1+$1,$6,$7,$8,$9,0*
20,1,$1+$1,$8,$9,$2,$3,0*%
G04 Aperture macros list end*
%ADD10C,0.000000*%
%ADD11RoundRect,0.250000X-0.725000X0.600000X-0.725000X-0.600000X0.725000X-0.600000X0.725000X0.600000X0*%
%ADD12O,1.950000X1.700000*%
%ADD13RoundRect,0.250000X0.725000X-0.600000X0.725000X0.600000X-0.725000X0.600000X-0.725000X-0.600000X0*%
%ADD14C,3.200000*%
%ADD15RoundRect,0.100000X-0.130000X-0.100000X0.130000X-0.100000X0.130000X0.100000X-0.130000X0.100000X0*%
%ADD16R,2.000000X2.000000*%
%ADD17C,2.000000*%
%ADD18RoundRect,0.140000X-0.140000X-0.170000X0.140000X-0.170000X0.140000X0.170000X-0.140000X0.170000X0*%
%ADD19RoundRect,0.750000X-0.750000X-0.750000X0.750000X-0.750000X0.750000X0.750000X-0.750000X0.750000X0*%
%ADD20C,3.000000*%
%ADD21R,1.524000X1.524000*%
%ADD22C,1.524000*%
%ADD23R,0.820000X0.280000*%
%ADD24C,0.508000*%
%ADD25R,1.498600X0.889000*%
%ADD26R,0.889000X1.498600*%
%ADD27R,0.889000X0.889000*%
%ADD28RoundRect,0.250000X-0.650000X0.325000X-0.650000X-0.325000X0.650000X-0.325000X0.650000X0.325000X0*%
%ADD29RoundRect,0.250000X-0.325000X-0.650000X0.325000X-0.650000X0.325000X0.650000X-0.325000X0.650000X0*%
%ADD30RoundRect,0.200000X-0.200000X-0.275000X0.200000X-0.275000X0.200000X0.275000X-0.200000X0.275000X0*%
%ADD31R,2.600000X8.200000*%
%ADD32RoundRect,0.140000X0.170000X-0.140000X0.170000X0.140000X-0.170000X0.140000X-0.170000X-0.140000X0*%
%ADD33RoundRect,0.112500X-0.112500X0.187500X-0.112500X-0.187500X0.112500X-0.187500X0.112500X0.187500X0*%
G04 APERTURE END LIST*
D10*
%TO.C,U2*%
G36*
X129910000Y-565640000D02*
G01*
X129090001Y-565640000D01*
X129090001Y-565360001D01*
X129910000Y-565360001D01*
X129910000Y-565640000D01*
G37*
G36*
X129910000Y-566139999D02*
G01*
X129090001Y-566139999D01*
X129090001Y-565860000D01*
X129910000Y-565860000D01*
X129910000Y-566139999D01*
G37*
G36*
X129910000Y-566640001D02*
G01*
X129090001Y-566640001D01*
X129090001Y-566360001D01*
X129910000Y-566360001D01*
X129910000Y-566640001D01*
G37*
G36*
X129910000Y-567140000D02*
G01*
X129090001Y-567140000D01*
X129090001Y-566860000D01*
X129910000Y-566860000D01*
X129910000Y-567140000D01*
G37*
G36*
X129910000Y-567640001D02*
G01*
X129090001Y-567640001D01*
X129090001Y-567359999D01*
X129910000Y-567359999D01*
X129910000Y-567640001D01*
G37*
G36*
X129910000Y-568140000D02*
G01*
X129090001Y-568140000D01*
X129090001Y-567860001D01*
X129910000Y-567860001D01*
X129910000Y-568140000D01*
G37*
G36*
X129910000Y-568639999D02*
G01*
X129090001Y-568639999D01*
X129090001Y-568360000D01*
X129910000Y-568360000D01*
X129910000Y-568639999D01*
G37*
G36*
X132929999Y-568639999D02*
G01*
X132110000Y-568639999D01*
X132110000Y-568360000D01*
X132929999Y-568360000D01*
X132929999Y-568639999D01*
G37*
G36*
X132929999Y-568140000D02*
G01*
X132110000Y-568140000D01*
X132110000Y-567860001D01*
X132929999Y-567860001D01*
X132929999Y-568140000D01*
G37*
G36*
X132929999Y-567639999D02*
G01*
X132110000Y-567639999D01*
X132110000Y-567359999D01*
X132929999Y-567359999D01*
X132929999Y-567639999D01*
G37*
G36*
X132929999Y-567140000D02*
G01*
X132110000Y-567140000D01*
X132110000Y-566860000D01*
X132929999Y-566860000D01*
X132929999Y-567140000D01*
G37*
G36*
X132929999Y-566640001D02*
G01*
X132110000Y-566640001D01*
X132110000Y-566359999D01*
X132929999Y-566359999D01*
X132929999Y-566640001D01*
G37*
G36*
X132929999Y-566139999D02*
G01*
X132110000Y-566139999D01*
X132110000Y-565860000D01*
X132929999Y-565860000D01*
X132929999Y-566139999D01*
G37*
G36*
X132929999Y-565640000D02*
G01*
X132110000Y-565640000D01*
X132110000Y-565360001D01*
X132929999Y-565360001D01*
X132929999Y-565640000D01*
G37*
G36*
X131001600Y-565676600D02*
G01*
X130568400Y-565676600D01*
X130568400Y-564923400D01*
X131001600Y-564923400D01*
X131001600Y-565676600D01*
G37*
G36*
X131451600Y-565676600D02*
G01*
X131018400Y-565676600D01*
X131018400Y-564923400D01*
X131451600Y-564923400D01*
X131451600Y-565676600D01*
G37*
G36*
X130551600Y-565676600D02*
G01*
X130118400Y-565676600D01*
X130118400Y-564923400D01*
X130551600Y-564923400D01*
X130551600Y-565676600D01*
G37*
G36*
X131901600Y-565676600D02*
G01*
X131468400Y-565676600D01*
X131468400Y-564923400D01*
X131901600Y-564923400D01*
X131901600Y-565676600D01*
G37*
G36*
X131001600Y-569076600D02*
G01*
X130568400Y-569076600D01*
X130568400Y-568323400D01*
X131001600Y-568323400D01*
X131001600Y-569076600D01*
G37*
G36*
X131451600Y-569076600D02*
G01*
X131018400Y-569076600D01*
X131018400Y-568323400D01*
X131451600Y-568323400D01*
X131451600Y-569076600D01*
G37*
G36*
X130551600Y-569076600D02*
G01*
X130118400Y-569076600D01*
X130118400Y-568323400D01*
X130551600Y-568323400D01*
X130551600Y-569076600D01*
G37*
G36*
X131901600Y-569076600D02*
G01*
X131468400Y-569076600D01*
X131468400Y-568323400D01*
X131901600Y-568323400D01*
X131901600Y-569076600D01*
G37*
G36*
X131863500Y-566012600D02*
G01*
X130156500Y-566012600D01*
X130156500Y-565511500D01*
X131863500Y-565511500D01*
X131863500Y-566012600D01*
G37*
G36*
X131863500Y-566800000D02*
G01*
X130156500Y-566800000D01*
X130156500Y-566412600D01*
X131863500Y-566412600D01*
X131863500Y-566800000D01*
G37*
G36*
X131863500Y-567587400D02*
G01*
X130156500Y-567587400D01*
X130156500Y-567200000D01*
X131863500Y-567200000D01*
X131863500Y-567587400D01*
G37*
G36*
X131863500Y-568488500D02*
G01*
X130156500Y-568488500D01*
X130156500Y-567987400D01*
X131863500Y-567987400D01*
X131863500Y-568488500D01*
G37*
G36*
X130416300Y-568488500D02*
G01*
X130156500Y-568488500D01*
X130156500Y-565511500D01*
X130416300Y-565511500D01*
X130416300Y-568488500D01*
G37*
G36*
X131203700Y-568488500D02*
G01*
X130816300Y-568488500D01*
X130816300Y-565511500D01*
X131203700Y-565511500D01*
X131203700Y-568488500D01*
G37*
G36*
X131863500Y-568488500D02*
G01*
X131603700Y-568488500D01*
X131603700Y-565511500D01*
X131863500Y-565511500D01*
X131863500Y-568488500D01*
G37*
%TD*%
D11*
%TO.C,J2*%
X192000000Y-542500000D03*
D12*
X192000000Y-545000000D03*
X192000000Y-547500000D03*
X192000000Y-550000000D03*
X192000000Y-552500000D03*
%TD*%
D13*
%TO.C,J1*%
X114000000Y-552000000D03*
D12*
X114000000Y-549500000D03*
X114000000Y-547000000D03*
X114000000Y-544500000D03*
X114000000Y-542000000D03*
%TD*%
D14*
%TO.C,H2*%
X117000000Y-560000000D03*
%TD*%
%TO.C,H1*%
X187000000Y-560000000D03*
%TD*%
D15*
%TO.C,led2*%
X134165000Y-549500000D03*
X133525000Y-549500000D03*
%TD*%
%TO.C,Led1*%
X135165000Y-553000000D03*
X134525000Y-553000000D03*
%TD*%
D16*
%TO.C,BZ1*%
X179460000Y-569450000D03*
D17*
X184540000Y-569450000D03*
%TD*%
D18*
%TO.C,ST2*%
X134500000Y-570000000D03*
X135460000Y-570000000D03*
%TD*%
%TO.C,BZR1*%
X126460000Y-556500000D03*
X125500000Y-556500000D03*
%TD*%
D19*
%TO.C,BT1*%
X155000000Y-577000000D03*
D20*
X160000000Y-577000000D03*
%TD*%
D21*
%TO.C,usb1*%
X134500000Y-577000000D03*
D22*
X136500000Y-577000000D03*
X138500000Y-577000000D03*
X140500000Y-577000000D03*
%TD*%
D23*
%TO.C,U2*%
X129500000Y-565500000D03*
X129500000Y-565999999D03*
X129500000Y-566500001D03*
X129500000Y-567000000D03*
X129500000Y-567500002D03*
X129500000Y-568000001D03*
X129500000Y-568500000D03*
X132520000Y-568500000D03*
X132520000Y-568000001D03*
X132520000Y-567499999D03*
X132520000Y-567000000D03*
X132520000Y-566499998D03*
X132520000Y-565999999D03*
X132520000Y-565500000D03*
D24*
X130616300Y-567787400D03*
X130616300Y-567000000D03*
X130616300Y-566212600D03*
X131403700Y-567787400D03*
X131403700Y-567000000D03*
X131403700Y-566212600D03*
%TD*%
D25*
%TO.C,U1*%
X163150000Y-559320000D03*
X163150000Y-558050000D03*
X163150000Y-556780000D03*
X163150000Y-555510000D03*
X163150000Y-554240000D03*
X163150000Y-552970000D03*
X163150000Y-551700000D03*
X163150000Y-550430000D03*
X163150000Y-549160000D03*
X163150000Y-547890000D03*
X163150000Y-546620000D03*
X163150000Y-545350000D03*
X163150000Y-544080000D03*
X163150000Y-542810000D03*
D26*
X161385000Y-541559998D03*
X160115000Y-541559998D03*
X158845000Y-541559998D03*
X157575000Y-541559998D03*
X156305000Y-541559998D03*
X155035000Y-541559998D03*
X153765000Y-541559998D03*
X152495000Y-541559998D03*
X151225000Y-541559998D03*
X149955000Y-541559998D03*
X148685000Y-541559998D03*
X147415000Y-541559998D03*
D25*
X145650000Y-542810000D03*
X145650000Y-544080000D03*
X145650000Y-545350000D03*
X145650000Y-546620000D03*
X145650000Y-547890000D03*
X145650000Y-549160000D03*
X145650000Y-550430000D03*
X145650000Y-551700000D03*
X145650000Y-552970000D03*
X145650000Y-554240000D03*
X145650000Y-555510000D03*
X145650000Y-556780000D03*
X145650000Y-558050000D03*
X145650000Y-559320000D03*
D27*
X157300000Y-553000000D03*
X157300000Y-551600000D03*
X157300000Y-550200000D03*
X155900000Y-550200000D03*
X154500000Y-550200000D03*
X154500000Y-551600000D03*
X154500000Y-553000000D03*
X155900000Y-553000000D03*
X155900000Y-551600000D03*
%TD*%
D28*
%TO.C,ST3*%
X137975000Y-565025000D03*
X137975000Y-567975000D03*
%TD*%
D29*
%TO.C,ST1*%
X131500000Y-562000000D03*
X134450000Y-562000000D03*
%TD*%
D30*
%TO.C,R2*%
X130000000Y-571500000D03*
X131650000Y-571500000D03*
%TD*%
%TO.C,R1*%
X127500000Y-562500000D03*
X129150000Y-562500000D03*
%TD*%
D31*
%TO.C,L1*%
X116000000Y-577000000D03*
X121600000Y-577000000D03*
%TD*%
D32*
%TO.C,EspR1*%
X165500000Y-558480000D03*
X165500000Y-557520000D03*
%TD*%
D33*
%TO.C,D1*%
X141050000Y-570450000D03*
X141050000Y-572550000D03*
%TD*%
M02*
