%TF.GenerationSoftware,KiCad,Pcbnew,10.0.6*%
%TF.CreationDate,2026-09-11T14:33:35+05:30*%
%TF.ProjectId,remote,72656d6f-7465-42e6-9b69-6361645f7063,rev?*%
%TF.SameCoordinates,Original*%
%TF.FileFunction,Legend,Top*%
%TF.FilePolarity,Positive*%
%FSLAX46Y46*%
G04 Gerber Fmt 4.6, Leading zero omitted, Abs format (unit mm)*
G04 Created by KiCad (PCBNEW 10.0.6) date 2026-09-11 14:33:35*
%MOMM*%
%LPD*%
G01*
G04 APERTURE LIST*
%ADD10C,0.150000*%
%ADD11C,0.120000*%
%ADD12C,0.100000*%
%ADD13C,0.000000*%
%ADD14C,0.152400*%
G04 APERTURE END LIST*
D10*
X194254819Y-547833333D02*
X194969104Y-547833333D01*
X194969104Y-547833333D02*
X195111961Y-547880952D01*
X195111961Y-547880952D02*
X195207200Y-547976190D01*
X195207200Y-547976190D02*
X195254819Y-548119047D01*
X195254819Y-548119047D02*
X195254819Y-548214285D01*
X194350057Y-547404761D02*
X194302438Y-547357142D01*
X194302438Y-547357142D02*
X194254819Y-547261904D01*
X194254819Y-547261904D02*
X194254819Y-547023809D01*
X194254819Y-547023809D02*
X194302438Y-546928571D01*
X194302438Y-546928571D02*
X194350057Y-546880952D01*
X194350057Y-546880952D02*
X194445295Y-546833333D01*
X194445295Y-546833333D02*
X194540533Y-546833333D01*
X194540533Y-546833333D02*
X194683390Y-546880952D01*
X194683390Y-546880952D02*
X195254819Y-547452380D01*
X195254819Y-547452380D02*
X195254819Y-546833333D01*
X110654819Y-547333333D02*
X111369104Y-547333333D01*
X111369104Y-547333333D02*
X111511961Y-547380952D01*
X111511961Y-547380952D02*
X111607200Y-547476190D01*
X111607200Y-547476190D02*
X111654819Y-547619047D01*
X111654819Y-547619047D02*
X111654819Y-547714285D01*
X111654819Y-546333333D02*
X111654819Y-546904761D01*
X111654819Y-546619047D02*
X110654819Y-546619047D01*
X110654819Y-546619047D02*
X110797676Y-546714285D01*
X110797676Y-546714285D02*
X110892914Y-546809523D01*
X110892914Y-546809523D02*
X110940533Y-546904761D01*
X116238095Y-556304819D02*
X116238095Y-555304819D01*
X116238095Y-555781009D02*
X116809523Y-555781009D01*
X116809523Y-556304819D02*
X116809523Y-555304819D01*
X117238095Y-555400057D02*
X117285714Y-555352438D01*
X117285714Y-555352438D02*
X117380952Y-555304819D01*
X117380952Y-555304819D02*
X117619047Y-555304819D01*
X117619047Y-555304819D02*
X117714285Y-555352438D01*
X117714285Y-555352438D02*
X117761904Y-555400057D01*
X117761904Y-555400057D02*
X117809523Y-555495295D01*
X117809523Y-555495295D02*
X117809523Y-555590533D01*
X117809523Y-555590533D02*
X117761904Y-555733390D01*
X117761904Y-555733390D02*
X117190476Y-556304819D01*
X117190476Y-556304819D02*
X117809523Y-556304819D01*
X186238095Y-556304819D02*
X186238095Y-555304819D01*
X186238095Y-555781009D02*
X186809523Y-555781009D01*
X186809523Y-556304819D02*
X186809523Y-555304819D01*
X187809523Y-556304819D02*
X187238095Y-556304819D01*
X187523809Y-556304819D02*
X187523809Y-555304819D01*
X187523809Y-555304819D02*
X187428571Y-555447676D01*
X187428571Y-555447676D02*
X187333333Y-555542914D01*
X187333333Y-555542914D02*
X187238095Y-555590533D01*
X132606904Y-548904819D02*
X132511666Y-548857200D01*
X132511666Y-548857200D02*
X132464047Y-548761961D01*
X132464047Y-548761961D02*
X132464047Y-547904819D01*
X133368809Y-548857200D02*
X133273571Y-548904819D01*
X133273571Y-548904819D02*
X133083095Y-548904819D01*
X133083095Y-548904819D02*
X132987857Y-548857200D01*
X132987857Y-548857200D02*
X132940238Y-548761961D01*
X132940238Y-548761961D02*
X132940238Y-548381009D01*
X132940238Y-548381009D02*
X132987857Y-548285771D01*
X132987857Y-548285771D02*
X133083095Y-548238152D01*
X133083095Y-548238152D02*
X133273571Y-548238152D01*
X133273571Y-548238152D02*
X133368809Y-548285771D01*
X133368809Y-548285771D02*
X133416428Y-548381009D01*
X133416428Y-548381009D02*
X133416428Y-548476247D01*
X133416428Y-548476247D02*
X132940238Y-548571485D01*
X134273571Y-548904819D02*
X134273571Y-547904819D01*
X134273571Y-548857200D02*
X134178333Y-548904819D01*
X134178333Y-548904819D02*
X133987857Y-548904819D01*
X133987857Y-548904819D02*
X133892619Y-548857200D01*
X133892619Y-548857200D02*
X133845000Y-548809580D01*
X133845000Y-548809580D02*
X133797381Y-548714342D01*
X133797381Y-548714342D02*
X133797381Y-548428628D01*
X133797381Y-548428628D02*
X133845000Y-548333390D01*
X133845000Y-548333390D02*
X133892619Y-548285771D01*
X133892619Y-548285771D02*
X133987857Y-548238152D01*
X133987857Y-548238152D02*
X134178333Y-548238152D01*
X134178333Y-548238152D02*
X134273571Y-548285771D01*
X134702143Y-548000057D02*
X134749762Y-547952438D01*
X134749762Y-547952438D02*
X134845000Y-547904819D01*
X134845000Y-547904819D02*
X135083095Y-547904819D01*
X135083095Y-547904819D02*
X135178333Y-547952438D01*
X135178333Y-547952438D02*
X135225952Y-548000057D01*
X135225952Y-548000057D02*
X135273571Y-548095295D01*
X135273571Y-548095295D02*
X135273571Y-548190533D01*
X135273571Y-548190533D02*
X135225952Y-548333390D01*
X135225952Y-548333390D02*
X134654524Y-548904819D01*
X134654524Y-548904819D02*
X135273571Y-548904819D01*
X133797380Y-552404819D02*
X133321190Y-552404819D01*
X133321190Y-552404819D02*
X133321190Y-551404819D01*
X134511666Y-552357200D02*
X134416428Y-552404819D01*
X134416428Y-552404819D02*
X134225952Y-552404819D01*
X134225952Y-552404819D02*
X134130714Y-552357200D01*
X134130714Y-552357200D02*
X134083095Y-552261961D01*
X134083095Y-552261961D02*
X134083095Y-551881009D01*
X134083095Y-551881009D02*
X134130714Y-551785771D01*
X134130714Y-551785771D02*
X134225952Y-551738152D01*
X134225952Y-551738152D02*
X134416428Y-551738152D01*
X134416428Y-551738152D02*
X134511666Y-551785771D01*
X134511666Y-551785771D02*
X134559285Y-551881009D01*
X134559285Y-551881009D02*
X134559285Y-551976247D01*
X134559285Y-551976247D02*
X134083095Y-552071485D01*
X135416428Y-552404819D02*
X135416428Y-551404819D01*
X135416428Y-552357200D02*
X135321190Y-552404819D01*
X135321190Y-552404819D02*
X135130714Y-552404819D01*
X135130714Y-552404819D02*
X135035476Y-552357200D01*
X135035476Y-552357200D02*
X134987857Y-552309580D01*
X134987857Y-552309580D02*
X134940238Y-552214342D01*
X134940238Y-552214342D02*
X134940238Y-551928628D01*
X134940238Y-551928628D02*
X134987857Y-551833390D01*
X134987857Y-551833390D02*
X135035476Y-551785771D01*
X135035476Y-551785771D02*
X135130714Y-551738152D01*
X135130714Y-551738152D02*
X135321190Y-551738152D01*
X135321190Y-551738152D02*
X135416428Y-551785771D01*
X136416428Y-552404819D02*
X135845000Y-552404819D01*
X136130714Y-552404819D02*
X136130714Y-551404819D01*
X136130714Y-551404819D02*
X136035476Y-551547676D01*
X136035476Y-551547676D02*
X135940238Y-551642914D01*
X135940238Y-551642914D02*
X135845000Y-551690533D01*
X181119047Y-565281009D02*
X181261904Y-565328628D01*
X181261904Y-565328628D02*
X181309523Y-565376247D01*
X181309523Y-565376247D02*
X181357142Y-565471485D01*
X181357142Y-565471485D02*
X181357142Y-565614342D01*
X181357142Y-565614342D02*
X181309523Y-565709580D01*
X181309523Y-565709580D02*
X181261904Y-565757200D01*
X181261904Y-565757200D02*
X181166666Y-565804819D01*
X181166666Y-565804819D02*
X180785714Y-565804819D01*
X180785714Y-565804819D02*
X180785714Y-564804819D01*
X180785714Y-564804819D02*
X181119047Y-564804819D01*
X181119047Y-564804819D02*
X181214285Y-564852438D01*
X181214285Y-564852438D02*
X181261904Y-564900057D01*
X181261904Y-564900057D02*
X181309523Y-564995295D01*
X181309523Y-564995295D02*
X181309523Y-565090533D01*
X181309523Y-565090533D02*
X181261904Y-565185771D01*
X181261904Y-565185771D02*
X181214285Y-565233390D01*
X181214285Y-565233390D02*
X181119047Y-565281009D01*
X181119047Y-565281009D02*
X180785714Y-565281009D01*
X181690476Y-564804819D02*
X182357142Y-564804819D01*
X182357142Y-564804819D02*
X181690476Y-565804819D01*
X181690476Y-565804819D02*
X182357142Y-565804819D01*
X183261904Y-565804819D02*
X182690476Y-565804819D01*
X182976190Y-565804819D02*
X182976190Y-564804819D01*
X182976190Y-564804819D02*
X182880952Y-564947676D01*
X182880952Y-564947676D02*
X182785714Y-565042914D01*
X182785714Y-565042914D02*
X182690476Y-565090533D01*
X133837143Y-569247200D02*
X133980000Y-569294819D01*
X133980000Y-569294819D02*
X134218095Y-569294819D01*
X134218095Y-569294819D02*
X134313333Y-569247200D01*
X134313333Y-569247200D02*
X134360952Y-569199580D01*
X134360952Y-569199580D02*
X134408571Y-569104342D01*
X134408571Y-569104342D02*
X134408571Y-569009104D01*
X134408571Y-569009104D02*
X134360952Y-568913866D01*
X134360952Y-568913866D02*
X134313333Y-568866247D01*
X134313333Y-568866247D02*
X134218095Y-568818628D01*
X134218095Y-568818628D02*
X134027619Y-568771009D01*
X134027619Y-568771009D02*
X133932381Y-568723390D01*
X133932381Y-568723390D02*
X133884762Y-568675771D01*
X133884762Y-568675771D02*
X133837143Y-568580533D01*
X133837143Y-568580533D02*
X133837143Y-568485295D01*
X133837143Y-568485295D02*
X133884762Y-568390057D01*
X133884762Y-568390057D02*
X133932381Y-568342438D01*
X133932381Y-568342438D02*
X134027619Y-568294819D01*
X134027619Y-568294819D02*
X134265714Y-568294819D01*
X134265714Y-568294819D02*
X134408571Y-568342438D01*
X134694286Y-568294819D02*
X135265714Y-568294819D01*
X134980000Y-569294819D02*
X134980000Y-568294819D01*
X135551429Y-568390057D02*
X135599048Y-568342438D01*
X135599048Y-568342438D02*
X135694286Y-568294819D01*
X135694286Y-568294819D02*
X135932381Y-568294819D01*
X135932381Y-568294819D02*
X136027619Y-568342438D01*
X136027619Y-568342438D02*
X136075238Y-568390057D01*
X136075238Y-568390057D02*
X136122857Y-568485295D01*
X136122857Y-568485295D02*
X136122857Y-568580533D01*
X136122857Y-568580533D02*
X136075238Y-568723390D01*
X136075238Y-568723390D02*
X135503810Y-569294819D01*
X135503810Y-569294819D02*
X136122857Y-569294819D01*
X124599047Y-555271009D02*
X124741904Y-555318628D01*
X124741904Y-555318628D02*
X124789523Y-555366247D01*
X124789523Y-555366247D02*
X124837142Y-555461485D01*
X124837142Y-555461485D02*
X124837142Y-555604342D01*
X124837142Y-555604342D02*
X124789523Y-555699580D01*
X124789523Y-555699580D02*
X124741904Y-555747200D01*
X124741904Y-555747200D02*
X124646666Y-555794819D01*
X124646666Y-555794819D02*
X124265714Y-555794819D01*
X124265714Y-555794819D02*
X124265714Y-554794819D01*
X124265714Y-554794819D02*
X124599047Y-554794819D01*
X124599047Y-554794819D02*
X124694285Y-554842438D01*
X124694285Y-554842438D02*
X124741904Y-554890057D01*
X124741904Y-554890057D02*
X124789523Y-554985295D01*
X124789523Y-554985295D02*
X124789523Y-555080533D01*
X124789523Y-555080533D02*
X124741904Y-555175771D01*
X124741904Y-555175771D02*
X124694285Y-555223390D01*
X124694285Y-555223390D02*
X124599047Y-555271009D01*
X124599047Y-555271009D02*
X124265714Y-555271009D01*
X125170476Y-554794819D02*
X125837142Y-554794819D01*
X125837142Y-554794819D02*
X125170476Y-555794819D01*
X125170476Y-555794819D02*
X125837142Y-555794819D01*
X126789523Y-555794819D02*
X126456190Y-555318628D01*
X126218095Y-555794819D02*
X126218095Y-554794819D01*
X126218095Y-554794819D02*
X126599047Y-554794819D01*
X126599047Y-554794819D02*
X126694285Y-554842438D01*
X126694285Y-554842438D02*
X126741904Y-554890057D01*
X126741904Y-554890057D02*
X126789523Y-554985295D01*
X126789523Y-554985295D02*
X126789523Y-555128152D01*
X126789523Y-555128152D02*
X126741904Y-555223390D01*
X126741904Y-555223390D02*
X126694285Y-555271009D01*
X126694285Y-555271009D02*
X126599047Y-555318628D01*
X126599047Y-555318628D02*
X126218095Y-555318628D01*
X127741904Y-555794819D02*
X127170476Y-555794819D01*
X127456190Y-555794819D02*
X127456190Y-554794819D01*
X127456190Y-554794819D02*
X127360952Y-554937676D01*
X127360952Y-554937676D02*
X127265714Y-555032914D01*
X127265714Y-555032914D02*
X127170476Y-555080533D01*
X156714285Y-572931009D02*
X156857142Y-572978628D01*
X156857142Y-572978628D02*
X156904761Y-573026247D01*
X156904761Y-573026247D02*
X156952380Y-573121485D01*
X156952380Y-573121485D02*
X156952380Y-573264342D01*
X156952380Y-573264342D02*
X156904761Y-573359580D01*
X156904761Y-573359580D02*
X156857142Y-573407200D01*
X156857142Y-573407200D02*
X156761904Y-573454819D01*
X156761904Y-573454819D02*
X156380952Y-573454819D01*
X156380952Y-573454819D02*
X156380952Y-572454819D01*
X156380952Y-572454819D02*
X156714285Y-572454819D01*
X156714285Y-572454819D02*
X156809523Y-572502438D01*
X156809523Y-572502438D02*
X156857142Y-572550057D01*
X156857142Y-572550057D02*
X156904761Y-572645295D01*
X156904761Y-572645295D02*
X156904761Y-572740533D01*
X156904761Y-572740533D02*
X156857142Y-572835771D01*
X156857142Y-572835771D02*
X156809523Y-572883390D01*
X156809523Y-572883390D02*
X156714285Y-572931009D01*
X156714285Y-572931009D02*
X156380952Y-572931009D01*
X157238095Y-572454819D02*
X157809523Y-572454819D01*
X157523809Y-573454819D02*
X157523809Y-572454819D01*
X158666666Y-573454819D02*
X158095238Y-573454819D01*
X158380952Y-573454819D02*
X158380952Y-572454819D01*
X158380952Y-572454819D02*
X158285714Y-572597676D01*
X158285714Y-572597676D02*
X158190476Y-572692914D01*
X158190476Y-572692914D02*
X158095238Y-572740533D01*
X150428571Y-577114700D02*
X151571429Y-577114700D01*
X163428571Y-577114700D02*
X164571429Y-577114700D01*
X164000000Y-577686128D02*
X164000000Y-576543271D01*
X130288152Y-579619047D02*
X130954819Y-579619047D01*
X130288152Y-580047618D02*
X130811961Y-580047618D01*
X130811961Y-580047618D02*
X130907200Y-579999999D01*
X130907200Y-579999999D02*
X130954819Y-579904761D01*
X130954819Y-579904761D02*
X130954819Y-579761904D01*
X130954819Y-579761904D02*
X130907200Y-579666666D01*
X130907200Y-579666666D02*
X130859580Y-579619047D01*
X130907200Y-579190475D02*
X130954819Y-579095237D01*
X130954819Y-579095237D02*
X130954819Y-578904761D01*
X130954819Y-578904761D02*
X130907200Y-578809523D01*
X130907200Y-578809523D02*
X130811961Y-578761904D01*
X130811961Y-578761904D02*
X130764342Y-578761904D01*
X130764342Y-578761904D02*
X130669104Y-578809523D01*
X130669104Y-578809523D02*
X130621485Y-578904761D01*
X130621485Y-578904761D02*
X130621485Y-579047618D01*
X130621485Y-579047618D02*
X130573866Y-579142856D01*
X130573866Y-579142856D02*
X130478628Y-579190475D01*
X130478628Y-579190475D02*
X130431009Y-579190475D01*
X130431009Y-579190475D02*
X130335771Y-579142856D01*
X130335771Y-579142856D02*
X130288152Y-579047618D01*
X130288152Y-579047618D02*
X130288152Y-578904761D01*
X130288152Y-578904761D02*
X130335771Y-578809523D01*
X130954819Y-578333332D02*
X129954819Y-578333332D01*
X130335771Y-578333332D02*
X130288152Y-578238094D01*
X130288152Y-578238094D02*
X130288152Y-578047618D01*
X130288152Y-578047618D02*
X130335771Y-577952380D01*
X130335771Y-577952380D02*
X130383390Y-577904761D01*
X130383390Y-577904761D02*
X130478628Y-577857142D01*
X130478628Y-577857142D02*
X130764342Y-577857142D01*
X130764342Y-577857142D02*
X130859580Y-577904761D01*
X130859580Y-577904761D02*
X130907200Y-577952380D01*
X130907200Y-577952380D02*
X130954819Y-578047618D01*
X130954819Y-578047618D02*
X130954819Y-578238094D01*
X130954819Y-578238094D02*
X130907200Y-578333332D01*
X130954819Y-576904761D02*
X130954819Y-577476189D01*
X130954819Y-577190475D02*
X129954819Y-577190475D01*
X129954819Y-577190475D02*
X130097676Y-577285713D01*
X130097676Y-577285713D02*
X130192914Y-577380951D01*
X130192914Y-577380951D02*
X130240533Y-577476189D01*
X130248095Y-566454819D02*
X130248095Y-567264342D01*
X130248095Y-567264342D02*
X130295714Y-567359580D01*
X130295714Y-567359580D02*
X130343333Y-567407200D01*
X130343333Y-567407200D02*
X130438571Y-567454819D01*
X130438571Y-567454819D02*
X130629047Y-567454819D01*
X130629047Y-567454819D02*
X130724285Y-567407200D01*
X130724285Y-567407200D02*
X130771904Y-567359580D01*
X130771904Y-567359580D02*
X130819523Y-567264342D01*
X130819523Y-567264342D02*
X130819523Y-566454819D01*
X131248095Y-566550057D02*
X131295714Y-566502438D01*
X131295714Y-566502438D02*
X131390952Y-566454819D01*
X131390952Y-566454819D02*
X131629047Y-566454819D01*
X131629047Y-566454819D02*
X131724285Y-566502438D01*
X131724285Y-566502438D02*
X131771904Y-566550057D01*
X131771904Y-566550057D02*
X131819523Y-566645295D01*
X131819523Y-566645295D02*
X131819523Y-566740533D01*
X131819523Y-566740533D02*
X131771904Y-566883390D01*
X131771904Y-566883390D02*
X131200476Y-567454819D01*
X131200476Y-567454819D02*
X131819523Y-567454819D01*
X129083001Y-563531820D02*
X129083001Y-563769915D01*
X128844906Y-563674677D02*
X129083001Y-563769915D01*
X129083001Y-563769915D02*
X129321096Y-563674677D01*
X128940144Y-563960391D02*
X129083001Y-563769915D01*
X129083001Y-563769915D02*
X129225858Y-563960391D01*
X129083001Y-563531820D02*
X129083001Y-563769915D01*
X128844906Y-563674677D02*
X129083001Y-563769915D01*
X129083001Y-563769915D02*
X129321096Y-563674677D01*
X128940144Y-563960391D02*
X129083001Y-563769915D01*
X129083001Y-563769915D02*
X129225858Y-563960391D01*
X155161904Y-551455180D02*
X155161904Y-550645657D01*
X155161904Y-550645657D02*
X155114285Y-550550419D01*
X155114285Y-550550419D02*
X155066666Y-550502800D01*
X155066666Y-550502800D02*
X154971428Y-550455180D01*
X154971428Y-550455180D02*
X154780952Y-550455180D01*
X154780952Y-550455180D02*
X154685714Y-550502800D01*
X154685714Y-550502800D02*
X154638095Y-550550419D01*
X154638095Y-550550419D02*
X154590476Y-550645657D01*
X154590476Y-550645657D02*
X154590476Y-551455180D01*
X153590476Y-550455180D02*
X154161904Y-550455180D01*
X153876190Y-550455180D02*
X153876190Y-551455180D01*
X153876190Y-551455180D02*
X153971428Y-551312323D01*
X153971428Y-551312323D02*
X154066666Y-551217085D01*
X154066666Y-551217085D02*
X154161904Y-551169466D01*
X164534300Y-558774819D02*
X164534300Y-559012914D01*
X164296205Y-558917676D02*
X164534300Y-559012914D01*
X164534300Y-559012914D02*
X164772395Y-558917676D01*
X164391443Y-559203390D02*
X164534300Y-559012914D01*
X164534300Y-559012914D02*
X164677157Y-559203390D01*
X164534299Y-559865180D02*
X164534299Y-559627085D01*
X164772394Y-559722323D02*
X164534299Y-559627085D01*
X164534299Y-559627085D02*
X164296204Y-559722323D01*
X164677156Y-559436609D02*
X164534299Y-559627085D01*
X164534299Y-559627085D02*
X164391442Y-559436609D01*
X140232200Y-567642856D02*
X140279819Y-567499999D01*
X140279819Y-567499999D02*
X140279819Y-567261904D01*
X140279819Y-567261904D02*
X140232200Y-567166666D01*
X140232200Y-567166666D02*
X140184580Y-567119047D01*
X140184580Y-567119047D02*
X140089342Y-567071428D01*
X140089342Y-567071428D02*
X139994104Y-567071428D01*
X139994104Y-567071428D02*
X139898866Y-567119047D01*
X139898866Y-567119047D02*
X139851247Y-567166666D01*
X139851247Y-567166666D02*
X139803628Y-567261904D01*
X139803628Y-567261904D02*
X139756009Y-567452380D01*
X139756009Y-567452380D02*
X139708390Y-567547618D01*
X139708390Y-567547618D02*
X139660771Y-567595237D01*
X139660771Y-567595237D02*
X139565533Y-567642856D01*
X139565533Y-567642856D02*
X139470295Y-567642856D01*
X139470295Y-567642856D02*
X139375057Y-567595237D01*
X139375057Y-567595237D02*
X139327438Y-567547618D01*
X139327438Y-567547618D02*
X139279819Y-567452380D01*
X139279819Y-567452380D02*
X139279819Y-567214285D01*
X139279819Y-567214285D02*
X139327438Y-567071428D01*
X139279819Y-566785713D02*
X139279819Y-566214285D01*
X140279819Y-566499999D02*
X139279819Y-566499999D01*
X139279819Y-565976189D02*
X139279819Y-565357142D01*
X139279819Y-565357142D02*
X139660771Y-565690475D01*
X139660771Y-565690475D02*
X139660771Y-565547618D01*
X139660771Y-565547618D02*
X139708390Y-565452380D01*
X139708390Y-565452380D02*
X139756009Y-565404761D01*
X139756009Y-565404761D02*
X139851247Y-565357142D01*
X139851247Y-565357142D02*
X140089342Y-565357142D01*
X140089342Y-565357142D02*
X140184580Y-565404761D01*
X140184580Y-565404761D02*
X140232200Y-565452380D01*
X140232200Y-565452380D02*
X140279819Y-565547618D01*
X140279819Y-565547618D02*
X140279819Y-565833332D01*
X140279819Y-565833332D02*
X140232200Y-565928570D01*
X140232200Y-565928570D02*
X140184580Y-565976189D01*
X131832143Y-560557200D02*
X131975000Y-560604819D01*
X131975000Y-560604819D02*
X132213095Y-560604819D01*
X132213095Y-560604819D02*
X132308333Y-560557200D01*
X132308333Y-560557200D02*
X132355952Y-560509580D01*
X132355952Y-560509580D02*
X132403571Y-560414342D01*
X132403571Y-560414342D02*
X132403571Y-560319104D01*
X132403571Y-560319104D02*
X132355952Y-560223866D01*
X132355952Y-560223866D02*
X132308333Y-560176247D01*
X132308333Y-560176247D02*
X132213095Y-560128628D01*
X132213095Y-560128628D02*
X132022619Y-560081009D01*
X132022619Y-560081009D02*
X131927381Y-560033390D01*
X131927381Y-560033390D02*
X131879762Y-559985771D01*
X131879762Y-559985771D02*
X131832143Y-559890533D01*
X131832143Y-559890533D02*
X131832143Y-559795295D01*
X131832143Y-559795295D02*
X131879762Y-559700057D01*
X131879762Y-559700057D02*
X131927381Y-559652438D01*
X131927381Y-559652438D02*
X132022619Y-559604819D01*
X132022619Y-559604819D02*
X132260714Y-559604819D01*
X132260714Y-559604819D02*
X132403571Y-559652438D01*
X132689286Y-559604819D02*
X133260714Y-559604819D01*
X132975000Y-560604819D02*
X132975000Y-559604819D01*
X134117857Y-560604819D02*
X133546429Y-560604819D01*
X133832143Y-560604819D02*
X133832143Y-559604819D01*
X133832143Y-559604819D02*
X133736905Y-559747676D01*
X133736905Y-559747676D02*
X133641667Y-559842914D01*
X133641667Y-559842914D02*
X133546429Y-559890533D01*
X130658333Y-570524819D02*
X130325000Y-570048628D01*
X130086905Y-570524819D02*
X130086905Y-569524819D01*
X130086905Y-569524819D02*
X130467857Y-569524819D01*
X130467857Y-569524819D02*
X130563095Y-569572438D01*
X130563095Y-569572438D02*
X130610714Y-569620057D01*
X130610714Y-569620057D02*
X130658333Y-569715295D01*
X130658333Y-569715295D02*
X130658333Y-569858152D01*
X130658333Y-569858152D02*
X130610714Y-569953390D01*
X130610714Y-569953390D02*
X130563095Y-570001009D01*
X130563095Y-570001009D02*
X130467857Y-570048628D01*
X130467857Y-570048628D02*
X130086905Y-570048628D01*
X131039286Y-569620057D02*
X131086905Y-569572438D01*
X131086905Y-569572438D02*
X131182143Y-569524819D01*
X131182143Y-569524819D02*
X131420238Y-569524819D01*
X131420238Y-569524819D02*
X131515476Y-569572438D01*
X131515476Y-569572438D02*
X131563095Y-569620057D01*
X131563095Y-569620057D02*
X131610714Y-569715295D01*
X131610714Y-569715295D02*
X131610714Y-569810533D01*
X131610714Y-569810533D02*
X131563095Y-569953390D01*
X131563095Y-569953390D02*
X130991667Y-570524819D01*
X130991667Y-570524819D02*
X131610714Y-570524819D01*
X128158333Y-561524819D02*
X127825000Y-561048628D01*
X127586905Y-561524819D02*
X127586905Y-560524819D01*
X127586905Y-560524819D02*
X127967857Y-560524819D01*
X127967857Y-560524819D02*
X128063095Y-560572438D01*
X128063095Y-560572438D02*
X128110714Y-560620057D01*
X128110714Y-560620057D02*
X128158333Y-560715295D01*
X128158333Y-560715295D02*
X128158333Y-560858152D01*
X128158333Y-560858152D02*
X128110714Y-560953390D01*
X128110714Y-560953390D02*
X128063095Y-561001009D01*
X128063095Y-561001009D02*
X127967857Y-561048628D01*
X127967857Y-561048628D02*
X127586905Y-561048628D01*
X129110714Y-561524819D02*
X128539286Y-561524819D01*
X128825000Y-561524819D02*
X128825000Y-560524819D01*
X128825000Y-560524819D02*
X128729762Y-560667676D01*
X128729762Y-560667676D02*
X128634524Y-560762914D01*
X128634524Y-560762914D02*
X128539286Y-560810533D01*
X118723333Y-572224819D02*
X118247143Y-572224819D01*
X118247143Y-572224819D02*
X118247143Y-571224819D01*
X119580476Y-572224819D02*
X119009048Y-572224819D01*
X119294762Y-572224819D02*
X119294762Y-571224819D01*
X119294762Y-571224819D02*
X119199524Y-571367676D01*
X119199524Y-571367676D02*
X119104286Y-571462914D01*
X119104286Y-571462914D02*
X119009048Y-571510533D01*
X164271009Y-560047618D02*
X164271009Y-559714285D01*
X164794819Y-559571428D02*
X164794819Y-560047618D01*
X164794819Y-560047618D02*
X163794819Y-560047618D01*
X163794819Y-560047618D02*
X163794819Y-559571428D01*
X164747200Y-559190475D02*
X164794819Y-559095237D01*
X164794819Y-559095237D02*
X164794819Y-558904761D01*
X164794819Y-558904761D02*
X164747200Y-558809523D01*
X164747200Y-558809523D02*
X164651961Y-558761904D01*
X164651961Y-558761904D02*
X164604342Y-558761904D01*
X164604342Y-558761904D02*
X164509104Y-558809523D01*
X164509104Y-558809523D02*
X164461485Y-558904761D01*
X164461485Y-558904761D02*
X164461485Y-559047618D01*
X164461485Y-559047618D02*
X164413866Y-559142856D01*
X164413866Y-559142856D02*
X164318628Y-559190475D01*
X164318628Y-559190475D02*
X164271009Y-559190475D01*
X164271009Y-559190475D02*
X164175771Y-559142856D01*
X164175771Y-559142856D02*
X164128152Y-559047618D01*
X164128152Y-559047618D02*
X164128152Y-558904761D01*
X164128152Y-558904761D02*
X164175771Y-558809523D01*
X164128152Y-558333332D02*
X165128152Y-558333332D01*
X164175771Y-558333332D02*
X164128152Y-558238094D01*
X164128152Y-558238094D02*
X164128152Y-558047618D01*
X164128152Y-558047618D02*
X164175771Y-557952380D01*
X164175771Y-557952380D02*
X164223390Y-557904761D01*
X164223390Y-557904761D02*
X164318628Y-557857142D01*
X164318628Y-557857142D02*
X164604342Y-557857142D01*
X164604342Y-557857142D02*
X164699580Y-557904761D01*
X164699580Y-557904761D02*
X164747200Y-557952380D01*
X164747200Y-557952380D02*
X164794819Y-558047618D01*
X164794819Y-558047618D02*
X164794819Y-558238094D01*
X164794819Y-558238094D02*
X164747200Y-558333332D01*
X164794819Y-556857142D02*
X164318628Y-557190475D01*
X164794819Y-557428570D02*
X163794819Y-557428570D01*
X163794819Y-557428570D02*
X163794819Y-557047618D01*
X163794819Y-557047618D02*
X163842438Y-556952380D01*
X163842438Y-556952380D02*
X163890057Y-556904761D01*
X163890057Y-556904761D02*
X163985295Y-556857142D01*
X163985295Y-556857142D02*
X164128152Y-556857142D01*
X164128152Y-556857142D02*
X164223390Y-556904761D01*
X164223390Y-556904761D02*
X164271009Y-556952380D01*
X164271009Y-556952380D02*
X164318628Y-557047618D01*
X164318628Y-557047618D02*
X164318628Y-557428570D01*
X164794819Y-555904761D02*
X164794819Y-556476189D01*
X164794819Y-556190475D02*
X163794819Y-556190475D01*
X163794819Y-556190475D02*
X163937676Y-556285713D01*
X163937676Y-556285713D02*
X164032914Y-556380951D01*
X164032914Y-556380951D02*
X164080533Y-556476189D01*
X143354819Y-572238094D02*
X142354819Y-572238094D01*
X142354819Y-572238094D02*
X142354819Y-571999999D01*
X142354819Y-571999999D02*
X142402438Y-571857142D01*
X142402438Y-571857142D02*
X142497676Y-571761904D01*
X142497676Y-571761904D02*
X142592914Y-571714285D01*
X142592914Y-571714285D02*
X142783390Y-571666666D01*
X142783390Y-571666666D02*
X142926247Y-571666666D01*
X142926247Y-571666666D02*
X143116723Y-571714285D01*
X143116723Y-571714285D02*
X143211961Y-571761904D01*
X143211961Y-571761904D02*
X143307200Y-571857142D01*
X143307200Y-571857142D02*
X143354819Y-571999999D01*
X143354819Y-571999999D02*
X143354819Y-572238094D01*
X143354819Y-570714285D02*
X143354819Y-571285713D01*
X143354819Y-570999999D02*
X142354819Y-570999999D01*
X142354819Y-570999999D02*
X142497676Y-571095237D01*
X142497676Y-571095237D02*
X142592914Y-571190475D01*
X142592914Y-571190475D02*
X142640533Y-571285713D01*
%TO.C,J2*%
D11*
X191890000Y-539590000D02*
X189390000Y-539590000D01*
X189390000Y-539590000D02*
X189390000Y-542090000D01*
X192000000Y-539890000D02*
X192000000Y-540390000D01*
X191190000Y-539890000D02*
X191190000Y-540890000D01*
X193210000Y-540390000D02*
X193210000Y-554610000D01*
X192000000Y-540390000D02*
X193210000Y-540390000D01*
X191190000Y-540890000D02*
X189690000Y-540890000D01*
X191190000Y-554110000D02*
X189690000Y-554110000D01*
X193210000Y-554610000D02*
X192000000Y-554610000D01*
X192000000Y-554610000D02*
X192000000Y-555110000D01*
X191190000Y-555110000D02*
X191190000Y-554110000D01*
X189690000Y-539890000D02*
X193710000Y-539890000D01*
X193710000Y-555110000D01*
X189690000Y-555110000D01*
X189690000Y-539890000D01*
%TO.C,J1*%
X114110000Y-554910000D02*
X116610000Y-554910000D01*
X116610000Y-554910000D02*
X116610000Y-552410000D01*
X114000000Y-554610000D02*
X114000000Y-554110000D01*
X114810000Y-554610000D02*
X114810000Y-553610000D01*
X112790000Y-554110000D02*
X112790000Y-539890000D01*
X114000000Y-554110000D02*
X112790000Y-554110000D01*
X114810000Y-553610000D02*
X116310000Y-553610000D01*
X114810000Y-540390000D02*
X116310000Y-540390000D01*
X112790000Y-539890000D02*
X114000000Y-539890000D01*
X114000000Y-539890000D02*
X114000000Y-539390000D01*
X114810000Y-539390000D02*
X114810000Y-540390000D01*
X112290000Y-539390000D02*
X116310000Y-539390000D01*
X116310000Y-554610000D01*
X112290000Y-554610000D01*
X112290000Y-539390000D01*
%TO.C,led2*%
D12*
X133035000Y-549500000D02*
G75*
G02*
X132935000Y-549500000I-50000J0D01*
G01*
X132935000Y-549500000D02*
G75*
G02*
X133035000Y-549500000I50000J0D01*
G01*
%TO.C,Led1*%
X134035000Y-553000000D02*
G75*
G02*
X133935000Y-553000000I-50000J0D01*
G01*
X133935000Y-553000000D02*
G75*
G02*
X134035000Y-553000000I50000J0D01*
G01*
%TO.C,BZ1*%
D11*
X176890000Y-566190000D02*
X187110000Y-566190000D01*
X176890000Y-567570000D02*
X187110000Y-567570000D01*
X176890000Y-570810000D02*
X176890000Y-566190000D01*
X180150000Y-566190000D02*
X180150000Y-567570000D01*
X183850000Y-566190000D02*
X183850000Y-567570000D01*
X187110000Y-566190000D02*
X187110000Y-570810000D01*
X187110000Y-570810000D02*
X176890000Y-570810000D01*
%TO.C,ST2*%
X134872164Y-569640000D02*
X135087836Y-569640000D01*
X134872164Y-570360000D02*
X135087836Y-570360000D01*
%TO.C,BZR1*%
X125872164Y-556860000D02*
X126087836Y-556860000D01*
X125872164Y-556140000D02*
X126087836Y-556140000D01*
%TO.C,BT1*%
X152290000Y-575590000D02*
X152290000Y-578410000D01*
X152290000Y-575590000D02*
X153990000Y-574290000D01*
X152290000Y-578410000D02*
X153990000Y-579710000D01*
X153990000Y-574290000D02*
X162710000Y-574290000D01*
X153990000Y-579710000D02*
X162710000Y-579710000D01*
X162710000Y-574290000D02*
X162710000Y-579710000D01*
%TO.C,usb1*%
X132000000Y-580300000D02*
X134650000Y-580300000D01*
X132000000Y-580300000D02*
X132000000Y-574450000D01*
X134900000Y-580300000D02*
X135500000Y-580300000D01*
X135750000Y-580300000D02*
X139250000Y-580300000D01*
X139500000Y-580300000D02*
X140100000Y-580300000D01*
X140400000Y-580300000D02*
X143050000Y-580300000D01*
X143050000Y-580300000D02*
X143050000Y-574450000D01*
X131500000Y-577000000D02*
X131500000Y-574000000D01*
X132000000Y-574450000D02*
X143050000Y-574450000D01*
X131500000Y-574000000D02*
X134500000Y-574000000D01*
D13*
%TO.C,U2*%
G36*
X133600998Y-567690499D02*
G01*
X133346998Y-567690499D01*
X133346998Y-567309499D01*
X133600998Y-567309499D01*
X133600998Y-567690499D01*
G37*
D14*
X129435001Y-569075000D02*
X129899980Y-569075000D01*
X132584999Y-564925000D02*
X132120020Y-564925000D01*
X129899980Y-564925000D02*
X129435001Y-564925000D01*
X132120020Y-569075000D02*
X132584999Y-569075000D01*
%TO.C,U1*%
X145268700Y-541181800D02*
X145268700Y-542032760D01*
X145268700Y-560638200D02*
X163531300Y-560638200D01*
X163531300Y-560638200D02*
X163531300Y-560097240D01*
X163531300Y-541181800D02*
X162162240Y-541181800D01*
X163531300Y-542032760D02*
X163531300Y-541181800D01*
X146637760Y-541181800D02*
X145268700Y-541181800D01*
X145268700Y-560097240D02*
X145268700Y-560638200D01*
%TO.C,ST3*%
D11*
X138885000Y-565788748D02*
X138885000Y-567211252D01*
X137065000Y-565788748D02*
X137065000Y-567211252D01*
%TO.C,ST1*%
X132263748Y-561090000D02*
X133686252Y-561090000D01*
X132263748Y-562910000D02*
X133686252Y-562910000D01*
%TO.C,R2*%
X130587742Y-570977500D02*
X131062258Y-570977500D01*
X130587742Y-572022500D02*
X131062258Y-572022500D01*
%TO.C,R1*%
X128087742Y-561977500D02*
X128562258Y-561977500D01*
X128087742Y-563022500D02*
X128562258Y-563022500D01*
%TO.C,L1*%
X117550000Y-581200000D02*
X120050000Y-581200000D01*
X120050000Y-572800000D02*
X117550000Y-572800000D01*
%TO.C,EspR1*%
X165140000Y-558107836D02*
X165140000Y-557892164D01*
X165860000Y-558107836D02*
X165860000Y-557892164D01*
%TO.C,D1*%
X141900000Y-569890000D02*
X140200000Y-569890000D01*
X141900000Y-569890000D02*
X141900000Y-572550000D01*
X140200000Y-569890000D02*
X140200000Y-572550000D01*
%TD*%
M02*
