%TF.GenerationSoftware,KiCad,Pcbnew,10.0.6*%
%TF.CreationDate,2026-09-23T13:14:43+05:30*%
%TF.ProjectId,remote,72656d6f-7465-42e6-9b69-6361645f7063,rev?*%
%TF.SameCoordinates,Original*%
%TF.FileFunction,Legend,Top*%
%TF.FilePolarity,Positive*%
%FSLAX46Y46*%
G04 Gerber Fmt 4.6, Leading zero omitted, Abs format (unit mm)*
G04 Created by KiCad (PCBNEW 10.0.6) date 2026-09-23 13:14:43*
%MOMM*%
%LPD*%
G01*
G04 APERTURE LIST*
%ADD10C,0.150000*%
%ADD11C,0.120000*%
%ADD12C,0.152400*%
%ADD13C,0.000000*%
%ADD14C,0.250000*%
%ADD15C,0.060000*%
G04 APERTURE END LIST*
D10*
X922238095Y-611954819D02*
X922238095Y-610954819D01*
X922238095Y-611431009D02*
X922809523Y-611431009D01*
X922809523Y-611954819D02*
X922809523Y-610954819D01*
X923238095Y-611050057D02*
X923285714Y-611002438D01*
X923285714Y-611002438D02*
X923380952Y-610954819D01*
X923380952Y-610954819D02*
X923619047Y-610954819D01*
X923619047Y-610954819D02*
X923714285Y-611002438D01*
X923714285Y-611002438D02*
X923761904Y-611050057D01*
X923761904Y-611050057D02*
X923809523Y-611145295D01*
X923809523Y-611145295D02*
X923809523Y-611240533D01*
X923809523Y-611240533D02*
X923761904Y-611383390D01*
X923761904Y-611383390D02*
X923190476Y-611954819D01*
X923190476Y-611954819D02*
X923809523Y-611954819D01*
X843238095Y-635454819D02*
X843238095Y-634454819D01*
X843238095Y-634931009D02*
X843809523Y-634931009D01*
X843809523Y-635454819D02*
X843809523Y-634454819D01*
X844190476Y-634454819D02*
X844809523Y-634454819D01*
X844809523Y-634454819D02*
X844476190Y-634835771D01*
X844476190Y-634835771D02*
X844619047Y-634835771D01*
X844619047Y-634835771D02*
X844714285Y-634883390D01*
X844714285Y-634883390D02*
X844761904Y-634931009D01*
X844761904Y-634931009D02*
X844809523Y-635026247D01*
X844809523Y-635026247D02*
X844809523Y-635264342D01*
X844809523Y-635264342D02*
X844761904Y-635359580D01*
X844761904Y-635359580D02*
X844714285Y-635407200D01*
X844714285Y-635407200D02*
X844619047Y-635454819D01*
X844619047Y-635454819D02*
X844333333Y-635454819D01*
X844333333Y-635454819D02*
X844238095Y-635407200D01*
X844238095Y-635407200D02*
X844190476Y-635359580D01*
X896524819Y-625491666D02*
X896048628Y-625824999D01*
X896524819Y-626063094D02*
X895524819Y-626063094D01*
X895524819Y-626063094D02*
X895524819Y-625682142D01*
X895524819Y-625682142D02*
X895572438Y-625586904D01*
X895572438Y-625586904D02*
X895620057Y-625539285D01*
X895620057Y-625539285D02*
X895715295Y-625491666D01*
X895715295Y-625491666D02*
X895858152Y-625491666D01*
X895858152Y-625491666D02*
X895953390Y-625539285D01*
X895953390Y-625539285D02*
X896001009Y-625586904D01*
X896001009Y-625586904D02*
X896048628Y-625682142D01*
X896048628Y-625682142D02*
X896048628Y-626063094D01*
X895524819Y-624634523D02*
X895524819Y-624824999D01*
X895524819Y-624824999D02*
X895572438Y-624920237D01*
X895572438Y-624920237D02*
X895620057Y-624967856D01*
X895620057Y-624967856D02*
X895762914Y-625063094D01*
X895762914Y-625063094D02*
X895953390Y-625110713D01*
X895953390Y-625110713D02*
X896334342Y-625110713D01*
X896334342Y-625110713D02*
X896429580Y-625063094D01*
X896429580Y-625063094D02*
X896477200Y-625015475D01*
X896477200Y-625015475D02*
X896524819Y-624920237D01*
X896524819Y-624920237D02*
X896524819Y-624729761D01*
X896524819Y-624729761D02*
X896477200Y-624634523D01*
X896477200Y-624634523D02*
X896429580Y-624586904D01*
X896429580Y-624586904D02*
X896334342Y-624539285D01*
X896334342Y-624539285D02*
X896096247Y-624539285D01*
X896096247Y-624539285D02*
X896001009Y-624586904D01*
X896001009Y-624586904D02*
X895953390Y-624634523D01*
X895953390Y-624634523D02*
X895905771Y-624729761D01*
X895905771Y-624729761D02*
X895905771Y-624920237D01*
X895905771Y-624920237D02*
X895953390Y-625015475D01*
X895953390Y-625015475D02*
X896001009Y-625063094D01*
X896001009Y-625063094D02*
X896096247Y-625110713D01*
X886988095Y-613474819D02*
X886988095Y-614284342D01*
X886988095Y-614284342D02*
X887035714Y-614379580D01*
X887035714Y-614379580D02*
X887083333Y-614427200D01*
X887083333Y-614427200D02*
X887178571Y-614474819D01*
X887178571Y-614474819D02*
X887369047Y-614474819D01*
X887369047Y-614474819D02*
X887464285Y-614427200D01*
X887464285Y-614427200D02*
X887511904Y-614379580D01*
X887511904Y-614379580D02*
X887559523Y-614284342D01*
X887559523Y-614284342D02*
X887559523Y-613474819D01*
X888559523Y-614474819D02*
X887988095Y-614474819D01*
X888273809Y-614474819D02*
X888273809Y-613474819D01*
X888273809Y-613474819D02*
X888178571Y-613617676D01*
X888178571Y-613617676D02*
X888083333Y-613712914D01*
X888083333Y-613712914D02*
X887988095Y-613760533D01*
X877615700Y-605064819D02*
X877615700Y-605302914D01*
X877377605Y-605207676D02*
X877615700Y-605302914D01*
X877615700Y-605302914D02*
X877853795Y-605207676D01*
X877472843Y-605493390D02*
X877615700Y-605302914D01*
X877615700Y-605302914D02*
X877758557Y-605493390D01*
X877615700Y-605064819D02*
X877615700Y-605302914D01*
X877377605Y-605207676D02*
X877615700Y-605302914D01*
X877615700Y-605302914D02*
X877853795Y-605207676D01*
X877472843Y-605493390D02*
X877615700Y-605302914D01*
X877615700Y-605302914D02*
X877758557Y-605493390D01*
X867661905Y-608124819D02*
X867661905Y-607124819D01*
X867661905Y-607124819D02*
X867900000Y-607124819D01*
X867900000Y-607124819D02*
X868042857Y-607172438D01*
X868042857Y-607172438D02*
X868138095Y-607267676D01*
X868138095Y-607267676D02*
X868185714Y-607362914D01*
X868185714Y-607362914D02*
X868233333Y-607553390D01*
X868233333Y-607553390D02*
X868233333Y-607696247D01*
X868233333Y-607696247D02*
X868185714Y-607886723D01*
X868185714Y-607886723D02*
X868138095Y-607981961D01*
X868138095Y-607981961D02*
X868042857Y-608077200D01*
X868042857Y-608077200D02*
X867900000Y-608124819D01*
X867900000Y-608124819D02*
X867661905Y-608124819D01*
X868614286Y-607220057D02*
X868661905Y-607172438D01*
X868661905Y-607172438D02*
X868757143Y-607124819D01*
X868757143Y-607124819D02*
X868995238Y-607124819D01*
X868995238Y-607124819D02*
X869090476Y-607172438D01*
X869090476Y-607172438D02*
X869138095Y-607220057D01*
X869138095Y-607220057D02*
X869185714Y-607315295D01*
X869185714Y-607315295D02*
X869185714Y-607410533D01*
X869185714Y-607410533D02*
X869138095Y-607553390D01*
X869138095Y-607553390D02*
X868566667Y-608124819D01*
X868566667Y-608124819D02*
X869185714Y-608124819D01*
X879357142Y-632024819D02*
X879023809Y-631548628D01*
X878785714Y-632024819D02*
X878785714Y-631024819D01*
X878785714Y-631024819D02*
X879166666Y-631024819D01*
X879166666Y-631024819D02*
X879261904Y-631072438D01*
X879261904Y-631072438D02*
X879309523Y-631120057D01*
X879309523Y-631120057D02*
X879357142Y-631215295D01*
X879357142Y-631215295D02*
X879357142Y-631358152D01*
X879357142Y-631358152D02*
X879309523Y-631453390D01*
X879309523Y-631453390D02*
X879261904Y-631501009D01*
X879261904Y-631501009D02*
X879166666Y-631548628D01*
X879166666Y-631548628D02*
X878785714Y-631548628D01*
X880309523Y-632024819D02*
X879738095Y-632024819D01*
X880023809Y-632024819D02*
X880023809Y-631024819D01*
X880023809Y-631024819D02*
X879928571Y-631167676D01*
X879928571Y-631167676D02*
X879833333Y-631262914D01*
X879833333Y-631262914D02*
X879738095Y-631310533D01*
X880928571Y-631024819D02*
X881023809Y-631024819D01*
X881023809Y-631024819D02*
X881119047Y-631072438D01*
X881119047Y-631072438D02*
X881166666Y-631120057D01*
X881166666Y-631120057D02*
X881214285Y-631215295D01*
X881214285Y-631215295D02*
X881261904Y-631405771D01*
X881261904Y-631405771D02*
X881261904Y-631643866D01*
X881261904Y-631643866D02*
X881214285Y-631834342D01*
X881214285Y-631834342D02*
X881166666Y-631929580D01*
X881166666Y-631929580D02*
X881119047Y-631977200D01*
X881119047Y-631977200D02*
X881023809Y-632024819D01*
X881023809Y-632024819D02*
X880928571Y-632024819D01*
X880928571Y-632024819D02*
X880833333Y-631977200D01*
X880833333Y-631977200D02*
X880785714Y-631929580D01*
X880785714Y-631929580D02*
X880738095Y-631834342D01*
X880738095Y-631834342D02*
X880690476Y-631643866D01*
X880690476Y-631643866D02*
X880690476Y-631405771D01*
X880690476Y-631405771D02*
X880738095Y-631215295D01*
X880738095Y-631215295D02*
X880785714Y-631120057D01*
X880785714Y-631120057D02*
X880833333Y-631072438D01*
X880833333Y-631072438D02*
X880928571Y-631024819D01*
X879261905Y-636954819D02*
X879261905Y-635954819D01*
X879261905Y-635954819D02*
X879500000Y-635954819D01*
X879500000Y-635954819D02*
X879642857Y-636002438D01*
X879642857Y-636002438D02*
X879738095Y-636097676D01*
X879738095Y-636097676D02*
X879785714Y-636192914D01*
X879785714Y-636192914D02*
X879833333Y-636383390D01*
X879833333Y-636383390D02*
X879833333Y-636526247D01*
X879833333Y-636526247D02*
X879785714Y-636716723D01*
X879785714Y-636716723D02*
X879738095Y-636811961D01*
X879738095Y-636811961D02*
X879642857Y-636907200D01*
X879642857Y-636907200D02*
X879500000Y-636954819D01*
X879500000Y-636954819D02*
X879261905Y-636954819D01*
X880166667Y-635954819D02*
X880785714Y-635954819D01*
X880785714Y-635954819D02*
X880452381Y-636335771D01*
X880452381Y-636335771D02*
X880595238Y-636335771D01*
X880595238Y-636335771D02*
X880690476Y-636383390D01*
X880690476Y-636383390D02*
X880738095Y-636431009D01*
X880738095Y-636431009D02*
X880785714Y-636526247D01*
X880785714Y-636526247D02*
X880785714Y-636764342D01*
X880785714Y-636764342D02*
X880738095Y-636859580D01*
X880738095Y-636859580D02*
X880690476Y-636907200D01*
X880690476Y-636907200D02*
X880595238Y-636954819D01*
X880595238Y-636954819D02*
X880309524Y-636954819D01*
X880309524Y-636954819D02*
X880214286Y-636907200D01*
X880214286Y-636907200D02*
X880166667Y-636859580D01*
X849666666Y-608414819D02*
X849666666Y-609129104D01*
X849666666Y-609129104D02*
X849619047Y-609271961D01*
X849619047Y-609271961D02*
X849523809Y-609367200D01*
X849523809Y-609367200D02*
X849380952Y-609414819D01*
X849380952Y-609414819D02*
X849285714Y-609414819D01*
X850666666Y-609414819D02*
X850095238Y-609414819D01*
X850380952Y-609414819D02*
X850380952Y-608414819D01*
X850380952Y-608414819D02*
X850285714Y-608557676D01*
X850285714Y-608557676D02*
X850190476Y-608652914D01*
X850190476Y-608652914D02*
X850095238Y-608700533D01*
X868833333Y-613954819D02*
X868500000Y-613478628D01*
X868261905Y-613954819D02*
X868261905Y-612954819D01*
X868261905Y-612954819D02*
X868642857Y-612954819D01*
X868642857Y-612954819D02*
X868738095Y-613002438D01*
X868738095Y-613002438D02*
X868785714Y-613050057D01*
X868785714Y-613050057D02*
X868833333Y-613145295D01*
X868833333Y-613145295D02*
X868833333Y-613288152D01*
X868833333Y-613288152D02*
X868785714Y-613383390D01*
X868785714Y-613383390D02*
X868738095Y-613431009D01*
X868738095Y-613431009D02*
X868642857Y-613478628D01*
X868642857Y-613478628D02*
X868261905Y-613478628D01*
X869309524Y-613954819D02*
X869500000Y-613954819D01*
X869500000Y-613954819D02*
X869595238Y-613907200D01*
X869595238Y-613907200D02*
X869642857Y-613859580D01*
X869642857Y-613859580D02*
X869738095Y-613716723D01*
X869738095Y-613716723D02*
X869785714Y-613526247D01*
X869785714Y-613526247D02*
X869785714Y-613145295D01*
X869785714Y-613145295D02*
X869738095Y-613050057D01*
X869738095Y-613050057D02*
X869690476Y-613002438D01*
X869690476Y-613002438D02*
X869595238Y-612954819D01*
X869595238Y-612954819D02*
X869404762Y-612954819D01*
X869404762Y-612954819D02*
X869309524Y-613002438D01*
X869309524Y-613002438D02*
X869261905Y-613050057D01*
X869261905Y-613050057D02*
X869214286Y-613145295D01*
X869214286Y-613145295D02*
X869214286Y-613383390D01*
X869214286Y-613383390D02*
X869261905Y-613478628D01*
X869261905Y-613478628D02*
X869309524Y-613526247D01*
X869309524Y-613526247D02*
X869404762Y-613573866D01*
X869404762Y-613573866D02*
X869595238Y-613573866D01*
X869595238Y-613573866D02*
X869690476Y-613526247D01*
X869690476Y-613526247D02*
X869738095Y-613478628D01*
X869738095Y-613478628D02*
X869785714Y-613383390D01*
X873859580Y-607142857D02*
X873907200Y-607190476D01*
X873907200Y-607190476D02*
X873954819Y-607333333D01*
X873954819Y-607333333D02*
X873954819Y-607428571D01*
X873954819Y-607428571D02*
X873907200Y-607571428D01*
X873907200Y-607571428D02*
X873811961Y-607666666D01*
X873811961Y-607666666D02*
X873716723Y-607714285D01*
X873716723Y-607714285D02*
X873526247Y-607761904D01*
X873526247Y-607761904D02*
X873383390Y-607761904D01*
X873383390Y-607761904D02*
X873192914Y-607714285D01*
X873192914Y-607714285D02*
X873097676Y-607666666D01*
X873097676Y-607666666D02*
X873002438Y-607571428D01*
X873002438Y-607571428D02*
X872954819Y-607428571D01*
X872954819Y-607428571D02*
X872954819Y-607333333D01*
X872954819Y-607333333D02*
X873002438Y-607190476D01*
X873002438Y-607190476D02*
X873050057Y-607142857D01*
X873954819Y-606190476D02*
X873954819Y-606761904D01*
X873954819Y-606476190D02*
X872954819Y-606476190D01*
X872954819Y-606476190D02*
X873097676Y-606571428D01*
X873097676Y-606571428D02*
X873192914Y-606666666D01*
X873192914Y-606666666D02*
X873240533Y-606761904D01*
X873383390Y-605619047D02*
X873335771Y-605714285D01*
X873335771Y-605714285D02*
X873288152Y-605761904D01*
X873288152Y-605761904D02*
X873192914Y-605809523D01*
X873192914Y-605809523D02*
X873145295Y-605809523D01*
X873145295Y-605809523D02*
X873050057Y-605761904D01*
X873050057Y-605761904D02*
X873002438Y-605714285D01*
X873002438Y-605714285D02*
X872954819Y-605619047D01*
X872954819Y-605619047D02*
X872954819Y-605428571D01*
X872954819Y-605428571D02*
X873002438Y-605333333D01*
X873002438Y-605333333D02*
X873050057Y-605285714D01*
X873050057Y-605285714D02*
X873145295Y-605238095D01*
X873145295Y-605238095D02*
X873192914Y-605238095D01*
X873192914Y-605238095D02*
X873288152Y-605285714D01*
X873288152Y-605285714D02*
X873335771Y-605333333D01*
X873335771Y-605333333D02*
X873383390Y-605428571D01*
X873383390Y-605428571D02*
X873383390Y-605619047D01*
X873383390Y-605619047D02*
X873431009Y-605714285D01*
X873431009Y-605714285D02*
X873478628Y-605761904D01*
X873478628Y-605761904D02*
X873573866Y-605809523D01*
X873573866Y-605809523D02*
X873764342Y-605809523D01*
X873764342Y-605809523D02*
X873859580Y-605761904D01*
X873859580Y-605761904D02*
X873907200Y-605714285D01*
X873907200Y-605714285D02*
X873954819Y-605619047D01*
X873954819Y-605619047D02*
X873954819Y-605428571D01*
X873954819Y-605428571D02*
X873907200Y-605333333D01*
X873907200Y-605333333D02*
X873859580Y-605285714D01*
X873859580Y-605285714D02*
X873764342Y-605238095D01*
X873764342Y-605238095D02*
X873573866Y-605238095D01*
X873573866Y-605238095D02*
X873478628Y-605285714D01*
X873478628Y-605285714D02*
X873431009Y-605333333D01*
X873431009Y-605333333D02*
X873383390Y-605428571D01*
X845738095Y-612454819D02*
X845738095Y-611454819D01*
X845738095Y-611931009D02*
X846309523Y-611931009D01*
X846309523Y-612454819D02*
X846309523Y-611454819D01*
X847309523Y-612454819D02*
X846738095Y-612454819D01*
X847023809Y-612454819D02*
X847023809Y-611454819D01*
X847023809Y-611454819D02*
X846928571Y-611597676D01*
X846928571Y-611597676D02*
X846833333Y-611692914D01*
X846833333Y-611692914D02*
X846738095Y-611740533D01*
X875713095Y-598954819D02*
X876284523Y-598954819D01*
X875998809Y-599954819D02*
X875998809Y-598954819D01*
X877141666Y-599954819D02*
X876570238Y-599954819D01*
X876855952Y-599954819D02*
X876855952Y-598954819D01*
X876855952Y-598954819D02*
X876760714Y-599097676D01*
X876760714Y-599097676D02*
X876665476Y-599192914D01*
X876665476Y-599192914D02*
X876570238Y-599240533D01*
X885954819Y-627166666D02*
X885478628Y-627499999D01*
X885954819Y-627738094D02*
X884954819Y-627738094D01*
X884954819Y-627738094D02*
X884954819Y-627357142D01*
X884954819Y-627357142D02*
X885002438Y-627261904D01*
X885002438Y-627261904D02*
X885050057Y-627214285D01*
X885050057Y-627214285D02*
X885145295Y-627166666D01*
X885145295Y-627166666D02*
X885288152Y-627166666D01*
X885288152Y-627166666D02*
X885383390Y-627214285D01*
X885383390Y-627214285D02*
X885431009Y-627261904D01*
X885431009Y-627261904D02*
X885478628Y-627357142D01*
X885478628Y-627357142D02*
X885478628Y-627738094D01*
X885050057Y-626785713D02*
X885002438Y-626738094D01*
X885002438Y-626738094D02*
X884954819Y-626642856D01*
X884954819Y-626642856D02*
X884954819Y-626404761D01*
X884954819Y-626404761D02*
X885002438Y-626309523D01*
X885002438Y-626309523D02*
X885050057Y-626261904D01*
X885050057Y-626261904D02*
X885145295Y-626214285D01*
X885145295Y-626214285D02*
X885240533Y-626214285D01*
X885240533Y-626214285D02*
X885383390Y-626261904D01*
X885383390Y-626261904D02*
X885954819Y-626833332D01*
X885954819Y-626833332D02*
X885954819Y-626214285D01*
X877039580Y-610692857D02*
X877087200Y-610740476D01*
X877087200Y-610740476D02*
X877134819Y-610883333D01*
X877134819Y-610883333D02*
X877134819Y-610978571D01*
X877134819Y-610978571D02*
X877087200Y-611121428D01*
X877087200Y-611121428D02*
X876991961Y-611216666D01*
X876991961Y-611216666D02*
X876896723Y-611264285D01*
X876896723Y-611264285D02*
X876706247Y-611311904D01*
X876706247Y-611311904D02*
X876563390Y-611311904D01*
X876563390Y-611311904D02*
X876372914Y-611264285D01*
X876372914Y-611264285D02*
X876277676Y-611216666D01*
X876277676Y-611216666D02*
X876182438Y-611121428D01*
X876182438Y-611121428D02*
X876134819Y-610978571D01*
X876134819Y-610978571D02*
X876134819Y-610883333D01*
X876134819Y-610883333D02*
X876182438Y-610740476D01*
X876182438Y-610740476D02*
X876230057Y-610692857D01*
X877134819Y-609740476D02*
X877134819Y-610311904D01*
X877134819Y-610026190D02*
X876134819Y-610026190D01*
X876134819Y-610026190D02*
X876277676Y-610121428D01*
X876277676Y-610121428D02*
X876372914Y-610216666D01*
X876372914Y-610216666D02*
X876420533Y-610311904D01*
X877134819Y-609264285D02*
X877134819Y-609073809D01*
X877134819Y-609073809D02*
X877087200Y-608978571D01*
X877087200Y-608978571D02*
X877039580Y-608930952D01*
X877039580Y-608930952D02*
X876896723Y-608835714D01*
X876896723Y-608835714D02*
X876706247Y-608788095D01*
X876706247Y-608788095D02*
X876325295Y-608788095D01*
X876325295Y-608788095D02*
X876230057Y-608835714D01*
X876230057Y-608835714D02*
X876182438Y-608883333D01*
X876182438Y-608883333D02*
X876134819Y-608978571D01*
X876134819Y-608978571D02*
X876134819Y-609169047D01*
X876134819Y-609169047D02*
X876182438Y-609264285D01*
X876182438Y-609264285D02*
X876230057Y-609311904D01*
X876230057Y-609311904D02*
X876325295Y-609359523D01*
X876325295Y-609359523D02*
X876563390Y-609359523D01*
X876563390Y-609359523D02*
X876658628Y-609311904D01*
X876658628Y-609311904D02*
X876706247Y-609264285D01*
X876706247Y-609264285D02*
X876753866Y-609169047D01*
X876753866Y-609169047D02*
X876753866Y-608978571D01*
X876753866Y-608978571D02*
X876706247Y-608883333D01*
X876706247Y-608883333D02*
X876658628Y-608835714D01*
X876658628Y-608835714D02*
X876563390Y-608788095D01*
X860916667Y-615907200D02*
X861059524Y-615954819D01*
X861059524Y-615954819D02*
X861297619Y-615954819D01*
X861297619Y-615954819D02*
X861392857Y-615907200D01*
X861392857Y-615907200D02*
X861440476Y-615859580D01*
X861440476Y-615859580D02*
X861488095Y-615764342D01*
X861488095Y-615764342D02*
X861488095Y-615669104D01*
X861488095Y-615669104D02*
X861440476Y-615573866D01*
X861440476Y-615573866D02*
X861392857Y-615526247D01*
X861392857Y-615526247D02*
X861297619Y-615478628D01*
X861297619Y-615478628D02*
X861107143Y-615431009D01*
X861107143Y-615431009D02*
X861011905Y-615383390D01*
X861011905Y-615383390D02*
X860964286Y-615335771D01*
X860964286Y-615335771D02*
X860916667Y-615240533D01*
X860916667Y-615240533D02*
X860916667Y-615145295D01*
X860916667Y-615145295D02*
X860964286Y-615050057D01*
X860964286Y-615050057D02*
X861011905Y-615002438D01*
X861011905Y-615002438D02*
X861107143Y-614954819D01*
X861107143Y-614954819D02*
X861345238Y-614954819D01*
X861345238Y-614954819D02*
X861488095Y-615002438D01*
X861821429Y-614954819D02*
X862059524Y-615954819D01*
X862059524Y-615954819D02*
X862250000Y-615240533D01*
X862250000Y-615240533D02*
X862440476Y-615954819D01*
X862440476Y-615954819D02*
X862678572Y-614954819D01*
X863583333Y-615954819D02*
X863011905Y-615954819D01*
X863297619Y-615954819D02*
X863297619Y-614954819D01*
X863297619Y-614954819D02*
X863202381Y-615097676D01*
X863202381Y-615097676D02*
X863107143Y-615192914D01*
X863107143Y-615192914D02*
X863011905Y-615240533D01*
X861416667Y-626907200D02*
X861559524Y-626954819D01*
X861559524Y-626954819D02*
X861797619Y-626954819D01*
X861797619Y-626954819D02*
X861892857Y-626907200D01*
X861892857Y-626907200D02*
X861940476Y-626859580D01*
X861940476Y-626859580D02*
X861988095Y-626764342D01*
X861988095Y-626764342D02*
X861988095Y-626669104D01*
X861988095Y-626669104D02*
X861940476Y-626573866D01*
X861940476Y-626573866D02*
X861892857Y-626526247D01*
X861892857Y-626526247D02*
X861797619Y-626478628D01*
X861797619Y-626478628D02*
X861607143Y-626431009D01*
X861607143Y-626431009D02*
X861511905Y-626383390D01*
X861511905Y-626383390D02*
X861464286Y-626335771D01*
X861464286Y-626335771D02*
X861416667Y-626240533D01*
X861416667Y-626240533D02*
X861416667Y-626145295D01*
X861416667Y-626145295D02*
X861464286Y-626050057D01*
X861464286Y-626050057D02*
X861511905Y-626002438D01*
X861511905Y-626002438D02*
X861607143Y-625954819D01*
X861607143Y-625954819D02*
X861845238Y-625954819D01*
X861845238Y-625954819D02*
X861988095Y-626002438D01*
X862321429Y-625954819D02*
X862559524Y-626954819D01*
X862559524Y-626954819D02*
X862750000Y-626240533D01*
X862750000Y-626240533D02*
X862940476Y-626954819D01*
X862940476Y-626954819D02*
X863178572Y-625954819D01*
X863511905Y-626050057D02*
X863559524Y-626002438D01*
X863559524Y-626002438D02*
X863654762Y-625954819D01*
X863654762Y-625954819D02*
X863892857Y-625954819D01*
X863892857Y-625954819D02*
X863988095Y-626002438D01*
X863988095Y-626002438D02*
X864035714Y-626050057D01*
X864035714Y-626050057D02*
X864083333Y-626145295D01*
X864083333Y-626145295D02*
X864083333Y-626240533D01*
X864083333Y-626240533D02*
X864035714Y-626383390D01*
X864035714Y-626383390D02*
X863464286Y-626954819D01*
X863464286Y-626954819D02*
X864083333Y-626954819D01*
X885351009Y-596785714D02*
X885398628Y-596642857D01*
X885398628Y-596642857D02*
X885446247Y-596595238D01*
X885446247Y-596595238D02*
X885541485Y-596547619D01*
X885541485Y-596547619D02*
X885684342Y-596547619D01*
X885684342Y-596547619D02*
X885779580Y-596595238D01*
X885779580Y-596595238D02*
X885827200Y-596642857D01*
X885827200Y-596642857D02*
X885874819Y-596738095D01*
X885874819Y-596738095D02*
X885874819Y-597119047D01*
X885874819Y-597119047D02*
X884874819Y-597119047D01*
X884874819Y-597119047D02*
X884874819Y-596785714D01*
X884874819Y-596785714D02*
X884922438Y-596690476D01*
X884922438Y-596690476D02*
X884970057Y-596642857D01*
X884970057Y-596642857D02*
X885065295Y-596595238D01*
X885065295Y-596595238D02*
X885160533Y-596595238D01*
X885160533Y-596595238D02*
X885255771Y-596642857D01*
X885255771Y-596642857D02*
X885303390Y-596690476D01*
X885303390Y-596690476D02*
X885351009Y-596785714D01*
X885351009Y-596785714D02*
X885351009Y-597119047D01*
X884874819Y-596261904D02*
X884874819Y-595690476D01*
X885874819Y-595976190D02*
X884874819Y-595976190D01*
X885874819Y-594833333D02*
X885874819Y-595404761D01*
X885874819Y-595119047D02*
X884874819Y-595119047D01*
X884874819Y-595119047D02*
X885017676Y-595214285D01*
X885017676Y-595214285D02*
X885112914Y-595309523D01*
X885112914Y-595309523D02*
X885160533Y-595404761D01*
X873833333Y-618884819D02*
X873500000Y-618408628D01*
X873261905Y-618884819D02*
X873261905Y-617884819D01*
X873261905Y-617884819D02*
X873642857Y-617884819D01*
X873642857Y-617884819D02*
X873738095Y-617932438D01*
X873738095Y-617932438D02*
X873785714Y-617980057D01*
X873785714Y-617980057D02*
X873833333Y-618075295D01*
X873833333Y-618075295D02*
X873833333Y-618218152D01*
X873833333Y-618218152D02*
X873785714Y-618313390D01*
X873785714Y-618313390D02*
X873738095Y-618361009D01*
X873738095Y-618361009D02*
X873642857Y-618408628D01*
X873642857Y-618408628D02*
X873261905Y-618408628D01*
X874404762Y-618313390D02*
X874309524Y-618265771D01*
X874309524Y-618265771D02*
X874261905Y-618218152D01*
X874261905Y-618218152D02*
X874214286Y-618122914D01*
X874214286Y-618122914D02*
X874214286Y-618075295D01*
X874214286Y-618075295D02*
X874261905Y-617980057D01*
X874261905Y-617980057D02*
X874309524Y-617932438D01*
X874309524Y-617932438D02*
X874404762Y-617884819D01*
X874404762Y-617884819D02*
X874595238Y-617884819D01*
X874595238Y-617884819D02*
X874690476Y-617932438D01*
X874690476Y-617932438D02*
X874738095Y-617980057D01*
X874738095Y-617980057D02*
X874785714Y-618075295D01*
X874785714Y-618075295D02*
X874785714Y-618122914D01*
X874785714Y-618122914D02*
X874738095Y-618218152D01*
X874738095Y-618218152D02*
X874690476Y-618265771D01*
X874690476Y-618265771D02*
X874595238Y-618313390D01*
X874595238Y-618313390D02*
X874404762Y-618313390D01*
X874404762Y-618313390D02*
X874309524Y-618361009D01*
X874309524Y-618361009D02*
X874261905Y-618408628D01*
X874261905Y-618408628D02*
X874214286Y-618503866D01*
X874214286Y-618503866D02*
X874214286Y-618694342D01*
X874214286Y-618694342D02*
X874261905Y-618789580D01*
X874261905Y-618789580D02*
X874309524Y-618837200D01*
X874309524Y-618837200D02*
X874404762Y-618884819D01*
X874404762Y-618884819D02*
X874595238Y-618884819D01*
X874595238Y-618884819D02*
X874690476Y-618837200D01*
X874690476Y-618837200D02*
X874738095Y-618789580D01*
X874738095Y-618789580D02*
X874785714Y-618694342D01*
X874785714Y-618694342D02*
X874785714Y-618503866D01*
X874785714Y-618503866D02*
X874738095Y-618408628D01*
X874738095Y-618408628D02*
X874690476Y-618361009D01*
X874690476Y-618361009D02*
X874595238Y-618313390D01*
X909248095Y-627454818D02*
X909248095Y-628264341D01*
X909248095Y-628264341D02*
X909295714Y-628359579D01*
X909295714Y-628359579D02*
X909343333Y-628407199D01*
X909343333Y-628407199D02*
X909438571Y-628454818D01*
X909438571Y-628454818D02*
X909629047Y-628454818D01*
X909629047Y-628454818D02*
X909724285Y-628407199D01*
X909724285Y-628407199D02*
X909771904Y-628359579D01*
X909771904Y-628359579D02*
X909819523Y-628264341D01*
X909819523Y-628264341D02*
X909819523Y-627454818D01*
X910248095Y-627550056D02*
X910295714Y-627502437D01*
X910295714Y-627502437D02*
X910390952Y-627454818D01*
X910390952Y-627454818D02*
X910629047Y-627454818D01*
X910629047Y-627454818D02*
X910724285Y-627502437D01*
X910724285Y-627502437D02*
X910771904Y-627550056D01*
X910771904Y-627550056D02*
X910819523Y-627645294D01*
X910819523Y-627645294D02*
X910819523Y-627740532D01*
X910819523Y-627740532D02*
X910771904Y-627883389D01*
X910771904Y-627883389D02*
X910200476Y-628454818D01*
X910200476Y-628454818D02*
X910819523Y-628454818D01*
X908083001Y-624531819D02*
X908083001Y-624769914D01*
X907844906Y-624674676D02*
X908083001Y-624769914D01*
X908083001Y-624769914D02*
X908321096Y-624674676D01*
X907940144Y-624960390D02*
X908083001Y-624769914D01*
X908083001Y-624769914D02*
X908225858Y-624960390D01*
X908083001Y-624531819D02*
X908083001Y-624769914D01*
X907844906Y-624674676D02*
X908083001Y-624769914D01*
X908083001Y-624769914D02*
X908321096Y-624674676D01*
X907940144Y-624960390D02*
X908083001Y-624769914D01*
X908083001Y-624769914D02*
X908225858Y-624960390D01*
X892509580Y-597642857D02*
X892557200Y-597690476D01*
X892557200Y-597690476D02*
X892604819Y-597833333D01*
X892604819Y-597833333D02*
X892604819Y-597928571D01*
X892604819Y-597928571D02*
X892557200Y-598071428D01*
X892557200Y-598071428D02*
X892461961Y-598166666D01*
X892461961Y-598166666D02*
X892366723Y-598214285D01*
X892366723Y-598214285D02*
X892176247Y-598261904D01*
X892176247Y-598261904D02*
X892033390Y-598261904D01*
X892033390Y-598261904D02*
X891842914Y-598214285D01*
X891842914Y-598214285D02*
X891747676Y-598166666D01*
X891747676Y-598166666D02*
X891652438Y-598071428D01*
X891652438Y-598071428D02*
X891604819Y-597928571D01*
X891604819Y-597928571D02*
X891604819Y-597833333D01*
X891604819Y-597833333D02*
X891652438Y-597690476D01*
X891652438Y-597690476D02*
X891700057Y-597642857D01*
X891700057Y-597261904D02*
X891652438Y-597214285D01*
X891652438Y-597214285D02*
X891604819Y-597119047D01*
X891604819Y-597119047D02*
X891604819Y-596880952D01*
X891604819Y-596880952D02*
X891652438Y-596785714D01*
X891652438Y-596785714D02*
X891700057Y-596738095D01*
X891700057Y-596738095D02*
X891795295Y-596690476D01*
X891795295Y-596690476D02*
X891890533Y-596690476D01*
X891890533Y-596690476D02*
X892033390Y-596738095D01*
X892033390Y-596738095D02*
X892604819Y-597309523D01*
X892604819Y-597309523D02*
X892604819Y-596690476D01*
X891700057Y-596309523D02*
X891652438Y-596261904D01*
X891652438Y-596261904D02*
X891604819Y-596166666D01*
X891604819Y-596166666D02*
X891604819Y-595928571D01*
X891604819Y-595928571D02*
X891652438Y-595833333D01*
X891652438Y-595833333D02*
X891700057Y-595785714D01*
X891700057Y-595785714D02*
X891795295Y-595738095D01*
X891795295Y-595738095D02*
X891890533Y-595738095D01*
X891890533Y-595738095D02*
X892033390Y-595785714D01*
X892033390Y-595785714D02*
X892604819Y-596357142D01*
X892604819Y-596357142D02*
X892604819Y-595738095D01*
X902009580Y-597642857D02*
X902057200Y-597690476D01*
X902057200Y-597690476D02*
X902104819Y-597833333D01*
X902104819Y-597833333D02*
X902104819Y-597928571D01*
X902104819Y-597928571D02*
X902057200Y-598071428D01*
X902057200Y-598071428D02*
X901961961Y-598166666D01*
X901961961Y-598166666D02*
X901866723Y-598214285D01*
X901866723Y-598214285D02*
X901676247Y-598261904D01*
X901676247Y-598261904D02*
X901533390Y-598261904D01*
X901533390Y-598261904D02*
X901342914Y-598214285D01*
X901342914Y-598214285D02*
X901247676Y-598166666D01*
X901247676Y-598166666D02*
X901152438Y-598071428D01*
X901152438Y-598071428D02*
X901104819Y-597928571D01*
X901104819Y-597928571D02*
X901104819Y-597833333D01*
X901104819Y-597833333D02*
X901152438Y-597690476D01*
X901152438Y-597690476D02*
X901200057Y-597642857D01*
X901200057Y-597261904D02*
X901152438Y-597214285D01*
X901152438Y-597214285D02*
X901104819Y-597119047D01*
X901104819Y-597119047D02*
X901104819Y-596880952D01*
X901104819Y-596880952D02*
X901152438Y-596785714D01*
X901152438Y-596785714D02*
X901200057Y-596738095D01*
X901200057Y-596738095D02*
X901295295Y-596690476D01*
X901295295Y-596690476D02*
X901390533Y-596690476D01*
X901390533Y-596690476D02*
X901533390Y-596738095D01*
X901533390Y-596738095D02*
X902104819Y-597309523D01*
X902104819Y-597309523D02*
X902104819Y-596690476D01*
X902104819Y-595738095D02*
X902104819Y-596309523D01*
X902104819Y-596023809D02*
X901104819Y-596023809D01*
X901104819Y-596023809D02*
X901247676Y-596119047D01*
X901247676Y-596119047D02*
X901342914Y-596214285D01*
X901342914Y-596214285D02*
X901390533Y-596309523D01*
X905333333Y-627454819D02*
X905000000Y-626978628D01*
X904761905Y-627454819D02*
X904761905Y-626454819D01*
X904761905Y-626454819D02*
X905142857Y-626454819D01*
X905142857Y-626454819D02*
X905238095Y-626502438D01*
X905238095Y-626502438D02*
X905285714Y-626550057D01*
X905285714Y-626550057D02*
X905333333Y-626645295D01*
X905333333Y-626645295D02*
X905333333Y-626788152D01*
X905333333Y-626788152D02*
X905285714Y-626883390D01*
X905285714Y-626883390D02*
X905238095Y-626931009D01*
X905238095Y-626931009D02*
X905142857Y-626978628D01*
X905142857Y-626978628D02*
X904761905Y-626978628D01*
X905666667Y-626454819D02*
X906285714Y-626454819D01*
X906285714Y-626454819D02*
X905952381Y-626835771D01*
X905952381Y-626835771D02*
X906095238Y-626835771D01*
X906095238Y-626835771D02*
X906190476Y-626883390D01*
X906190476Y-626883390D02*
X906238095Y-626931009D01*
X906238095Y-626931009D02*
X906285714Y-627026247D01*
X906285714Y-627026247D02*
X906285714Y-627264342D01*
X906285714Y-627264342D02*
X906238095Y-627359580D01*
X906238095Y-627359580D02*
X906190476Y-627407200D01*
X906190476Y-627407200D02*
X906095238Y-627454819D01*
X906095238Y-627454819D02*
X905809524Y-627454819D01*
X905809524Y-627454819D02*
X905714286Y-627407200D01*
X905714286Y-627407200D02*
X905666667Y-627359580D01*
X919089580Y-629142857D02*
X919137200Y-629190476D01*
X919137200Y-629190476D02*
X919184819Y-629333333D01*
X919184819Y-629333333D02*
X919184819Y-629428571D01*
X919184819Y-629428571D02*
X919137200Y-629571428D01*
X919137200Y-629571428D02*
X919041961Y-629666666D01*
X919041961Y-629666666D02*
X918946723Y-629714285D01*
X918946723Y-629714285D02*
X918756247Y-629761904D01*
X918756247Y-629761904D02*
X918613390Y-629761904D01*
X918613390Y-629761904D02*
X918422914Y-629714285D01*
X918422914Y-629714285D02*
X918327676Y-629666666D01*
X918327676Y-629666666D02*
X918232438Y-629571428D01*
X918232438Y-629571428D02*
X918184819Y-629428571D01*
X918184819Y-629428571D02*
X918184819Y-629333333D01*
X918184819Y-629333333D02*
X918232438Y-629190476D01*
X918232438Y-629190476D02*
X918280057Y-629142857D01*
X919184819Y-628190476D02*
X919184819Y-628761904D01*
X919184819Y-628476190D02*
X918184819Y-628476190D01*
X918184819Y-628476190D02*
X918327676Y-628571428D01*
X918327676Y-628571428D02*
X918422914Y-628666666D01*
X918422914Y-628666666D02*
X918470533Y-628761904D01*
X918518152Y-627333333D02*
X919184819Y-627333333D01*
X918137200Y-627571428D02*
X918851485Y-627809523D01*
X918851485Y-627809523D02*
X918851485Y-627190476D01*
X919166666Y-593454819D02*
X919166666Y-594169104D01*
X919166666Y-594169104D02*
X919119047Y-594311961D01*
X919119047Y-594311961D02*
X919023809Y-594407200D01*
X919023809Y-594407200D02*
X918880952Y-594454819D01*
X918880952Y-594454819D02*
X918785714Y-594454819D01*
X919595238Y-593550057D02*
X919642857Y-593502438D01*
X919642857Y-593502438D02*
X919738095Y-593454819D01*
X919738095Y-593454819D02*
X919976190Y-593454819D01*
X919976190Y-593454819D02*
X920071428Y-593502438D01*
X920071428Y-593502438D02*
X920119047Y-593550057D01*
X920119047Y-593550057D02*
X920166666Y-593645295D01*
X920166666Y-593645295D02*
X920166666Y-593740533D01*
X920166666Y-593740533D02*
X920119047Y-593883390D01*
X920119047Y-593883390D02*
X919547619Y-594454819D01*
X919547619Y-594454819D02*
X920166666Y-594454819D01*
X888009580Y-597617857D02*
X888057200Y-597665476D01*
X888057200Y-597665476D02*
X888104819Y-597808333D01*
X888104819Y-597808333D02*
X888104819Y-597903571D01*
X888104819Y-597903571D02*
X888057200Y-598046428D01*
X888057200Y-598046428D02*
X887961961Y-598141666D01*
X887961961Y-598141666D02*
X887866723Y-598189285D01*
X887866723Y-598189285D02*
X887676247Y-598236904D01*
X887676247Y-598236904D02*
X887533390Y-598236904D01*
X887533390Y-598236904D02*
X887342914Y-598189285D01*
X887342914Y-598189285D02*
X887247676Y-598141666D01*
X887247676Y-598141666D02*
X887152438Y-598046428D01*
X887152438Y-598046428D02*
X887104819Y-597903571D01*
X887104819Y-597903571D02*
X887104819Y-597808333D01*
X887104819Y-597808333D02*
X887152438Y-597665476D01*
X887152438Y-597665476D02*
X887200057Y-597617857D01*
X887200057Y-597236904D02*
X887152438Y-597189285D01*
X887152438Y-597189285D02*
X887104819Y-597094047D01*
X887104819Y-597094047D02*
X887104819Y-596855952D01*
X887104819Y-596855952D02*
X887152438Y-596760714D01*
X887152438Y-596760714D02*
X887200057Y-596713095D01*
X887200057Y-596713095D02*
X887295295Y-596665476D01*
X887295295Y-596665476D02*
X887390533Y-596665476D01*
X887390533Y-596665476D02*
X887533390Y-596713095D01*
X887533390Y-596713095D02*
X888104819Y-597284523D01*
X888104819Y-597284523D02*
X888104819Y-596665476D01*
X887104819Y-596332142D02*
X887104819Y-595713095D01*
X887104819Y-595713095D02*
X887485771Y-596046428D01*
X887485771Y-596046428D02*
X887485771Y-595903571D01*
X887485771Y-595903571D02*
X887533390Y-595808333D01*
X887533390Y-595808333D02*
X887581009Y-595760714D01*
X887581009Y-595760714D02*
X887676247Y-595713095D01*
X887676247Y-595713095D02*
X887914342Y-595713095D01*
X887914342Y-595713095D02*
X888009580Y-595760714D01*
X888009580Y-595760714D02*
X888057200Y-595808333D01*
X888057200Y-595808333D02*
X888104819Y-595903571D01*
X888104819Y-595903571D02*
X888104819Y-596189285D01*
X888104819Y-596189285D02*
X888057200Y-596284523D01*
X888057200Y-596284523D02*
X888009580Y-596332142D01*
X910837142Y-625359580D02*
X910789523Y-625407200D01*
X910789523Y-625407200D02*
X910646666Y-625454819D01*
X910646666Y-625454819D02*
X910551428Y-625454819D01*
X910551428Y-625454819D02*
X910408571Y-625407200D01*
X910408571Y-625407200D02*
X910313333Y-625311961D01*
X910313333Y-625311961D02*
X910265714Y-625216723D01*
X910265714Y-625216723D02*
X910218095Y-625026247D01*
X910218095Y-625026247D02*
X910218095Y-624883390D01*
X910218095Y-624883390D02*
X910265714Y-624692914D01*
X910265714Y-624692914D02*
X910313333Y-624597676D01*
X910313333Y-624597676D02*
X910408571Y-624502438D01*
X910408571Y-624502438D02*
X910551428Y-624454819D01*
X910551428Y-624454819D02*
X910646666Y-624454819D01*
X910646666Y-624454819D02*
X910789523Y-624502438D01*
X910789523Y-624502438D02*
X910837142Y-624550057D01*
X911789523Y-625454819D02*
X911218095Y-625454819D01*
X911503809Y-625454819D02*
X911503809Y-624454819D01*
X911503809Y-624454819D02*
X911408571Y-624597676D01*
X911408571Y-624597676D02*
X911313333Y-624692914D01*
X911313333Y-624692914D02*
X911218095Y-624740533D01*
X912694285Y-624454819D02*
X912218095Y-624454819D01*
X912218095Y-624454819D02*
X912170476Y-624931009D01*
X912170476Y-624931009D02*
X912218095Y-624883390D01*
X912218095Y-624883390D02*
X912313333Y-624835771D01*
X912313333Y-624835771D02*
X912551428Y-624835771D01*
X912551428Y-624835771D02*
X912646666Y-624883390D01*
X912646666Y-624883390D02*
X912694285Y-624931009D01*
X912694285Y-624931009D02*
X912741904Y-625026247D01*
X912741904Y-625026247D02*
X912741904Y-625264342D01*
X912741904Y-625264342D02*
X912694285Y-625359580D01*
X912694285Y-625359580D02*
X912646666Y-625407200D01*
X912646666Y-625407200D02*
X912551428Y-625454819D01*
X912551428Y-625454819D02*
X912313333Y-625454819D01*
X912313333Y-625454819D02*
X912218095Y-625407200D01*
X912218095Y-625407200D02*
X912170476Y-625359580D01*
X891894819Y-627341666D02*
X891418628Y-627674999D01*
X891894819Y-627913094D02*
X890894819Y-627913094D01*
X890894819Y-627913094D02*
X890894819Y-627532142D01*
X890894819Y-627532142D02*
X890942438Y-627436904D01*
X890942438Y-627436904D02*
X890990057Y-627389285D01*
X890990057Y-627389285D02*
X891085295Y-627341666D01*
X891085295Y-627341666D02*
X891228152Y-627341666D01*
X891228152Y-627341666D02*
X891323390Y-627389285D01*
X891323390Y-627389285D02*
X891371009Y-627436904D01*
X891371009Y-627436904D02*
X891418628Y-627532142D01*
X891418628Y-627532142D02*
X891418628Y-627913094D01*
X891894819Y-626389285D02*
X891894819Y-626960713D01*
X891894819Y-626674999D02*
X890894819Y-626674999D01*
X890894819Y-626674999D02*
X891037676Y-626770237D01*
X891037676Y-626770237D02*
X891132914Y-626865475D01*
X891132914Y-626865475D02*
X891180533Y-626960713D01*
X900884819Y-621166666D02*
X900408628Y-621499999D01*
X900884819Y-621738094D02*
X899884819Y-621738094D01*
X899884819Y-621738094D02*
X899884819Y-621357142D01*
X899884819Y-621357142D02*
X899932438Y-621261904D01*
X899932438Y-621261904D02*
X899980057Y-621214285D01*
X899980057Y-621214285D02*
X900075295Y-621166666D01*
X900075295Y-621166666D02*
X900218152Y-621166666D01*
X900218152Y-621166666D02*
X900313390Y-621214285D01*
X900313390Y-621214285D02*
X900361009Y-621261904D01*
X900361009Y-621261904D02*
X900408628Y-621357142D01*
X900408628Y-621357142D02*
X900408628Y-621738094D01*
X899884819Y-620261904D02*
X899884819Y-620738094D01*
X899884819Y-620738094D02*
X900361009Y-620785713D01*
X900361009Y-620785713D02*
X900313390Y-620738094D01*
X900313390Y-620738094D02*
X900265771Y-620642856D01*
X900265771Y-620642856D02*
X900265771Y-620404761D01*
X900265771Y-620404761D02*
X900313390Y-620309523D01*
X900313390Y-620309523D02*
X900361009Y-620261904D01*
X900361009Y-620261904D02*
X900456247Y-620214285D01*
X900456247Y-620214285D02*
X900694342Y-620214285D01*
X900694342Y-620214285D02*
X900789580Y-620261904D01*
X900789580Y-620261904D02*
X900837200Y-620309523D01*
X900837200Y-620309523D02*
X900884819Y-620404761D01*
X900884819Y-620404761D02*
X900884819Y-620642856D01*
X900884819Y-620642856D02*
X900837200Y-620738094D01*
X900837200Y-620738094D02*
X900789580Y-620785713D01*
X884032142Y-632024819D02*
X883698809Y-631548628D01*
X883460714Y-632024819D02*
X883460714Y-631024819D01*
X883460714Y-631024819D02*
X883841666Y-631024819D01*
X883841666Y-631024819D02*
X883936904Y-631072438D01*
X883936904Y-631072438D02*
X883984523Y-631120057D01*
X883984523Y-631120057D02*
X884032142Y-631215295D01*
X884032142Y-631215295D02*
X884032142Y-631358152D01*
X884032142Y-631358152D02*
X883984523Y-631453390D01*
X883984523Y-631453390D02*
X883936904Y-631501009D01*
X883936904Y-631501009D02*
X883841666Y-631548628D01*
X883841666Y-631548628D02*
X883460714Y-631548628D01*
X884984523Y-632024819D02*
X884413095Y-632024819D01*
X884698809Y-632024819D02*
X884698809Y-631024819D01*
X884698809Y-631024819D02*
X884603571Y-631167676D01*
X884603571Y-631167676D02*
X884508333Y-631262914D01*
X884508333Y-631262914D02*
X884413095Y-631310533D01*
X885936904Y-632024819D02*
X885365476Y-632024819D01*
X885651190Y-632024819D02*
X885651190Y-631024819D01*
X885651190Y-631024819D02*
X885555952Y-631167676D01*
X885555952Y-631167676D02*
X885460714Y-631262914D01*
X885460714Y-631262914D02*
X885365476Y-631310533D01*
X909923333Y-611724819D02*
X909447143Y-611724819D01*
X909447143Y-611724819D02*
X909447143Y-610724819D01*
X910780476Y-611724819D02*
X910209048Y-611724819D01*
X910494762Y-611724819D02*
X910494762Y-610724819D01*
X910494762Y-610724819D02*
X910399524Y-610867676D01*
X910399524Y-610867676D02*
X910304286Y-610962914D01*
X910304286Y-610962914D02*
X910209048Y-611010533D01*
X907009580Y-597617857D02*
X907057200Y-597665476D01*
X907057200Y-597665476D02*
X907104819Y-597808333D01*
X907104819Y-597808333D02*
X907104819Y-597903571D01*
X907104819Y-597903571D02*
X907057200Y-598046428D01*
X907057200Y-598046428D02*
X906961961Y-598141666D01*
X906961961Y-598141666D02*
X906866723Y-598189285D01*
X906866723Y-598189285D02*
X906676247Y-598236904D01*
X906676247Y-598236904D02*
X906533390Y-598236904D01*
X906533390Y-598236904D02*
X906342914Y-598189285D01*
X906342914Y-598189285D02*
X906247676Y-598141666D01*
X906247676Y-598141666D02*
X906152438Y-598046428D01*
X906152438Y-598046428D02*
X906104819Y-597903571D01*
X906104819Y-597903571D02*
X906104819Y-597808333D01*
X906104819Y-597808333D02*
X906152438Y-597665476D01*
X906152438Y-597665476D02*
X906200057Y-597617857D01*
X906200057Y-597236904D02*
X906152438Y-597189285D01*
X906152438Y-597189285D02*
X906104819Y-597094047D01*
X906104819Y-597094047D02*
X906104819Y-596855952D01*
X906104819Y-596855952D02*
X906152438Y-596760714D01*
X906152438Y-596760714D02*
X906200057Y-596713095D01*
X906200057Y-596713095D02*
X906295295Y-596665476D01*
X906295295Y-596665476D02*
X906390533Y-596665476D01*
X906390533Y-596665476D02*
X906533390Y-596713095D01*
X906533390Y-596713095D02*
X907104819Y-597284523D01*
X907104819Y-597284523D02*
X907104819Y-596665476D01*
X906104819Y-596046428D02*
X906104819Y-595951190D01*
X906104819Y-595951190D02*
X906152438Y-595855952D01*
X906152438Y-595855952D02*
X906200057Y-595808333D01*
X906200057Y-595808333D02*
X906295295Y-595760714D01*
X906295295Y-595760714D02*
X906485771Y-595713095D01*
X906485771Y-595713095D02*
X906723866Y-595713095D01*
X906723866Y-595713095D02*
X906914342Y-595760714D01*
X906914342Y-595760714D02*
X907009580Y-595808333D01*
X907009580Y-595808333D02*
X907057200Y-595855952D01*
X907057200Y-595855952D02*
X907104819Y-595951190D01*
X907104819Y-595951190D02*
X907104819Y-596046428D01*
X907104819Y-596046428D02*
X907057200Y-596141666D01*
X907057200Y-596141666D02*
X907009580Y-596189285D01*
X907009580Y-596189285D02*
X906914342Y-596236904D01*
X906914342Y-596236904D02*
X906723866Y-596284523D01*
X906723866Y-596284523D02*
X906485771Y-596284523D01*
X906485771Y-596284523D02*
X906295295Y-596236904D01*
X906295295Y-596236904D02*
X906200057Y-596189285D01*
X906200057Y-596189285D02*
X906152438Y-596141666D01*
X906152438Y-596141666D02*
X906104819Y-596046428D01*
X902524819Y-627341666D02*
X902048628Y-627674999D01*
X902524819Y-627913094D02*
X901524819Y-627913094D01*
X901524819Y-627913094D02*
X901524819Y-627532142D01*
X901524819Y-627532142D02*
X901572438Y-627436904D01*
X901572438Y-627436904D02*
X901620057Y-627389285D01*
X901620057Y-627389285D02*
X901715295Y-627341666D01*
X901715295Y-627341666D02*
X901858152Y-627341666D01*
X901858152Y-627341666D02*
X901953390Y-627389285D01*
X901953390Y-627389285D02*
X902001009Y-627436904D01*
X902001009Y-627436904D02*
X902048628Y-627532142D01*
X902048628Y-627532142D02*
X902048628Y-627913094D01*
X901858152Y-626484523D02*
X902524819Y-626484523D01*
X901477200Y-626722618D02*
X902191485Y-626960713D01*
X902191485Y-626960713D02*
X902191485Y-626341666D01*
X868454819Y-619738094D02*
X867454819Y-619738094D01*
X867454819Y-619738094D02*
X867454819Y-619499999D01*
X867454819Y-619499999D02*
X867502438Y-619357142D01*
X867502438Y-619357142D02*
X867597676Y-619261904D01*
X867597676Y-619261904D02*
X867692914Y-619214285D01*
X867692914Y-619214285D02*
X867883390Y-619166666D01*
X867883390Y-619166666D02*
X868026247Y-619166666D01*
X868026247Y-619166666D02*
X868216723Y-619214285D01*
X868216723Y-619214285D02*
X868311961Y-619261904D01*
X868311961Y-619261904D02*
X868407200Y-619357142D01*
X868407200Y-619357142D02*
X868454819Y-619499999D01*
X868454819Y-619499999D02*
X868454819Y-619738094D01*
X868454819Y-618214285D02*
X868454819Y-618785713D01*
X868454819Y-618499999D02*
X867454819Y-618499999D01*
X867454819Y-618499999D02*
X867597676Y-618595237D01*
X867597676Y-618595237D02*
X867692914Y-618690475D01*
X867692914Y-618690475D02*
X867740533Y-618785713D01*
X902382142Y-622009580D02*
X902334523Y-622057200D01*
X902334523Y-622057200D02*
X902191666Y-622104819D01*
X902191666Y-622104819D02*
X902096428Y-622104819D01*
X902096428Y-622104819D02*
X901953571Y-622057200D01*
X901953571Y-622057200D02*
X901858333Y-621961961D01*
X901858333Y-621961961D02*
X901810714Y-621866723D01*
X901810714Y-621866723D02*
X901763095Y-621676247D01*
X901763095Y-621676247D02*
X901763095Y-621533390D01*
X901763095Y-621533390D02*
X901810714Y-621342914D01*
X901810714Y-621342914D02*
X901858333Y-621247676D01*
X901858333Y-621247676D02*
X901953571Y-621152438D01*
X901953571Y-621152438D02*
X902096428Y-621104819D01*
X902096428Y-621104819D02*
X902191666Y-621104819D01*
X902191666Y-621104819D02*
X902334523Y-621152438D01*
X902334523Y-621152438D02*
X902382142Y-621200057D01*
X903334523Y-622104819D02*
X902763095Y-622104819D01*
X903048809Y-622104819D02*
X903048809Y-621104819D01*
X903048809Y-621104819D02*
X902953571Y-621247676D01*
X902953571Y-621247676D02*
X902858333Y-621342914D01*
X902858333Y-621342914D02*
X902763095Y-621390533D01*
X903667857Y-621104819D02*
X904286904Y-621104819D01*
X904286904Y-621104819D02*
X903953571Y-621485771D01*
X903953571Y-621485771D02*
X904096428Y-621485771D01*
X904096428Y-621485771D02*
X904191666Y-621533390D01*
X904191666Y-621533390D02*
X904239285Y-621581009D01*
X904239285Y-621581009D02*
X904286904Y-621676247D01*
X904286904Y-621676247D02*
X904286904Y-621914342D01*
X904286904Y-621914342D02*
X904239285Y-622009580D01*
X904239285Y-622009580D02*
X904191666Y-622057200D01*
X904191666Y-622057200D02*
X904096428Y-622104819D01*
X904096428Y-622104819D02*
X903810714Y-622104819D01*
X903810714Y-622104819D02*
X903715476Y-622057200D01*
X903715476Y-622057200D02*
X903667857Y-622009580D01*
X892761905Y-626958363D02*
X892761905Y-627767886D01*
X892761905Y-627767886D02*
X892809524Y-627863124D01*
X892809524Y-627863124D02*
X892857143Y-627910744D01*
X892857143Y-627910744D02*
X892952381Y-627958363D01*
X892952381Y-627958363D02*
X893142857Y-627958363D01*
X893142857Y-627958363D02*
X893238095Y-627910744D01*
X893238095Y-627910744D02*
X893285714Y-627863124D01*
X893285714Y-627863124D02*
X893333333Y-627767886D01*
X893333333Y-627767886D02*
X893333333Y-626958363D01*
X893761905Y-627910744D02*
X893904762Y-627958363D01*
X893904762Y-627958363D02*
X894142857Y-627958363D01*
X894142857Y-627958363D02*
X894238095Y-627910744D01*
X894238095Y-627910744D02*
X894285714Y-627863124D01*
X894285714Y-627863124D02*
X894333333Y-627767886D01*
X894333333Y-627767886D02*
X894333333Y-627672648D01*
X894333333Y-627672648D02*
X894285714Y-627577410D01*
X894285714Y-627577410D02*
X894238095Y-627529791D01*
X894238095Y-627529791D02*
X894142857Y-627482172D01*
X894142857Y-627482172D02*
X893952381Y-627434553D01*
X893952381Y-627434553D02*
X893857143Y-627386934D01*
X893857143Y-627386934D02*
X893809524Y-627339315D01*
X893809524Y-627339315D02*
X893761905Y-627244077D01*
X893761905Y-627244077D02*
X893761905Y-627148839D01*
X893761905Y-627148839D02*
X893809524Y-627053601D01*
X893809524Y-627053601D02*
X893857143Y-627005982D01*
X893857143Y-627005982D02*
X893952381Y-626958363D01*
X893952381Y-626958363D02*
X894190476Y-626958363D01*
X894190476Y-626958363D02*
X894333333Y-627005982D01*
X895095238Y-627434553D02*
X895238095Y-627482172D01*
X895238095Y-627482172D02*
X895285714Y-627529791D01*
X895285714Y-627529791D02*
X895333333Y-627625029D01*
X895333333Y-627625029D02*
X895333333Y-627767886D01*
X895333333Y-627767886D02*
X895285714Y-627863124D01*
X895285714Y-627863124D02*
X895238095Y-627910744D01*
X895238095Y-627910744D02*
X895142857Y-627958363D01*
X895142857Y-627958363D02*
X894761905Y-627958363D01*
X894761905Y-627958363D02*
X894761905Y-626958363D01*
X894761905Y-626958363D02*
X895095238Y-626958363D01*
X895095238Y-626958363D02*
X895190476Y-627005982D01*
X895190476Y-627005982D02*
X895238095Y-627053601D01*
X895238095Y-627053601D02*
X895285714Y-627148839D01*
X895285714Y-627148839D02*
X895285714Y-627244077D01*
X895285714Y-627244077D02*
X895238095Y-627339315D01*
X895238095Y-627339315D02*
X895190476Y-627386934D01*
X895190476Y-627386934D02*
X895095238Y-627434553D01*
X895095238Y-627434553D02*
X894761905Y-627434553D01*
X896333333Y-627863124D02*
X896285714Y-627910744D01*
X896285714Y-627910744D02*
X896142857Y-627958363D01*
X896142857Y-627958363D02*
X896047619Y-627958363D01*
X896047619Y-627958363D02*
X895904762Y-627910744D01*
X895904762Y-627910744D02*
X895809524Y-627815505D01*
X895809524Y-627815505D02*
X895761905Y-627720267D01*
X895761905Y-627720267D02*
X895714286Y-627529791D01*
X895714286Y-627529791D02*
X895714286Y-627386934D01*
X895714286Y-627386934D02*
X895761905Y-627196458D01*
X895761905Y-627196458D02*
X895809524Y-627101220D01*
X895809524Y-627101220D02*
X895904762Y-627005982D01*
X895904762Y-627005982D02*
X896047619Y-626958363D01*
X896047619Y-626958363D02*
X896142857Y-626958363D01*
X896142857Y-626958363D02*
X896285714Y-627005982D01*
X896285714Y-627005982D02*
X896333333Y-627053601D01*
X897285714Y-627958363D02*
X896714286Y-627958363D01*
X897000000Y-627958363D02*
X897000000Y-626958363D01*
X897000000Y-626958363D02*
X896904762Y-627101220D01*
X896904762Y-627101220D02*
X896809524Y-627196458D01*
X896809524Y-627196458D02*
X896714286Y-627244077D01*
X873833333Y-604454819D02*
X873500000Y-603978628D01*
X873261905Y-604454819D02*
X873261905Y-603454819D01*
X873261905Y-603454819D02*
X873642857Y-603454819D01*
X873642857Y-603454819D02*
X873738095Y-603502438D01*
X873738095Y-603502438D02*
X873785714Y-603550057D01*
X873785714Y-603550057D02*
X873833333Y-603645295D01*
X873833333Y-603645295D02*
X873833333Y-603788152D01*
X873833333Y-603788152D02*
X873785714Y-603883390D01*
X873785714Y-603883390D02*
X873738095Y-603931009D01*
X873738095Y-603931009D02*
X873642857Y-603978628D01*
X873642857Y-603978628D02*
X873261905Y-603978628D01*
X874166667Y-603454819D02*
X874833333Y-603454819D01*
X874833333Y-603454819D02*
X874404762Y-604454819D01*
%TO.C,R6*%
D11*
X896977500Y-625562258D02*
X896977500Y-625087742D01*
X898022500Y-625562258D02*
X898022500Y-625087742D01*
%TO.C,U1*%
D12*
X878618700Y-604291800D02*
X878618700Y-604832760D01*
X878618700Y-622897240D02*
X878618700Y-623748200D01*
X878618700Y-623748200D02*
X879987760Y-623748200D01*
X895512240Y-623748200D02*
X896881300Y-623748200D01*
X896881300Y-604291800D02*
X878618700Y-604291800D01*
X896881300Y-604832760D02*
X896881300Y-604291800D01*
X896881300Y-623748200D02*
X896881300Y-622897240D01*
%TO.C,D2*%
D11*
X866115000Y-608365000D02*
X866115000Y-610635000D01*
X866115000Y-610635000D02*
X870000000Y-610635000D01*
X870000000Y-608365000D02*
X866115000Y-608365000D01*
%TO.C,R10*%
X879762742Y-632477500D02*
X880237258Y-632477500D01*
X879762742Y-633522500D02*
X880237258Y-633522500D01*
%TO.C,D3*%
X881215000Y-635365000D02*
X881215000Y-637635000D01*
X881215000Y-637635000D02*
X885100000Y-637635000D01*
X885100000Y-635365000D02*
X881215000Y-635365000D01*
%TO.C,J1*%
X848620000Y-605310000D02*
X848620000Y-595040000D01*
X851380000Y-595040000D02*
X848620000Y-595040000D01*
X851380000Y-605310000D02*
X848620000Y-605310000D01*
X851380000Y-605310000D02*
X851380000Y-595040000D01*
X851380000Y-606580000D02*
X851380000Y-607960000D01*
X851380000Y-607960000D02*
X850000000Y-607960000D01*
%TO.C,R9*%
X872062258Y-612977500D02*
X871587742Y-612977500D01*
X872062258Y-614022500D02*
X871587742Y-614022500D01*
%TO.C,C18*%
X874640000Y-606372164D02*
X874640000Y-606587836D01*
X875360000Y-606372164D02*
X875360000Y-606587836D01*
%TO.C,T1*%
X877186252Y-600590000D02*
X875763748Y-600590000D01*
X877186252Y-602410000D02*
X875763748Y-602410000D01*
%TO.C,R2*%
X886977500Y-626937742D02*
X886977500Y-627412258D01*
X888022500Y-626937742D02*
X888022500Y-627412258D01*
%TO.C,C19*%
X874265000Y-609788748D02*
X874265000Y-610311252D01*
X875735000Y-609788748D02*
X875735000Y-610311252D01*
%TO.C,SW1*%
X858750000Y-619000000D02*
X858750000Y-620500000D01*
X860000000Y-623000000D02*
X864500000Y-623000000D01*
X864500000Y-616500000D02*
X860000000Y-616500000D01*
X865750000Y-620500000D02*
X865750000Y-619000000D01*
%TO.C,SW2*%
X859250000Y-630000000D02*
X859250000Y-631500000D01*
X860500000Y-634000000D02*
X865000000Y-634000000D01*
X865000000Y-627500000D02*
X860500000Y-627500000D01*
X866250000Y-631500000D02*
X866250000Y-630000000D01*
%TO.C,BT1*%
X879120000Y-594620000D02*
X879120000Y-597380000D01*
X881770000Y-594620000D02*
X879120000Y-594620000D01*
X881770000Y-594620000D02*
X881770000Y-597380000D01*
X881770000Y-597380000D02*
X879120000Y-597380000D01*
X883040000Y-594620000D02*
X884420000Y-594620000D01*
X884420000Y-594620000D02*
X884420000Y-596000000D01*
%TO.C,R8*%
X874237258Y-616477500D02*
X873762742Y-616477500D01*
X874237258Y-617522500D02*
X873762742Y-617522500D01*
%TO.C,U2*%
D12*
X908435001Y-630074999D02*
X908899980Y-630074999D01*
X908899980Y-625924999D02*
X908435001Y-625924999D01*
X911120020Y-630074999D02*
X911584999Y-630074999D01*
X911584999Y-625924999D02*
X911120020Y-625924999D01*
D13*
G36*
X912600998Y-628690498D02*
G01*
X912346998Y-628690498D01*
X912346998Y-628309498D01*
X912600998Y-628309498D01*
X912600998Y-628690498D01*
G37*
%TO.C,C22*%
D11*
X893090000Y-597711252D02*
X893090000Y-596288748D01*
X894910000Y-597711252D02*
X894910000Y-596288748D01*
%TO.C,C21*%
X902590000Y-597711252D02*
X902590000Y-596288748D01*
X904410000Y-597711252D02*
X904410000Y-596288748D01*
%TO.C,R3*%
X906262742Y-624977500D02*
X906737258Y-624977500D01*
X906262742Y-626022500D02*
X906737258Y-626022500D01*
%TO.C,C14*%
X916315000Y-628238748D02*
X916315000Y-628761252D01*
X917785000Y-628238748D02*
X917785000Y-628761252D01*
%TO.C,J2*%
X918120000Y-595000000D02*
X919500000Y-595000000D01*
X918120000Y-596380000D02*
X918120000Y-595000000D01*
X918120000Y-597650000D02*
X918120000Y-607920000D01*
X918120000Y-597650000D02*
X920880000Y-597650000D01*
X918120000Y-607920000D02*
X920880000Y-607920000D01*
X920880000Y-597650000D02*
X920880000Y-607920000D01*
%TO.C,C23*%
X888590000Y-597686252D02*
X888590000Y-596263748D01*
X890410000Y-597686252D02*
X890410000Y-596263748D01*
%TO.C,C15*%
X909392164Y-624640000D02*
X909607836Y-624640000D01*
X909392164Y-625360000D02*
X909607836Y-625360000D01*
%TO.C,R1*%
X889487500Y-626937742D02*
X889487500Y-627412258D01*
X890532500Y-626937742D02*
X890532500Y-627412258D01*
%TO.C,R5*%
X898477500Y-620762742D02*
X898477500Y-621237258D01*
X899522500Y-620762742D02*
X899522500Y-621237258D01*
%TO.C,R11*%
X884437742Y-632477500D02*
X884912258Y-632477500D01*
X884437742Y-633522500D02*
X884912258Y-633522500D01*
%TO.C,L1*%
X908750000Y-620700000D02*
X911250000Y-620700000D01*
X911250000Y-612300000D02*
X908750000Y-612300000D01*
%TO.C,C20*%
X907590000Y-597686252D02*
X907590000Y-596263748D01*
X909410000Y-597686252D02*
X909410000Y-596263748D01*
%TO.C,R4*%
X902977500Y-627412258D02*
X902977500Y-626937742D01*
X904022500Y-627412258D02*
X904022500Y-626937742D01*
%TO.C,D1*%
X869365000Y-616715000D02*
X869365000Y-620600000D01*
X871635000Y-616715000D02*
X869365000Y-616715000D01*
X871635000Y-620600000D02*
X871635000Y-616715000D01*
%TO.C,C13*%
X902313748Y-622590000D02*
X903736252Y-622590000D01*
X902313748Y-624410000D02*
X903736252Y-624410000D01*
%TO.C,USBC1*%
D14*
X890530000Y-635357544D02*
X890530000Y-633487544D01*
X890530000Y-639067544D02*
X890530000Y-637587544D01*
X899470000Y-635357544D02*
X899470000Y-633487544D01*
X899470000Y-639067544D02*
X890530000Y-639067544D01*
X899470000Y-639067544D02*
X899470000Y-637587544D01*
D15*
X899500000Y-631217544D02*
G75*
G02*
X899440000Y-631217544I-30000J0D01*
G01*
X899440000Y-631217544D02*
G75*
G02*
X899500000Y-631217544I30000J0D01*
G01*
%TO.C,R7*%
D11*
X876087742Y-603477500D02*
X876562258Y-603477500D01*
X876087742Y-604522500D02*
X876562258Y-604522500D01*
%TD*%
M02*
