%TF.GenerationSoftware,KiCad,Pcbnew,10.0.6*%
%TF.CreationDate,2026-09-16T15:16:44+05:30*%
%TF.ProjectId,remote,72656d6f-7465-42e6-9b69-6361645f7063,rev?*%
%TF.SameCoordinates,Original*%
%TF.FileFunction,Copper,L2,Inr*%
%TF.FilePolarity,Positive*%
%FSLAX46Y46*%
G04 Gerber Fmt 4.6, Leading zero omitted, Abs format (unit mm)*
G04 Created by KiCad (PCBNEW 10.0.6) date 2026-09-16 15:16:44*
%MOMM*%
%LPD*%
G01*
G04 APERTURE LIST*
%TA.AperFunction,ComponentPad*%
%ADD10C,2.000000*%
%TD*%
%TA.AperFunction,ComponentPad*%
%ADD11R,1.700000X1.700000*%
%TD*%
%TA.AperFunction,ComponentPad*%
%ADD12C,1.700000*%
%TD*%
%TA.AperFunction,ComponentPad*%
%ADD13C,0.508000*%
%TD*%
%TA.AperFunction,ComponentPad*%
%ADD14C,0.600000*%
%TD*%
%TA.AperFunction,ComponentPad*%
%ADD15O,1.200000X2.000000*%
%TD*%
%TA.AperFunction,ComponentPad*%
%ADD16O,1.200000X1.800000*%
%TD*%
%TA.AperFunction,ViaPad*%
%ADD17C,0.400000*%
%TD*%
%TA.AperFunction,ViaPad*%
%ADD18C,0.600000*%
%TD*%
%TA.AperFunction,Conductor*%
%ADD19C,0.400000*%
%TD*%
%TA.AperFunction,Conductor*%
%ADD20C,0.600000*%
%TD*%
%TA.AperFunction,Conductor*%
%ADD21C,0.300000*%
%TD*%
G04 APERTURE END LIST*
D10*
%TO.N,/IO4*%
%TO.C,SW1*%
X859000000Y-598000000D03*
X865500000Y-598000000D03*
%TO.N,GND*%
X859000000Y-602500000D03*
X865500000Y-602500000D03*
%TD*%
%TO.N,/IO5*%
%TO.C,SW2*%
X859000000Y-608000000D03*
X865500000Y-608000000D03*
%TO.N,GND*%
X859000000Y-612500000D03*
X865500000Y-612500000D03*
%TD*%
D11*
%TO.N,+5VA*%
%TO.C,BT1*%
X893040000Y-596000000D03*
D12*
%TO.N,GND*%
X890500000Y-596000000D03*
%TD*%
D13*
%TO.N,N/C*%
%TO.C,U2*%
X909616300Y-627212599D03*
X909616300Y-627999999D03*
X909616300Y-628787399D03*
X910403700Y-627212599D03*
X910403700Y-627999999D03*
X910403700Y-628787399D03*
%TD*%
D10*
%TO.N,/IO7*%
%TO.C,SW4*%
X859500000Y-628500000D03*
X866000000Y-628500000D03*
%TO.N,GND*%
X859500000Y-633000000D03*
X866000000Y-633000000D03*
%TD*%
%TO.N,/IO6*%
%TO.C,SW3*%
X859000000Y-617500000D03*
X865500000Y-617500000D03*
%TO.N,GND*%
X859000000Y-622000000D03*
X865500000Y-622000000D03*
%TD*%
D14*
%TO.N,*%
%TO.C,USBC1*%
X892100000Y-632767544D03*
X897900000Y-632767544D03*
D15*
%TO.N,unconnected-(USBC1-EH-Pad1)*%
X899330000Y-632267544D03*
D16*
%TO.N,unconnected-(USBC1-EH-Pad2)*%
X899330000Y-636447544D03*
%TO.N,unconnected-(USBC1-EH-Pad3)*%
X890670000Y-636447544D03*
D15*
%TO.N,unconnected-(USBC1-EH-Pad4)*%
X890670000Y-632267544D03*
%TD*%
D17*
%TO.N,GND*%
X895000000Y-605500000D03*
X915000000Y-627500000D03*
D18*
X918500000Y-595500000D03*
D17*
X898847941Y-626229874D03*
X885000000Y-611000000D03*
X912500000Y-627000000D03*
X903500000Y-625000000D03*
D18*
X913500000Y-595525000D03*
D17*
X880500000Y-605500000D03*
D18*
X904000000Y-595525000D03*
X899500000Y-595500000D03*
D17*
X874000000Y-606000000D03*
X911000000Y-625000000D03*
%TO.N,+3.3V*%
X896810460Y-629189540D03*
X907000000Y-629000000D03*
X904500000Y-625000000D03*
X876500000Y-606000000D03*
X904000000Y-622000000D03*
X880500000Y-607000000D03*
X900500000Y-617500000D03*
X900500000Y-622000000D03*
%TO.N,+5V*%
X896886196Y-630113804D03*
X908000001Y-626000000D03*
X917000000Y-629500000D03*
X912500000Y-628500000D03*
%TO.N,Net-(T1-Pin_1)*%
X880000000Y-602500000D03*
X878500000Y-603500000D03*
X881500000Y-608000000D03*
%TO.N,Net-(L1-Pad2)*%
X914500000Y-628950000D03*
X913300000Y-620000000D03*
%TO.N,Net-(L1-Pad1)*%
X907500000Y-629500000D03*
X907700000Y-620000000D03*
%TO.N,/IO4*%
X877000000Y-609500000D03*
%TO.N,/IO5*%
X876500000Y-611000000D03*
%TO.N,/IO6*%
X876000000Y-613000000D03*
%TO.N,/IO7*%
X876500000Y-614500000D03*
%TO.N,/D+*%
X877500000Y-622000000D03*
X895000000Y-629500000D03*
%TO.N,/D-*%
X894500000Y-633500000D03*
X877000000Y-621000000D03*
%TD*%
%TO.N,+3.3V*%
D19*
X906810460Y-629189540D02*
X907000000Y-629000000D01*
X904500000Y-625000000D02*
X904500000Y-627689540D01*
X906000000Y-629189540D02*
X906810460Y-629189540D01*
D20*
X900500000Y-617500000D02*
X890000000Y-607000000D01*
D19*
X904500000Y-627689540D02*
X906000000Y-629189540D01*
D20*
X890000000Y-607000000D02*
X880500000Y-607000000D01*
D19*
X896810460Y-629189540D02*
X906000000Y-629189540D01*
%TO.N,+5V*%
X896886196Y-630113804D02*
X912886196Y-630113804D01*
D21*
X917000000Y-629500000D02*
X913500000Y-629500000D01*
X910045286Y-626000000D02*
X908000001Y-626000000D01*
D19*
X912886196Y-630113804D02*
X913500000Y-629500000D01*
D21*
X913000000Y-628954714D02*
X910045286Y-626000000D01*
X913000000Y-629000000D02*
X912500000Y-628500000D01*
X913000000Y-629000000D02*
X913000000Y-628954714D01*
X913500000Y-629500000D02*
X913000000Y-629000000D01*
%TD*%
M02*
