M48
; DRILL file KiCad 10.0.6 date 2026-09-23T13:14:41
; FORMAT={-:-/ absolute / metric / decimal}
; #@! TF.CreationDate,2026-09-23T13:14:41+05:30
; #@! TF.GenerationSoftware,Kicad,Pcbnew,10.0.6
; #@! TF.FileFunction,Plated,1,4,PTH
FMAT,2
METRIC
; #@! TA.AperFunction,Plated,PTH,ViaDrill
T1C0.300
; #@! TA.AperFunction,Plated,PTH,ComponentDrill
T2C0.300
; #@! TA.AperFunction,Plated,PTH,ViaDrill
T3C0.400
; #@! TA.AperFunction,Plated,PTH,ViaDrill
T4C0.500
; #@! TA.AperFunction,Plated,PTH,ComponentDrill
T5C0.600
; #@! TA.AperFunction,Plated,PTH,ComponentDrill
T6C0.800
; #@! TA.AperFunction,Plated,PTH,ComponentDrill
T7C1.000
; #@! TA.AperFunction,Plated,PTH,ComponentDrill
T8C1.100
%
G90
G05
T1
X871.5Y-610.5
X872.5Y-604.0
X873.5Y-601.5
X874.0Y-606.0
X874.5Y-614.0
X875.0Y-608.0
X876.0Y-618.5
X876.5Y-606.0
X876.5Y-611.0
X877.0Y-609.5
X877.0Y-621.0
X877.5Y-622.0
X878.5Y-603.5
X880.0Y-602.5
X880.5Y-605.5
X880.5Y-607.0
X881.5Y-608.0
X881.5Y-611.0
X882.0Y-613.0
X885.0Y-611.0
X886.0Y-621.0
X887.5Y-636.0
X888.5Y-634.0
X893.0Y-617.5
X893.405Y-627.095
X894.033Y-630.362
X894.5Y-633.5
X895.0Y-605.5
X895.0Y-629.5
X898.5Y-623.0
X898.848Y-626.23
X903.5Y-625.0
X904.0Y-622.0
X904.5Y-625.0
X906.0Y-607.14
X907.0Y-629.0
X907.5Y-629.5
X907.7Y-620.0
X908.0Y-626.0
X911.0Y-625.0
X912.5Y-627.0
X912.5Y-628.5
X913.3Y-620.0
X914.5Y-628.95
X915.0Y-627.5
X915.5Y-630.0
T2
X909.616Y-627.213
X909.616Y-628.0
X909.616Y-628.787
X910.404Y-627.213
X910.404Y-628.0
X910.404Y-628.787
T3
X870.5Y-622.5
T4
X892.0Y-595.5
X906.0Y-595.5
T5
X892.1Y-632.768
X897.9Y-632.768
T7
X850.0Y-596.42
X850.0Y-598.96
X850.0Y-601.5
X850.0Y-604.04
X850.0Y-606.58
X880.5Y-596.0
X883.04Y-596.0
X919.5Y-596.38
X919.5Y-598.92
X919.5Y-601.46
X919.5Y-604.0
X919.5Y-606.54
T8
X859.0Y-617.5
X859.0Y-622.0
X859.5Y-628.5
X859.5Y-633.0
X865.5Y-617.5
X865.5Y-622.0
X866.0Y-628.5
X866.0Y-633.0
T6
G00X890.67Y-631.918
M15
G01X890.67Y-632.618
M16
G05
G00X890.67Y-636.248
M15
G01X890.67Y-636.648
M16
G05
G00X899.33Y-631.918
M15
G01X899.33Y-632.618
M16
G05
G00X899.33Y-636.248
M15
G01X899.33Y-636.648
M16
G05
M30
