%TF.GenerationSoftware,KiCad,Pcbnew,10.0.6*%
%TF.CreationDate,2026-09-16T15:16:44+05:30*%
%TF.ProjectId,remote,72656d6f-7465-42e6-9b69-6361645f7063,rev?*%
%TF.SameCoordinates,Original*%
%TF.FileFunction,Paste,Top*%
%TF.FilePolarity,Positive*%
%FSLAX46Y46*%
G04 Gerber Fmt 4.6, Leading zero omitted, Abs format (unit mm)*
G04 Created by KiCad (PCBNEW 10.0.6) date 2026-09-16 15:16:44*
%MOMM*%
%LPD*%
G01*
G04 APERTURE LIST*
G04 Aperture macros list*
%AMRoundRect*
0 Rectangle with rounded corners*
0 $1 Rounding radius*
0 $2 $3 $4 $5 $6 $7 $8 $9 X,Y pos of 4 corners*
0 Add a 4 corners polygon primitive as box body*
4,1,4,$2,$3,$4,$5,$6,$7,$8,$9,$2,$3,0*
0 Add four circle primitives for the rounded corners*
1,1,$1+$1,$2,$3*
1,1,$1+$1,$4,$5*
1,1,$1+$1,$6,$7*
1,1,$1+$1,$8,$9*
0 Add four rect primitives between the rounded corners*
20,1,$1+$1,$2,$3,$4,$5,0*
20,1,$1+$1,$4,$5,$6,$7,0*
20,1,$1+$1,$6,$7,$8,$9,0*
20,1,$1+$1,$8,$9,$2,$3,0*%
%AMFreePoly0*
4,1,17,0.335278,0.685443,0.349923,0.650088,0.349923,-0.649935,0.335278,-0.685290,0.299923,-0.699935,0.000318,-0.699935,-0.000051,-0.700088,-0.300050,-0.700088,-0.335405,-0.685443,-0.350050,-0.650088,-0.350050,0.649935,-0.335405,0.685290,-0.300050,0.699935,-0.000445,0.699935,-0.000076,0.700088,0.299923,0.700088,0.335278,0.685443,0.335278,0.685443,$1*%
%AMFreePoly1*
4,1,17,0.335431,0.685290,0.350076,0.649935,0.350076,-0.650037,0.335431,-0.685392,0.300076,-0.700037,0.000187,-0.700037,0.000127,-0.700062,-0.299898,-0.700062,-0.335253,-0.685417,-0.349898,-0.650062,-0.349898,0.649910,-0.335253,0.685265,-0.299898,0.699910,-0.000009,0.699910,0.000051,0.699935,0.300076,0.699935,0.335431,0.685290,0.335431,0.685290,$1*%
%AMFreePoly2*
4,1,13,0.335227,0.685443,0.349872,0.650088,0.349872,-0.649884,0.335227,-0.685239,0.299872,-0.699884,-0.300152,-0.699884,-0.335507,-0.685239,-0.350152,-0.649884,-0.350152,0.650088,-0.335507,0.685443,-0.300152,0.700088,0.299872,0.700088,0.335227,0.685443,0.335227,0.685443,$1*%
G04 Aperture macros list end*
%ADD10C,0.000000*%
%ADD11RoundRect,0.200000X0.275000X-0.200000X0.275000X0.200000X-0.275000X0.200000X-0.275000X-0.200000X0*%
%ADD12R,1.498600X0.889000*%
%ADD13R,0.889000X1.498600*%
%ADD14R,0.889000X0.889000*%
%ADD15RoundRect,0.140000X-0.170000X0.140000X-0.170000X-0.140000X0.170000X-0.140000X0.170000X0.140000X0*%
%ADD16RoundRect,0.250000X0.325000X0.650000X-0.325000X0.650000X-0.325000X-0.650000X0.325000X-0.650000X0*%
%ADD17RoundRect,0.200000X-0.275000X0.200000X-0.275000X-0.200000X0.275000X-0.200000X0.275000X0.200000X0*%
%ADD18RoundRect,0.250000X-0.475000X0.250000X-0.475000X-0.250000X0.475000X-0.250000X0.475000X0.250000X0*%
%ADD19RoundRect,0.250000X0.650000X-0.325000X0.650000X0.325000X-0.650000X0.325000X-0.650000X-0.325000X0*%
%ADD20RoundRect,0.200000X-0.200000X-0.275000X0.200000X-0.275000X0.200000X0.275000X-0.200000X0.275000X0*%
%ADD21RoundRect,0.140000X-0.140000X-0.170000X0.140000X-0.170000X0.140000X0.170000X-0.140000X0.170000X0*%
%ADD22R,2.600000X8.200000*%
%ADD23RoundRect,0.250000X-0.325000X-0.650000X0.325000X-0.650000X0.325000X0.650000X-0.325000X0.650000X0*%
%ADD24FreePoly0,0.000000*%
%ADD25FreePoly1,0.000000*%
%ADD26R,0.300000X1.300000*%
%ADD27FreePoly2,0.000000*%
G04 APERTURE END LIST*
D10*
%TO.C,U2*%
G36*
X908910000Y-626639999D02*
G01*
X908090001Y-626639999D01*
X908090001Y-626360000D01*
X908910000Y-626360000D01*
X908910000Y-626639999D01*
G37*
G36*
X908910000Y-627139998D02*
G01*
X908090001Y-627139998D01*
X908090001Y-626859999D01*
X908910000Y-626859999D01*
X908910000Y-627139998D01*
G37*
G36*
X908910000Y-627640000D02*
G01*
X908090001Y-627640000D01*
X908090001Y-627360000D01*
X908910000Y-627360000D01*
X908910000Y-627640000D01*
G37*
G36*
X908910000Y-628139999D02*
G01*
X908090001Y-628139999D01*
X908090001Y-627859999D01*
X908910000Y-627859999D01*
X908910000Y-628139999D01*
G37*
G36*
X908910000Y-628640000D02*
G01*
X908090001Y-628640000D01*
X908090001Y-628359998D01*
X908910000Y-628359998D01*
X908910000Y-628640000D01*
G37*
G36*
X908910000Y-629139999D02*
G01*
X908090001Y-629139999D01*
X908090001Y-628860000D01*
X908910000Y-628860000D01*
X908910000Y-629139999D01*
G37*
G36*
X908910000Y-629639998D02*
G01*
X908090001Y-629639998D01*
X908090001Y-629359999D01*
X908910000Y-629359999D01*
X908910000Y-629639998D01*
G37*
G36*
X909450000Y-626473399D02*
G01*
X909220000Y-626473399D01*
X909220000Y-626024999D01*
X909450000Y-626024999D01*
X909450000Y-626473399D01*
G37*
G36*
X909450000Y-629974999D02*
G01*
X909220000Y-629974999D01*
X909220000Y-629526599D01*
X909450000Y-629526599D01*
X909450000Y-629974999D01*
G37*
G36*
X909900000Y-626473399D02*
G01*
X909670000Y-626473399D01*
X909670000Y-626024999D01*
X909900000Y-626024999D01*
X909900000Y-626473399D01*
G37*
G36*
X909900000Y-629974999D02*
G01*
X909670000Y-629974999D01*
X909670000Y-629526599D01*
X909900000Y-629526599D01*
X909900000Y-629974999D01*
G37*
G36*
X910350000Y-626473399D02*
G01*
X910120000Y-626473399D01*
X910120000Y-626024999D01*
X910350000Y-626024999D01*
X910350000Y-626473399D01*
G37*
G36*
X910350000Y-629974999D02*
G01*
X910120000Y-629974999D01*
X910120000Y-629526599D01*
X910350000Y-629526599D01*
X910350000Y-629974999D01*
G37*
G36*
X910800000Y-626473399D02*
G01*
X910570000Y-626473399D01*
X910570000Y-626024999D01*
X910800000Y-626024999D01*
X910800000Y-626473399D01*
G37*
G36*
X910800000Y-629974999D02*
G01*
X910570000Y-629974999D01*
X910570000Y-629526599D01*
X910800000Y-629526599D01*
X910800000Y-629974999D01*
G37*
G36*
X911929999Y-626639999D02*
G01*
X911110000Y-626639999D01*
X911110000Y-626360000D01*
X911929999Y-626360000D01*
X911929999Y-626639999D01*
G37*
G36*
X911929999Y-627139998D02*
G01*
X911110000Y-627139998D01*
X911110000Y-626859999D01*
X911929999Y-626859999D01*
X911929999Y-627139998D01*
G37*
G36*
X911929999Y-627640000D02*
G01*
X911110000Y-627640000D01*
X911110000Y-627359998D01*
X911929999Y-627359998D01*
X911929999Y-627640000D01*
G37*
G36*
X911929999Y-628139999D02*
G01*
X911110000Y-628139999D01*
X911110000Y-627859999D01*
X911929999Y-627859999D01*
X911929999Y-628139999D01*
G37*
G36*
X911929999Y-628639998D02*
G01*
X911110000Y-628639998D01*
X911110000Y-628359998D01*
X911929999Y-628359998D01*
X911929999Y-628639998D01*
G37*
G36*
X911929999Y-629139999D02*
G01*
X911110000Y-629139999D01*
X911110000Y-628860000D01*
X911929999Y-628860000D01*
X911929999Y-629139999D01*
G37*
G36*
X911929999Y-629639998D02*
G01*
X911110000Y-629639998D01*
X911110000Y-629359999D01*
X911929999Y-629359999D01*
X911929999Y-629639998D01*
G37*
G36*
X909516300Y-626971178D02*
G01*
X909374879Y-627112599D01*
X909294930Y-627112599D01*
X909294930Y-626649929D01*
X909516300Y-626649929D01*
X909516300Y-626971178D01*
G37*
G36*
X909516300Y-629028820D02*
G01*
X909516300Y-629350069D01*
X909294930Y-629350069D01*
X909294930Y-628887399D01*
X909374879Y-628887399D01*
X909516300Y-629028820D01*
G37*
G36*
X910725070Y-627112599D02*
G01*
X910645121Y-627112599D01*
X910503700Y-626971178D01*
X910503700Y-626649929D01*
X910725070Y-626649929D01*
X910725070Y-627112599D01*
G37*
G36*
X910725070Y-629350069D02*
G01*
X910503700Y-629350069D01*
X910503700Y-629028820D01*
X910645121Y-628887399D01*
X910725070Y-628887399D01*
X910725070Y-629350069D01*
G37*
G36*
X909516300Y-627454020D02*
G01*
X909516300Y-627758578D01*
X909374879Y-627899999D01*
X909294930Y-627899999D01*
X909294930Y-627312599D01*
X909374879Y-627312599D01*
X909516300Y-627454020D01*
G37*
G36*
X909516300Y-628241420D02*
G01*
X909516300Y-628545978D01*
X909374879Y-628687399D01*
X909294930Y-628687399D01*
X909294930Y-628099999D01*
X909374879Y-628099999D01*
X909516300Y-628241420D01*
G37*
G36*
X910303700Y-626971178D02*
G01*
X910162279Y-627112599D01*
X909857721Y-627112599D01*
X909716300Y-626971178D01*
X909716300Y-626649929D01*
X910303700Y-626649929D01*
X910303700Y-626971178D01*
G37*
G36*
X910303700Y-629028820D02*
G01*
X910303700Y-629350069D01*
X909716300Y-629350069D01*
X909716300Y-629028820D01*
X909857721Y-628887399D01*
X910162279Y-628887399D01*
X910303700Y-629028820D01*
G37*
G36*
X910725070Y-627899999D02*
G01*
X910645121Y-627899999D01*
X910503700Y-627758578D01*
X910503700Y-627454020D01*
X910645121Y-627312599D01*
X910725070Y-627312599D01*
X910725070Y-627899999D01*
G37*
G36*
X910725070Y-628687399D02*
G01*
X910645121Y-628687399D01*
X910503700Y-628545978D01*
X910503700Y-628241420D01*
X910645121Y-628099999D01*
X910725070Y-628099999D01*
X910725070Y-628687399D01*
G37*
G36*
X910303700Y-627454020D02*
G01*
X910303700Y-627758578D01*
X910162279Y-627899999D01*
X909857721Y-627899999D01*
X909716300Y-627758578D01*
X909716300Y-627454020D01*
X909857721Y-627312599D01*
X910162279Y-627312599D01*
X910303700Y-627454020D01*
G37*
G36*
X910303700Y-628241420D02*
G01*
X910303700Y-628545978D01*
X910162279Y-628687399D01*
X909857721Y-628687399D01*
X909716300Y-628545978D01*
X909716300Y-628241420D01*
X909857721Y-628099999D01*
X910162279Y-628099999D01*
X910303700Y-628241420D01*
G37*
%TD*%
D11*
%TO.C,R6*%
X897500000Y-626150000D03*
X897500000Y-624500000D03*
%TD*%
D12*
%TO.C,U1*%
X879000000Y-605610000D03*
X879000000Y-606880000D03*
X879000000Y-608150000D03*
X879000000Y-609420000D03*
X879000000Y-610690000D03*
X879000000Y-611960000D03*
X879000000Y-613230000D03*
X879000000Y-614500000D03*
X879000000Y-615770000D03*
X879000000Y-617040000D03*
X879000000Y-618310000D03*
X879000000Y-619580000D03*
X879000000Y-620850000D03*
X879000000Y-622120000D03*
D13*
X880765000Y-623370002D03*
X882035000Y-623370002D03*
X883305000Y-623370002D03*
X884575000Y-623370002D03*
X885845000Y-623370002D03*
X887115000Y-623370002D03*
X888385000Y-623370002D03*
X889655000Y-623370002D03*
X890925000Y-623370002D03*
X892195000Y-623370002D03*
X893465000Y-623370002D03*
X894735000Y-623370002D03*
D12*
X896500000Y-622120000D03*
X896500000Y-620850000D03*
X896500000Y-619580000D03*
X896500000Y-618310000D03*
X896500000Y-617040000D03*
X896500000Y-615770000D03*
X896500000Y-614500000D03*
X896500000Y-613230000D03*
X896500000Y-611960000D03*
X896500000Y-610690000D03*
X896500000Y-609420000D03*
X896500000Y-608150000D03*
X896500000Y-606880000D03*
X896500000Y-605610000D03*
D14*
X886250000Y-613330000D03*
X884850000Y-611930000D03*
X884850000Y-613330000D03*
X884850000Y-614730000D03*
X886250000Y-614730000D03*
X887650000Y-614730000D03*
X887650000Y-613330000D03*
X887650000Y-611930000D03*
X886250000Y-611930000D03*
%TD*%
D15*
%TO.C,C18*%
X875000000Y-606000000D03*
X875000000Y-606960000D03*
%TD*%
D16*
%TO.C,T1*%
X877950000Y-601500000D03*
X875000000Y-601500000D03*
%TD*%
D17*
%TO.C,R2*%
X887500000Y-626350000D03*
X887500000Y-628000000D03*
%TD*%
D18*
%TO.C,C19*%
X875000000Y-609100000D03*
X875000000Y-611000000D03*
%TD*%
D19*
%TO.C,C22*%
X904000000Y-598475000D03*
X904000000Y-595525000D03*
%TD*%
%TO.C,C21*%
X913500000Y-598475000D03*
X913500000Y-595525000D03*
%TD*%
D20*
%TO.C,R3*%
X905675000Y-625500000D03*
X907325000Y-625500000D03*
%TD*%
D18*
%TO.C,C14*%
X917050000Y-627550000D03*
X917050000Y-629450000D03*
%TD*%
D19*
%TO.C,C23*%
X899500000Y-598450000D03*
X899500000Y-595500000D03*
%TD*%
D21*
%TO.C,C15*%
X909020000Y-625000000D03*
X909980000Y-625000000D03*
%TD*%
D17*
%TO.C,R1*%
X890010000Y-626350000D03*
X890010000Y-628000000D03*
%TD*%
%TO.C,R5*%
X899000000Y-620175000D03*
X899000000Y-621825000D03*
%TD*%
D22*
%TO.C,L1*%
X907200000Y-616500000D03*
X912800000Y-616500000D03*
%TD*%
D19*
%TO.C,C20*%
X918500000Y-598450000D03*
X918500000Y-595500000D03*
%TD*%
D11*
%TO.C,R4*%
X903500000Y-628000000D03*
X903500000Y-626350000D03*
%TD*%
D23*
%TO.C,C13*%
X901550000Y-623500000D03*
X904500000Y-623500000D03*
%TD*%
D24*
%TO.C,USBC1*%
X891800000Y-631507544D03*
D25*
X892600000Y-631507544D03*
D26*
X893750000Y-631507544D03*
X894750000Y-631507544D03*
X895250000Y-631507544D03*
X896250000Y-631507544D03*
D27*
X898200000Y-631507544D03*
X897400000Y-631507544D03*
D26*
X896750000Y-631507544D03*
X895750000Y-631507544D03*
X894250000Y-631507544D03*
X893250000Y-631507544D03*
%TD*%
D20*
%TO.C,R7*%
X875500000Y-604000000D03*
X877150000Y-604000000D03*
%TD*%
M02*
