M48
; DRILL file KiCad 10.0.6 date 2026-09-16T15:16:40
; FORMAT={-:-/ absolute / metric / decimal}
; #@! TF.CreationDate,2026-09-16T15:16:40+05:30
; #@! TF.GenerationSoftware,Kicad,Pcbnew,10.0.6
; #@! TF.FileFunction,Plated,1,4,PTH
FMAT,2
METRIC
; #@! TA.AperFunction,Plated,PTH,ComponentDrill
T1C0.254
; #@! TA.AperFunction,Plated,PTH,ViaDrill
T2C0.300
; #@! TA.AperFunction,Plated,PTH,ComponentDrill
T3C0.600
; #@! TA.AperFunction,Plated,PTH,ComponentDrill
T4C0.800
; #@! TA.AperFunction,Plated,PTH,ComponentDrill
T5C1.000
; #@! TA.AperFunction,Plated,PTH,ComponentDrill
T6C1.100
%
G90
G05
T1
X909.616Y-627.213
X909.616Y-628.0
X909.616Y-628.787
X910.404Y-627.213
X910.404Y-628.0
X910.404Y-628.787
T2
X874.0Y-606.0
X876.0Y-613.0
X876.5Y-606.0
X876.5Y-611.0
X876.5Y-614.5
X877.0Y-609.5
X877.0Y-621.0
X877.5Y-622.0
X878.5Y-603.5
X880.0Y-602.5
X880.5Y-605.5
X880.5Y-607.0
X881.5Y-608.0
X885.0Y-611.0
X894.5Y-633.5
X895.0Y-605.5
X895.0Y-629.5
X896.81Y-629.19
X896.886Y-630.114
X898.848Y-626.23
X899.5Y-595.5
X900.5Y-617.5
X900.5Y-622.0
X903.5Y-625.0
X904.0Y-595.525
X904.0Y-622.0
X904.5Y-625.0
X907.0Y-629.0
X907.5Y-629.5
X907.7Y-620.0
X908.0Y-626.0
X911.0Y-625.0
X912.5Y-627.0
X912.5Y-628.5
X913.3Y-620.0
X913.5Y-595.525
X914.5Y-628.95
X915.0Y-627.5
X917.0Y-629.5
X918.5Y-595.5
T3
X892.1Y-632.768
X897.9Y-632.768
T5
X890.5Y-596.0
X893.04Y-596.0
T6
X859.0Y-598.0
X859.0Y-602.5
X859.0Y-608.0
X859.0Y-612.5
X859.0Y-617.5
X859.0Y-622.0
X859.5Y-628.5
X859.5Y-633.0
X865.5Y-598.0
X865.5Y-602.5
X865.5Y-608.0
X865.5Y-612.5
X865.5Y-617.5
X865.5Y-622.0
X866.0Y-628.5
X866.0Y-633.0
T4
G00X890.67Y-631.918
M15
G01X890.67Y-632.618
M16
G05
G00X890.67Y-636.248
M15
G01X890.67Y-636.648
M16
G05
G00X899.33Y-631.918
M15
G01X899.33Y-632.618
M16
G05
G00X899.33Y-636.248
M15
G01X899.33Y-636.648
M16
G05
M30
