%TF.GenerationSoftware,KiCad,Pcbnew,10.0.6*%
%TF.CreationDate,2026-09-18T14:01:52+05:30*%
%TF.ProjectId,remote,72656d6f-7465-42e6-9b69-6361645f7063,rev?*%
%TF.SameCoordinates,Original*%
%TF.FileFunction,Copper,L3,Inr*%
%TF.FilePolarity,Positive*%
%FSLAX46Y46*%
G04 Gerber Fmt 4.6, Leading zero omitted, Abs format (unit mm)*
G04 Created by KiCad (PCBNEW 10.0.6) date 2026-09-18 14:01:52*
%MOMM*%
%LPD*%
G01*
G04 APERTURE LIST*
%TA.AperFunction,ComponentPad*%
%ADD10R,1.700000X1.700000*%
%TD*%
%TA.AperFunction,ComponentPad*%
%ADD11C,1.700000*%
%TD*%
%TA.AperFunction,ComponentPad*%
%ADD12C,2.000000*%
%TD*%
%TA.AperFunction,ComponentPad*%
%ADD13C,0.500000*%
%TD*%
%TA.AperFunction,ComponentPad*%
%ADD14C,0.508000*%
%TD*%
%TA.AperFunction,ComponentPad*%
%ADD15C,0.600000*%
%TD*%
%TA.AperFunction,ComponentPad*%
%ADD16O,1.200000X2.000000*%
%TD*%
%TA.AperFunction,ComponentPad*%
%ADD17O,1.200000X1.800000*%
%TD*%
%TA.AperFunction,ViaPad*%
%ADD18C,0.600000*%
%TD*%
%TA.AperFunction,ViaPad*%
%ADD19C,0.500000*%
%TD*%
%TA.AperFunction,ViaPad*%
%ADD20C,0.400000*%
%TD*%
G04 APERTURE END LIST*
D10*
%TO.N,GND*%
%TO.C,J1*%
X850000000Y-606580000D03*
D11*
%TO.N,+3.3V*%
X850000000Y-604040000D03*
%TO.N,/J1x*%
X850000000Y-601500000D03*
%TO.N,/J1y*%
X850000000Y-598960000D03*
%TO.N,/IO12*%
X850000000Y-596420000D03*
%TD*%
D12*
%TO.N,/IO15*%
%TO.C,SW1*%
X859000000Y-617500000D03*
X865500000Y-617500000D03*
%TO.N,GND*%
X859000000Y-622000000D03*
X865500000Y-622000000D03*
%TD*%
%TO.N,/IO16*%
%TO.C,SW2*%
X859500000Y-628500000D03*
X866000000Y-628500000D03*
%TO.N,GND*%
X859500000Y-633000000D03*
X866000000Y-633000000D03*
%TD*%
D10*
%TO.N,+5VA*%
%TO.C,BT1*%
X883040000Y-596000000D03*
D11*
%TO.N,GND*%
X880500000Y-596000000D03*
%TD*%
D13*
%TO.N,N/C*%
%TO.C,U2*%
X909616300Y-627212599D03*
D14*
X909616300Y-627999999D03*
X909616300Y-628787399D03*
X910403700Y-627212599D03*
X910403700Y-627999999D03*
X910403700Y-628787399D03*
%TD*%
D10*
%TO.N,GND*%
%TO.C,J2*%
X919500000Y-596380000D03*
D11*
%TO.N,+3.3V*%
X919500000Y-598920000D03*
%TO.N,/J2x*%
X919500000Y-601460000D03*
%TO.N,/J2y*%
X919500000Y-604000000D03*
%TO.N,/IO13*%
X919500000Y-606540000D03*
%TD*%
D15*
%TO.N,*%
%TO.C,USBC1*%
X892100000Y-632767544D03*
X897900000Y-632767544D03*
D16*
%TO.N,unconnected-(USBC1-EH-Pad1)*%
X899330000Y-632267544D03*
D17*
%TO.N,unconnected-(USBC1-EH-Pad2)*%
X899330000Y-636447544D03*
%TO.N,unconnected-(USBC1-EH-Pad3)*%
X890670000Y-636447544D03*
D16*
%TO.N,unconnected-(USBC1-EH-Pad4)*%
X890670000Y-632267544D03*
%TD*%
D18*
%TO.N,/IO13*%
X893000000Y-617500000D03*
%TO.N,/IO12*%
X886000000Y-621000000D03*
D19*
%TO.N,GND*%
X895000000Y-605500000D03*
X915000000Y-627500000D03*
X898847941Y-626229874D03*
X885000000Y-611000000D03*
X912500000Y-627000000D03*
X903500000Y-625000000D03*
D18*
X906000000Y-595500000D03*
D19*
X880500000Y-605500000D03*
D18*
X870500000Y-622500000D03*
X871500000Y-610500000D03*
X892000000Y-595500000D03*
D19*
X874000000Y-606000000D03*
D20*
X911000000Y-625000000D03*
D19*
%TO.N,+3.3V*%
X896810460Y-629189540D03*
D18*
X900500000Y-629189540D03*
D19*
X907000000Y-629000000D03*
X904500000Y-625000000D03*
X876500000Y-606000000D03*
X904000000Y-622000000D03*
X880500000Y-607000000D03*
D20*
X900500000Y-617500000D03*
D19*
X900500000Y-622000000D03*
D18*
X872500000Y-604000000D03*
D19*
%TO.N,Net-(T1-Pin_1)*%
X880000000Y-602500000D03*
X878500000Y-603500000D03*
X881500000Y-608000000D03*
%TO.N,/J1x*%
X877000000Y-609500000D03*
%TO.N,/J1y*%
X876500000Y-611000000D03*
D18*
%TO.N,/J2x*%
X881500000Y-611000000D03*
%TO.N,/J2y*%
X882000000Y-613000000D03*
%TO.N,/IO18*%
X876000000Y-618500000D03*
X874500000Y-614000000D03*
D19*
%TO.N,/D-*%
X894500000Y-633500000D03*
D20*
X877000000Y-621000000D03*
%TO.N,/D+*%
X877500000Y-622000000D03*
D19*
X895000000Y-629500000D03*
%TO.N,+5V*%
X896886196Y-630113804D03*
D20*
X908000001Y-626000000D03*
X917000000Y-629500000D03*
D19*
X912500000Y-628500000D03*
D18*
X888500000Y-634000000D03*
D19*
%TO.N,Net-(L1-Pad1)*%
X907500000Y-629500000D03*
X907700000Y-620000000D03*
%TO.N,Net-(L1-Pad2)*%
X914500000Y-628950000D03*
X913300000Y-620000000D03*
%TD*%
%TA.AperFunction,Conductor*%
%TO.N,GND*%
G36*
X880030427Y-594520185D02*
G01*
X880076182Y-594572989D01*
X880086126Y-594642147D01*
X880057101Y-594705703D01*
X880001706Y-594742431D01*
X879981782Y-594748904D01*
X879792439Y-594845380D01*
X879738282Y-594884727D01*
X879738282Y-594884728D01*
X880370591Y-595517037D01*
X880307007Y-595534075D01*
X880192993Y-595599901D01*
X880099901Y-595692993D01*
X880034075Y-595807007D01*
X880017037Y-595870591D01*
X879384728Y-595238282D01*
X879384727Y-595238282D01*
X879345380Y-595292439D01*
X879248904Y-595481782D01*
X879183242Y-595683869D01*
X879183242Y-595683872D01*
X879150000Y-595893753D01*
X879150000Y-596106246D01*
X879183242Y-596316127D01*
X879183242Y-596316130D01*
X879248904Y-596518217D01*
X879345375Y-596707550D01*
X879384728Y-596761716D01*
X880017037Y-596129408D01*
X880034075Y-596192993D01*
X880099901Y-596307007D01*
X880192993Y-596400099D01*
X880307007Y-596465925D01*
X880370590Y-596482962D01*
X879738282Y-597115269D01*
X879738282Y-597115270D01*
X879792449Y-597154624D01*
X879981782Y-597251095D01*
X880183870Y-597316757D01*
X880393754Y-597350000D01*
X880606246Y-597350000D01*
X880816127Y-597316757D01*
X880816130Y-597316757D01*
X881018217Y-597251095D01*
X881207554Y-597154622D01*
X881261716Y-597115270D01*
X881261717Y-597115270D01*
X880629408Y-596482962D01*
X880692993Y-596465925D01*
X880807007Y-596400099D01*
X880900099Y-596307007D01*
X880965925Y-596192993D01*
X880982962Y-596129408D01*
X881653181Y-596799628D01*
X881686666Y-596860951D01*
X881689500Y-596887300D01*
X881689500Y-596897865D01*
X881689501Y-596897876D01*
X881695908Y-596957483D01*
X881746202Y-597092328D01*
X881746206Y-597092335D01*
X881832452Y-597207544D01*
X881832455Y-597207547D01*
X881947664Y-597293793D01*
X881947671Y-597293797D01*
X882082517Y-597344091D01*
X882082516Y-597344091D01*
X882089444Y-597344835D01*
X882142127Y-597350500D01*
X883937872Y-597350499D01*
X883997483Y-597344091D01*
X884132331Y-597293796D01*
X884247546Y-597207546D01*
X884333796Y-597092331D01*
X884384091Y-596957483D01*
X884390500Y-596897873D01*
X884390499Y-595102128D01*
X884384091Y-595042517D01*
X884379422Y-595030000D01*
X884333797Y-594907671D01*
X884333793Y-594907664D01*
X884247547Y-594792455D01*
X884247544Y-594792452D01*
X884155792Y-594723766D01*
X884113921Y-594667832D01*
X884108937Y-594598141D01*
X884142423Y-594536818D01*
X884203746Y-594503334D01*
X884230103Y-594500500D01*
X921376000Y-594500500D01*
X921443039Y-594520185D01*
X921488794Y-594572989D01*
X921500000Y-594624500D01*
X921500000Y-611370679D01*
X921499618Y-611380402D01*
X921499500Y-611381902D01*
X921499500Y-611618095D01*
X921499617Y-611619581D01*
X921500000Y-611629315D01*
X921500000Y-638375500D01*
X921480315Y-638442539D01*
X921427511Y-638488294D01*
X921376000Y-638499500D01*
X848124000Y-638499500D01*
X848056961Y-638479815D01*
X848011206Y-638427011D01*
X848000000Y-638375500D01*
X848000000Y-636060933D01*
X889569500Y-636060933D01*
X889569500Y-636834155D01*
X889596598Y-637005245D01*
X889650127Y-637169989D01*
X889728768Y-637324332D01*
X889830586Y-637464472D01*
X889953072Y-637586958D01*
X890093212Y-637688776D01*
X890247555Y-637767417D01*
X890412299Y-637820946D01*
X890583389Y-637848044D01*
X890583390Y-637848044D01*
X890756610Y-637848044D01*
X890756611Y-637848044D01*
X890927701Y-637820946D01*
X891092445Y-637767417D01*
X891246788Y-637688776D01*
X891386928Y-637586958D01*
X891509414Y-637464472D01*
X891611232Y-637324332D01*
X891689873Y-637169989D01*
X891743402Y-637005245D01*
X891770500Y-636834155D01*
X891770500Y-636060933D01*
X898229500Y-636060933D01*
X898229500Y-636834155D01*
X898256598Y-637005245D01*
X898310127Y-637169989D01*
X898388768Y-637324332D01*
X898490586Y-637464472D01*
X898613072Y-637586958D01*
X898753212Y-637688776D01*
X898907555Y-637767417D01*
X899072299Y-637820946D01*
X899243389Y-637848044D01*
X899243390Y-637848044D01*
X899416610Y-637848044D01*
X899416611Y-637848044D01*
X899587701Y-637820946D01*
X899752445Y-637767417D01*
X899906788Y-637688776D01*
X900046928Y-637586958D01*
X900169414Y-637464472D01*
X900271232Y-637324332D01*
X900349873Y-637169989D01*
X900403402Y-637005245D01*
X900430500Y-636834155D01*
X900430500Y-636060933D01*
X900403402Y-635889843D01*
X900349873Y-635725099D01*
X900271232Y-635570756D01*
X900169414Y-635430616D01*
X900046928Y-635308130D01*
X899906788Y-635206312D01*
X899752445Y-635127671D01*
X899587701Y-635074142D01*
X899587699Y-635074141D01*
X899587698Y-635074141D01*
X899456271Y-635053325D01*
X899416611Y-635047044D01*
X899243389Y-635047044D01*
X899203728Y-635053325D01*
X899072302Y-635074141D01*
X898907552Y-635127672D01*
X898753211Y-635206312D01*
X898673256Y-635264403D01*
X898613072Y-635308130D01*
X898613070Y-635308132D01*
X898613069Y-635308132D01*
X898490588Y-635430613D01*
X898490588Y-635430614D01*
X898490586Y-635430616D01*
X898446859Y-635490800D01*
X898388768Y-635570755D01*
X898310128Y-635725096D01*
X898256597Y-635889846D01*
X898229500Y-636060933D01*
X891770500Y-636060933D01*
X891743402Y-635889843D01*
X891689873Y-635725099D01*
X891611232Y-635570756D01*
X891509414Y-635430616D01*
X891386928Y-635308130D01*
X891246788Y-635206312D01*
X891092445Y-635127671D01*
X890927701Y-635074142D01*
X890927699Y-635074141D01*
X890927698Y-635074141D01*
X890796271Y-635053325D01*
X890756611Y-635047044D01*
X890583389Y-635047044D01*
X890543728Y-635053325D01*
X890412302Y-635074141D01*
X890247552Y-635127672D01*
X890093211Y-635206312D01*
X890013256Y-635264403D01*
X889953072Y-635308130D01*
X889953070Y-635308132D01*
X889953069Y-635308132D01*
X889830588Y-635430613D01*
X889830588Y-635430614D01*
X889830586Y-635430616D01*
X889786859Y-635490800D01*
X889728768Y-635570755D01*
X889650128Y-635725096D01*
X889596597Y-635889846D01*
X889569500Y-636060933D01*
X848000000Y-636060933D01*
X848000000Y-632881947D01*
X858000000Y-632881947D01*
X858000000Y-633118052D01*
X858036934Y-633351247D01*
X858109897Y-633575802D01*
X858217087Y-633786174D01*
X858277338Y-633869104D01*
X858277340Y-633869105D01*
X858976212Y-633170233D01*
X858987482Y-633212292D01*
X859059890Y-633337708D01*
X859162292Y-633440110D01*
X859287708Y-633512518D01*
X859329765Y-633523787D01*
X858630893Y-634222658D01*
X858713828Y-634282914D01*
X858924197Y-634390102D01*
X859148752Y-634463065D01*
X859148751Y-634463065D01*
X859381948Y-634500000D01*
X859618052Y-634500000D01*
X859851247Y-634463065D01*
X860075802Y-634390102D01*
X860286163Y-634282918D01*
X860286169Y-634282914D01*
X860369104Y-634222658D01*
X860369105Y-634222658D01*
X859670233Y-633523787D01*
X859712292Y-633512518D01*
X859837708Y-633440110D01*
X859940110Y-633337708D01*
X860012518Y-633212292D01*
X860023787Y-633170234D01*
X860722658Y-633869105D01*
X860722658Y-633869104D01*
X860782914Y-633786169D01*
X860782918Y-633786163D01*
X860890102Y-633575802D01*
X860963065Y-633351247D01*
X861000000Y-633118052D01*
X861000000Y-632881947D01*
X864500000Y-632881947D01*
X864500000Y-633118052D01*
X864536934Y-633351247D01*
X864609897Y-633575802D01*
X864717087Y-633786174D01*
X864777338Y-633869104D01*
X864777340Y-633869105D01*
X865476212Y-633170233D01*
X865487482Y-633212292D01*
X865559890Y-633337708D01*
X865662292Y-633440110D01*
X865787708Y-633512518D01*
X865829765Y-633523787D01*
X865130893Y-634222658D01*
X865213828Y-634282914D01*
X865424197Y-634390102D01*
X865648752Y-634463065D01*
X865648751Y-634463065D01*
X865881948Y-634500000D01*
X866118052Y-634500000D01*
X866351247Y-634463065D01*
X866575802Y-634390102D01*
X866786163Y-634282918D01*
X866786169Y-634282914D01*
X866869104Y-634222658D01*
X866869105Y-634222658D01*
X866567600Y-633921153D01*
X887699500Y-633921153D01*
X887699500Y-634078846D01*
X887730261Y-634233489D01*
X887730264Y-634233501D01*
X887790602Y-634379172D01*
X887790609Y-634379185D01*
X887878210Y-634510288D01*
X887878213Y-634510292D01*
X887989707Y-634621786D01*
X887989711Y-634621789D01*
X888120814Y-634709390D01*
X888120827Y-634709397D01*
X888266498Y-634769735D01*
X888266503Y-634769737D01*
X888421153Y-634800499D01*
X888421156Y-634800500D01*
X888421158Y-634800500D01*
X888578844Y-634800500D01*
X888578845Y-634800499D01*
X888733497Y-634769737D01*
X888879179Y-634709394D01*
X889010289Y-634621789D01*
X889121789Y-634510289D01*
X889209394Y-634379179D01*
X889269737Y-634233497D01*
X889300500Y-634078842D01*
X889300500Y-633921158D01*
X889300500Y-633921155D01*
X889300499Y-633921153D01*
X889273650Y-633786176D01*
X889269737Y-633766503D01*
X889259151Y-633740946D01*
X889209397Y-633620827D01*
X889209390Y-633620814D01*
X889121789Y-633489711D01*
X889121786Y-633489707D01*
X889010292Y-633378213D01*
X889010288Y-633378210D01*
X888879185Y-633290609D01*
X888879172Y-633290602D01*
X888733501Y-633230264D01*
X888733489Y-633230261D01*
X888578845Y-633199500D01*
X888578842Y-633199500D01*
X888421158Y-633199500D01*
X888421155Y-633199500D01*
X888266510Y-633230261D01*
X888266498Y-633230264D01*
X888120827Y-633290602D01*
X888120814Y-633290609D01*
X887989711Y-633378210D01*
X887989707Y-633378213D01*
X887878213Y-633489707D01*
X887878210Y-633489711D01*
X887790609Y-633620814D01*
X887790602Y-633620827D01*
X887730264Y-633766498D01*
X887730261Y-633766510D01*
X887699500Y-633921153D01*
X866567600Y-633921153D01*
X866170233Y-633523787D01*
X866212292Y-633512518D01*
X866337708Y-633440110D01*
X866440110Y-633337708D01*
X866512518Y-633212292D01*
X866523787Y-633170233D01*
X867222658Y-633869105D01*
X867222658Y-633869104D01*
X867242221Y-633842180D01*
X867242222Y-633842178D01*
X867282910Y-633786176D01*
X867282918Y-633786163D01*
X867390102Y-633575802D01*
X867463065Y-633351247D01*
X867500000Y-633118052D01*
X867500000Y-632881947D01*
X867463065Y-632648752D01*
X867390102Y-632424197D01*
X867282914Y-632213828D01*
X867222658Y-632130894D01*
X867222658Y-632130893D01*
X866523787Y-632829765D01*
X866512518Y-632787708D01*
X866440110Y-632662292D01*
X866337708Y-632559890D01*
X866212292Y-632487482D01*
X866170234Y-632476212D01*
X866865512Y-631780933D01*
X889569500Y-631780933D01*
X889569500Y-632754154D01*
X889595299Y-632917048D01*
X889596598Y-632925245D01*
X889650127Y-633089989D01*
X889728768Y-633244332D01*
X889830586Y-633384472D01*
X889953072Y-633506958D01*
X890093212Y-633608776D01*
X890247555Y-633687417D01*
X890412299Y-633740946D01*
X890583389Y-633768044D01*
X890583390Y-633768044D01*
X890756610Y-633768044D01*
X890756611Y-633768044D01*
X890927701Y-633740946D01*
X891092445Y-633687417D01*
X891246788Y-633608776D01*
X891294763Y-633573920D01*
X893749499Y-633573920D01*
X893778340Y-633718907D01*
X893778343Y-633718917D01*
X893834912Y-633855488D01*
X893834919Y-633855501D01*
X893917048Y-633978415D01*
X893917051Y-633978419D01*
X894021580Y-634082948D01*
X894021584Y-634082951D01*
X894144498Y-634165080D01*
X894144511Y-634165087D01*
X894281082Y-634221656D01*
X894281087Y-634221658D01*
X894281091Y-634221658D01*
X894281092Y-634221659D01*
X894426079Y-634250500D01*
X894426082Y-634250500D01*
X894573920Y-634250500D01*
X894671462Y-634231096D01*
X894718913Y-634221658D01*
X894855495Y-634165084D01*
X894978416Y-634082951D01*
X895082951Y-633978416D01*
X895165084Y-633855495D01*
X895221658Y-633718913D01*
X895243566Y-633608776D01*
X895250500Y-633573920D01*
X895250500Y-633426079D01*
X895221659Y-633281092D01*
X895221658Y-633281091D01*
X895221658Y-633281087D01*
X895206434Y-633244332D01*
X895165087Y-633144511D01*
X895165080Y-633144498D01*
X895082951Y-633021584D01*
X895082948Y-633021580D01*
X894978419Y-632917051D01*
X894978415Y-632917048D01*
X894855501Y-632834919D01*
X894855488Y-632834912D01*
X894764371Y-632797171D01*
X894764370Y-632797171D01*
X894741524Y-632787708D01*
X894718913Y-632778342D01*
X894718907Y-632778340D01*
X894573920Y-632749500D01*
X894573918Y-632749500D01*
X894426082Y-632749500D01*
X894426080Y-632749500D01*
X894281092Y-632778340D01*
X894281082Y-632778343D01*
X894144511Y-632834912D01*
X894144498Y-632834919D01*
X894021584Y-632917048D01*
X894021580Y-632917051D01*
X893917051Y-633021580D01*
X893917048Y-633021584D01*
X893834919Y-633144498D01*
X893834912Y-633144511D01*
X893778343Y-633281082D01*
X893778340Y-633281092D01*
X893749500Y-633426079D01*
X893749500Y-633426082D01*
X893749500Y-633573918D01*
X893749500Y-633573920D01*
X893749499Y-633573920D01*
X891294763Y-633573920D01*
X891386928Y-633506958D01*
X891466707Y-633427178D01*
X891528026Y-633393696D01*
X891597718Y-633398680D01*
X891623269Y-633411756D01*
X891720821Y-633476938D01*
X891720823Y-633476939D01*
X891720827Y-633476941D01*
X891793296Y-633506958D01*
X891866503Y-633537281D01*
X892021153Y-633568043D01*
X892021156Y-633568044D01*
X892021158Y-633568044D01*
X892178844Y-633568044D01*
X892178845Y-633568043D01*
X892333497Y-633537281D01*
X892479179Y-633476938D01*
X892610289Y-633389333D01*
X892621412Y-633378210D01*
X892667314Y-633332309D01*
X892721786Y-633277836D01*
X892721789Y-633277833D01*
X892809394Y-633146723D01*
X892869737Y-633001041D01*
X892900500Y-632846386D01*
X892900500Y-632688702D01*
X892900500Y-632688699D01*
X892900499Y-632688697D01*
X897099500Y-632688697D01*
X897099500Y-632846390D01*
X897130261Y-633001033D01*
X897130264Y-633001045D01*
X897190602Y-633146716D01*
X897190609Y-633146729D01*
X897278210Y-633277832D01*
X897278213Y-633277836D01*
X897389707Y-633389330D01*
X897389711Y-633389333D01*
X897520814Y-633476934D01*
X897520827Y-633476941D01*
X897593296Y-633506958D01*
X897666503Y-633537281D01*
X897821153Y-633568043D01*
X897821156Y-633568044D01*
X897821158Y-633568044D01*
X897978844Y-633568044D01*
X897978845Y-633568043D01*
X898133497Y-633537281D01*
X898279179Y-633476938D01*
X898376723Y-633411760D01*
X898443400Y-633390883D01*
X898510780Y-633409367D01*
X898533295Y-633427181D01*
X898613072Y-633506958D01*
X898753212Y-633608776D01*
X898907555Y-633687417D01*
X899072299Y-633740946D01*
X899243389Y-633768044D01*
X899243390Y-633768044D01*
X899416610Y-633768044D01*
X899416611Y-633768044D01*
X899587701Y-633740946D01*
X899752445Y-633687417D01*
X899906788Y-633608776D01*
X900046928Y-633506958D01*
X900169414Y-633384472D01*
X900271232Y-633244332D01*
X900349873Y-633089989D01*
X900403402Y-632925245D01*
X900430500Y-632754155D01*
X900430500Y-631780933D01*
X900403402Y-631609843D01*
X900349873Y-631445099D01*
X900271232Y-631290756D01*
X900169414Y-631150616D01*
X900046928Y-631028130D01*
X899906788Y-630926312D01*
X899752445Y-630847671D01*
X899587701Y-630794142D01*
X899587699Y-630794141D01*
X899587698Y-630794141D01*
X899456271Y-630773325D01*
X899416611Y-630767044D01*
X899243389Y-630767044D01*
X899203728Y-630773325D01*
X899072302Y-630794141D01*
X898907552Y-630847672D01*
X898753211Y-630926312D01*
X898673256Y-630984403D01*
X898613072Y-631028130D01*
X898613070Y-631028132D01*
X898613069Y-631028132D01*
X898490588Y-631150613D01*
X898490588Y-631150614D01*
X898490586Y-631150616D01*
X898446859Y-631210800D01*
X898388768Y-631290755D01*
X898310128Y-631445096D01*
X898256597Y-631609846D01*
X898229500Y-631780933D01*
X898229500Y-631865808D01*
X898209815Y-631932847D01*
X898157011Y-631978602D01*
X898087853Y-631988546D01*
X898081309Y-631987425D01*
X897978846Y-631967044D01*
X897978842Y-631967044D01*
X897821158Y-631967044D01*
X897821155Y-631967044D01*
X897666510Y-631997805D01*
X897666498Y-631997808D01*
X897520827Y-632058146D01*
X897520814Y-632058153D01*
X897389711Y-632145754D01*
X897389707Y-632145757D01*
X897278213Y-632257251D01*
X897278210Y-632257255D01*
X897190609Y-632388358D01*
X897190602Y-632388371D01*
X897130264Y-632534042D01*
X897130261Y-632534054D01*
X897099500Y-632688697D01*
X892900499Y-632688697D01*
X892892095Y-632646446D01*
X892869737Y-632534047D01*
X892869735Y-632534042D01*
X892809397Y-632388371D01*
X892809390Y-632388358D01*
X892721789Y-632257255D01*
X892721786Y-632257251D01*
X892610292Y-632145757D01*
X892610288Y-632145754D01*
X892479185Y-632058153D01*
X892479172Y-632058146D01*
X892333501Y-631997808D01*
X892333489Y-631997805D01*
X892178845Y-631967044D01*
X892178842Y-631967044D01*
X892021158Y-631967044D01*
X892021153Y-631967044D01*
X891918691Y-631987425D01*
X891849099Y-631981198D01*
X891793922Y-631938335D01*
X891770678Y-631872445D01*
X891770500Y-631865808D01*
X891770500Y-631780933D01*
X891760387Y-631717084D01*
X891743402Y-631609843D01*
X891689873Y-631445099D01*
X891611232Y-631290756D01*
X891509414Y-631150616D01*
X891386928Y-631028130D01*
X891246788Y-630926312D01*
X891092445Y-630847671D01*
X890927701Y-630794142D01*
X890927699Y-630794141D01*
X890927698Y-630794141D01*
X890796271Y-630773325D01*
X890756611Y-630767044D01*
X890583389Y-630767044D01*
X890543728Y-630773325D01*
X890412302Y-630794141D01*
X890247552Y-630847672D01*
X890093211Y-630926312D01*
X890013256Y-630984403D01*
X889953072Y-631028130D01*
X889953070Y-631028132D01*
X889953069Y-631028132D01*
X889830588Y-631150613D01*
X889830588Y-631150614D01*
X889830586Y-631150616D01*
X889786859Y-631210800D01*
X889728768Y-631290755D01*
X889650128Y-631445096D01*
X889596597Y-631609846D01*
X889569500Y-631780933D01*
X866865512Y-631780933D01*
X866869105Y-631777340D01*
X866869104Y-631777338D01*
X866786174Y-631717087D01*
X866575802Y-631609897D01*
X866351247Y-631536934D01*
X866351248Y-631536934D01*
X866118052Y-631500000D01*
X865881948Y-631500000D01*
X865648752Y-631536934D01*
X865424197Y-631609897D01*
X865213830Y-631717084D01*
X865130894Y-631777340D01*
X865829766Y-632476212D01*
X865787708Y-632487482D01*
X865662292Y-632559890D01*
X865559890Y-632662292D01*
X865487482Y-632787708D01*
X865476212Y-632829766D01*
X864777340Y-632130894D01*
X864717084Y-632213830D01*
X864609897Y-632424197D01*
X864536934Y-632648752D01*
X864500000Y-632881947D01*
X861000000Y-632881947D01*
X860963065Y-632648752D01*
X860890102Y-632424197D01*
X860782914Y-632213828D01*
X860722658Y-632130894D01*
X860722658Y-632130893D01*
X860023787Y-632829765D01*
X860012518Y-632787708D01*
X859940110Y-632662292D01*
X859837708Y-632559890D01*
X859712292Y-632487482D01*
X859670234Y-632476212D01*
X860369105Y-631777340D01*
X860369104Y-631777339D01*
X860286174Y-631717087D01*
X860075802Y-631609897D01*
X859851247Y-631536934D01*
X859851248Y-631536934D01*
X859618052Y-631500000D01*
X859381948Y-631500000D01*
X859148752Y-631536934D01*
X858924197Y-631609897D01*
X858713830Y-631717084D01*
X858630894Y-631777340D01*
X859329766Y-632476212D01*
X859287708Y-632487482D01*
X859162292Y-632559890D01*
X859059890Y-632662292D01*
X858987482Y-632787708D01*
X858976212Y-632829765D01*
X858277340Y-632130894D01*
X858217084Y-632213830D01*
X858109897Y-632424197D01*
X858036934Y-632648752D01*
X858000000Y-632881947D01*
X848000000Y-632881947D01*
X848000000Y-628381902D01*
X857999500Y-628381902D01*
X857999500Y-628618097D01*
X858036446Y-628851368D01*
X858109433Y-629075996D01*
X858207462Y-629268386D01*
X858216657Y-629286433D01*
X858355483Y-629477510D01*
X858522490Y-629644517D01*
X858713567Y-629783343D01*
X858768487Y-629811326D01*
X858924003Y-629890566D01*
X858924005Y-629890566D01*
X858924008Y-629890568D01*
X859044412Y-629929689D01*
X859148631Y-629963553D01*
X859381903Y-630000500D01*
X859381908Y-630000500D01*
X859618097Y-630000500D01*
X859851368Y-629963553D01*
X859903725Y-629946541D01*
X860075992Y-629890568D01*
X860286433Y-629783343D01*
X860477510Y-629644517D01*
X860644517Y-629477510D01*
X860783343Y-629286433D01*
X860890568Y-629075992D01*
X860963553Y-628851368D01*
X860974684Y-628781092D01*
X861000500Y-628618097D01*
X861000500Y-628381902D01*
X864499500Y-628381902D01*
X864499500Y-628618097D01*
X864536446Y-628851368D01*
X864609433Y-629075996D01*
X864707462Y-629268386D01*
X864716657Y-629286433D01*
X864855483Y-629477510D01*
X865022490Y-629644517D01*
X865213567Y-629783343D01*
X865268487Y-629811326D01*
X865424003Y-629890566D01*
X865424005Y-629890566D01*
X865424008Y-629890568D01*
X865544412Y-629929689D01*
X865648631Y-629963553D01*
X865881903Y-630000500D01*
X865881908Y-630000500D01*
X866118097Y-630000500D01*
X866351368Y-629963553D01*
X866403725Y-629946541D01*
X866575992Y-629890568D01*
X866786433Y-629783343D01*
X866977510Y-629644517D01*
X867048107Y-629573920D01*
X894249499Y-629573920D01*
X894278340Y-629718907D01*
X894278343Y-629718917D01*
X894334912Y-629855488D01*
X894334919Y-629855501D01*
X894417048Y-629978415D01*
X894417051Y-629978419D01*
X894521580Y-630082948D01*
X894521584Y-630082951D01*
X894644498Y-630165080D01*
X894644511Y-630165087D01*
X894781082Y-630221656D01*
X894781087Y-630221658D01*
X894781091Y-630221658D01*
X894781092Y-630221659D01*
X894926079Y-630250500D01*
X894926082Y-630250500D01*
X895073920Y-630250500D01*
X895171462Y-630231096D01*
X895218913Y-630221658D01*
X895355495Y-630165084D01*
X895478416Y-630082951D01*
X895582951Y-629978416D01*
X895665084Y-629855495D01*
X895721658Y-629718913D01*
X895742311Y-629615087D01*
X895750500Y-629573920D01*
X895750500Y-629426079D01*
X895721659Y-629281092D01*
X895721658Y-629281091D01*
X895721658Y-629281087D01*
X895716396Y-629268384D01*
X895714356Y-629263460D01*
X896059959Y-629263460D01*
X896088800Y-629408447D01*
X896088803Y-629408457D01*
X896145372Y-629545028D01*
X896145379Y-629545041D01*
X896209840Y-629641513D01*
X896230718Y-629708191D01*
X896221299Y-629757856D01*
X896164539Y-629894886D01*
X896164536Y-629894896D01*
X896135696Y-630039883D01*
X896135696Y-630039886D01*
X896135696Y-630187722D01*
X896135696Y-630187724D01*
X896135695Y-630187724D01*
X896164536Y-630332711D01*
X896164539Y-630332721D01*
X896221108Y-630469292D01*
X896221115Y-630469305D01*
X896303244Y-630592219D01*
X896303247Y-630592223D01*
X896407776Y-630696752D01*
X896407780Y-630696755D01*
X896530694Y-630778884D01*
X896530707Y-630778891D01*
X896567527Y-630794142D01*
X896667283Y-630835462D01*
X896667287Y-630835462D01*
X896667288Y-630835463D01*
X896812275Y-630864304D01*
X896812278Y-630864304D01*
X896960116Y-630864304D01*
X897057658Y-630844900D01*
X897105109Y-630835462D01*
X897241691Y-630778888D01*
X897364612Y-630696755D01*
X897469147Y-630592220D01*
X897551280Y-630469299D01*
X897607854Y-630332717D01*
X897617292Y-630285266D01*
X897636696Y-630187724D01*
X897636696Y-630039883D01*
X897607855Y-629894896D01*
X897607854Y-629894895D01*
X897607854Y-629894891D01*
X897581728Y-629831817D01*
X897551283Y-629758315D01*
X897551276Y-629758302D01*
X897486815Y-629661830D01*
X897465937Y-629595153D01*
X897475356Y-629545486D01*
X897475540Y-629545039D01*
X897475544Y-629545035D01*
X897532118Y-629408453D01*
X897554553Y-629295667D01*
X897560960Y-629263460D01*
X897560960Y-629115619D01*
X897559980Y-629110693D01*
X899699500Y-629110693D01*
X899699500Y-629268386D01*
X899730261Y-629423029D01*
X899730264Y-629423041D01*
X899790602Y-629568712D01*
X899790609Y-629568725D01*
X899878210Y-629699828D01*
X899878213Y-629699832D01*
X899989707Y-629811326D01*
X899989711Y-629811329D01*
X900120814Y-629898930D01*
X900120827Y-629898937D01*
X900235765Y-629946545D01*
X900266503Y-629959277D01*
X900362716Y-629978415D01*
X900421153Y-629990039D01*
X900421156Y-629990040D01*
X900421158Y-629990040D01*
X900578844Y-629990040D01*
X900578845Y-629990039D01*
X900733497Y-629959277D01*
X900879179Y-629898934D01*
X901010289Y-629811329D01*
X901121789Y-629699829D01*
X901209394Y-629568719D01*
X901269737Y-629423037D01*
X901300500Y-629268382D01*
X901300500Y-629110698D01*
X901300500Y-629110695D01*
X901300499Y-629110693D01*
X901293597Y-629075996D01*
X901293184Y-629073920D01*
X906249499Y-629073920D01*
X906278340Y-629218907D01*
X906278343Y-629218917D01*
X906334912Y-629355488D01*
X906334919Y-629355501D01*
X906417048Y-629478415D01*
X906417051Y-629478419D01*
X906521580Y-629582948D01*
X906521584Y-629582951D01*
X906644498Y-629665080D01*
X906644507Y-629665085D01*
X906660371Y-629671656D01*
X906731692Y-629701198D01*
X906786095Y-629745039D01*
X906798800Y-629768305D01*
X906834913Y-629855488D01*
X906834916Y-629855494D01*
X906834919Y-629855501D01*
X906917048Y-629978415D01*
X906917051Y-629978419D01*
X907021580Y-630082948D01*
X907021584Y-630082951D01*
X907144498Y-630165080D01*
X907144511Y-630165087D01*
X907281082Y-630221656D01*
X907281087Y-630221658D01*
X907281091Y-630221658D01*
X907281092Y-630221659D01*
X907426079Y-630250500D01*
X907426082Y-630250500D01*
X907573920Y-630250500D01*
X907671462Y-630231096D01*
X907718913Y-630221658D01*
X907855495Y-630165084D01*
X907978416Y-630082951D01*
X908082951Y-629978416D01*
X908165084Y-629855495D01*
X908221658Y-629718913D01*
X908242311Y-629615087D01*
X908250500Y-629573920D01*
X908250500Y-629426079D01*
X908221659Y-629281092D01*
X908221658Y-629281091D01*
X908221658Y-629281087D01*
X908216396Y-629268384D01*
X908165087Y-629144511D01*
X908165080Y-629144498D01*
X908082951Y-629021584D01*
X908082948Y-629021580D01*
X907978419Y-628917051D01*
X907978415Y-628917048D01*
X907855501Y-628834919D01*
X907855496Y-628834917D01*
X907855495Y-628834916D01*
X907768305Y-628798800D01*
X907713902Y-628754958D01*
X907701198Y-628731692D01*
X907700949Y-628731092D01*
X907679475Y-628679247D01*
X907665085Y-628644507D01*
X907665080Y-628644498D01*
X907582951Y-628521584D01*
X907582948Y-628521580D01*
X907478419Y-628417051D01*
X907478415Y-628417048D01*
X907355501Y-628334919D01*
X907355488Y-628334912D01*
X907218917Y-628278343D01*
X907218907Y-628278340D01*
X907073920Y-628249500D01*
X907073918Y-628249500D01*
X906926082Y-628249500D01*
X906926080Y-628249500D01*
X906781092Y-628278340D01*
X906781082Y-628278343D01*
X906644511Y-628334912D01*
X906644498Y-628334919D01*
X906521584Y-628417048D01*
X906521580Y-628417051D01*
X906417051Y-628521580D01*
X906417048Y-628521584D01*
X906334919Y-628644498D01*
X906334912Y-628644511D01*
X906278343Y-628781082D01*
X906278340Y-628781092D01*
X906249500Y-628926079D01*
X906249500Y-628926082D01*
X906249500Y-629073918D01*
X906249500Y-629073920D01*
X906249499Y-629073920D01*
X901293184Y-629073920D01*
X901269737Y-628956043D01*
X901242831Y-628891087D01*
X901209397Y-628810367D01*
X901209390Y-628810354D01*
X901121789Y-628679251D01*
X901121786Y-628679247D01*
X901010292Y-628567753D01*
X901010288Y-628567750D01*
X900879185Y-628480149D01*
X900879172Y-628480142D01*
X900733501Y-628419804D01*
X900733489Y-628419801D01*
X900578845Y-628389040D01*
X900578842Y-628389040D01*
X900421158Y-628389040D01*
X900421155Y-628389040D01*
X900266510Y-628419801D01*
X900266498Y-628419804D01*
X900120827Y-628480142D01*
X900120814Y-628480149D01*
X899989711Y-628567750D01*
X899989707Y-628567753D01*
X899878213Y-628679247D01*
X899878210Y-628679251D01*
X899790609Y-628810354D01*
X899790602Y-628810367D01*
X899730264Y-628956038D01*
X899730261Y-628956050D01*
X899699500Y-629110693D01*
X897559980Y-629110693D01*
X897532119Y-628970632D01*
X897532118Y-628970631D01*
X897532118Y-628970627D01*
X897509926Y-628917051D01*
X897475547Y-628834051D01*
X897475540Y-628834038D01*
X897393411Y-628711124D01*
X897393408Y-628711120D01*
X897288879Y-628606591D01*
X897288875Y-628606588D01*
X897165961Y-628524459D01*
X897165948Y-628524452D01*
X897029377Y-628467883D01*
X897029367Y-628467880D01*
X896884380Y-628439040D01*
X896884378Y-628439040D01*
X896736542Y-628439040D01*
X896736540Y-628439040D01*
X896591552Y-628467880D01*
X896591542Y-628467883D01*
X896454971Y-628524452D01*
X896454958Y-628524459D01*
X896332044Y-628606588D01*
X896332040Y-628606591D01*
X896227511Y-628711120D01*
X896227508Y-628711124D01*
X896145379Y-628834038D01*
X896145372Y-628834051D01*
X896088803Y-628970622D01*
X896088800Y-628970632D01*
X896059960Y-629115619D01*
X896059960Y-629115622D01*
X896059960Y-629263458D01*
X896059960Y-629263460D01*
X896059959Y-629263460D01*
X895714356Y-629263460D01*
X895670269Y-629157022D01*
X895670253Y-629156984D01*
X895670055Y-629156508D01*
X895665084Y-629144505D01*
X895665081Y-629144500D01*
X895665080Y-629144498D01*
X895582951Y-629021584D01*
X895582948Y-629021580D01*
X895478419Y-628917051D01*
X895478415Y-628917048D01*
X895355501Y-628834919D01*
X895355488Y-628834912D01*
X895218917Y-628778343D01*
X895218907Y-628778340D01*
X895073920Y-628749500D01*
X895073918Y-628749500D01*
X894926082Y-628749500D01*
X894926080Y-628749500D01*
X894781092Y-628778340D01*
X894781082Y-628778343D01*
X894644511Y-628834912D01*
X894644498Y-628834919D01*
X894521584Y-628917048D01*
X894521580Y-628917051D01*
X894417051Y-629021580D01*
X894417048Y-629021584D01*
X894334919Y-629144498D01*
X894334912Y-629144511D01*
X894278343Y-629281082D01*
X894278340Y-629281092D01*
X894249500Y-629426079D01*
X894249500Y-629426082D01*
X894249500Y-629573918D01*
X894249500Y-629573920D01*
X894249499Y-629573920D01*
X867048107Y-629573920D01*
X867144517Y-629477510D01*
X867233166Y-629355495D01*
X867239263Y-629347104D01*
X867239264Y-629347102D01*
X867269489Y-629305501D01*
X867283343Y-629286433D01*
X867390568Y-629075992D01*
X867463553Y-628851368D01*
X867474684Y-628781092D01*
X867500500Y-628618097D01*
X867500500Y-628381902D01*
X867463553Y-628148631D01*
X867439405Y-628074312D01*
X867391112Y-627925682D01*
X908861800Y-627925682D01*
X908861800Y-628074315D01*
X908890793Y-628220071D01*
X908890795Y-628220079D01*
X908943055Y-628346246D01*
X908950524Y-628415716D01*
X908943055Y-628441152D01*
X908890795Y-628567318D01*
X908890793Y-628567326D01*
X908861800Y-628713084D01*
X908861800Y-628861715D01*
X908890793Y-629007471D01*
X908890795Y-629007479D01*
X908947671Y-629144790D01*
X909030239Y-629268363D01*
X909030245Y-629268370D01*
X909135328Y-629373453D01*
X909135335Y-629373459D01*
X909258908Y-629456027D01*
X909258909Y-629456027D01*
X909258910Y-629456028D01*
X909396220Y-629512904D01*
X909541983Y-629541898D01*
X909541987Y-629541899D01*
X909541988Y-629541899D01*
X909690613Y-629541899D01*
X909690614Y-629541898D01*
X909836380Y-629512904D01*
X909962548Y-629460642D01*
X910032016Y-629453174D01*
X910057447Y-629460641D01*
X910183620Y-629512904D01*
X910329383Y-629541898D01*
X910329387Y-629541899D01*
X910329388Y-629541899D01*
X910478013Y-629541899D01*
X910478014Y-629541898D01*
X910623780Y-629512904D01*
X910761090Y-629456028D01*
X910884666Y-629373458D01*
X910989759Y-629268365D01*
X911072329Y-629144789D01*
X911129205Y-629007479D01*
X911158200Y-628861711D01*
X911158200Y-628713087D01*
X911158200Y-628713084D01*
X911134614Y-628594511D01*
X911130518Y-628573920D01*
X911749499Y-628573920D01*
X911778340Y-628718907D01*
X911778343Y-628718917D01*
X911834912Y-628855488D01*
X911834919Y-628855501D01*
X911917048Y-628978415D01*
X911917051Y-628978419D01*
X912021580Y-629082948D01*
X912021584Y-629082951D01*
X912144498Y-629165080D01*
X912144511Y-629165087D01*
X912281082Y-629221656D01*
X912281087Y-629221658D01*
X912281091Y-629221658D01*
X912281092Y-629221659D01*
X912426079Y-629250500D01*
X912426082Y-629250500D01*
X912573920Y-629250500D01*
X912671462Y-629231096D01*
X912718913Y-629221658D01*
X912846251Y-629168913D01*
X912855488Y-629165087D01*
X912855488Y-629165086D01*
X912855495Y-629165084D01*
X912978416Y-629082951D01*
X913037447Y-629023920D01*
X913749499Y-629023920D01*
X913778340Y-629168907D01*
X913778343Y-629168917D01*
X913834912Y-629305488D01*
X913834919Y-629305501D01*
X913917048Y-629428415D01*
X913917051Y-629428419D01*
X914021580Y-629532948D01*
X914021584Y-629532951D01*
X914144498Y-629615080D01*
X914144511Y-629615087D01*
X914281082Y-629671656D01*
X914281087Y-629671658D01*
X914281091Y-629671658D01*
X914281092Y-629671659D01*
X914426079Y-629700500D01*
X914426082Y-629700500D01*
X914573920Y-629700500D01*
X914671462Y-629681096D01*
X914718913Y-629671658D01*
X914855495Y-629615084D01*
X914924472Y-629568995D01*
X916299499Y-629568995D01*
X916326418Y-629704322D01*
X916326421Y-629704332D01*
X916379221Y-629831804D01*
X916379228Y-629831817D01*
X916455885Y-629946541D01*
X916455888Y-629946545D01*
X916553454Y-630044111D01*
X916553458Y-630044114D01*
X916668182Y-630120771D01*
X916668195Y-630120778D01*
X916775168Y-630165087D01*
X916795672Y-630173580D01*
X916795676Y-630173580D01*
X916795677Y-630173581D01*
X916931004Y-630200500D01*
X916931007Y-630200500D01*
X917068995Y-630200500D01*
X917160041Y-630182389D01*
X917204328Y-630173580D01*
X917331811Y-630120775D01*
X917446542Y-630044114D01*
X917544114Y-629946542D01*
X917620775Y-629831811D01*
X917673580Y-629704328D01*
X917693729Y-629603032D01*
X917700500Y-629568995D01*
X917700500Y-629431004D01*
X917673581Y-629295677D01*
X917673580Y-629295676D01*
X917673580Y-629295672D01*
X917662268Y-629268363D01*
X917620778Y-629168195D01*
X917620771Y-629168182D01*
X917544114Y-629053458D01*
X917544111Y-629053454D01*
X917446545Y-628955888D01*
X917446541Y-628955885D01*
X917331817Y-628879228D01*
X917331804Y-628879221D01*
X917204332Y-628826421D01*
X917204322Y-628826418D01*
X917068995Y-628799500D01*
X917068993Y-628799500D01*
X916931007Y-628799500D01*
X916931005Y-628799500D01*
X916795677Y-628826418D01*
X916795667Y-628826421D01*
X916668195Y-628879221D01*
X916668182Y-628879228D01*
X916553458Y-628955885D01*
X916553454Y-628955888D01*
X916455888Y-629053454D01*
X916455885Y-629053458D01*
X916379228Y-629168182D01*
X916379221Y-629168195D01*
X916326421Y-629295667D01*
X916326418Y-629295677D01*
X916299500Y-629431004D01*
X916299500Y-629431007D01*
X916299500Y-629568993D01*
X916299500Y-629568995D01*
X916299499Y-629568995D01*
X914924472Y-629568995D01*
X914978416Y-629532951D01*
X915082951Y-629428416D01*
X915165084Y-629305495D01*
X915172979Y-629286436D01*
X915221656Y-629168917D01*
X915221658Y-629168913D01*
X915231096Y-629121462D01*
X915250500Y-629023920D01*
X915250500Y-628876079D01*
X915221659Y-628731092D01*
X915221658Y-628731091D01*
X915221658Y-628731087D01*
X915213389Y-628711124D01*
X915165087Y-628594511D01*
X915165080Y-628594498D01*
X915082951Y-628471584D01*
X915082948Y-628471580D01*
X914978419Y-628367051D01*
X914978415Y-628367048D01*
X914855501Y-628284919D01*
X914855488Y-628284912D01*
X914718917Y-628228343D01*
X914718907Y-628228340D01*
X914573920Y-628199500D01*
X914573918Y-628199500D01*
X914426082Y-628199500D01*
X914426080Y-628199500D01*
X914281092Y-628228340D01*
X914281082Y-628228343D01*
X914144511Y-628284912D01*
X914144498Y-628284919D01*
X914021584Y-628367048D01*
X914021580Y-628367051D01*
X913917051Y-628471580D01*
X913917048Y-628471584D01*
X913834919Y-628594498D01*
X913834912Y-628594511D01*
X913778343Y-628731082D01*
X913778340Y-628731092D01*
X913749500Y-628876079D01*
X913749500Y-628876082D01*
X913749500Y-629023918D01*
X913749500Y-629023920D01*
X913749499Y-629023920D01*
X913037447Y-629023920D01*
X913082951Y-628978416D01*
X913165084Y-628855495D01*
X913221658Y-628718913D01*
X913236459Y-628644505D01*
X913250500Y-628573920D01*
X913250500Y-628426079D01*
X913221659Y-628281092D01*
X913221658Y-628281091D01*
X913221658Y-628281087D01*
X913199811Y-628228343D01*
X913165087Y-628144511D01*
X913165080Y-628144498D01*
X913082951Y-628021584D01*
X913082948Y-628021580D01*
X912978419Y-627917051D01*
X912978415Y-627917048D01*
X912855501Y-627834919D01*
X912855488Y-627834912D01*
X912718917Y-627778343D01*
X912718907Y-627778340D01*
X912573920Y-627749500D01*
X912573918Y-627749500D01*
X912426082Y-627749500D01*
X912426080Y-627749500D01*
X912281092Y-627778340D01*
X912281082Y-627778343D01*
X912144511Y-627834912D01*
X912144498Y-627834919D01*
X912021584Y-627917048D01*
X912021580Y-627917051D01*
X911917051Y-628021580D01*
X911917048Y-628021584D01*
X911834919Y-628144498D01*
X911834912Y-628144511D01*
X911778343Y-628281082D01*
X911778340Y-628281092D01*
X911749500Y-628426079D01*
X911749500Y-628426082D01*
X911749500Y-628573918D01*
X911749500Y-628573920D01*
X911749499Y-628573920D01*
X911130518Y-628573920D01*
X911129205Y-628567319D01*
X911076943Y-628441150D01*
X911069475Y-628371682D01*
X911076942Y-628346251D01*
X911129205Y-628220079D01*
X911158200Y-628074311D01*
X911158200Y-627925687D01*
X911129205Y-627779919D01*
X911076943Y-627653750D01*
X911069475Y-627584283D01*
X911076942Y-627558851D01*
X911129205Y-627432679D01*
X911158200Y-627286911D01*
X911158200Y-627138287D01*
X911129205Y-626992519D01*
X911072329Y-626855209D01*
X910989759Y-626731633D01*
X910989754Y-626731627D01*
X910884671Y-626626544D01*
X910884664Y-626626538D01*
X910761091Y-626543970D01*
X910623780Y-626487094D01*
X910623772Y-626487092D01*
X910478016Y-626458099D01*
X910478012Y-626458099D01*
X910329388Y-626458099D01*
X910329383Y-626458099D01*
X910183627Y-626487092D01*
X910183615Y-626487095D01*
X910052225Y-626541519D01*
X909982756Y-626548988D01*
X909957321Y-626541519D01*
X909835217Y-626490942D01*
X909835207Y-626490939D01*
X909690220Y-626462099D01*
X909690218Y-626462099D01*
X909542382Y-626462099D01*
X909542380Y-626462099D01*
X909397392Y-626490939D01*
X909397382Y-626490942D01*
X909260811Y-626547511D01*
X909260798Y-626547518D01*
X909137884Y-626629647D01*
X909137880Y-626629650D01*
X909033351Y-626734179D01*
X909033348Y-626734183D01*
X908951219Y-626857097D01*
X908951212Y-626857110D01*
X908894643Y-626993681D01*
X908894640Y-626993691D01*
X908865800Y-627138678D01*
X908865800Y-627138681D01*
X908865800Y-627286517D01*
X908865800Y-627286519D01*
X908865799Y-627286519D01*
X908894640Y-627431506D01*
X908894643Y-627431516D01*
X908945220Y-627553620D01*
X908952689Y-627623089D01*
X908945220Y-627648524D01*
X908890796Y-627779914D01*
X908890793Y-627779926D01*
X908861800Y-627925682D01*
X867391112Y-627925682D01*
X867390568Y-627924008D01*
X867283343Y-627713567D01*
X867144517Y-627522490D01*
X866977510Y-627355483D01*
X866786433Y-627216657D01*
X866575996Y-627109433D01*
X866351368Y-627036446D01*
X866118097Y-626999500D01*
X866118092Y-626999500D01*
X865881908Y-626999500D01*
X865881903Y-626999500D01*
X865648631Y-627036446D01*
X865424003Y-627109433D01*
X865213566Y-627216657D01*
X865116865Y-627286915D01*
X865022490Y-627355483D01*
X865022488Y-627355485D01*
X865022487Y-627355485D01*
X864855485Y-627522487D01*
X864855485Y-627522488D01*
X864855483Y-627522490D01*
X864832866Y-627553620D01*
X864716657Y-627713566D01*
X864609433Y-627924003D01*
X864536446Y-628148631D01*
X864499500Y-628381902D01*
X861000500Y-628381902D01*
X860963553Y-628148631D01*
X860922271Y-628021580D01*
X860890568Y-627924008D01*
X860890566Y-627924005D01*
X860890566Y-627924003D01*
X860834002Y-627812991D01*
X860783343Y-627713567D01*
X860644517Y-627522490D01*
X860477510Y-627355483D01*
X860286433Y-627216657D01*
X860075996Y-627109433D01*
X859851368Y-627036446D01*
X859618097Y-626999500D01*
X859618092Y-626999500D01*
X859381908Y-626999500D01*
X859381903Y-626999500D01*
X859148631Y-627036446D01*
X858924003Y-627109433D01*
X858713566Y-627216657D01*
X858616865Y-627286915D01*
X858522490Y-627355483D01*
X858522488Y-627355485D01*
X858522487Y-627355485D01*
X858355485Y-627522487D01*
X858355485Y-627522488D01*
X858355483Y-627522490D01*
X858332866Y-627553620D01*
X858216657Y-627713566D01*
X858109433Y-627924003D01*
X858036446Y-628148631D01*
X857999500Y-628381902D01*
X848000000Y-628381902D01*
X848000000Y-626068995D01*
X907299500Y-626068995D01*
X907326419Y-626204322D01*
X907326422Y-626204332D01*
X907379222Y-626331804D01*
X907379229Y-626331817D01*
X907455886Y-626446541D01*
X907455889Y-626446545D01*
X907553455Y-626544111D01*
X907553459Y-626544114D01*
X907668183Y-626620771D01*
X907668196Y-626620778D01*
X907795668Y-626673578D01*
X907795673Y-626673580D01*
X907795677Y-626673580D01*
X907795678Y-626673581D01*
X907931005Y-626700500D01*
X907931008Y-626700500D01*
X908068996Y-626700500D01*
X908160042Y-626682389D01*
X908204329Y-626673580D01*
X908331812Y-626620775D01*
X908446543Y-626544114D01*
X908544115Y-626446542D01*
X908620776Y-626331811D01*
X908673581Y-626204328D01*
X908700501Y-626068993D01*
X908700501Y-625931007D01*
X908700501Y-625931004D01*
X908673582Y-625795677D01*
X908673581Y-625795676D01*
X908673581Y-625795672D01*
X908642923Y-625721656D01*
X908620779Y-625668195D01*
X908620772Y-625668182D01*
X908544115Y-625553458D01*
X908544112Y-625553454D01*
X908446546Y-625455888D01*
X908446542Y-625455885D01*
X908331818Y-625379228D01*
X908331805Y-625379221D01*
X908204333Y-625326421D01*
X908204323Y-625326418D01*
X908068996Y-625299500D01*
X908068994Y-625299500D01*
X907931008Y-625299500D01*
X907931006Y-625299500D01*
X907795678Y-625326418D01*
X907795668Y-625326421D01*
X907668196Y-625379221D01*
X907668183Y-625379228D01*
X907553459Y-625455885D01*
X907553455Y-625455888D01*
X907455889Y-625553454D01*
X907455886Y-625553458D01*
X907379229Y-625668182D01*
X907379222Y-625668195D01*
X907326422Y-625795667D01*
X907326419Y-625795677D01*
X907299501Y-625931004D01*
X907299501Y-625931007D01*
X907299501Y-626068993D01*
X907299501Y-626068995D01*
X907299500Y-626068995D01*
X848000000Y-626068995D01*
X848000000Y-625073920D01*
X903749499Y-625073920D01*
X903778340Y-625218907D01*
X903778343Y-625218917D01*
X903834912Y-625355488D01*
X903834919Y-625355501D01*
X903917048Y-625478415D01*
X903917051Y-625478419D01*
X904021580Y-625582948D01*
X904021584Y-625582951D01*
X904144498Y-625665080D01*
X904144511Y-625665087D01*
X904281082Y-625721656D01*
X904281087Y-625721658D01*
X904281091Y-625721658D01*
X904281092Y-625721659D01*
X904426079Y-625750500D01*
X904426082Y-625750500D01*
X904573920Y-625750500D01*
X904671462Y-625731096D01*
X904718913Y-625721658D01*
X904824547Y-625677902D01*
X904855488Y-625665087D01*
X904855488Y-625665086D01*
X904855495Y-625665084D01*
X904978416Y-625582951D01*
X905082951Y-625478416D01*
X905165084Y-625355495D01*
X905221658Y-625218913D01*
X905250500Y-625073918D01*
X905250500Y-624926082D01*
X905250500Y-624926079D01*
X905221659Y-624781092D01*
X905221658Y-624781091D01*
X905221658Y-624781087D01*
X905221656Y-624781082D01*
X905165087Y-624644511D01*
X905165080Y-624644498D01*
X905082951Y-624521584D01*
X905082948Y-624521580D01*
X904978419Y-624417051D01*
X904978415Y-624417048D01*
X904855501Y-624334919D01*
X904855488Y-624334912D01*
X904718917Y-624278343D01*
X904718907Y-624278340D01*
X904573920Y-624249500D01*
X904573918Y-624249500D01*
X904426082Y-624249500D01*
X904426080Y-624249500D01*
X904281092Y-624278340D01*
X904281082Y-624278343D01*
X904144511Y-624334912D01*
X904144498Y-624334919D01*
X904021584Y-624417048D01*
X904021580Y-624417051D01*
X903917051Y-624521580D01*
X903917048Y-624521584D01*
X903834919Y-624644498D01*
X903834912Y-624644511D01*
X903778343Y-624781082D01*
X903778340Y-624781092D01*
X903749500Y-624926079D01*
X903749500Y-624926082D01*
X903749500Y-625073918D01*
X903749500Y-625073920D01*
X903749499Y-625073920D01*
X848000000Y-625073920D01*
X848000000Y-621881947D01*
X857500000Y-621881947D01*
X857500000Y-622118052D01*
X857536934Y-622351247D01*
X857609897Y-622575802D01*
X857717087Y-622786174D01*
X857777338Y-622869104D01*
X857777340Y-622869105D01*
X858476212Y-622170233D01*
X858487482Y-622212292D01*
X858559890Y-622337708D01*
X858662292Y-622440110D01*
X858787708Y-622512518D01*
X858829765Y-622523787D01*
X858130893Y-623222658D01*
X858213828Y-623282914D01*
X858424197Y-623390102D01*
X858648752Y-623463065D01*
X858648751Y-623463065D01*
X858881948Y-623500000D01*
X859118052Y-623500000D01*
X859351247Y-623463065D01*
X859575802Y-623390102D01*
X859786163Y-623282918D01*
X859786169Y-623282914D01*
X859869104Y-623222658D01*
X859869105Y-623222658D01*
X859170233Y-622523787D01*
X859212292Y-622512518D01*
X859337708Y-622440110D01*
X859440110Y-622337708D01*
X859512518Y-622212292D01*
X859523787Y-622170234D01*
X860222658Y-622869105D01*
X860222658Y-622869104D01*
X860282914Y-622786169D01*
X860282918Y-622786163D01*
X860390102Y-622575802D01*
X860463065Y-622351247D01*
X860500000Y-622118052D01*
X860500000Y-621881947D01*
X864000000Y-621881947D01*
X864000000Y-622118052D01*
X864036934Y-622351247D01*
X864109897Y-622575802D01*
X864217087Y-622786174D01*
X864277338Y-622869104D01*
X864277340Y-622869105D01*
X864976212Y-622170233D01*
X864987482Y-622212292D01*
X865059890Y-622337708D01*
X865162292Y-622440110D01*
X865287708Y-622512518D01*
X865329765Y-622523787D01*
X864630893Y-623222658D01*
X864713828Y-623282914D01*
X864924197Y-623390102D01*
X865148752Y-623463065D01*
X865148751Y-623463065D01*
X865381948Y-623500000D01*
X865618052Y-623500000D01*
X865851247Y-623463065D01*
X866075802Y-623390102D01*
X866286163Y-623282918D01*
X866286169Y-623282914D01*
X866369104Y-623222658D01*
X866369105Y-623222658D01*
X865670233Y-622523787D01*
X865712292Y-622512518D01*
X865837708Y-622440110D01*
X865940110Y-622337708D01*
X866012518Y-622212292D01*
X866023787Y-622170234D01*
X866722658Y-622869105D01*
X866722658Y-622869104D01*
X866782914Y-622786169D01*
X866782918Y-622786163D01*
X866890102Y-622575802D01*
X866963065Y-622351247D01*
X867000000Y-622118052D01*
X867000000Y-621881947D01*
X866963065Y-621648752D01*
X866890102Y-621424197D01*
X866782914Y-621213828D01*
X866722658Y-621130894D01*
X866722658Y-621130893D01*
X866023787Y-621829765D01*
X866012518Y-621787708D01*
X865940110Y-621662292D01*
X865837708Y-621559890D01*
X865712292Y-621487482D01*
X865670234Y-621476212D01*
X866077451Y-621068995D01*
X876299499Y-621068995D01*
X876326418Y-621204322D01*
X876326421Y-621204332D01*
X876379221Y-621331804D01*
X876379228Y-621331817D01*
X876455885Y-621446541D01*
X876455888Y-621446545D01*
X876553454Y-621544111D01*
X876553458Y-621544114D01*
X876668182Y-621620771D01*
X876668191Y-621620776D01*
X876752498Y-621655697D01*
X876806901Y-621699538D01*
X876828966Y-621765832D01*
X876826662Y-621794449D01*
X876799500Y-621931002D01*
X876799500Y-621931007D01*
X876799500Y-622068993D01*
X876799500Y-622068995D01*
X876799499Y-622068995D01*
X876826418Y-622204322D01*
X876826421Y-622204332D01*
X876879221Y-622331804D01*
X876879228Y-622331817D01*
X876955885Y-622446541D01*
X876955888Y-622446545D01*
X877053454Y-622544111D01*
X877053458Y-622544114D01*
X877168182Y-622620771D01*
X877168195Y-622620778D01*
X877275168Y-622665087D01*
X877295672Y-622673580D01*
X877295676Y-622673580D01*
X877295677Y-622673581D01*
X877431004Y-622700500D01*
X877431007Y-622700500D01*
X877568995Y-622700500D01*
X877660041Y-622682389D01*
X877704328Y-622673580D01*
X877831811Y-622620775D01*
X877946542Y-622544114D01*
X878044114Y-622446542D01*
X878120775Y-622331811D01*
X878173580Y-622204328D01*
X878182389Y-622160041D01*
X878199520Y-622073920D01*
X899749499Y-622073920D01*
X899778340Y-622218907D01*
X899778343Y-622218917D01*
X899834912Y-622355488D01*
X899834919Y-622355501D01*
X899917048Y-622478415D01*
X899917051Y-622478419D01*
X900021580Y-622582948D01*
X900021584Y-622582951D01*
X900144498Y-622665080D01*
X900144511Y-622665087D01*
X900281082Y-622721656D01*
X900281087Y-622721658D01*
X900281091Y-622721658D01*
X900281092Y-622721659D01*
X900426079Y-622750500D01*
X900426082Y-622750500D01*
X900573920Y-622750500D01*
X900671462Y-622731096D01*
X900718913Y-622721658D01*
X900855495Y-622665084D01*
X900978416Y-622582951D01*
X901082951Y-622478416D01*
X901165084Y-622355495D01*
X901221658Y-622218913D01*
X901250500Y-622073920D01*
X903249499Y-622073920D01*
X903278340Y-622218907D01*
X903278343Y-622218917D01*
X903334912Y-622355488D01*
X903334919Y-622355501D01*
X903417048Y-622478415D01*
X903417051Y-622478419D01*
X903521580Y-622582948D01*
X903521584Y-622582951D01*
X903644498Y-622665080D01*
X903644511Y-622665087D01*
X903781082Y-622721656D01*
X903781087Y-622721658D01*
X903781091Y-622721658D01*
X903781092Y-622721659D01*
X903926079Y-622750500D01*
X903926082Y-622750500D01*
X904073920Y-622750500D01*
X904171462Y-622731096D01*
X904218913Y-622721658D01*
X904355495Y-622665084D01*
X904478416Y-622582951D01*
X904582951Y-622478416D01*
X904665084Y-622355495D01*
X904721658Y-622218913D01*
X904750500Y-622073918D01*
X904750500Y-621926082D01*
X904750500Y-621926079D01*
X904721659Y-621781092D01*
X904721658Y-621781091D01*
X904721658Y-621781087D01*
X904691960Y-621709390D01*
X904665087Y-621644511D01*
X904665080Y-621644498D01*
X904582951Y-621521584D01*
X904582948Y-621521580D01*
X904478419Y-621417051D01*
X904478415Y-621417048D01*
X904355501Y-621334919D01*
X904355488Y-621334912D01*
X904218917Y-621278343D01*
X904218907Y-621278340D01*
X904073920Y-621249500D01*
X904073918Y-621249500D01*
X903926082Y-621249500D01*
X903926080Y-621249500D01*
X903781092Y-621278340D01*
X903781082Y-621278343D01*
X903644511Y-621334912D01*
X903644498Y-621334919D01*
X903521584Y-621417048D01*
X903521580Y-621417051D01*
X903417051Y-621521580D01*
X903417048Y-621521584D01*
X903334919Y-621644498D01*
X903334912Y-621644511D01*
X903278343Y-621781082D01*
X903278340Y-621781092D01*
X903249500Y-621926079D01*
X903249500Y-621926082D01*
X903249500Y-622073918D01*
X903249500Y-622073920D01*
X903249499Y-622073920D01*
X901250500Y-622073920D01*
X901250500Y-622073918D01*
X901250500Y-621926082D01*
X901250500Y-621926079D01*
X901221659Y-621781092D01*
X901221658Y-621781091D01*
X901221658Y-621781087D01*
X901191960Y-621709390D01*
X901165087Y-621644511D01*
X901165080Y-621644498D01*
X901082951Y-621521584D01*
X901082948Y-621521580D01*
X900978419Y-621417051D01*
X900978415Y-621417048D01*
X900855501Y-621334919D01*
X900855488Y-621334912D01*
X900718917Y-621278343D01*
X900718907Y-621278340D01*
X900573920Y-621249500D01*
X900573918Y-621249500D01*
X900426082Y-621249500D01*
X900426080Y-621249500D01*
X900281092Y-621278340D01*
X900281082Y-621278343D01*
X900144511Y-621334912D01*
X900144498Y-621334919D01*
X900021584Y-621417048D01*
X900021580Y-621417051D01*
X899917051Y-621521580D01*
X899917048Y-621521584D01*
X899834919Y-621644498D01*
X899834912Y-621644511D01*
X899778343Y-621781082D01*
X899778340Y-621781092D01*
X899749500Y-621926079D01*
X899749500Y-621926082D01*
X899749500Y-622073918D01*
X899749500Y-622073920D01*
X899749499Y-622073920D01*
X878199520Y-622073920D01*
X878200500Y-622068995D01*
X878200500Y-621931004D01*
X878173581Y-621795677D01*
X878173580Y-621795676D01*
X878173580Y-621795672D01*
X878162838Y-621769738D01*
X878120778Y-621668195D01*
X878120771Y-621668182D01*
X878044114Y-621553458D01*
X878044111Y-621553454D01*
X877946545Y-621455888D01*
X877946541Y-621455885D01*
X877831817Y-621379228D01*
X877831807Y-621379223D01*
X877747501Y-621344302D01*
X877693098Y-621300461D01*
X877671033Y-621234166D01*
X877673337Y-621205549D01*
X877700500Y-621068995D01*
X877700500Y-620931007D01*
X877700499Y-620931001D01*
X877698540Y-620921153D01*
X885199500Y-620921153D01*
X885199500Y-621078846D01*
X885230261Y-621233489D01*
X885230264Y-621233501D01*
X885290602Y-621379172D01*
X885290609Y-621379185D01*
X885378210Y-621510288D01*
X885378213Y-621510292D01*
X885489707Y-621621786D01*
X885489711Y-621621789D01*
X885620814Y-621709390D01*
X885620827Y-621709397D01*
X885757075Y-621765832D01*
X885766503Y-621769737D01*
X885910460Y-621798372D01*
X885921153Y-621800499D01*
X885921156Y-621800500D01*
X885921158Y-621800500D01*
X886078844Y-621800500D01*
X886089537Y-621798373D01*
X886089537Y-621798372D01*
X886233497Y-621769737D01*
X886379179Y-621709394D01*
X886510289Y-621621789D01*
X886621789Y-621510289D01*
X886709394Y-621379179D01*
X886769737Y-621233497D01*
X886800500Y-621078842D01*
X886800500Y-620921158D01*
X886800500Y-620921155D01*
X886800499Y-620921153D01*
X886775538Y-620795667D01*
X886769737Y-620766503D01*
X886769735Y-620766498D01*
X886709397Y-620620827D01*
X886709390Y-620620814D01*
X886621789Y-620489711D01*
X886621786Y-620489707D01*
X886510292Y-620378213D01*
X886510288Y-620378210D01*
X886379185Y-620290609D01*
X886379172Y-620290602D01*
X886233501Y-620230264D01*
X886233489Y-620230261D01*
X886078845Y-620199500D01*
X886078842Y-620199500D01*
X885921158Y-620199500D01*
X885921155Y-620199500D01*
X885766510Y-620230261D01*
X885766498Y-620230264D01*
X885620827Y-620290602D01*
X885620814Y-620290609D01*
X885489711Y-620378210D01*
X885489707Y-620378213D01*
X885378213Y-620489707D01*
X885378210Y-620489711D01*
X885290609Y-620620814D01*
X885290602Y-620620827D01*
X885230264Y-620766498D01*
X885230261Y-620766510D01*
X885199500Y-620921153D01*
X877698540Y-620921153D01*
X877673581Y-620795677D01*
X877673580Y-620795676D01*
X877673580Y-620795672D01*
X877641028Y-620717084D01*
X877620778Y-620668195D01*
X877620771Y-620668182D01*
X877544114Y-620553458D01*
X877544111Y-620553454D01*
X877446545Y-620455888D01*
X877446541Y-620455885D01*
X877331817Y-620379228D01*
X877331804Y-620379221D01*
X877204332Y-620326421D01*
X877204322Y-620326418D01*
X877068995Y-620299500D01*
X877068993Y-620299500D01*
X876931007Y-620299500D01*
X876931005Y-620299500D01*
X876795677Y-620326418D01*
X876795667Y-620326421D01*
X876668195Y-620379221D01*
X876668182Y-620379228D01*
X876553458Y-620455885D01*
X876553454Y-620455888D01*
X876455888Y-620553454D01*
X876455885Y-620553458D01*
X876379228Y-620668182D01*
X876379221Y-620668195D01*
X876326421Y-620795667D01*
X876326418Y-620795677D01*
X876299500Y-620931004D01*
X876299500Y-620931007D01*
X876299500Y-621068993D01*
X876299500Y-621068995D01*
X876299499Y-621068995D01*
X866077451Y-621068995D01*
X866309212Y-620837234D01*
X866369105Y-620777340D01*
X866369104Y-620777338D01*
X866286174Y-620717087D01*
X866075802Y-620609897D01*
X865851247Y-620536934D01*
X865851248Y-620536934D01*
X865618052Y-620500000D01*
X865381948Y-620500000D01*
X865148752Y-620536934D01*
X864924197Y-620609897D01*
X864713830Y-620717084D01*
X864630894Y-620777340D01*
X865329766Y-621476212D01*
X865287708Y-621487482D01*
X865162292Y-621559890D01*
X865059890Y-621662292D01*
X864987482Y-621787708D01*
X864976212Y-621829765D01*
X864277340Y-621130894D01*
X864217084Y-621213830D01*
X864109897Y-621424197D01*
X864036934Y-621648752D01*
X864000000Y-621881947D01*
X860500000Y-621881947D01*
X860463065Y-621648752D01*
X860390102Y-621424197D01*
X860282914Y-621213828D01*
X860222658Y-621130894D01*
X860222658Y-621130893D01*
X859523787Y-621829764D01*
X859512518Y-621787708D01*
X859440110Y-621662292D01*
X859337708Y-621559890D01*
X859212292Y-621487482D01*
X859170234Y-621476212D01*
X859869105Y-620777340D01*
X859869104Y-620777339D01*
X859786174Y-620717087D01*
X859575802Y-620609897D01*
X859351247Y-620536934D01*
X859351248Y-620536934D01*
X859118052Y-620500000D01*
X858881948Y-620500000D01*
X858648752Y-620536934D01*
X858424197Y-620609897D01*
X858213830Y-620717084D01*
X858130894Y-620777340D01*
X858829766Y-621476212D01*
X858787708Y-621487482D01*
X858662292Y-621559890D01*
X858559890Y-621662292D01*
X858487482Y-621787708D01*
X858476212Y-621829766D01*
X857777340Y-621130894D01*
X857717084Y-621213830D01*
X857609897Y-621424197D01*
X857536934Y-621648752D01*
X857500000Y-621881947D01*
X848000000Y-621881947D01*
X848000000Y-620073920D01*
X906949499Y-620073920D01*
X906978340Y-620218907D01*
X906978343Y-620218917D01*
X907034912Y-620355488D01*
X907034919Y-620355501D01*
X907117048Y-620478415D01*
X907117051Y-620478419D01*
X907221580Y-620582948D01*
X907221584Y-620582951D01*
X907344498Y-620665080D01*
X907344511Y-620665087D01*
X907481082Y-620721656D01*
X907481087Y-620721658D01*
X907481091Y-620721658D01*
X907481092Y-620721659D01*
X907626079Y-620750500D01*
X907626082Y-620750500D01*
X907773920Y-620750500D01*
X907871462Y-620731096D01*
X907918913Y-620721658D01*
X908024547Y-620677902D01*
X908055488Y-620665087D01*
X908055488Y-620665086D01*
X908055495Y-620665084D01*
X908178416Y-620582951D01*
X908282951Y-620478416D01*
X908365084Y-620355495D01*
X908421658Y-620218913D01*
X908450500Y-620073920D01*
X912549499Y-620073920D01*
X912578340Y-620218907D01*
X912578343Y-620218917D01*
X912634912Y-620355488D01*
X912634919Y-620355501D01*
X912717048Y-620478415D01*
X912717051Y-620478419D01*
X912821580Y-620582948D01*
X912821584Y-620582951D01*
X912944498Y-620665080D01*
X912944511Y-620665087D01*
X913081082Y-620721656D01*
X913081087Y-620721658D01*
X913081091Y-620721658D01*
X913081092Y-620721659D01*
X913226079Y-620750500D01*
X913226082Y-620750500D01*
X913373920Y-620750500D01*
X913471462Y-620731096D01*
X913518913Y-620721658D01*
X913624547Y-620677902D01*
X913655488Y-620665087D01*
X913655488Y-620665086D01*
X913655495Y-620665084D01*
X913778416Y-620582951D01*
X913882951Y-620478416D01*
X913965084Y-620355495D01*
X914021658Y-620218913D01*
X914050500Y-620073918D01*
X914050500Y-619926082D01*
X914050500Y-619926079D01*
X914021659Y-619781092D01*
X914021658Y-619781091D01*
X914021658Y-619781087D01*
X914021656Y-619781082D01*
X913965087Y-619644511D01*
X913965080Y-619644498D01*
X913882951Y-619521584D01*
X913882948Y-619521580D01*
X913778419Y-619417051D01*
X913778415Y-619417048D01*
X913655501Y-619334919D01*
X913655488Y-619334912D01*
X913518917Y-619278343D01*
X913518907Y-619278340D01*
X913373920Y-619249500D01*
X913373918Y-619249500D01*
X913226082Y-619249500D01*
X913226080Y-619249500D01*
X913081092Y-619278340D01*
X913081082Y-619278343D01*
X912944511Y-619334912D01*
X912944498Y-619334919D01*
X912821584Y-619417048D01*
X912821580Y-619417051D01*
X912717051Y-619521580D01*
X912717048Y-619521584D01*
X912634919Y-619644498D01*
X912634912Y-619644511D01*
X912578343Y-619781082D01*
X912578340Y-619781092D01*
X912549500Y-619926079D01*
X912549500Y-619926082D01*
X912549500Y-620073918D01*
X912549500Y-620073920D01*
X912549499Y-620073920D01*
X908450500Y-620073920D01*
X908450500Y-620073918D01*
X908450500Y-619926082D01*
X908450500Y-619926079D01*
X908421659Y-619781092D01*
X908421658Y-619781091D01*
X908421658Y-619781087D01*
X908421656Y-619781082D01*
X908365087Y-619644511D01*
X908365080Y-619644498D01*
X908282951Y-619521584D01*
X908282948Y-619521580D01*
X908178419Y-619417051D01*
X908178415Y-619417048D01*
X908055501Y-619334919D01*
X908055488Y-619334912D01*
X907918917Y-619278343D01*
X907918907Y-619278340D01*
X907773920Y-619249500D01*
X907773918Y-619249500D01*
X907626082Y-619249500D01*
X907626080Y-619249500D01*
X907481092Y-619278340D01*
X907481082Y-619278343D01*
X907344511Y-619334912D01*
X907344498Y-619334919D01*
X907221584Y-619417048D01*
X907221580Y-619417051D01*
X907117051Y-619521580D01*
X907117048Y-619521584D01*
X907034919Y-619644498D01*
X907034912Y-619644511D01*
X906978343Y-619781082D01*
X906978340Y-619781092D01*
X906949500Y-619926079D01*
X906949500Y-619926082D01*
X906949500Y-620073918D01*
X906949500Y-620073920D01*
X906949499Y-620073920D01*
X848000000Y-620073920D01*
X848000000Y-617381902D01*
X857499500Y-617381902D01*
X857499500Y-617618097D01*
X857536446Y-617851368D01*
X857609433Y-618075996D01*
X857677405Y-618209397D01*
X857716657Y-618286433D01*
X857855483Y-618477510D01*
X858022490Y-618644517D01*
X858213567Y-618783343D01*
X858312991Y-618834002D01*
X858424003Y-618890566D01*
X858424005Y-618890566D01*
X858424008Y-618890568D01*
X858544412Y-618929689D01*
X858648631Y-618963553D01*
X858881903Y-619000500D01*
X858881908Y-619000500D01*
X859118097Y-619000500D01*
X859351368Y-618963553D01*
X859575992Y-618890568D01*
X859786433Y-618783343D01*
X859977510Y-618644517D01*
X860144517Y-618477510D01*
X860283343Y-618286433D01*
X860390568Y-618075992D01*
X860463553Y-617851368D01*
X860473177Y-617790606D01*
X860500500Y-617618097D01*
X860500500Y-617381902D01*
X863999500Y-617381902D01*
X863999500Y-617618097D01*
X864036446Y-617851368D01*
X864109433Y-618075996D01*
X864177405Y-618209397D01*
X864216657Y-618286433D01*
X864355483Y-618477510D01*
X864522490Y-618644517D01*
X864713567Y-618783343D01*
X864812991Y-618834002D01*
X864924003Y-618890566D01*
X864924005Y-618890566D01*
X864924008Y-618890568D01*
X865044412Y-618929689D01*
X865148631Y-618963553D01*
X865381903Y-619000500D01*
X865381908Y-619000500D01*
X865618097Y-619000500D01*
X865851368Y-618963553D01*
X866075992Y-618890568D01*
X866286433Y-618783343D01*
X866477510Y-618644517D01*
X866644517Y-618477510D01*
X866685463Y-618421153D01*
X875199500Y-618421153D01*
X875199500Y-618578846D01*
X875230261Y-618733489D01*
X875230264Y-618733501D01*
X875290602Y-618879172D01*
X875290609Y-618879185D01*
X875378210Y-619010288D01*
X875378213Y-619010292D01*
X875489707Y-619121786D01*
X875489711Y-619121789D01*
X875620814Y-619209390D01*
X875620827Y-619209397D01*
X875717646Y-619249500D01*
X875766503Y-619269737D01*
X875921153Y-619300499D01*
X875921156Y-619300500D01*
X875921158Y-619300500D01*
X876078844Y-619300500D01*
X876078845Y-619300499D01*
X876233497Y-619269737D01*
X876379179Y-619209394D01*
X876510289Y-619121789D01*
X876621789Y-619010289D01*
X876709394Y-618879179D01*
X876769737Y-618733497D01*
X876800500Y-618578842D01*
X876800500Y-618421158D01*
X876800500Y-618421155D01*
X876800499Y-618421153D01*
X876769738Y-618266510D01*
X876769737Y-618266503D01*
X876731248Y-618173581D01*
X876709397Y-618120827D01*
X876709390Y-618120814D01*
X876621789Y-617989711D01*
X876621786Y-617989707D01*
X876510292Y-617878213D01*
X876510288Y-617878210D01*
X876379185Y-617790609D01*
X876379172Y-617790602D01*
X876233501Y-617730264D01*
X876233489Y-617730261D01*
X876078845Y-617699500D01*
X876078842Y-617699500D01*
X875921158Y-617699500D01*
X875921155Y-617699500D01*
X875766510Y-617730261D01*
X875766498Y-617730264D01*
X875620827Y-617790602D01*
X875620814Y-617790609D01*
X875489711Y-617878210D01*
X875489707Y-617878213D01*
X875378213Y-617989707D01*
X875378210Y-617989711D01*
X875290609Y-618120814D01*
X875290602Y-618120827D01*
X875230264Y-618266498D01*
X875230261Y-618266510D01*
X875199500Y-618421153D01*
X866685463Y-618421153D01*
X866783343Y-618286433D01*
X866890568Y-618075992D01*
X866963553Y-617851368D01*
X866973177Y-617790606D01*
X867000500Y-617618097D01*
X867000500Y-617421153D01*
X892199500Y-617421153D01*
X892199500Y-617578846D01*
X892230261Y-617733489D01*
X892230264Y-617733501D01*
X892290602Y-617879172D01*
X892290609Y-617879185D01*
X892378210Y-618010288D01*
X892378213Y-618010292D01*
X892489707Y-618121786D01*
X892489711Y-618121789D01*
X892620814Y-618209390D01*
X892620827Y-618209397D01*
X892758683Y-618266498D01*
X892766503Y-618269737D01*
X892921153Y-618300499D01*
X892921156Y-618300500D01*
X892921158Y-618300500D01*
X893078844Y-618300500D01*
X893078845Y-618300499D01*
X893233497Y-618269737D01*
X893379179Y-618209394D01*
X893510289Y-618121789D01*
X893621789Y-618010289D01*
X893709394Y-617879179D01*
X893769737Y-617733497D01*
X893800500Y-617578842D01*
X893800500Y-617568995D01*
X899799499Y-617568995D01*
X899826418Y-617704322D01*
X899826421Y-617704332D01*
X899879221Y-617831804D01*
X899879228Y-617831817D01*
X899955885Y-617946541D01*
X899955888Y-617946545D01*
X900053454Y-618044111D01*
X900053458Y-618044114D01*
X900168182Y-618120771D01*
X900168195Y-618120778D01*
X900295667Y-618173578D01*
X900295672Y-618173580D01*
X900295676Y-618173580D01*
X900295677Y-618173581D01*
X900431004Y-618200500D01*
X900431007Y-618200500D01*
X900568995Y-618200500D01*
X900660041Y-618182389D01*
X900704328Y-618173580D01*
X900829370Y-618121786D01*
X900831804Y-618120778D01*
X900831804Y-618120777D01*
X900831811Y-618120775D01*
X900946542Y-618044114D01*
X901044114Y-617946542D01*
X901120775Y-617831811D01*
X901173580Y-617704328D01*
X901200500Y-617568993D01*
X901200500Y-617431007D01*
X901200500Y-617431004D01*
X901173581Y-617295677D01*
X901173580Y-617295676D01*
X901173580Y-617295672D01*
X901161496Y-617266498D01*
X901120778Y-617168195D01*
X901120771Y-617168182D01*
X901044114Y-617053458D01*
X901044111Y-617053454D01*
X900946545Y-616955888D01*
X900946541Y-616955885D01*
X900831817Y-616879228D01*
X900831804Y-616879221D01*
X900704332Y-616826421D01*
X900704322Y-616826418D01*
X900568995Y-616799500D01*
X900568993Y-616799500D01*
X900431007Y-616799500D01*
X900431005Y-616799500D01*
X900295677Y-616826418D01*
X900295667Y-616826421D01*
X900168195Y-616879221D01*
X900168182Y-616879228D01*
X900053458Y-616955885D01*
X900053454Y-616955888D01*
X899955888Y-617053454D01*
X899955885Y-617053458D01*
X899879228Y-617168182D01*
X899879221Y-617168195D01*
X899826421Y-617295667D01*
X899826418Y-617295677D01*
X899799500Y-617431004D01*
X899799500Y-617431007D01*
X899799500Y-617568993D01*
X899799500Y-617568995D01*
X899799499Y-617568995D01*
X893800500Y-617568995D01*
X893800500Y-617421158D01*
X893800500Y-617421155D01*
X893800499Y-617421153D01*
X893769738Y-617266510D01*
X893769737Y-617266503D01*
X893729017Y-617168195D01*
X893709397Y-617120827D01*
X893709390Y-617120814D01*
X893621789Y-616989711D01*
X893621786Y-616989707D01*
X893510292Y-616878213D01*
X893510288Y-616878210D01*
X893379185Y-616790609D01*
X893379172Y-616790602D01*
X893233501Y-616730264D01*
X893233489Y-616730261D01*
X893078845Y-616699500D01*
X893078842Y-616699500D01*
X892921158Y-616699500D01*
X892921155Y-616699500D01*
X892766510Y-616730261D01*
X892766498Y-616730264D01*
X892620827Y-616790602D01*
X892620814Y-616790609D01*
X892489711Y-616878210D01*
X892489707Y-616878213D01*
X892378213Y-616989707D01*
X892378210Y-616989711D01*
X892290609Y-617120814D01*
X892290602Y-617120827D01*
X892230264Y-617266498D01*
X892230261Y-617266510D01*
X892199500Y-617421153D01*
X867000500Y-617421153D01*
X867000500Y-617381902D01*
X866963553Y-617148631D01*
X866890566Y-616924003D01*
X866822594Y-616790602D01*
X866783343Y-616713567D01*
X866644517Y-616522490D01*
X866477510Y-616355483D01*
X866286433Y-616216657D01*
X866075996Y-616109433D01*
X865851368Y-616036446D01*
X865618097Y-615999500D01*
X865618092Y-615999500D01*
X865381908Y-615999500D01*
X865381903Y-615999500D01*
X865148631Y-616036446D01*
X864924003Y-616109433D01*
X864713566Y-616216657D01*
X864604550Y-616295862D01*
X864522490Y-616355483D01*
X864522488Y-616355485D01*
X864522487Y-616355485D01*
X864355485Y-616522487D01*
X864355485Y-616522488D01*
X864355483Y-616522490D01*
X864295862Y-616604550D01*
X864216657Y-616713566D01*
X864109433Y-616924003D01*
X864036446Y-617148631D01*
X863999500Y-617381902D01*
X860500500Y-617381902D01*
X860463553Y-617148631D01*
X860390566Y-616924003D01*
X860322594Y-616790602D01*
X860283343Y-616713567D01*
X860144517Y-616522490D01*
X859977510Y-616355483D01*
X859786433Y-616216657D01*
X859575996Y-616109433D01*
X859351368Y-616036446D01*
X859118097Y-615999500D01*
X859118092Y-615999500D01*
X858881908Y-615999500D01*
X858881903Y-615999500D01*
X858648631Y-616036446D01*
X858424003Y-616109433D01*
X858213566Y-616216657D01*
X858104550Y-616295862D01*
X858022490Y-616355483D01*
X858022488Y-616355485D01*
X858022487Y-616355485D01*
X857855485Y-616522487D01*
X857855485Y-616522488D01*
X857855483Y-616522490D01*
X857795862Y-616604550D01*
X857716657Y-616713566D01*
X857609433Y-616924003D01*
X857536446Y-617148631D01*
X857499500Y-617381902D01*
X848000000Y-617381902D01*
X848000000Y-613921153D01*
X873699500Y-613921153D01*
X873699500Y-614078846D01*
X873730261Y-614233489D01*
X873730264Y-614233501D01*
X873790602Y-614379172D01*
X873790609Y-614379185D01*
X873878210Y-614510288D01*
X873878213Y-614510292D01*
X873989707Y-614621786D01*
X873989711Y-614621789D01*
X874120814Y-614709390D01*
X874120827Y-614709397D01*
X874266498Y-614769735D01*
X874266503Y-614769737D01*
X874421153Y-614800499D01*
X874421156Y-614800500D01*
X874421158Y-614800500D01*
X874578844Y-614800500D01*
X874578845Y-614800499D01*
X874733497Y-614769737D01*
X874879179Y-614709394D01*
X875010289Y-614621789D01*
X875121789Y-614510289D01*
X875209394Y-614379179D01*
X875269737Y-614233497D01*
X875300500Y-614078842D01*
X875300500Y-613921158D01*
X875300500Y-613921155D01*
X875300499Y-613921153D01*
X875269738Y-613766510D01*
X875269737Y-613766503D01*
X875209794Y-613621786D01*
X875209397Y-613620827D01*
X875209390Y-613620814D01*
X875121789Y-613489711D01*
X875121786Y-613489707D01*
X875010292Y-613378213D01*
X875010288Y-613378210D01*
X874879185Y-613290609D01*
X874879172Y-613290602D01*
X874733501Y-613230264D01*
X874733489Y-613230261D01*
X874578845Y-613199500D01*
X874578842Y-613199500D01*
X874421158Y-613199500D01*
X874421155Y-613199500D01*
X874266510Y-613230261D01*
X874266498Y-613230264D01*
X874120827Y-613290602D01*
X874120814Y-613290609D01*
X873989711Y-613378210D01*
X873989707Y-613378213D01*
X873878213Y-613489707D01*
X873878210Y-613489711D01*
X873790609Y-613620814D01*
X873790602Y-613620827D01*
X873730264Y-613766498D01*
X873730261Y-613766510D01*
X873699500Y-613921153D01*
X848000000Y-613921153D01*
X848000000Y-613129026D01*
X848000018Y-613121132D01*
X848000500Y-613118092D01*
X848000500Y-612921153D01*
X881199500Y-612921153D01*
X881199500Y-613078846D01*
X881230261Y-613233489D01*
X881230264Y-613233501D01*
X881290602Y-613379172D01*
X881290609Y-613379185D01*
X881378210Y-613510288D01*
X881378213Y-613510292D01*
X881489707Y-613621786D01*
X881489711Y-613621789D01*
X881620814Y-613709390D01*
X881620827Y-613709397D01*
X881758683Y-613766498D01*
X881766503Y-613769737D01*
X881921153Y-613800499D01*
X881921156Y-613800500D01*
X881921158Y-613800500D01*
X882078844Y-613800500D01*
X882078845Y-613800499D01*
X882233497Y-613769737D01*
X882379179Y-613709394D01*
X882510289Y-613621789D01*
X882621789Y-613510289D01*
X882709394Y-613379179D01*
X882769737Y-613233497D01*
X882800500Y-613078842D01*
X882800500Y-612921158D01*
X882800500Y-612921155D01*
X882800499Y-612921153D01*
X882790459Y-612870679D01*
X882769737Y-612766503D01*
X882720914Y-612648632D01*
X882709397Y-612620827D01*
X882709390Y-612620814D01*
X882621789Y-612489711D01*
X882621786Y-612489707D01*
X882510292Y-612378213D01*
X882510288Y-612378210D01*
X882379185Y-612290609D01*
X882379172Y-612290602D01*
X882233501Y-612230264D01*
X882233489Y-612230261D01*
X882078845Y-612199500D01*
X882078842Y-612199500D01*
X881921158Y-612199500D01*
X881921155Y-612199500D01*
X881766510Y-612230261D01*
X881766498Y-612230264D01*
X881620827Y-612290602D01*
X881620814Y-612290609D01*
X881489711Y-612378210D01*
X881489707Y-612378213D01*
X881378213Y-612489707D01*
X881378210Y-612489711D01*
X881290609Y-612620814D01*
X881290602Y-612620827D01*
X881230264Y-612766498D01*
X881230261Y-612766510D01*
X881199500Y-612921153D01*
X848000500Y-612921153D01*
X848000500Y-612881908D01*
X848000500Y-612881902D01*
X848000382Y-612880402D01*
X848000000Y-612870679D01*
X848000000Y-611073920D01*
X875749499Y-611073920D01*
X875778340Y-611218907D01*
X875778343Y-611218917D01*
X875834912Y-611355488D01*
X875834919Y-611355501D01*
X875917048Y-611478415D01*
X875917051Y-611478419D01*
X876021580Y-611582948D01*
X876021584Y-611582951D01*
X876144498Y-611665080D01*
X876144511Y-611665087D01*
X876251469Y-611709390D01*
X876281087Y-611721658D01*
X876281091Y-611721658D01*
X876281092Y-611721659D01*
X876426079Y-611750500D01*
X876426082Y-611750500D01*
X876573920Y-611750500D01*
X876671462Y-611731096D01*
X876718913Y-611721658D01*
X876855495Y-611665084D01*
X876978416Y-611582951D01*
X877082951Y-611478416D01*
X877165084Y-611355495D01*
X877221658Y-611218913D01*
X877249520Y-611078846D01*
X877250500Y-611073920D01*
X877250500Y-610926079D01*
X877249520Y-610921153D01*
X880699500Y-610921153D01*
X880699500Y-611078846D01*
X880730261Y-611233489D01*
X880730264Y-611233501D01*
X880790602Y-611379172D01*
X880790609Y-611379185D01*
X880878210Y-611510288D01*
X880878213Y-611510292D01*
X880989707Y-611621786D01*
X880989711Y-611621789D01*
X881120814Y-611709390D01*
X881120827Y-611709397D01*
X881220060Y-611750500D01*
X881266503Y-611769737D01*
X881421153Y-611800499D01*
X881421156Y-611800500D01*
X881421158Y-611800500D01*
X881578844Y-611800500D01*
X881578845Y-611800499D01*
X881733497Y-611769737D01*
X881849576Y-611721656D01*
X881879172Y-611709397D01*
X881879172Y-611709396D01*
X881879179Y-611709394D01*
X882010289Y-611621789D01*
X882121789Y-611510289D01*
X882209394Y-611379179D01*
X882269737Y-611233497D01*
X882300500Y-611078842D01*
X882300500Y-610921158D01*
X882300500Y-610921155D01*
X882300499Y-610921153D01*
X882269738Y-610766510D01*
X882269737Y-610766503D01*
X882269735Y-610766498D01*
X882209397Y-610620827D01*
X882209390Y-610620814D01*
X882121789Y-610489711D01*
X882121786Y-610489707D01*
X882010292Y-610378213D01*
X882010288Y-610378210D01*
X881879185Y-610290609D01*
X881879172Y-610290602D01*
X881733501Y-610230264D01*
X881733489Y-610230261D01*
X881578845Y-610199500D01*
X881578842Y-610199500D01*
X881421158Y-610199500D01*
X881421155Y-610199500D01*
X881266510Y-610230261D01*
X881266498Y-610230264D01*
X881120827Y-610290602D01*
X881120814Y-610290609D01*
X880989711Y-610378210D01*
X880989707Y-610378213D01*
X880878213Y-610489707D01*
X880878210Y-610489711D01*
X880790609Y-610620814D01*
X880790602Y-610620827D01*
X880730264Y-610766498D01*
X880730261Y-610766510D01*
X880699500Y-610921153D01*
X877249520Y-610921153D01*
X877221659Y-610781092D01*
X877221658Y-610781091D01*
X877221658Y-610781087D01*
X877215615Y-610766498D01*
X877165087Y-610644511D01*
X877165080Y-610644498D01*
X877082951Y-610521584D01*
X877082948Y-610521580D01*
X877019384Y-610458016D01*
X876985899Y-610396693D01*
X876990883Y-610327001D01*
X877032755Y-610271068D01*
X877082871Y-610248718D01*
X877218913Y-610221658D01*
X877355495Y-610165084D01*
X877478416Y-610082951D01*
X877582951Y-609978416D01*
X877665084Y-609855495D01*
X877721658Y-609718913D01*
X877750500Y-609573918D01*
X877750500Y-609426082D01*
X877750500Y-609426079D01*
X877721659Y-609281092D01*
X877721658Y-609281091D01*
X877721658Y-609281087D01*
X877721656Y-609281082D01*
X877665087Y-609144511D01*
X877665080Y-609144498D01*
X877582951Y-609021584D01*
X877582948Y-609021580D01*
X877478419Y-608917051D01*
X877478415Y-608917048D01*
X877355501Y-608834919D01*
X877355488Y-608834912D01*
X877218917Y-608778343D01*
X877218907Y-608778340D01*
X877073920Y-608749500D01*
X877073918Y-608749500D01*
X876926082Y-608749500D01*
X876926080Y-608749500D01*
X876781092Y-608778340D01*
X876781082Y-608778343D01*
X876644511Y-608834912D01*
X876644498Y-608834919D01*
X876521584Y-608917048D01*
X876521580Y-608917051D01*
X876417051Y-609021580D01*
X876417048Y-609021584D01*
X876334919Y-609144498D01*
X876334912Y-609144511D01*
X876278343Y-609281082D01*
X876278340Y-609281092D01*
X876249500Y-609426079D01*
X876249500Y-609426082D01*
X876249500Y-609573918D01*
X876249500Y-609573920D01*
X876249499Y-609573920D01*
X876278340Y-609718907D01*
X876278343Y-609718917D01*
X876334912Y-609855488D01*
X876334919Y-609855501D01*
X876417048Y-609978415D01*
X876417051Y-609978419D01*
X876480615Y-610041983D01*
X876514100Y-610103306D01*
X876509116Y-610172998D01*
X876467244Y-610228931D01*
X876417126Y-610251281D01*
X876281092Y-610278340D01*
X876281082Y-610278343D01*
X876144511Y-610334912D01*
X876144498Y-610334919D01*
X876021584Y-610417048D01*
X876021580Y-610417051D01*
X875917051Y-610521580D01*
X875917048Y-610521584D01*
X875834919Y-610644498D01*
X875834912Y-610644511D01*
X875778343Y-610781082D01*
X875778340Y-610781092D01*
X875749500Y-610926079D01*
X875749500Y-610926082D01*
X875749500Y-611073918D01*
X875749500Y-611073920D01*
X875749499Y-611073920D01*
X848000000Y-611073920D01*
X848000000Y-596313713D01*
X848649500Y-596313713D01*
X848649500Y-596526286D01*
X848674955Y-596687007D01*
X848682754Y-596736243D01*
X848743761Y-596924003D01*
X848748444Y-596938414D01*
X848844951Y-597127820D01*
X848969890Y-597299786D01*
X849120213Y-597450109D01*
X849292182Y-597575050D01*
X849300946Y-597579516D01*
X849351742Y-597627491D01*
X849368536Y-597695312D01*
X849345998Y-597761447D01*
X849300946Y-597800484D01*
X849292182Y-597804949D01*
X849120213Y-597929890D01*
X848969890Y-598080213D01*
X848844951Y-598252179D01*
X848748444Y-598441585D01*
X848682753Y-598643760D01*
X848649500Y-598853713D01*
X848649500Y-599066286D01*
X848682753Y-599276239D01*
X848748444Y-599478414D01*
X848844951Y-599667820D01*
X848969890Y-599839786D01*
X849120213Y-599990109D01*
X849292182Y-600115050D01*
X849300946Y-600119516D01*
X849351742Y-600167491D01*
X849368536Y-600235312D01*
X849345998Y-600301447D01*
X849300946Y-600340484D01*
X849292182Y-600344949D01*
X849120213Y-600469890D01*
X848969890Y-600620213D01*
X848844951Y-600792179D01*
X848748444Y-600981585D01*
X848682753Y-601183760D01*
X848649500Y-601393713D01*
X848649500Y-601606286D01*
X848676750Y-601778340D01*
X848682754Y-601816243D01*
X848688822Y-601834919D01*
X848748444Y-602018414D01*
X848844951Y-602207820D01*
X848969890Y-602379786D01*
X849120213Y-602530109D01*
X849292182Y-602655050D01*
X849300946Y-602659516D01*
X849351742Y-602707491D01*
X849368536Y-602775312D01*
X849345998Y-602841447D01*
X849300946Y-602880484D01*
X849292182Y-602884949D01*
X849120213Y-603009890D01*
X848969890Y-603160213D01*
X848844951Y-603332179D01*
X848748444Y-603521585D01*
X848682753Y-603723760D01*
X848649500Y-603933713D01*
X848649500Y-604146286D01*
X848676418Y-604316243D01*
X848682754Y-604356243D01*
X848732806Y-604510288D01*
X848748444Y-604558414D01*
X848844951Y-604747820D01*
X848969890Y-604919786D01*
X849083818Y-605033714D01*
X849117303Y-605095037D01*
X849112319Y-605164729D01*
X849070447Y-605220662D01*
X849039471Y-605237577D01*
X848907912Y-605286646D01*
X848907906Y-605286649D01*
X848792812Y-605372809D01*
X848792809Y-605372812D01*
X848706649Y-605487906D01*
X848706645Y-605487913D01*
X848656403Y-605622620D01*
X848656401Y-605622627D01*
X848650000Y-605682155D01*
X848650000Y-606330000D01*
X849566988Y-606330000D01*
X849534075Y-606387007D01*
X849500000Y-606514174D01*
X849500000Y-606645826D01*
X849534075Y-606772993D01*
X849566988Y-606830000D01*
X848650000Y-606830000D01*
X848650000Y-607477844D01*
X848656401Y-607537372D01*
X848656403Y-607537379D01*
X848706645Y-607672086D01*
X848706649Y-607672093D01*
X848792809Y-607787187D01*
X848792812Y-607787190D01*
X848907906Y-607873350D01*
X848907913Y-607873354D01*
X849042620Y-607923596D01*
X849042627Y-607923598D01*
X849102155Y-607929999D01*
X849102172Y-607930000D01*
X849750000Y-607930000D01*
X849750000Y-607013012D01*
X849807007Y-607045925D01*
X849934174Y-607080000D01*
X850065826Y-607080000D01*
X850192993Y-607045925D01*
X850250000Y-607013012D01*
X850250000Y-607930000D01*
X850897828Y-607930000D01*
X850897844Y-607929999D01*
X850957372Y-607923598D01*
X850957379Y-607923596D01*
X851092086Y-607873354D01*
X851092093Y-607873350D01*
X851207187Y-607787190D01*
X851207190Y-607787187D01*
X851293350Y-607672093D01*
X851293354Y-607672086D01*
X851343596Y-607537379D01*
X851343598Y-607537372D01*
X851349999Y-607477844D01*
X851350000Y-607477827D01*
X851350000Y-607073920D01*
X879749499Y-607073920D01*
X879778340Y-607218907D01*
X879778343Y-607218917D01*
X879834912Y-607355488D01*
X879834919Y-607355501D01*
X879917048Y-607478415D01*
X879917051Y-607478419D01*
X880021580Y-607582948D01*
X880021584Y-607582951D01*
X880144498Y-607665080D01*
X880144511Y-607665087D01*
X880281082Y-607721656D01*
X880281087Y-607721658D01*
X880281091Y-607721658D01*
X880281092Y-607721659D01*
X880426079Y-607750500D01*
X880426082Y-607750500D01*
X880573918Y-607750500D01*
X880611083Y-607743107D01*
X880680673Y-607749333D01*
X880735851Y-607792195D01*
X880759097Y-607858084D01*
X880756893Y-607888914D01*
X880749994Y-607923598D01*
X880749500Y-607926082D01*
X880749500Y-608073918D01*
X880749500Y-608073920D01*
X880749499Y-608073920D01*
X880778340Y-608218907D01*
X880778343Y-608218917D01*
X880834912Y-608355488D01*
X880834919Y-608355501D01*
X880917048Y-608478415D01*
X880917051Y-608478419D01*
X881021580Y-608582948D01*
X881021584Y-608582951D01*
X881144498Y-608665080D01*
X881144511Y-608665087D01*
X881281082Y-608721656D01*
X881281087Y-608721658D01*
X881281091Y-608721658D01*
X881281092Y-608721659D01*
X881426079Y-608750500D01*
X881426082Y-608750500D01*
X881573920Y-608750500D01*
X881671462Y-608731096D01*
X881718913Y-608721658D01*
X881855495Y-608665084D01*
X881978416Y-608582951D01*
X882082951Y-608478416D01*
X882165084Y-608355495D01*
X882221658Y-608218913D01*
X882250500Y-608073918D01*
X882250500Y-607926082D01*
X882250500Y-607926079D01*
X882221659Y-607781092D01*
X882221658Y-607781091D01*
X882221658Y-607781087D01*
X882221656Y-607781082D01*
X882165087Y-607644511D01*
X882165080Y-607644498D01*
X882082951Y-607521584D01*
X882082948Y-607521580D01*
X881978419Y-607417051D01*
X881978415Y-607417048D01*
X881855501Y-607334919D01*
X881855488Y-607334912D01*
X881718917Y-607278343D01*
X881718907Y-607278340D01*
X881573920Y-607249500D01*
X881573918Y-607249500D01*
X881426082Y-607249500D01*
X881388914Y-607256893D01*
X881319323Y-607250665D01*
X881264146Y-607207801D01*
X881240902Y-607141911D01*
X881243106Y-607111086D01*
X881250500Y-607073918D01*
X881250500Y-606926082D01*
X881250500Y-606926079D01*
X881221659Y-606781092D01*
X881221658Y-606781091D01*
X881221658Y-606781087D01*
X881218305Y-606772993D01*
X881165087Y-606644511D01*
X881165080Y-606644498D01*
X881082951Y-606521584D01*
X881082948Y-606521580D01*
X880978419Y-606417051D01*
X880978415Y-606417048D01*
X880855501Y-606334919D01*
X880855488Y-606334912D01*
X880718917Y-606278343D01*
X880718907Y-606278340D01*
X880573920Y-606249500D01*
X880573918Y-606249500D01*
X880426082Y-606249500D01*
X880426080Y-606249500D01*
X880281092Y-606278340D01*
X880281082Y-606278343D01*
X880144511Y-606334912D01*
X880144498Y-606334919D01*
X880021584Y-606417048D01*
X880021580Y-606417051D01*
X879917051Y-606521580D01*
X879917048Y-606521584D01*
X879834919Y-606644498D01*
X879834912Y-606644511D01*
X879778343Y-606781082D01*
X879778340Y-606781092D01*
X879749500Y-606926079D01*
X879749500Y-606926082D01*
X879749500Y-607073918D01*
X879749500Y-607073920D01*
X879749499Y-607073920D01*
X851350000Y-607073920D01*
X851350000Y-606830000D01*
X850433012Y-606830000D01*
X850465925Y-606772993D01*
X850500000Y-606645826D01*
X850500000Y-606514174D01*
X850465925Y-606387007D01*
X850433012Y-606330000D01*
X851350000Y-606330000D01*
X851350000Y-606073920D01*
X875749499Y-606073920D01*
X875778340Y-606218907D01*
X875778343Y-606218917D01*
X875834912Y-606355488D01*
X875834919Y-606355501D01*
X875917048Y-606478415D01*
X875917051Y-606478419D01*
X876021580Y-606582948D01*
X876021584Y-606582951D01*
X876144498Y-606665080D01*
X876144511Y-606665087D01*
X876281082Y-606721656D01*
X876281087Y-606721658D01*
X876281091Y-606721658D01*
X876281092Y-606721659D01*
X876426079Y-606750500D01*
X876426082Y-606750500D01*
X876573920Y-606750500D01*
X876671462Y-606731096D01*
X876718913Y-606721658D01*
X876855495Y-606665084D01*
X876978416Y-606582951D01*
X877082951Y-606478416D01*
X877165084Y-606355495D01*
X877221658Y-606218913D01*
X877242512Y-606114075D01*
X877250500Y-606073920D01*
X877250500Y-605926079D01*
X877221659Y-605781092D01*
X877221658Y-605781091D01*
X877221658Y-605781087D01*
X877221656Y-605781082D01*
X877165087Y-605644511D01*
X877165080Y-605644498D01*
X877082951Y-605521584D01*
X877082948Y-605521580D01*
X876978419Y-605417051D01*
X876978415Y-605417048D01*
X876855501Y-605334919D01*
X876855488Y-605334912D01*
X876718917Y-605278343D01*
X876718907Y-605278340D01*
X876573920Y-605249500D01*
X876573918Y-605249500D01*
X876426082Y-605249500D01*
X876426080Y-605249500D01*
X876281092Y-605278340D01*
X876281082Y-605278343D01*
X876144511Y-605334912D01*
X876144498Y-605334919D01*
X876021584Y-605417048D01*
X876021580Y-605417051D01*
X875917051Y-605521580D01*
X875917048Y-605521584D01*
X875834919Y-605644498D01*
X875834912Y-605644511D01*
X875778343Y-605781082D01*
X875778340Y-605781092D01*
X875749500Y-605926079D01*
X875749500Y-605926082D01*
X875749500Y-606073918D01*
X875749500Y-606073920D01*
X875749499Y-606073920D01*
X851350000Y-606073920D01*
X851350000Y-605682172D01*
X851349999Y-605682155D01*
X851343598Y-605622627D01*
X851343596Y-605622620D01*
X851293354Y-605487913D01*
X851293350Y-605487906D01*
X851207190Y-605372812D01*
X851207187Y-605372809D01*
X851092093Y-605286649D01*
X851092088Y-605286646D01*
X850960528Y-605237577D01*
X850904595Y-605195705D01*
X850880178Y-605130241D01*
X850895030Y-605061968D01*
X850916175Y-605033720D01*
X851030104Y-604919792D01*
X851059166Y-604879792D01*
X851155048Y-604747820D01*
X851155047Y-604747820D01*
X851155051Y-604747816D01*
X851251557Y-604558412D01*
X851317246Y-604356243D01*
X851350500Y-604146287D01*
X851350500Y-603933713D01*
X851348511Y-603921158D01*
X851348510Y-603921153D01*
X871699500Y-603921153D01*
X871699500Y-604078846D01*
X871730261Y-604233489D01*
X871730264Y-604233501D01*
X871790602Y-604379172D01*
X871790609Y-604379185D01*
X871878210Y-604510288D01*
X871878213Y-604510292D01*
X871989707Y-604621786D01*
X871989711Y-604621789D01*
X872120814Y-604709390D01*
X872120827Y-604709397D01*
X872213590Y-604747820D01*
X872266503Y-604769737D01*
X872421153Y-604800499D01*
X872421156Y-604800500D01*
X872421158Y-604800500D01*
X872578844Y-604800500D01*
X872578845Y-604800499D01*
X872733497Y-604769737D01*
X872879179Y-604709394D01*
X873010289Y-604621789D01*
X873121789Y-604510289D01*
X873209394Y-604379179D01*
X873269737Y-604233497D01*
X873300500Y-604078842D01*
X873300500Y-603921158D01*
X873300500Y-603921155D01*
X873300499Y-603921153D01*
X873269738Y-603766510D01*
X873269737Y-603766503D01*
X873269735Y-603766498D01*
X873209397Y-603620827D01*
X873209390Y-603620814D01*
X873178056Y-603573920D01*
X877749499Y-603573920D01*
X877778340Y-603718907D01*
X877778343Y-603718917D01*
X877834912Y-603855488D01*
X877834919Y-603855501D01*
X877917048Y-603978415D01*
X877917051Y-603978419D01*
X878021580Y-604082948D01*
X878021584Y-604082951D01*
X878144498Y-604165080D01*
X878144511Y-604165087D01*
X878281082Y-604221656D01*
X878281087Y-604221658D01*
X878281091Y-604221658D01*
X878281092Y-604221659D01*
X878426079Y-604250500D01*
X878426082Y-604250500D01*
X878573920Y-604250500D01*
X878671462Y-604231096D01*
X878718913Y-604221658D01*
X878855495Y-604165084D01*
X878978416Y-604082951D01*
X879082951Y-603978416D01*
X879165084Y-603855495D01*
X879221658Y-603718913D01*
X879250500Y-603573918D01*
X879250500Y-603426082D01*
X879250500Y-603426079D01*
X879221659Y-603281092D01*
X879221658Y-603281091D01*
X879221658Y-603281087D01*
X879221656Y-603281082D01*
X879165087Y-603144511D01*
X879165080Y-603144498D01*
X879082951Y-603021584D01*
X879082948Y-603021580D01*
X878978419Y-602917051D01*
X878978415Y-602917048D01*
X878855501Y-602834919D01*
X878855488Y-602834912D01*
X878718917Y-602778343D01*
X878718907Y-602778340D01*
X878573920Y-602749500D01*
X878573918Y-602749500D01*
X878426082Y-602749500D01*
X878426080Y-602749500D01*
X878281092Y-602778340D01*
X878281082Y-602778343D01*
X878144511Y-602834912D01*
X878144498Y-602834919D01*
X878021584Y-602917048D01*
X878021580Y-602917051D01*
X877917051Y-603021580D01*
X877917048Y-603021584D01*
X877834919Y-603144498D01*
X877834912Y-603144511D01*
X877778343Y-603281082D01*
X877778340Y-603281092D01*
X877749500Y-603426079D01*
X877749500Y-603426082D01*
X877749500Y-603573918D01*
X877749500Y-603573920D01*
X877749499Y-603573920D01*
X873178056Y-603573920D01*
X873121790Y-603489712D01*
X873121786Y-603489707D01*
X873010292Y-603378213D01*
X873010288Y-603378210D01*
X872879185Y-603290609D01*
X872879172Y-603290602D01*
X872733501Y-603230264D01*
X872733489Y-603230261D01*
X872578845Y-603199500D01*
X872578842Y-603199500D01*
X872421158Y-603199500D01*
X872421155Y-603199500D01*
X872266510Y-603230261D01*
X872266498Y-603230264D01*
X872120827Y-603290602D01*
X872120814Y-603290609D01*
X871989711Y-603378210D01*
X871989707Y-603378213D01*
X871878213Y-603489707D01*
X871878210Y-603489711D01*
X871790609Y-603620814D01*
X871790602Y-603620827D01*
X871730264Y-603766498D01*
X871730261Y-603766510D01*
X871699500Y-603921153D01*
X851348510Y-603921153D01*
X851324016Y-603766503D01*
X851317246Y-603723757D01*
X851251557Y-603521588D01*
X851155051Y-603332184D01*
X851155049Y-603332181D01*
X851155048Y-603332179D01*
X851030109Y-603160213D01*
X850879786Y-603009890D01*
X850707820Y-602884951D01*
X850707115Y-602884591D01*
X850699054Y-602880485D01*
X850648259Y-602832512D01*
X850631463Y-602764692D01*
X850653999Y-602698556D01*
X850699054Y-602659515D01*
X850707816Y-602655051D01*
X850762876Y-602615048D01*
X850819485Y-602573920D01*
X879249499Y-602573920D01*
X879278340Y-602718907D01*
X879278343Y-602718917D01*
X879334912Y-602855488D01*
X879334919Y-602855501D01*
X879417048Y-602978415D01*
X879417051Y-602978419D01*
X879521580Y-603082948D01*
X879521584Y-603082951D01*
X879644498Y-603165080D01*
X879644511Y-603165087D01*
X879781082Y-603221656D01*
X879781087Y-603221658D01*
X879781091Y-603221658D01*
X879781092Y-603221659D01*
X879926079Y-603250500D01*
X879926082Y-603250500D01*
X880073920Y-603250500D01*
X880175664Y-603230261D01*
X880218913Y-603221658D01*
X880355495Y-603165084D01*
X880478416Y-603082951D01*
X880582951Y-602978416D01*
X880665084Y-602855495D01*
X880669452Y-602844951D01*
X880697042Y-602778342D01*
X880721658Y-602718913D01*
X880733473Y-602659516D01*
X880750500Y-602573920D01*
X880750500Y-602426079D01*
X880721659Y-602281092D01*
X880721658Y-602281091D01*
X880721658Y-602281087D01*
X880691310Y-602207820D01*
X880665087Y-602144511D01*
X880665080Y-602144498D01*
X880582951Y-602021584D01*
X880582948Y-602021580D01*
X880478419Y-601917051D01*
X880478415Y-601917048D01*
X880355501Y-601834919D01*
X880355488Y-601834912D01*
X880218917Y-601778343D01*
X880218907Y-601778340D01*
X880073920Y-601749500D01*
X880073918Y-601749500D01*
X879926082Y-601749500D01*
X879926080Y-601749500D01*
X879781092Y-601778340D01*
X879781082Y-601778343D01*
X879644511Y-601834912D01*
X879644498Y-601834919D01*
X879521584Y-601917048D01*
X879521580Y-601917051D01*
X879417051Y-602021580D01*
X879417048Y-602021584D01*
X879334919Y-602144498D01*
X879334912Y-602144511D01*
X879278343Y-602281082D01*
X879278340Y-602281092D01*
X879249500Y-602426079D01*
X879249500Y-602426082D01*
X879249500Y-602573918D01*
X879249500Y-602573920D01*
X879249499Y-602573920D01*
X850819485Y-602573920D01*
X850879786Y-602530109D01*
X850879788Y-602530106D01*
X850879792Y-602530104D01*
X851030104Y-602379792D01*
X851155051Y-602207816D01*
X851251557Y-602018412D01*
X851317246Y-601816243D01*
X851350500Y-601606287D01*
X851350500Y-601393713D01*
X851317246Y-601183757D01*
X851251557Y-600981588D01*
X851155051Y-600792184D01*
X851155049Y-600792181D01*
X851155048Y-600792179D01*
X851030109Y-600620213D01*
X850879786Y-600469890D01*
X850707820Y-600344951D01*
X850707115Y-600344591D01*
X850699054Y-600340485D01*
X850648259Y-600292512D01*
X850631463Y-600224692D01*
X850653999Y-600158556D01*
X850699054Y-600119515D01*
X850707816Y-600115051D01*
X850762876Y-600075048D01*
X850879786Y-599990109D01*
X850879788Y-599990106D01*
X850879792Y-599990104D01*
X851030104Y-599839792D01*
X851030106Y-599839788D01*
X851030109Y-599839786D01*
X851155048Y-599667820D01*
X851155047Y-599667820D01*
X851155051Y-599667816D01*
X851251557Y-599478412D01*
X851317246Y-599276243D01*
X851350500Y-599066287D01*
X851350500Y-598853713D01*
X851317246Y-598643757D01*
X851251557Y-598441588D01*
X851155051Y-598252184D01*
X851155049Y-598252181D01*
X851155048Y-598252179D01*
X851030109Y-598080213D01*
X850879786Y-597929890D01*
X850707820Y-597804951D01*
X850707115Y-597804591D01*
X850699054Y-597800485D01*
X850648259Y-597752512D01*
X850631463Y-597684692D01*
X850653999Y-597618556D01*
X850699054Y-597579515D01*
X850707816Y-597575051D01*
X850849527Y-597472093D01*
X850879786Y-597450109D01*
X850879788Y-597450106D01*
X850879792Y-597450104D01*
X850947994Y-597381902D01*
X869999500Y-597381902D01*
X869999500Y-597618097D01*
X870036446Y-597851368D01*
X870109433Y-598075996D01*
X870178825Y-598212184D01*
X870216657Y-598286433D01*
X870355483Y-598477510D01*
X870522490Y-598644517D01*
X870713567Y-598783343D01*
X870773172Y-598813713D01*
X870924003Y-598890566D01*
X870924005Y-598890566D01*
X870924008Y-598890568D01*
X871044412Y-598929689D01*
X871148631Y-598963553D01*
X871381903Y-599000500D01*
X871381908Y-599000500D01*
X871618097Y-599000500D01*
X871851368Y-598963553D01*
X872075992Y-598890568D01*
X872226828Y-598813713D01*
X918149500Y-598813713D01*
X918149500Y-599026286D01*
X918182753Y-599236239D01*
X918248444Y-599438414D01*
X918344951Y-599627820D01*
X918469890Y-599799786D01*
X918620213Y-599950109D01*
X918792182Y-600075050D01*
X918800946Y-600079516D01*
X918851742Y-600127491D01*
X918868536Y-600195312D01*
X918845998Y-600261447D01*
X918800946Y-600300484D01*
X918792182Y-600304949D01*
X918620213Y-600429890D01*
X918469890Y-600580213D01*
X918344951Y-600752179D01*
X918248444Y-600941585D01*
X918182753Y-601143760D01*
X918176418Y-601183760D01*
X918149500Y-601353713D01*
X918149500Y-601566287D01*
X918182754Y-601776243D01*
X918183436Y-601778343D01*
X918248444Y-601978414D01*
X918344951Y-602167820D01*
X918469890Y-602339786D01*
X918620213Y-602490109D01*
X918792182Y-602615050D01*
X918800946Y-602619516D01*
X918851742Y-602667491D01*
X918868536Y-602735312D01*
X918845998Y-602801447D01*
X918800946Y-602840484D01*
X918792182Y-602844949D01*
X918620213Y-602969890D01*
X918469890Y-603120213D01*
X918344951Y-603292179D01*
X918248444Y-603481585D01*
X918182753Y-603683760D01*
X918176418Y-603723760D01*
X918149500Y-603893713D01*
X918149500Y-604106287D01*
X918182754Y-604316243D01*
X918245803Y-604510288D01*
X918248444Y-604518414D01*
X918344951Y-604707820D01*
X918469890Y-604879786D01*
X918620213Y-605030109D01*
X918792182Y-605155050D01*
X918800946Y-605159516D01*
X918851742Y-605207491D01*
X918868536Y-605275312D01*
X918845998Y-605341447D01*
X918800946Y-605380484D01*
X918792182Y-605384949D01*
X918620213Y-605509890D01*
X918469890Y-605660213D01*
X918344951Y-605832179D01*
X918248444Y-606021585D01*
X918182753Y-606223760D01*
X918149500Y-606433713D01*
X918149500Y-606646286D01*
X918170849Y-606781082D01*
X918182754Y-606856243D01*
X918222997Y-606980099D01*
X918248444Y-607058414D01*
X918344951Y-607247820D01*
X918469890Y-607419786D01*
X918620213Y-607570109D01*
X918792179Y-607695048D01*
X918792181Y-607695049D01*
X918792184Y-607695051D01*
X918981588Y-607791557D01*
X919183757Y-607857246D01*
X919393713Y-607890500D01*
X919393714Y-607890500D01*
X919606286Y-607890500D01*
X919606287Y-607890500D01*
X919816243Y-607857246D01*
X920018412Y-607791557D01*
X920207816Y-607695051D01*
X920277397Y-607644498D01*
X920379786Y-607570109D01*
X920379788Y-607570106D01*
X920379792Y-607570104D01*
X920530104Y-607419792D01*
X920530106Y-607419788D01*
X920530109Y-607419786D01*
X920652981Y-607250665D01*
X920655051Y-607247816D01*
X920751557Y-607058412D01*
X920817246Y-606856243D01*
X920850500Y-606646287D01*
X920850500Y-606433713D01*
X920817246Y-606223757D01*
X920751557Y-606021588D01*
X920655051Y-605832184D01*
X920655049Y-605832181D01*
X920655048Y-605832179D01*
X920530109Y-605660213D01*
X920379786Y-605509890D01*
X920207820Y-605384951D01*
X920207115Y-605384591D01*
X920199054Y-605380485D01*
X920148259Y-605332512D01*
X920131463Y-605264692D01*
X920153999Y-605198556D01*
X920199054Y-605159515D01*
X920207816Y-605155051D01*
X920290419Y-605095037D01*
X920379786Y-605030109D01*
X920379788Y-605030106D01*
X920379792Y-605030104D01*
X920530104Y-604879792D01*
X920530106Y-604879788D01*
X920530109Y-604879786D01*
X920653902Y-604709397D01*
X920655051Y-604707816D01*
X920751557Y-604518412D01*
X920817246Y-604316243D01*
X920850500Y-604106287D01*
X920850500Y-603893713D01*
X920817246Y-603683757D01*
X920751557Y-603481588D01*
X920655051Y-603292184D01*
X920655049Y-603292181D01*
X920655048Y-603292179D01*
X920530109Y-603120213D01*
X920379786Y-602969890D01*
X920207820Y-602844951D01*
X920207115Y-602844591D01*
X920199054Y-602840485D01*
X920148259Y-602792512D01*
X920131463Y-602724692D01*
X920153999Y-602658556D01*
X920199054Y-602619515D01*
X920207816Y-602615051D01*
X920229789Y-602599086D01*
X920379786Y-602490109D01*
X920379788Y-602490106D01*
X920379792Y-602490104D01*
X920530104Y-602339792D01*
X920530106Y-602339788D01*
X920530109Y-602339786D01*
X920655048Y-602167820D01*
X920655047Y-602167820D01*
X920655051Y-602167816D01*
X920751557Y-601978412D01*
X920817246Y-601776243D01*
X920850500Y-601566287D01*
X920850500Y-601353713D01*
X920817246Y-601143757D01*
X920751557Y-600941588D01*
X920655051Y-600752184D01*
X920655049Y-600752181D01*
X920655048Y-600752179D01*
X920530109Y-600580213D01*
X920379786Y-600429890D01*
X920207820Y-600304951D01*
X920207115Y-600304591D01*
X920199054Y-600300485D01*
X920148259Y-600252512D01*
X920131463Y-600184692D01*
X920153999Y-600118556D01*
X920199054Y-600079515D01*
X920207816Y-600075051D01*
X920229789Y-600059086D01*
X920379786Y-599950109D01*
X920379788Y-599950106D01*
X920379792Y-599950104D01*
X920530104Y-599799792D01*
X920530106Y-599799788D01*
X920530109Y-599799786D01*
X920655048Y-599627820D01*
X920655047Y-599627820D01*
X920655051Y-599627816D01*
X920751557Y-599438412D01*
X920817246Y-599236243D01*
X920850500Y-599026287D01*
X920850500Y-598813713D01*
X920817246Y-598603757D01*
X920751557Y-598401588D01*
X920655051Y-598212184D01*
X920655049Y-598212181D01*
X920655048Y-598212179D01*
X920530109Y-598040213D01*
X920416181Y-597926285D01*
X920382696Y-597864962D01*
X920387680Y-597795270D01*
X920429552Y-597739337D01*
X920460529Y-597722422D01*
X920592086Y-597673354D01*
X920592093Y-597673350D01*
X920707187Y-597587190D01*
X920707190Y-597587187D01*
X920793350Y-597472093D01*
X920793354Y-597472086D01*
X920843596Y-597337379D01*
X920843598Y-597337372D01*
X920849999Y-597277844D01*
X920850000Y-597277827D01*
X920850000Y-596630000D01*
X919933012Y-596630000D01*
X919965925Y-596572993D01*
X920000000Y-596445826D01*
X920000000Y-596314174D01*
X919965925Y-596187007D01*
X919933012Y-596130000D01*
X920850000Y-596130000D01*
X920850000Y-595482172D01*
X920849999Y-595482155D01*
X920843598Y-595422627D01*
X920843596Y-595422620D01*
X920793354Y-595287913D01*
X920793350Y-595287906D01*
X920707190Y-595172812D01*
X920707187Y-595172809D01*
X920592093Y-595086649D01*
X920592086Y-595086645D01*
X920457379Y-595036403D01*
X920457372Y-595036401D01*
X920397844Y-595030000D01*
X919750000Y-595030000D01*
X919750000Y-595946988D01*
X919692993Y-595914075D01*
X919565826Y-595880000D01*
X919434174Y-595880000D01*
X919307007Y-595914075D01*
X919250000Y-595946988D01*
X919250000Y-595030000D01*
X918602155Y-595030000D01*
X918542627Y-595036401D01*
X918542620Y-595036403D01*
X918407913Y-595086645D01*
X918407906Y-595086649D01*
X918292812Y-595172809D01*
X918292809Y-595172812D01*
X918206649Y-595287906D01*
X918206645Y-595287913D01*
X918156403Y-595422620D01*
X918156401Y-595422627D01*
X918150000Y-595482155D01*
X918150000Y-596130000D01*
X919066988Y-596130000D01*
X919034075Y-596187007D01*
X919000000Y-596314174D01*
X919000000Y-596445826D01*
X919034075Y-596572993D01*
X919066988Y-596630000D01*
X918150000Y-596630000D01*
X918150000Y-597277844D01*
X918156401Y-597337372D01*
X918156403Y-597337379D01*
X918206645Y-597472086D01*
X918206649Y-597472093D01*
X918292809Y-597587187D01*
X918292812Y-597587190D01*
X918407906Y-597673350D01*
X918407913Y-597673354D01*
X918539470Y-597722422D01*
X918595404Y-597764293D01*
X918619821Y-597829758D01*
X918604969Y-597898031D01*
X918583819Y-597926285D01*
X918469889Y-598040215D01*
X918344951Y-598212179D01*
X918248444Y-598401585D01*
X918182753Y-598603760D01*
X918149500Y-598813713D01*
X872226828Y-598813713D01*
X872286433Y-598783343D01*
X872477510Y-598644517D01*
X872644517Y-598477510D01*
X872783343Y-598286433D01*
X872890568Y-598075992D01*
X872963553Y-597851368D01*
X872972438Y-597795270D01*
X873000500Y-597618097D01*
X873000500Y-597381902D01*
X872963553Y-597148631D01*
X872949808Y-597106330D01*
X872890568Y-596924008D01*
X872783343Y-596713567D01*
X872644517Y-596522490D01*
X872477510Y-596355483D01*
X872286433Y-596216657D01*
X872228242Y-596187007D01*
X872075996Y-596109433D01*
X871851368Y-596036446D01*
X871692940Y-596011354D01*
X871618097Y-595999500D01*
X871618092Y-595999500D01*
X871381908Y-595999500D01*
X871381903Y-595999500D01*
X871148631Y-596036446D01*
X870924003Y-596109433D01*
X870713566Y-596216657D01*
X870604550Y-596295862D01*
X870522490Y-596355483D01*
X870522488Y-596355485D01*
X870522487Y-596355485D01*
X870355485Y-596522487D01*
X870355485Y-596522488D01*
X870355483Y-596522490D01*
X870295862Y-596604550D01*
X870216657Y-596713566D01*
X870109433Y-596924003D01*
X870036446Y-597148631D01*
X869999500Y-597381902D01*
X850947994Y-597381902D01*
X851030104Y-597299792D01*
X851034463Y-597293793D01*
X851155048Y-597127820D01*
X851155047Y-597127820D01*
X851155051Y-597127816D01*
X851251557Y-596938412D01*
X851317246Y-596736243D01*
X851350500Y-596526287D01*
X851350500Y-596313713D01*
X851317246Y-596103757D01*
X851251557Y-595901588D01*
X851155051Y-595712184D01*
X851155049Y-595712181D01*
X851155048Y-595712179D01*
X851030109Y-595540213D01*
X850879786Y-595389890D01*
X850707820Y-595264951D01*
X850518414Y-595168444D01*
X850518413Y-595168443D01*
X850518412Y-595168443D01*
X850316243Y-595102754D01*
X850316241Y-595102753D01*
X850316240Y-595102753D01*
X850154957Y-595077208D01*
X850106287Y-595069500D01*
X849893713Y-595069500D01*
X849845042Y-595077208D01*
X849683760Y-595102753D01*
X849481585Y-595168444D01*
X849292179Y-595264951D01*
X849120213Y-595389890D01*
X848969890Y-595540213D01*
X848844951Y-595712179D01*
X848748444Y-595901585D01*
X848682753Y-596103760D01*
X848649500Y-596313713D01*
X848000000Y-596313713D01*
X848000000Y-594624500D01*
X848019685Y-594557461D01*
X848072489Y-594511706D01*
X848124000Y-594500500D01*
X879963388Y-594500500D01*
X880030427Y-594520185D01*
G37*
%TD.AperFunction*%
%TA.AperFunction,Conductor*%
G36*
X881916936Y-594520185D02*
G01*
X881962691Y-594572989D01*
X881972635Y-594642147D01*
X881943610Y-594705703D01*
X881924208Y-594723766D01*
X881832455Y-594792452D01*
X881832452Y-594792455D01*
X881746206Y-594907664D01*
X881746202Y-594907671D01*
X881695908Y-595042517D01*
X881691164Y-595086649D01*
X881689501Y-595102123D01*
X881689500Y-595102135D01*
X881689500Y-595112690D01*
X881669815Y-595179729D01*
X881653181Y-595200371D01*
X880982962Y-595870590D01*
X880965925Y-595807007D01*
X880900099Y-595692993D01*
X880807007Y-595599901D01*
X880692993Y-595534075D01*
X880629409Y-595517037D01*
X881261716Y-594884728D01*
X881207550Y-594845375D01*
X881018217Y-594748904D01*
X880998294Y-594742431D01*
X880940619Y-594702994D01*
X880913420Y-594638635D01*
X880925335Y-594569789D01*
X880972579Y-594518313D01*
X881036612Y-594500500D01*
X881849897Y-594500500D01*
X881916936Y-594520185D01*
G37*
%TD.AperFunction*%
%TD*%
M02*
